<?xml version="1.0" encoding="UTF-8" standalone="no"?>
<!DOCTYPE svg PUBLIC "-//W3C//DTD SVG 1.1//EN" "http://www.w3.org/Graphics/SVG/1.1/DTD/svg11.dtd">
<svg xmlns="http://www.w3.org/2000/svg" version="1.1" viewBox="0.00 0.00 38.00 38.00">
<g stroke-width="2.00" fill="none" stroke-linecap="butt">
<path stroke="#266141" vector-effect="non-scaling-stroke" d="
  M 36.0131 9.3003
  A 7.35 7.35 0.0 0 0 28.6503 1.9631
  L 9.3103 1.9969
  A 7.35 7.35 0.0 0 0 1.9731 9.3597
  L 2.0069 28.6997
  A 7.35 7.35 0.0 0 0 9.3697 36.0369
  L 28.7097 36.0031
  A 7.35 7.35 0.0 0 0 36.0469 28.6403
  L 36.0131 9.3003"
/>
<path stroke="#244b36" vector-effect="non-scaling-stroke" d="
  M 24.13 27.98
  L 8.76 28.11
  A 0.68 0.67 0.0 0 0 8.08 28.78
  L 8.08 29.18
  A 0.73 0.73 0.0 0 0 8.81 29.91
  L 31.22 29.91
  A 0.66 0.66 0.0 0 0 31.88 29.25
  L 31.88 28.87
  A 0.73 0.73 0.0 0 0 31.19 28.14
  L 26.38 27.82"
/>
<path stroke="#266141" vector-effect="non-scaling-stroke" d="
  M 26.38 27.82
  L 20.92 18.59
  A 0.54 0.54 0.0 0 1 21.38 17.78
  L 23.10 17.78
  A 1.05 1.05 0.0 0 0 24.02 17.24
  Q 25.44 14.61 28.95 13.84
  A 0.86 0.86 0.0 0 0 29.36 12.38
  Q 24.01 7.21 16.70 9.50
  A 1.17 1.17 0.0 0 1 15.69 9.35
  Q 15.39 9.16 14.91 8.73
  A 0.79 0.76 8.8 0 0 13.67 9.61
  Q 13.93 10.14 13.86 10.64
  A 1.25 1.24 -15.4 0 1 13.40 11.44
  Q 7.30 16.30 9.73 23.98
  A 0.82 0.82 0.0 0 0 11.17 24.23
  Q 13.41 21.27 16.45 21.64
  A 1.07 1.07 0.0 0 0 17.42 21.23
  Q 18.03 20.43 18.31 19.55
  A 0.46 0.46 0.0 0 1 19.14 19.46
  L 24.13 27.98"
/>
<path stroke="#2a8653" vector-effect="non-scaling-stroke" d="
  M 26.38 27.82
  Q 25.12 28.11 24.13 27.98"
/>
<path stroke="#276c46" vector-effect="non-scaling-stroke" d="
  M 19.45 10.99
  A 0.27 0.27 0.0 0 0 19.39 11.48
  Q 21.40 12.70 22.76 14.47
  A 0.61 0.61 0.0 0 0 23.67 14.53
  L 25.72 12.47
  A 0.38 0.37 34.1 0 0 25.60 11.86
  Q 21.83 10.19 19.45 10.99"
/>
<path stroke="#276c46" vector-effect="non-scaling-stroke" d="
  M 18.79 16.71
  Q 19.68 16.21 20.61 15.71
  A 0.45 0.45 0.0 0 0 20.71 14.99
  Q 18.99 13.29 16.51 12.16
  C 16.47 12.15 16.31 12.18 16.26 12.20
  C 16.22 12.23 16.11 12.35 16.10 12.39
  Q 15.77 15.10 16.33 17.45
  A 0.45 0.45 0.0 0 0 17.00 17.74
  Q 17.91 17.20 18.79 16.71"
/>
<path stroke="#276c46" vector-effect="non-scaling-stroke" d="
  M 13.23 13.88
  Q 11.21 15.70 10.78 20.14
  A 0.41 0.40 85.3 0 0 11.29 20.57
  L 14.32 19.74
  A 0.66 0.66 0.0 0 0 14.75 18.85
  Q 13.80 16.63 13.72 14.09
  A 0.29 0.29 0.0 0 0 13.23 13.88"
/>
</g>
<path fill="#2c9c5e" d="
  M 29.90 0.00
  Q 36.55 1.31 38.00 8.04
  L 38.00 29.90
  Q 36.69 36.54 29.95 38.00
  L 8.10 38.00
  Q 1.46 36.68 0.00 29.95
  L 0.00 8.11
  Q 1.33 1.45 8.04 0.00
  L 29.90 0.00
  Z
  M 36.0131 9.3003
  A 7.35 7.35 0.0 0 0 28.6503 1.9631
  L 9.3103 1.9969
  A 7.35 7.35 0.0 0 0 1.9731 9.3597
  L 2.0069 28.6997
  A 7.35 7.35 0.0 0 0 9.3697 36.0369
  L 28.7097 36.0031
  A 7.35 7.35 0.0 0 0 36.0469 28.6403
  L 36.0131 9.3003
  Z"
/>
<path fill="#202623" d="
  M 36.0469 28.6403
  A 7.35 7.35 0.0 0 1 28.7097 36.0031
  L 9.3697 36.0369
  A 7.35 7.35 0.0 0 1 2.0069 28.6997
  L 1.9731 9.3597
  A 7.35 7.35 0.0 0 1 9.3103 1.9969
  L 28.6503 1.9631
  A 7.35 7.35 0.0 0 1 36.0131 9.3003
  L 36.0469 28.6403
  Z
  M 24.13 27.98
  L 8.76 28.11
  A 0.68 0.67 0.0 0 0 8.08 28.78
  L 8.08 29.18
  A 0.73 0.73 0.0 0 0 8.81 29.91
  L 31.22 29.91
  A 0.66 0.66 0.0 0 0 31.88 29.25
  L 31.88 28.87
  A 0.73 0.73 0.0 0 0 31.19 28.14
  L 26.38 27.82
  L 20.92 18.59
  A 0.54 0.54 0.0 0 1 21.38 17.78
  L 23.10 17.78
  A 1.05 1.05 0.0 0 0 24.02 17.24
  Q 25.44 14.61 28.95 13.84
  A 0.86 0.86 0.0 0 0 29.36 12.38
  Q 24.01 7.21 16.70 9.50
  A 1.17 1.17 0.0 0 1 15.69 9.35
  Q 15.39 9.16 14.91 8.73
  A 0.79 0.76 8.8 0 0 13.67 9.61
  Q 13.93 10.14 13.86 10.64
  A 1.25 1.24 -15.4 0 1 13.40 11.44
  Q 7.30 16.30 9.73 23.98
  A 0.82 0.82 0.0 0 0 11.17 24.23
  Q 13.41 21.27 16.45 21.64
  A 1.07 1.07 0.0 0 0 17.42 21.23
  Q 18.03 20.43 18.31 19.55
  A 0.46 0.46 0.0 0 1 19.14 19.46
  L 24.13 27.98
  Z"
/>
<path fill="#2c9c5e" d="
  M 26.38 27.82
  Q 25.12 28.11 24.13 27.98
  L 19.14 19.46
  A 0.46 0.46 0.0 0 0 18.31 19.55
  Q 18.03 20.43 17.42 21.23
  A 1.07 1.07 0.0 0 1 16.45 21.64
  Q 13.41 21.27 11.17 24.23
  A 0.82 0.82 0.0 0 1 9.73 23.98
  Q 7.30 16.30 13.40 11.44
  A 1.25 1.24 -15.4 0 0 13.86 10.64
  Q 13.93 10.14 13.67 9.61
  A 0.79 0.76 8.8 0 1 14.91 8.73
  Q 15.39 9.16 15.69 9.35
  A 1.17 1.17 0.0 0 0 16.70 9.50
  Q 24.01 7.21 29.36 12.38
  A 0.86 0.86 0.0 0 1 28.95 13.84
  Q 25.44 14.61 24.02 17.24
  A 1.05 1.05 0.0 0 1 23.10 17.78
  L 21.38 17.78
  A 0.54 0.54 0.0 0 0 20.92 18.59
  L 26.38 27.82
  Z
  M 19.45 10.99
  A 0.27 0.27 0.0 0 0 19.39 11.48
  Q 21.40 12.70 22.76 14.47
  A 0.61 0.61 0.0 0 0 23.67 14.53
  L 25.72 12.47
  A 0.38 0.37 34.1 0 0 25.60 11.86
  Q 21.83 10.19 19.45 10.99
  Z
  M 18.79 16.71
  Q 19.68 16.21 20.61 15.71
  A 0.45 0.45 0.0 0 0 20.71 14.99
  Q 18.99 13.29 16.51 12.16
  C 16.47 12.15 16.31 12.18 16.26 12.20
  C 16.22 12.23 16.11 12.35 16.10 12.39
  Q 15.77 15.10 16.33 17.45
  A 0.45 0.45 0.0 0 0 17.00 17.74
  Q 17.91 17.20 18.79 16.71
  Z
  M 13.23 13.88
  Q 11.21 15.70 10.78 20.14
  A 0.41 0.40 85.3 0 0 11.29 20.57
  L 14.32 19.74
  A 0.66 0.66 0.0 0 0 14.75 18.85
  Q 13.80 16.63 13.72 14.09
  A 0.29 0.29 0.0 0 0 13.23 13.88
  Z"
/>
<path fill="#223c2d" d="
  M 19.45 10.99
  Q 21.83 10.19 25.60 11.86
  A 0.38 0.37 34.1 0 1 25.72 12.47
  L 23.67 14.53
  A 0.61 0.61 0.0 0 1 22.76 14.47
  Q 21.40 12.70 19.39 11.48
  A 0.27 0.27 0.0 0 1 19.45 10.99
  Z"
/>
<path fill="#223c2d" d="
  M 18.79 16.71
  Q 17.91 17.20 17.00 17.74
  A 0.45 0.45 0.0 0 1 16.33 17.45
  Q 15.77 15.10 16.10 12.39
  C 16.11 12.35 16.22 12.23 16.26 12.20
  C 16.31 12.18 16.47 12.15 16.51 12.16
  Q 18.99 13.29 20.71 14.99
  A 0.45 0.45 0.0 0 1 20.61 15.71
  Q 19.68 16.21 18.79 16.71
  Z"
/>
<path fill="#223c2d" d="
  M 13.23 13.88
  A 0.29 0.29 0.0 0 1 13.72 14.09
  Q 13.80 16.63 14.75 18.85
  A 0.66 0.66 0.0 0 1 14.32 19.74
  L 11.29 20.57
  A 0.41 0.40 85.3 0 1 10.78 20.14
  Q 11.21 15.70 13.23 13.88
  Z"
/>
<path fill="#276f48" d="
  M 26.38 27.82
  L 31.19 28.14
  A 0.73 0.73 0.0 0 1 31.88 28.87
  L 31.88 29.25
  A 0.66 0.66 0.0 0 1 31.22 29.91
  L 8.81 29.91
  A 0.73 0.73 0.0 0 1 8.08 29.18
  L 8.08 28.78
  A 0.68 0.67 -0.0 0 1 8.76 28.11
  L 24.13 27.98
  Q 25.12 28.11 26.38 27.82
  Z"
/>
</svg>
