<?xml version="1.0" encoding="UTF-8" standalone="no"?>
<!DOCTYPE svg PUBLIC "-//W3C//DTD SVG 1.1//EN" "http://www.w3.org/Graphics/SVG/1.1/DTD/svg11.dtd">
<svg xmlns="http://www.w3.org/2000/svg" version="1.1" viewBox="0.00 0.00 38.00 38.00" width="19" height="19">
<g stroke-width="2.00" fill="none" stroke-linecap="butt">
<path stroke="#266141" vector-effect="non-scaling-stroke" d="
  M 36.0569 9.3197
  A 7.31 7.31 0.0 0 0 28.7597 1.9970
  L 9.3397 1.9631
  A 7.31 7.31 0.0 0 0 2.0170 9.2603
  L 1.9831 28.6803
  A 7.31 7.31 0.0 0 0 9.2803 36.0030
  L 28.7003 36.0369
  A 7.31 7.31 0.0 0 0 36.0230 28.7397
  L 36.0569 9.3197"
/>
<path stroke="#266141" vector-effect="non-scaling-stroke" d="
  M 26.1201 15.0073
  A 0.98 0.98 0.0 0 0 25.1452 14.0222
  L 12.8454 13.9578
  A 0.98 0.98 0.0 0 0 11.8603 14.9327
  L 11.8599 14.9927
  A 0.98 0.98 0.0 0 0 12.8348 15.9778
  L 25.1346 16.0422
  A 0.98 0.98 0.0 0 0 26.1197 15.0673
  L 26.1201 15.0073"
/>
<path stroke="#266141" vector-effect="non-scaling-stroke" d="
  M 26.0501 19.0369
  A 0.94 0.94 0.0 0 0 25.1150 18.0920
  L 12.9152 18.0281
  A 0.94 0.94 0.0 0 0 11.9703 18.9631
  L 11.9699 19.0231
  A 0.94 0.94 0.0 0 0 12.9050 19.9680
  L 25.1048 20.0319
  A 0.94 0.94 0.0 0 0 26.0497 19.0969
  L 26.0501 19.0369"
/>
<path stroke="#266141" vector-effect="non-scaling-stroke" d="
  M 8.04 22.99
  Q 8.03 24.83 8.16 25.49
  A 0.80 0.79 -12.1 0 0 9.13 26.11
  Q 9.67 25.98 9.96 24.79
  A 1.07 1.06 2.5 0 1 10.84 23.99
  Q 11.01 23.97 19.01 23.97
  Q 27.01 23.98 27.18 24.00
  A 1.07 1.06 -2.4 0 1 28.05 24.80
  Q 28.34 25.99 28.88 26.12
  A 0.80 0.79 12.1 0 0 29.85 25.50
  Q 29.98 24.85 29.98 23.00
  Q 29.98 21.16 29.85 20.50
  A 0.80 0.79 -12.1 0 0 28.89 19.88
  Q 28.35 20.01 28.06 21.20
  A 1.07 1.06 2.5 0 1 27.18 22.00
  Q 27.01 22.02 19.01 22.02
  Q 11.01 22.01 10.84 21.99
  A 1.07 1.06 -2.4 0 1 9.96 21.19
  Q 9.67 20.00 9.13 19.87
  A 0.80 0.79 12.1 0 0 8.17 20.49
  Q 8.04 21.14 8.04 22.99"
/>
</g>
<path fill="#2c9c5e" d="
  M 29.90 0.00
  Q 36.54 1.32 38.00 8.05
  L 38.00 29.90
  Q 36.69 36.54 29.95 38.00
  L 8.10 38.00
  Q 1.46 36.68 0.00 29.96
  L 0.00 8.11
  Q 1.32 1.45 8.05 0.00
  L 29.90 0.00
  Z
  M 36.0569 9.3197
  A 7.31 7.31 0.0 0 0 28.7597 1.9970
  L 9.3397 1.9631
  A 7.31 7.31 0.0 0 0 2.0170 9.2603
  L 1.9831 28.6803
  A 7.31 7.31 0.0 0 0 9.2803 36.0030
  L 28.7003 36.0369
  A 7.31 7.31 0.0 0 0 36.0230 28.7397
  L 36.0569 9.3197
  Z"
/>
<path fill="#202623" d="
  M 36.0230 28.7397
  A 7.31 7.31 0.0 0 1 28.7003 36.0369
  L 9.2803 36.0030
  A 7.31 7.31 0.0 0 1 1.9831 28.6803
  L 2.0170 9.2603
  A 7.31 7.31 0.0 0 1 9.3397 1.9631
  L 28.7597 1.9970
  A 7.31 7.31 0.0 0 1 36.0569 9.3197
  L 36.0230 28.7397
  Z
  M 26.1201 15.0073
  A 0.98 0.98 0.0 0 0 25.1452 14.0222
  L 12.8454 13.9578
  A 0.98 0.98 0.0 0 0 11.8603 14.9327
  L 11.8599 14.9927
  A 0.98 0.98 0.0 0 0 12.8348 15.9778
  L 25.1346 16.0422
  A 0.98 0.98 0.0 0 0 26.1197 15.0673
  L 26.1201 15.0073
  Z
  M 26.0501 19.0369
  A 0.94 0.94 0.0 0 0 25.1150 18.0920
  L 12.9152 18.0281
  A 0.94 0.94 0.0 0 0 11.9703 18.9631
  L 11.9699 19.0231
  A 0.94 0.94 0.0 0 0 12.9050 19.9680
  L 25.1048 20.0319
  A 0.94 0.94 0.0 0 0 26.0497 19.0969
  L 26.0501 19.0369
  Z
  M 8.04 22.99
  Q 8.03 24.83 8.16 25.49
  A 0.80 0.79 -12.1 0 0 9.13 26.11
  Q 9.67 25.98 9.96 24.79
  A 1.07 1.06 2.5 0 1 10.84 23.99
  Q 11.01 23.97 19.01 23.97
  Q 27.01 23.98 27.18 24.00
  A 1.07 1.06 -2.4 0 1 28.05 24.80
  Q 28.34 25.99 28.88 26.12
  A 0.80 0.79 12.1 0 0 29.85 25.50
  Q 29.98 24.85 29.98 23.00
  Q 29.98 21.16 29.85 20.50
  A 0.80 0.79 -12.1 0 0 28.89 19.88
  Q 28.35 20.01 28.06 21.20
  A 1.07 1.06 2.5 0 1 27.18 22.00
  Q 27.01 22.02 19.01 22.02
  Q 11.01 22.01 10.84 21.99
  A 1.07 1.06 -2.4 0 1 9.96 21.19
  Q 9.67 20.00 9.13 19.87
  A 0.80 0.79 12.1 0 0 8.17 20.49
  Q 8.04 21.14 8.04 22.99
  Z"
/>
<rect fill="#2c9c5e" x="-7.13" y="-1.01" transform="translate(18.99,15.00) rotate(0.3)" width="14.26" height="2.02" rx="0.98"/>
<rect fill="#2c9c5e" x="-7.04" y="-0.97" transform="translate(19.01,19.03) rotate(0.3)" width="14.08" height="1.94" rx="0.94"/>
<path fill="#2c9c5e" d="
  M 19.01 22.02
  Q 27.01 22.02 27.18 22.00
  A 1.07 1.06 2.5 0 0 28.06 21.20
  Q 28.35 20.01 28.89 19.88
  A 0.80 0.79 -12.1 0 1 29.85 20.50
  Q 29.98 21.16 29.98 23.00
  Q 29.98 24.85 29.85 25.50
  A 0.80 0.79 12.1 0 1 28.88 26.12
  Q 28.34 25.99 28.05 24.80
  A 1.07 1.06 -2.4 0 0 27.18 24.00
  Q 27.01 23.98 19.01 23.97
  Q 11.01 23.97 10.84 23.99
  A 1.07 1.06 2.5 0 0 9.96 24.79
  Q 9.67 25.98 9.13 26.11
  A 0.80 0.79 -12.1 0 1 8.16 25.49
  Q 8.03 24.83 8.04 22.99
  Q 8.04 21.14 8.17 20.49
  A 0.80 0.79 12.1 0 1 9.13 19.87
  Q 9.67 20.00 9.96 21.19
  A 1.07 1.06 -2.4 0 0 10.84 21.99
  Q 11.01 22.01 19.01 22.02
  Z"
/>
</svg>
