<?xml version="1.0" encoding="UTF-8" standalone="no"?>
<!DOCTYPE svg PUBLIC "-//W3C//DTD SVG 1.1//EN" "http://www.w3.org/Graphics/SVG/1.1/DTD/svg11.dtd">
<svg xmlns="http://www.w3.org/2000/svg" version="1.1" viewBox="0.00 0.00 38.00 38.00" width="19" height="19">
<g stroke-width="2.00" fill="none" stroke-linecap="butt">
<path stroke="#243871" vector-effect="non-scaling-stroke" d="
  M 36.0735 9.4495
  A 7.40 7.40 0.0 0 0 28.6994 2.0238
  L 9.4195 1.9565
  A 7.40 7.40 0.0 0 0 1.9937 9.3306
  L 1.9265 28.5705
  A 7.40 7.40 0.0 0 0 9.3006 35.9962
  L 28.5805 36.0635
  A 7.40 7.40 0.0 0 0 36.0063 28.6894
  L 36.0735 9.4495"
/>
<path stroke="#243871" vector-effect="non-scaling-stroke" d="
  M 19.01 27.94
  Q 22.35 27.94 22.37 27.94
  A 1.05 1.04 81.5 0 1 23.21 28.57
  Q 23.29 28.75 23.35 29.56
  A 0.78 0.77 -2.0 0 0 24.13 30.28
  L 27.03 30.28
  A 0.73 0.73 0.0 0 0 27.75 29.65
  C 28.40 24.92 28.05 18.54 27.99 10.83
  C 27.95 6.16 23.04 7.28 19.03 7.27
  C 15.03 7.27 10.11 6.14 10.07 10.81
  C 9.99 18.52 9.63 24.90 10.27 29.63
  A 0.73 0.73 0.0 0 0 10.99 30.26
  L 13.89 30.27
  A 0.78 0.77 2.1 0 0 14.67 29.55
  Q 14.73 28.74 14.81 28.56
  A 1.05 1.04 -81.4 0 1 15.65 27.94
  Q 15.67 27.93 19.01 27.94"
/>
<path stroke="#253c7e" vector-effect="non-scaling-stroke" d="
  M 25.94 10.55
  A 0.77 0.77 0.0 0 0 25.17 9.78
  L 13.21 9.78
  A 0.77 0.77 0.0 0 0 12.44 10.55
  L 12.44 18.73
  A 0.77 0.77 0.0 0 0 13.21 19.50
  L 25.17 19.50
  A 0.77 0.77 0.0 0 0 25.94 18.73
  L 25.94 10.55"
/>
<path stroke="#253c7e" vector-effect="non-scaling-stroke" d="
  M 25.95 22.07
  A 0.59 0.59 0.0 0 0 25.36 21.48
  L 13.06 21.48
  A 0.59 0.59 0.0 0 0 12.47 22.07
  L 12.47 24.93
  A 0.59 0.59 0.0 0 0 13.06 25.52
  L 25.36 25.52
  A 0.59 0.59 0.0 0 0 25.95 24.93
  L 25.95 22.07"
/>
<path stroke="#253c7e" vector-effect="non-scaling-stroke" d="
  M 20.5002 12.2511
  A 0.92 0.92 0.0 0 0 19.5883 11.3231
  L 14.3085 11.2770
  A 0.92 0.92 0.0 0 0 13.3805 12.1889
  L 13.3798 12.2689
  A 0.92 0.92 0.0 0 0 14.2917 13.1969
  L 19.5715 13.2430
  A 0.92 0.92 0.0 0 0 20.4995 12.3311
  L 20.5002 12.2511"
/>
<path stroke="#253c7e" vector-effect="non-scaling-stroke" d="
  M 13.9738 22.6590
  A 1.15 0.98 -122.4 0 0 13.7626 24.1551
  A 1.15 0.98 -122.4 0 0 15.2062 24.6010
  A 1.15 0.98 -122.4 0 0 15.4174 23.1049
  A 1.15 0.98 -122.4 0 0 13.9738 22.6590"
/>
<path stroke="#253c7e" vector-effect="non-scaling-stroke" d="
  M 24.41 23.63
  A 1.04 1.04 0.0 0 0 23.37 22.59
  A 1.04 1.04 0.0 0 0 22.33 23.63
  A 1.04 1.04 0.0 0 0 23.37 24.67
  A 1.04 1.04 0.0 0 0 24.41 23.63"
/>
</g>
<path fill="#284db9" d="
  M 29.90 0.00
  Q 36.54 1.32 38.00 8.05
  L 38.00 29.90
  Q 36.69 36.54 29.95 38.00
  L 8.10 38.00
  Q 1.47 36.68 0.00 29.95
  L 0.00 8.11
  Q 1.33 1.46 8.05 0.00
  L 29.90 0.00
  Z
  M 36.0735 9.4495
  A 7.40 7.40 0.0 0 0 28.6994 2.0238
  L 9.4195 1.9565
  A 7.40 7.40 0.0 0 0 1.9937 9.3306
  L 1.9265 28.5705
  A 7.40 7.40 0.0 0 0 9.3006 35.9962
  L 28.5805 36.0635
  A 7.40 7.40 0.0 0 0 36.0063 28.6894
  L 36.0735 9.4495
  Z"
/>
<path fill="#202228" d="
  M 36.0063 28.6894
  A 7.40 7.40 0.0 0 1 28.5805 36.0635
  L 9.3006 35.9962
  A 7.40 7.40 0.0 0 1 1.9265 28.5705
  L 1.9937 9.3306
  A 7.40 7.40 0.0 0 1 9.4195 1.9565
  L 28.6994 2.0238
  A 7.40 7.40 0.0 0 1 36.0735 9.4495
  L 36.0063 28.6894
  Z
  M 19.01 27.94
  Q 22.35 27.94 22.37 27.94
  A 1.05 1.04 81.5 0 1 23.21 28.57
  Q 23.29 28.75 23.35 29.56
  A 0.78 0.77 -2.0 0 0 24.13 30.28
  L 27.03 30.28
  A 0.73 0.73 0.0 0 0 27.75 29.65
  C 28.40 24.92 28.05 18.54 27.99 10.83
  C 27.95 6.16 23.04 7.28 19.03 7.27
  C 15.03 7.27 10.11 6.14 10.07 10.81
  C 9.99 18.52 9.63 24.90 10.27 29.63
  A 0.73 0.73 0.0 0 0 10.99 30.26
  L 13.89 30.27
  A 0.78 0.77 2.1 0 0 14.67 29.55
  Q 14.73 28.74 14.81 28.56
  A 1.05 1.04 -81.4 0 1 15.65 27.94
  Q 15.67 27.93 19.01 27.94
  Z"
/>
<path fill="#284db9" d="
  M 19.03 7.27
  C 23.04 7.28 27.95 6.16 27.99 10.83
  C 28.05 18.54 28.40 24.92 27.75 29.65
  A 0.73 0.73 0.0 0 1 27.03 30.28
  L 24.13 30.28
  A 0.78 0.77 -2.0 0 1 23.35 29.56
  Q 23.29 28.75 23.21 28.57
  A 1.05 1.04 81.5 0 0 22.37 27.94
  Q 22.35 27.94 19.01 27.94
  Q 15.67 27.93 15.65 27.94
  A 1.05 1.04 -81.4 0 0 14.81 28.56
  Q 14.73 28.74 14.67 29.55
  A 0.78 0.77 2.1 0 1 13.89 30.27
  L 10.99 30.26
  A 0.73 0.73 0.0 0 1 10.27 29.63
  C 9.63 24.90 9.99 18.52 10.07 10.81
  C 10.11 6.14 15.03 7.27 19.03 7.27
  Z
  M 25.94 10.55
  A 0.77 0.77 0.0 0 0 25.17 9.78
  L 13.21 9.78
  A 0.77 0.77 0.0 0 0 12.44 10.55
  L 12.44 18.73
  A 0.77 0.77 0.0 0 0 13.21 19.50
  L 25.17 19.50
  A 0.77 0.77 0.0 0 0 25.94 18.73
  L 25.94 10.55
  Z
  M 25.95 22.07
  A 0.59 0.59 0.0 0 0 25.36 21.48
  L 13.06 21.48
  A 0.59 0.59 0.0 0 0 12.47 22.07
  L 12.47 24.93
  A 0.59 0.59 0.0 0 0 13.06 25.52
  L 25.36 25.52
  A 0.59 0.59 0.0 0 0 25.95 24.93
  L 25.95 22.07
  Z"
/>
<path fill="#212a42" d="
  M 25.94 18.73
  A 0.77 0.77 0.0 0 1 25.17 19.50
  L 13.21 19.50
  A 0.77 0.77 0.0 0 1 12.44 18.73
  L 12.44 10.55
  A 0.77 0.77 0.0 0 1 13.21 9.78
  L 25.17 9.78
  A 0.77 0.77 0.0 0 1 25.94 10.55
  L 25.94 18.73
  Z
  M 20.5002 12.2511
  A 0.92 0.92 0.0 0 0 19.5883 11.3231
  L 14.3085 11.2770
  A 0.92 0.92 0.0 0 0 13.3805 12.1889
  L 13.3798 12.2689
  A 0.92 0.92 0.0 0 0 14.2917 13.1969
  L 19.5715 13.2430
  A 0.92 0.92 0.0 0 0 20.4995 12.3311
  L 20.5002 12.2511
  Z"
/>
<rect fill="#284db9" x="-3.56" y="-0.96" transform="translate(16.94,12.26) rotate(0.5)" width="7.12" height="1.92" rx="0.92"/>
<path fill="#212a42" d="
  M 25.95 24.93
  A 0.59 0.59 0.0 0 1 25.36 25.52
  L 13.06 25.52
  A 0.59 0.59 0.0 0 1 12.47 24.93
  L 12.47 22.07
  A 0.59 0.59 0.0 0 1 13.06 21.48
  L 25.36 21.48
  A 0.59 0.59 0.0 0 1 25.95 22.07
  L 25.95 24.93
  Z
  M 13.9738 22.6590
  A 1.15 0.98 -122.4 0 0 13.7626 24.1551
  A 1.15 0.98 -122.4 0 0 15.2062 24.6010
  A 1.15 0.98 -122.4 0 0 15.4174 23.1049
  A 1.15 0.98 -122.4 0 0 13.9738 22.6590
  Z
  M 24.41 23.63
  A 1.04 1.04 0.0 0 0 23.37 22.59
  A 1.04 1.04 0.0 0 0 22.33 23.63
  A 1.04 1.04 0.0 0 0 23.37 24.67
  A 1.04 1.04 0.0 0 0 24.41 23.63
  Z"
/>
<ellipse fill="#284db9" cx="0.00" cy="0.00" transform="translate(14.59,23.63) rotate(-122.4)" rx="1.15" ry="0.98"/>
<circle fill="#284db9" cx="23.37" cy="23.63" r="1.04"/>
</svg>
