<?xml version="1.0" encoding="UTF-8" standalone="no"?>
<!DOCTYPE svg PUBLIC "-//W3C//DTD SVG 1.1//EN" "http://www.w3.org/Graphics/SVG/1.1/DTD/svg11.dtd">
<svg xmlns="http://www.w3.org/2000/svg" version="1.1" viewBox="0.00 0.00 38.00 38.00">
<g stroke-width="2.00" fill="none" stroke-linecap="butt">
<path stroke="#4d4d52" vector-effect="non-scaling-stroke" d="
  M 36.0269 9.3697
  A 7.34 7.34 0.0 0 0 28.6997 2.0169
  L 9.3597 1.9831
  A 7.34 7.34 0.0 0 0 2.0069 9.3103
  L 1.9731 28.6503
  A 7.34 7.34 0.0 0 0 9.3003 36.0031
  L 28.6403 36.0369
  A 7.34 7.34 0.0 0 0 35.9931 28.7097
  L 36.0269 9.3697"
/>
<path stroke="#4d4d52" vector-effect="non-scaling-stroke" d="
  M 18.45 30.87
  Q 20.67 30.87 22.07 29.99
  Q 29.07 25.58 25.07 17.71
  Q 22.61 12.85 19.22 8.30
  Q 18.87 7.83 18.42 7.83
  Q 17.97 7.83 17.62 8.30
  Q 14.25 12.86 11.80 17.73
  Q 7.82 25.61 14.83 30.00
  Q 16.23 30.88 18.45 30.87"
/>
<path stroke="#55555a" vector-effect="non-scaling-stroke" d="
  M 18.45 28.82
  C 23.56 28.82 25.72 23.71 23.65 19.33
  Q 21.67 15.16 18.65 10.91
  A 0.19 0.09 -1.9 0 0 18.51 10.85
  Q 18.47 10.85 18.44 10.85
  Q 18.41 10.85 18.37 10.85
  A 0.19 0.09 1.9 0 0 18.23 10.91
  Q 15.21 15.16 13.24 19.33
  C 11.17 23.71 13.34 28.82 18.45 28.82"
/>
<path stroke="#55555a" vector-effect="non-scaling-stroke" d="
  M 15.14 25.63
  C 15.83 26.46 17.77 27.64 19.03 27.10
  A 0.75 0.75 0.0 0 0 19.23 25.84
  C 18.74 25.42 17.39 24.95 16.80 24.24
  C 16.21 23.53 16.00 22.12 15.67 21.57
  A 0.75 0.75 0.0 0 0 14.40 21.53
  C 13.64 22.67 14.45 24.80 15.14 25.63"
/>
</g>
<path fill="#76767f" d="
  M 29.90 0.00
  Q 36.54 1.32 38.00 8.04
  L 38.00 29.90
  Q 36.67 36.55 29.96 38.00
  L 8.10 38.00
  Q 1.44 36.68 0.00 29.96
  L 0.00 8.10
  Q 1.32 1.45 8.04 0.00
  L 29.90 0.00
  Z
  M 36.0269 9.3697
  A 7.34 7.34 0.0 0 0 28.6997 2.0169
  L 9.3597 1.9831
  A 7.34 7.34 0.0 0 0 2.0069 9.3103
  L 1.9731 28.6503
  A 7.34 7.34 0.0 0 0 9.3003 36.0031
  L 28.6403 36.0369
  A 7.34 7.34 0.0 0 0 35.9931 28.7097
  L 36.0269 9.3697
  Z"
/>
<path fill="#242425" d="
  M 35.9931 28.7097
  A 7.34 7.34 0.0 0 1 28.6403 36.0369
  L 9.3003 36.0031
  A 7.34 7.34 0.0 0 1 1.9731 28.6503
  L 2.0069 9.3103
  A 7.34 7.34 0.0 0 1 9.3597 1.9831
  L 28.6997 2.0169
  A 7.34 7.34 0.0 0 1 36.0269 9.3697
  L 35.9931 28.7097
  Z
  M 18.45 30.87
  Q 20.67 30.87 22.07 29.99
  Q 29.07 25.58 25.07 17.71
  Q 22.61 12.85 19.22 8.30
  Q 18.87 7.83 18.42 7.83
  Q 17.97 7.83 17.62 8.30
  Q 14.25 12.86 11.80 17.73
  Q 7.82 25.61 14.83 30.00
  Q 16.23 30.88 18.45 30.87
  Z"
/>
<path fill="#76767f" d="
  M 18.42 7.83
  Q 18.87 7.83 19.22 8.30
  Q 22.61 12.85 25.07 17.71
  Q 29.07 25.58 22.07 29.99
  Q 20.67 30.87 18.45 30.87
  Q 16.23 30.88 14.83 30.00
  Q 7.82 25.61 11.80 17.73
  Q 14.25 12.86 17.62 8.30
  Q 17.97 7.83 18.42 7.83
  Z
  M 18.45 28.82
  C 23.56 28.82 25.72 23.71 23.65 19.33
  Q 21.67 15.16 18.65 10.91
  A 0.19 0.09 -1.9 0 0 18.51 10.85
  Q 18.47 10.85 18.44 10.85
  Q 18.41 10.85 18.37 10.85
  A 0.19 0.09 1.9 0 0 18.23 10.91
  Q 15.21 15.16 13.24 19.33
  C 11.17 23.71 13.34 28.82 18.45 28.82
  Z"
/>
<path fill="#333335" d="
  M 18.44 10.85
  Q 18.47 10.85 18.51 10.85
  A 0.19 0.09 -1.9 0 1 18.65 10.91
  Q 21.67 15.16 23.65 19.33
  C 25.72 23.71 23.56 28.82 18.45 28.82
  C 13.34 28.82 11.17 23.71 13.24 19.33
  Q 15.21 15.16 18.23 10.91
  A 0.19 0.09 1.9 0 1 18.37 10.85
  Q 18.41 10.85 18.44 10.85
  Z
  M 15.14 25.63
  C 15.83 26.46 17.77 27.64 19.03 27.10
  A 0.75 0.75 0.0 0 0 19.23 25.84
  C 18.74 25.42 17.39 24.95 16.80 24.24
  C 16.21 23.53 16.00 22.12 15.67 21.57
  A 0.75 0.75 0.0 0 0 14.40 21.53
  C 13.64 22.67 14.45 24.80 15.14 25.63
  Z"
/>
<path fill="#76767f" d="
  M 16.80 24.24
  C 17.39 24.95 18.74 25.42 19.23 25.84
  A 0.75 0.75 0.0 0 1 19.03 27.10
  C 17.77 27.64 15.83 26.46 15.14 25.63
  C 14.45 24.80 13.64 22.67 14.40 21.53
  A 0.75 0.75 0.0 0 1 15.67 21.57
  C 16.00 22.12 16.21 23.53 16.80 24.24
  Z"
/>
</svg>
