<?xml version="1.0" encoding="UTF-8" standalone="no"?>
<!DOCTYPE svg PUBLIC "-//W3C//DTD SVG 1.1//EN" "http://www.w3.org/Graphics/SVG/1.1/DTD/svg11.dtd">
<svg xmlns="http://www.w3.org/2000/svg" version="1.1" viewBox="0.00 0.00 38.00 38.00" width="19" height="19">
<g stroke-width="2.00" fill="none" stroke-linecap="butt">
<path stroke="#243871" vector-effect="non-scaling-stroke" d="
  M 36.0031 9.3103
  A 7.36 7.36 0.0 0 0 28.6303 1.9631
  L 9.2903 1.9969
  A 7.36 7.36 0.0 0 0 1.9431 9.3697
  L 1.9769 28.7097
  A 7.36 7.36 0.0 0 0 9.3497 36.0569
  L 28.6897 36.0231
  A 7.36 7.36 0.0 0 0 36.0369 28.6503
  L 36.0031 9.3103"
/>
<path stroke="#243871" vector-effect="non-scaling-stroke" d="
  M 4.51 21.66
  A 0.82 0.81 -61.1 0 0 4.95 23.19
  Q 6.20 23.11 9.13 22.03
  A 1.83 1.82 43.9 0 1 10.36 22.01
  L 13.77 23.17
  A 1.30 1.26 -43.6 0 0 14.58 23.18
  L 18.39 21.97
  A 1.13 1.08 43.8 0 1 19.10 21.97
  L 22.40 23.10
  A 1.55 1.55 0.0 0 0 24.17 22.53
  L 29.76 14.59
  A 0.35 0.35 0.0 0 0 29.47 14.04
  L 18.50 14.04
  A 0.53 0.52 -0.0 0 1 17.97 13.52
  L 17.97 8.69
  A 0.66 0.66 0.0 0 0 17.31 8.03
  L 13.59 8.03
  A 1.11 1.10 15.3 0 0 12.64 8.57
  L 9.79 13.51
  A 0.86 0.84 -82.1 0 1 9.26 13.92
  Q 8.43 14.14 6.62 14.05
  A 0.80 0.80 0.0 0 0 5.81 15.09
  L 6.89 18.49
  A 0.58 0.58 0.0 0 0 7.62 18.86
  L 8.19 18.68
  A 0.63 0.62 -17.7 0 0 8.60 17.90
  L 8.18 16.59
  A 0.48 0.48 0.0 0 1 8.64 15.96
  L 25.71 15.96
  A 0.38 0.38 0.0 0 1 26.02 16.56
  L 23.15 20.64
  A 0.92 0.91 27.5 0 1 22.10 20.97
  L 20.24 20.32
  A 4.58 4.56 -43.9 0 0 17.34 20.27
  L 14.78 21.09
  A 2.11 2.06 49.1 0 1 13.20 20.96
  Q 9.32 19.01 4.51 21.66"
/>
<path stroke="#243871" vector-effect="non-scaling-stroke" d="
  M 19.6614 17.4839
  A 0.57 0.44 -21.2 0 0 18.9709 17.2798
  A 0.57 0.44 -21.2 0 0 18.5986 17.8961
  A 0.57 0.44 -21.2 0 0 19.2891 18.1002
  A 0.57 0.44 -21.2 0 0 19.6614 17.4839"
/>
<path stroke="#243871" vector-effect="non-scaling-stroke" d="
  M 22.4809 17.5185
  A 0.69 0.56 -9.3 0 0 21.7095 17.0774
  A 0.69 0.56 -9.3 0 0 21.1191 17.7415
  A 0.69 0.56 -9.3 0 0 21.8905 18.1826
  A 0.69 0.56 -9.3 0 0 22.4809 17.5185"
/>
<path stroke="#243871" vector-effect="non-scaling-stroke" d="
  M 18.77 26.34
  Q 19.32 26.34 19.33 26.35
  Q 23.00 28.92 26.54 26.70
  C 28.21 25.65 30.70 27.62 32.46 27.97
  A 0.66 0.66 0.0 0 0 33.17 27.65
  L 33.34 27.36
  A 0.77 0.76 -65.1 0 0 32.94 26.26
  Q 31.14 25.59 29.75 24.85
  C 27.53 23.65 25.64 25.15 23.42 25.80
  A 1.63 1.59 -37.4 0 1 22.19 25.65
  C 21.41 25.21 19.90 24.34 18.77 24.34
  C 17.64 24.34 16.13 25.21 15.34 25.65
  A 1.63 1.59 37.4 0 1 14.12 25.79
  C 11.90 25.14 10.01 23.64 7.79 24.84
  Q 6.40 25.58 4.60 26.24
  A 0.77 0.76 65.2 0 0 4.20 27.34
  L 4.37 27.63
  A 0.66 0.66 0.0 0 0 5.08 27.95
  C 6.84 27.61 9.33 25.64 11.00 26.69
  Q 14.54 28.92 18.21 26.35
  Q 18.22 26.34 18.77 26.34"
/>
<path stroke="#243871" vector-effect="non-scaling-stroke" d="
  M 15.46 14.04
  A 0.59 0.59 0.0 0 0 16.05 13.45
  L 16.05 11.00
  A 1.22 1.21 -30.1 0 0 13.78 10.40
  L 12.04 13.40
  A 0.43 0.43 0.0 0 0 12.41 14.04
  L 15.46 14.04"
/>
</g>
<path fill="#284dba" d="
  M 29.90 0.00
  Q 36.55 1.32 38.00 8.04
  L 38.00 29.90
  Q 36.69 36.54 29.96 38.00
  L 8.10 38.00
  Q 1.47 36.68 0.00 29.95
  L 0.00 8.11
  Q 1.33 1.45 8.04 0.00
  L 29.90 0.00
  Z
  M 36.0031 9.3103
  A 7.36 7.36 0.0 0 0 28.6303 1.9631
  L 9.2903 1.9969
  A 7.36 7.36 0.0 0 0 1.9431 9.3697
  L 1.9769 28.7097
  A 7.36 7.36 0.0 0 0 9.3497 36.0569
  L 28.6897 36.0231
  A 7.36 7.36 0.0 0 0 36.0369 28.6503
  L 36.0031 9.3103
  Z"
/>
<path fill="#202228" d="
  M 36.0369 28.6503
  A 7.36 7.36 0.0 0 1 28.6897 36.0231
  L 9.3497 36.0569
  A 7.36 7.36 0.0 0 1 1.9769 28.7097
  L 1.9431 9.3697
  A 7.36 7.36 0.0 0 1 9.2903 1.9969
  L 28.6303 1.9631
  A 7.36 7.36 0.0 0 1 36.0031 9.3103
  L 36.0369 28.6503
  Z
  M 4.51 21.66
  A 0.82 0.81 -61.1 0 0 4.95 23.19
  Q 6.20 23.11 9.13 22.03
  A 1.83 1.82 43.9 0 1 10.36 22.01
  L 13.77 23.17
  A 1.30 1.26 -43.6 0 0 14.58 23.18
  L 18.39 21.97
  A 1.13 1.08 43.8 0 1 19.10 21.97
  L 22.40 23.10
  A 1.55 1.55 0.0 0 0 24.17 22.53
  L 29.76 14.59
  A 0.35 0.35 0.0 0 0 29.47 14.04
  L 18.50 14.04
  A 0.53 0.52 -0.0 0 1 17.97 13.52
  L 17.97 8.69
  A 0.66 0.66 0.0 0 0 17.31 8.03
  L 13.59 8.03
  A 1.11 1.10 15.3 0 0 12.64 8.57
  L 9.79 13.51
  A 0.86 0.84 -82.1 0 1 9.26 13.92
  Q 8.43 14.14 6.62 14.05
  A 0.80 0.80 0.0 0 0 5.81 15.09
  L 6.89 18.49
  A 0.58 0.58 0.0 0 0 7.62 18.86
  L 8.19 18.68
  A 0.63 0.62 -17.7 0 0 8.60 17.90
  L 8.18 16.59
  A 0.48 0.48 0.0 0 1 8.64 15.96
  L 25.71 15.96
  A 0.38 0.38 0.0 0 1 26.02 16.56
  L 23.15 20.64
  A 0.92 0.91 27.5 0 1 22.10 20.97
  L 20.24 20.32
  A 4.58 4.56 -43.9 0 0 17.34 20.27
  L 14.78 21.09
  A 2.11 2.06 49.1 0 1 13.20 20.96
  Q 9.32 19.01 4.51 21.66
  Z
  M 19.6614 17.4839
  A 0.57 0.44 -21.2 0 0 18.9709 17.2798
  A 0.57 0.44 -21.2 0 0 18.5986 17.8961
  A 0.57 0.44 -21.2 0 0 19.2891 18.1002
  A 0.57 0.44 -21.2 0 0 19.6614 17.4839
  Z
  M 22.4809 17.5185
  A 0.69 0.56 -9.3 0 0 21.7095 17.0774
  A 0.69 0.56 -9.3 0 0 21.1191 17.7415
  A 0.69 0.56 -9.3 0 0 21.8905 18.1826
  A 0.69 0.56 -9.3 0 0 22.4809 17.5185
  Z
  M 18.77 26.34
  Q 19.32 26.34 19.33 26.35
  Q 23.00 28.92 26.54 26.70
  C 28.21 25.65 30.70 27.62 32.46 27.97
  A 0.66 0.66 0.0 0 0 33.17 27.65
  L 33.34 27.36
  A 0.77 0.76 -65.1 0 0 32.94 26.26
  Q 31.14 25.59 29.75 24.85
  C 27.53 23.65 25.64 25.15 23.42 25.80
  A 1.63 1.59 -37.4 0 1 22.19 25.65
  C 21.41 25.21 19.90 24.34 18.77 24.34
  C 17.64 24.34 16.13 25.21 15.34 25.65
  A 1.63 1.59 37.4 0 1 14.12 25.79
  C 11.90 25.14 10.01 23.64 7.79 24.84
  Q 6.40 25.58 4.60 26.24
  A 0.77 0.76 65.2 0 0 4.20 27.34
  L 4.37 27.63
  A 0.66 0.66 0.0 0 0 5.08 27.95
  C 6.84 27.61 9.33 25.64 11.00 26.69
  Q 14.54 28.92 18.21 26.35
  Q 18.22 26.34 18.77 26.34
  Z"
/>
<path fill="#284dba" d="
  M 4.51 21.66
  Q 9.32 19.01 13.20 20.96
  A 2.11 2.06 49.1 0 0 14.78 21.09
  L 17.34 20.27
  A 4.58 4.56 -43.9 0 1 20.24 20.32
  L 22.10 20.97
  A 0.92 0.91 27.5 0 0 23.15 20.64
  L 26.02 16.56
  A 0.38 0.38 0.0 0 0 25.71 15.96
  L 8.64 15.96
  A 0.48 0.48 0.0 0 0 8.18 16.59
  L 8.60 17.90
  A 0.63 0.62 -17.7 0 1 8.19 18.68
  L 7.62 18.86
  A 0.58 0.58 0.0 0 1 6.89 18.49
  L 5.81 15.09
  A 0.80 0.80 0.0 0 1 6.62 14.05
  Q 8.43 14.14 9.26 13.92
  A 0.86 0.84 -82.1 0 0 9.79 13.51
  L 12.64 8.57
  A 1.11 1.10 15.3 0 1 13.59 8.03
  L 17.31 8.03
  A 0.66 0.66 0.0 0 1 17.97 8.69
  L 17.97 13.52
  A 0.53 0.52 0.0 0 0 18.50 14.04
  L 29.47 14.04
  A 0.35 0.35 0.0 0 1 29.76 14.59
  L 24.17 22.53
  A 1.55 1.55 0.0 0 1 22.40 23.10
  L 19.10 21.97
  A 1.13 1.08 43.8 0 0 18.39 21.97
  L 14.58 23.18
  A 1.30 1.26 -43.6 0 1 13.77 23.17
  L 10.36 22.01
  A 1.83 1.82 43.9 0 0 9.13 22.03
  Q 6.20 23.11 4.95 23.19
  A 0.82 0.81 -61.1 0 1 4.51 21.66
  Z
  M 15.46 14.04
  A 0.59 0.59 0.0 0 0 16.05 13.45
  L 16.05 11.00
  A 1.22 1.21 -30.1 0 0 13.78 10.40
  L 12.04 13.40
  A 0.43 0.43 0.0 0 0 12.41 14.04
  L 15.46 14.04
  Z"
/>
<path fill="#202228" d="
  M 12.04 13.40
  L 13.78 10.40
  A 1.22 1.21 -30.1 0 1 16.05 11.00
  L 16.05 13.45
  A 0.59 0.59 0.0 0 1 15.46 14.04
  L 12.41 14.04
  A 0.43 0.43 0.0 0 1 12.04 13.40
  Z"
/>
<ellipse fill="#284dba" cx="0.00" cy="0.00" transform="translate(19.13,17.69) rotate(-21.2)" rx="0.57" ry="0.44"/>
<ellipse fill="#284dba" cx="0.00" cy="0.00" transform="translate(21.80,17.63) rotate(-9.3)" rx="0.69" ry="0.56"/>
<path fill="#284dba" d="
  M 18.77 24.34
  C 19.90 24.34 21.41 25.21 22.19 25.65
  A 1.63 1.59 -37.4 0 0 23.42 25.80
  C 25.64 25.15 27.53 23.65 29.75 24.85
  Q 31.14 25.59 32.94 26.26
  A 0.77 0.76 -65.1 0 1 33.34 27.36
  L 33.17 27.65
  A 0.66 0.66 0.0 0 1 32.46 27.97
  C 30.70 27.62 28.21 25.65 26.54 26.70
  Q 23.00 28.92 19.33 26.35
  Q 19.32 26.34 18.77 26.34
  Q 18.22 26.34 18.21 26.35
  Q 14.54 28.92 11.00 26.69
  C 9.33 25.64 6.84 27.61 5.08 27.95
  A 0.66 0.66 0.0 0 1 4.37 27.63
  L 4.20 27.34
  A 0.77 0.76 65.2 0 1 4.60 26.24
  Q 6.40 25.58 7.79 24.84
  C 10.01 23.64 11.90 25.14 14.12 25.79
  A 1.63 1.59 37.4 0 0 15.34 25.65
  C 16.13 25.21 17.64 24.34 18.77 24.34
  Z"
/>
</svg>
