<?xml version="1.0" encoding="UTF-8" standalone="no"?>
<!DOCTYPE svg PUBLIC "-//W3C//DTD SVG 1.1//EN" "http://www.w3.org/Graphics/SVG/1.1/DTD/svg11.dtd">
<svg xmlns="http://www.w3.org/2000/svg" version="1.1" viewBox="0.00 0.00 38.00 38.00">
<g stroke-width="2.00" fill="none" stroke-linecap="butt">
<path stroke="#266141" vector-effect="non-scaling-stroke" d="
  M 35.9861 9.2806
  A 7.34 7.34 0.0 0 0 28.6206 1.9663
  L 9.2607 2.0339
  A 7.34 7.34 0.0 0 0 1.9463 9.3995
  L 2.0139 28.7394
  A 7.34 7.34 0.0 0 0 9.3794 36.0537
  L 28.7393 35.9861
  A 7.34 7.34 0.0 0 0 36.0537 28.6205
  L 35.9861 9.2806"
/>
<path stroke="#266141" vector-effect="non-scaling-stroke" d="
  M 24.56 21.14
  Q 25.19 20.89 25.54 20.58
  A 0.61 0.60 -35.6 0 0 25.67 19.82
  L 23.17 15.50
  A 0.53 0.53 0.0 0 1 23.46 14.73
  Q 24.70 14.30 24.16 13.43
  Q 21.71 9.45 19.74 6.91
  A 0.76 0.76 0.0 0 0 18.52 6.93
  Q 15.76 10.72 14.32 13.40
  A 0.81 0.70 -73.7 0 0 14.86 14.57
  Q 15.26 14.58 15.38 15.02
  A 0.24 0.20 57.8 0 1 15.36 15.18
  L 12.44 19.82
  A 0.73 0.73 0.0 0 0 12.64 20.80
  L 13.14 21.15
  A 0.58 0.58 0.0 0 1 13.29 21.96
  L 9.85 26.88
  A 0.85 0.85 0.0 0 0 10.55 28.22
  L 15.44 28.22
  A 0.57 0.57 0.0 0 1 16.01 28.79
  L 16.01 30.47
  A 0.76 0.75 -0.0 0 0 16.77 31.22
  L 21.35 31.22
  A 0.62 0.62 0.0 0 0 21.97 30.60
  L 21.97 28.85
  A 0.64 0.64 0.0 0 1 22.61 28.21
  L 27.15 28.21
  A 0.70 0.70 0.0 0 0 27.75 27.16
  L 24.46 21.45
  A 0.22 0.21 -27.6 0 1 24.56 21.14"
/>
<path stroke="#276c46" vector-effect="non-scaling-stroke" d="
  M 24.77 25.92
  L 21.49 20.95
  A 1.57 1.57 0.0 0 1 21.25 19.88
  Q 21.28 19.60 22.30 18.91
  A 0.36 0.36 0.0 0 0 22.41 18.43
  L 19.95 14.16
  A 0.78 0.78 0.0 0 1 20.23 13.10
  L 20.49 12.95
  A 0.70 0.69 -30.0 0 0 20.75 12.00
  L 19.55 9.93
  A 0.37 0.37 0.0 0 0 18.93 9.90
  L 17.46 12.01
  A 0.55 0.54 24.4 0 0 17.78 12.85
  Q 18.98 13.15 18.58 14.00
  Q 18.20 14.78 15.58 18.58
  A 0.57 0.55 -32.8 0 0 15.49 18.97
  Q 15.55 19.47 16.01 19.38
  A 0.82 0.77 -76.4 0 1 16.74 20.67
  Q 13.30 25.38 13.12 25.62
  A 0.39 0.39 0.0 0 0 13.43 26.24
  L 24.60 26.24
  A 0.21 0.21 0.0 0 0 24.77 25.92"
/>
<path stroke="#266141" vector-effect="non-scaling-stroke" d="
  M 19.84 28.46
  A 0.93 0.89 34.0 0 0 18.15 28.75
  Q 18.13 28.93 18.28 29.05
  A 1.10 1.02 39.1 0 0 19.76 28.95
  Q 19.98 28.69 19.84 28.46"
/>
</g>
<path fill="#2c9c5e" d="
  M 29.90 0.00
  Q 36.54 1.32 38.00 8.05
  L 38.00 29.90
  Q 36.68 36.54 29.95 38.00
  L 8.10 38.00
  Q 1.46 36.68 0.00 29.96
  L 0.00 8.11
  Q 1.32 1.46 8.05 0.00
  L 29.90 0.00
  Z
  M 35.9861 9.2806
  A 7.34 7.34 0.0 0 0 28.6206 1.9663
  L 9.2607 2.0339
  A 7.34 7.34 0.0 0 0 1.9463 9.3995
  L 2.0139 28.7394
  A 7.34 7.34 0.0 0 0 9.3794 36.0537
  L 28.7393 35.9861
  A 7.34 7.34 0.0 0 0 36.0537 28.6205
  L 35.9861 9.2806
  Z"
/>
<path fill="#202623" d="
  M 36.0537 28.6205
  A 7.34 7.34 0.0 0 1 28.7393 35.9861
  L 9.3794 36.0537
  A 7.34 7.34 0.0 0 1 2.0139 28.7394
  L 1.9463 9.3995
  A 7.34 7.34 0.0 0 1 9.2607 2.0339
  L 28.6206 1.9663
  A 7.34 7.34 0.0 0 1 35.9861 9.2806
  L 36.0537 28.6205
  Z
  M 24.56 21.14
  Q 25.19 20.89 25.54 20.58
  A 0.61 0.60 -35.6 0 0 25.67 19.82
  L 23.17 15.50
  A 0.53 0.53 0.0 0 1 23.46 14.73
  Q 24.70 14.30 24.16 13.43
  Q 21.71 9.45 19.74 6.91
  A 0.76 0.76 0.0 0 0 18.52 6.93
  Q 15.76 10.72 14.32 13.40
  A 0.81 0.70 -73.7 0 0 14.86 14.57
  Q 15.26 14.58 15.38 15.02
  A 0.24 0.20 57.8 0 1 15.36 15.18
  L 12.44 19.82
  A 0.73 0.73 0.0 0 0 12.64 20.80
  L 13.14 21.15
  A 0.58 0.58 0.0 0 1 13.29 21.96
  L 9.85 26.88
  A 0.85 0.85 0.0 0 0 10.55 28.22
  L 15.44 28.22
  A 0.57 0.57 0.0 0 1 16.01 28.79
  L 16.01 30.47
  A 0.76 0.75 -0.0 0 0 16.77 31.22
  L 21.35 31.22
  A 0.62 0.62 0.0 0 0 21.97 30.60
  L 21.97 28.85
  A 0.64 0.64 0.0 0 1 22.61 28.21
  L 27.15 28.21
  A 0.70 0.70 0.0 0 0 27.75 27.16
  L 24.46 21.45
  A 0.22 0.21 -27.6 0 1 24.56 21.14
  Z"
/>
<path fill="#2c9c5e" d="
  M 24.56 21.14
  A 0.22 0.21 -27.6 0 0 24.46 21.45
  L 27.75 27.16
  A 0.70 0.70 0.0 0 1 27.15 28.21
  L 22.61 28.21
  A 0.64 0.64 0.0 0 0 21.97 28.85
  L 21.97 30.60
  A 0.62 0.62 0.0 0 1 21.35 31.22
  L 16.77 31.22
  A 0.76 0.75 0.0 0 1 16.01 30.47
  L 16.01 28.79
  A 0.57 0.57 0.0 0 0 15.44 28.22
  L 10.55 28.22
  A 0.85 0.85 0.0 0 1 9.85 26.88
  L 13.29 21.96
  A 0.58 0.58 0.0 0 0 13.14 21.15
  L 12.64 20.80
  A 0.73 0.73 0.0 0 1 12.44 19.82
  L 15.36 15.18
  A 0.24 0.20 57.8 0 0 15.38 15.02
  Q 15.26 14.58 14.86 14.57
  A 0.81 0.70 -73.7 0 1 14.32 13.40
  Q 15.76 10.72 18.52 6.93
  A 0.76 0.76 0.0 0 1 19.74 6.91
  Q 21.71 9.45 24.16 13.43
  Q 24.70 14.30 23.46 14.73
  A 0.53 0.53 0.0 0 0 23.17 15.50
  L 25.67 19.82
  A 0.61 0.60 -35.6 0 1 25.54 20.58
  Q 25.19 20.89 24.56 21.14
  Z
  M 24.77 25.92
  L 21.49 20.95
  A 1.57 1.57 0.0 0 1 21.25 19.88
  Q 21.28 19.60 22.30 18.91
  A 0.36 0.36 0.0 0 0 22.41 18.43
  L 19.95 14.16
  A 0.78 0.78 0.0 0 1 20.23 13.10
  L 20.49 12.95
  A 0.70 0.69 -30.0 0 0 20.75 12.00
  L 19.55 9.93
  A 0.37 0.37 0.0 0 0 18.93 9.90
  L 17.46 12.01
  A 0.55 0.54 24.4 0 0 17.78 12.85
  Q 18.98 13.15 18.58 14.00
  Q 18.20 14.78 15.58 18.58
  A 0.57 0.55 -32.8 0 0 15.49 18.97
  Q 15.55 19.47 16.01 19.38
  A 0.82 0.77 -76.4 0 1 16.74 20.67
  Q 13.30 25.38 13.12 25.62
  A 0.39 0.39 0.0 0 0 13.43 26.24
  L 24.60 26.24
  A 0.21 0.21 0.0 0 0 24.77 25.92
  Z
  M 19.84 28.46
  A 0.93 0.89 34.0 0 0 18.15 28.75
  Q 18.13 28.93 18.28 29.05
  A 1.10 1.02 39.1 0 0 19.76 28.95
  Q 19.98 28.69 19.84 28.46
  Z"
/>
<path fill="#223c2d" d="
  M 24.77 25.92
  A 0.21 0.21 0.0 0 1 24.60 26.24
  L 13.43 26.24
  A 0.39 0.39 0.0 0 1 13.12 25.62
  Q 13.30 25.38 16.74 20.67
  A 0.82 0.77 -76.4 0 0 16.01 19.38
  Q 15.55 19.47 15.49 18.97
  A 0.57 0.55 -32.8 0 1 15.58 18.58
  Q 18.20 14.78 18.58 14.00
  Q 18.98 13.15 17.78 12.85
  A 0.55 0.54 24.4 0 1 17.46 12.01
  L 18.93 9.90
  A 0.37 0.37 0.0 0 1 19.55 9.93
  L 20.75 12.00
  A 0.70 0.69 -30.0 0 1 20.49 12.95
  L 20.23 13.10
  A 0.78 0.78 0.0 0 0 19.95 14.16
  L 22.41 18.43
  A 0.36 0.36 0.0 0 1 22.30 18.91
  Q 21.28 19.60 21.25 19.88
  A 1.57 1.57 0.0 0 0 21.49 20.95
  L 24.77 25.92
  Z"
/>
<path fill="#202623" d="
  M 19.84 28.46
  Q 19.98 28.69 19.76 28.95
  A 1.10 1.02 39.1 0 1 18.28 29.05
  Q 18.13 28.93 18.15 28.75
  A 0.93 0.89 34.0 0 1 19.84 28.46
  Z"
/>
</svg>
