<?xml version="1.0" encoding="UTF-8" standalone="no"?>
<!DOCTYPE svg PUBLIC "-//W3C//DTD SVG 1.1//EN" "http://www.w3.org/Graphics/SVG/1.1/DTD/svg11.dtd">
<svg xmlns="http://www.w3.org/2000/svg" version="1.1" viewBox="0.00 0.00 38.00 38.00" width="19" height="19">
<g stroke-width="2.00" fill="none" stroke-linecap="butt">
<path stroke="#266141" vector-effect="non-scaling-stroke" d="
  M 36.0368 9.3797
  A 7.35 7.35 0.0 0 0 28.6997 2.0169
  L 9.3597 1.9831
  A 7.35 7.35 0.0 0 0 1.9969 9.3203
  L 1.9632 28.6403
  A 7.35 7.35 0.0 0 0 9.3003 36.0031
  L 28.6403 36.0369
  A 7.35 7.35 0.0 0 0 36.0031 28.6997
  L 36.0368 9.3797"
/>
<path stroke="#266141" vector-effect="non-scaling-stroke" d="
  M 18.80 21.49
  C 25.59 21.50 25.35 14.34 24.96 9.83
  A 0.83 0.83 0.0 0 0 23.55 9.32
  L 21.79 11.08
  A 0.61 0.61 0.0 0 1 20.86 11.00
  Q 19.40 8.98 18.81 8.98
  Q 18.23 8.97 16.76 11.00
  A 0.61 0.61 0.0 0 1 15.83 11.07
  L 14.07 9.31
  A 0.83 0.83 0.0 0 0 12.66 9.82
  C 12.27 14.33 12.01 21.49 18.80 21.49"
/>
<path stroke="#266141" vector-effect="non-scaling-stroke" d="
  M 8.57 27.99
  Q 10.76 31.33 14.97 32.78
  Q 15.68 33.03 16.12 32.74
  Q 16.49 32.50 16.55 31.74
  Q 16.88 27.31 14.69 23.97
  Q 12.50 20.63 8.29 19.18
  Q 7.58 18.93 7.14 19.22
  Q 6.77 19.46 6.71 20.22
  Q 6.38 24.65 8.57 27.99"
/>
<path stroke="#266141" vector-effect="non-scaling-stroke" d="
  M 28.96 27.97
  Q 31.14 24.61 30.79 20.17
  Q 30.73 19.41 30.35 19.17
  Q 29.91 18.88 29.19 19.14
  Q 24.99 20.61 22.81 23.97
  Q 20.62 27.32 20.98 31.76
  Q 21.04 32.52 21.42 32.77
  Q 21.86 33.05 22.57 32.80
  Q 26.78 31.33 28.96 27.97"
/>
<path stroke="#266141" vector-effect="non-scaling-stroke" d="
  M 19.7326 23.5383
  A 0.95 0.95 0.0 0 0 18.7809 22.5899
  L 18.7009 22.5901
  A 0.95 0.95 0.0 0 0 17.7526 23.5417
  L 17.7674 32.0217
  A 0.95 0.95 0.0 0 0 18.7191 32.9701
  L 18.7991 32.9699
  A 0.95 0.95 0.0 0 0 19.7474 32.0183
  L 19.7326 23.5383"
/>
<path stroke="#276c46" vector-effect="non-scaling-stroke" d="
  M 14.36 13.63
  Q 14.55 16.59 15.22 17.53
  Q 17.39 20.53 20.70 19.12
  A 2.96 2.91 11.9 0 0 21.56 18.57
  Q 23.54 16.76 22.86 13.59
  A 0.29 0.29 0.0 0 0 22.35 13.46
  Q 21.75 14.16 21.34 14.19
  Q 20.90 14.22 20.45 13.50
  Q 19.97 12.74 19.16 12.04
  A 0.56 0.56 0.0 0 0 18.39 12.07
  L 16.84 13.61
  A 0.93 0.93 0.0 0 1 15.52 13.61
  L 15.17 13.27
  A 0.47 0.47 0.0 0 0 14.36 13.63"
/>
<path stroke="#276c46" vector-effect="non-scaling-stroke" d="
  M 8.9737 22.0320
  A 4.80 1.55 -123.6 0 0 10.3390 26.8878
  A 4.80 1.55 -123.6 0 0 14.2863 30.0280
  A 4.80 1.55 -123.6 0 0 12.9210 25.1722
  A 4.80 1.55 -123.6 0 0 8.9737 22.0320"
/>
<path stroke="#276c46" vector-effect="non-scaling-stroke" d="
  M 28.5433 21.9860
  A 4.82 1.55 -56.6 0 0 24.5960 25.1568
  A 4.82 1.55 -56.6 0 0 23.2367 30.0340
  A 4.82 1.55 -56.6 0 0 27.1840 26.8632
  A 4.82 1.55 -56.6 0 0 28.5433 21.9860"
/>
</g>
<path fill="#2c9c5e" d="
  M 29.90 0.00
  Q 36.55 1.32 38.00 8.05
  L 38.00 29.90
  Q 36.68 36.54 29.95 38.00
  L 8.10 38.00
  Q 1.45 36.67 0.00 29.96
  L 0.00 8.11
  Q 1.33 1.45 8.04 0.00
  L 29.90 0.00
  Z
  M 36.0368 9.3797
  A 7.35 7.35 0.0 0 0 28.6997 2.0169
  L 9.3597 1.9831
  A 7.35 7.35 0.0 0 0 1.9969 9.3203
  L 1.9632 28.6403
  A 7.35 7.35 0.0 0 0 9.3003 36.0031
  L 28.6403 36.0369
  A 7.35 7.35 0.0 0 0 36.0031 28.6997
  L 36.0368 9.3797
  Z"
/>
<path fill="#202623" d="
  M 36.0031 28.6997
  A 7.35 7.35 0.0 0 1 28.6403 36.0369
  L 9.3003 36.0031
  A 7.35 7.35 0.0 0 1 1.9632 28.6403
  L 1.9969 9.3203
  A 7.35 7.35 0.0 0 1 9.3597 1.9831
  L 28.6997 2.0169
  A 7.35 7.35 0.0 0 1 36.0368 9.3797
  L 36.0031 28.6997
  Z
  M 18.80 21.49
  C 25.59 21.50 25.35 14.34 24.96 9.83
  A 0.83 0.83 0.0 0 0 23.55 9.32
  L 21.79 11.08
  A 0.61 0.61 0.0 0 1 20.86 11.00
  Q 19.40 8.98 18.81 8.98
  Q 18.23 8.97 16.76 11.00
  A 0.61 0.61 0.0 0 1 15.83 11.07
  L 14.07 9.31
  A 0.83 0.83 0.0 0 0 12.66 9.82
  C 12.27 14.33 12.01 21.49 18.80 21.49
  Z
  M 8.57 27.99
  Q 10.76 31.33 14.97 32.78
  Q 15.68 33.03 16.12 32.74
  Q 16.49 32.50 16.55 31.74
  Q 16.88 27.31 14.69 23.97
  Q 12.50 20.63 8.29 19.18
  Q 7.58 18.93 7.14 19.22
  Q 6.77 19.46 6.71 20.22
  Q 6.38 24.65 8.57 27.99
  Z
  M 28.96 27.97
  Q 31.14 24.61 30.79 20.17
  Q 30.73 19.41 30.35 19.17
  Q 29.91 18.88 29.19 19.14
  Q 24.99 20.61 22.81 23.97
  Q 20.62 27.32 20.98 31.76
  Q 21.04 32.52 21.42 32.77
  Q 21.86 33.05 22.57 32.80
  Q 26.78 31.33 28.96 27.97
  Z
  M 19.7326 23.5383
  A 0.95 0.95 0.0 0 0 18.7809 22.5899
  L 18.7009 22.5901
  A 0.95 0.95 0.0 0 0 17.7526 23.5417
  L 17.7674 32.0217
  A 0.95 0.95 0.0 0 0 18.7191 32.9701
  L 18.7991 32.9699
  A 0.95 0.95 0.0 0 0 19.7474 32.0183
  L 19.7326 23.5383
  Z"
/>
<path fill="#2c9c5e" d="
  M 18.81 8.98
  Q 19.40 8.98 20.86 11.00
  A 0.61 0.61 0.0 0 0 21.79 11.08
  L 23.55 9.32
  A 0.83 0.83 0.0 0 1 24.96 9.83
  C 25.35 14.34 25.59 21.50 18.80 21.49
  C 12.01 21.49 12.27 14.33 12.66 9.82
  A 0.83 0.83 0.0 0 1 14.07 9.31
  L 15.83 11.07
  A 0.61 0.61 0.0 0 0 16.76 11.00
  Q 18.23 8.97 18.81 8.98
  Z
  M 14.36 13.63
  Q 14.55 16.59 15.22 17.53
  Q 17.39 20.53 20.70 19.12
  A 2.96 2.91 11.9 0 0 21.56 18.57
  Q 23.54 16.76 22.86 13.59
  A 0.29 0.29 0.0 0 0 22.35 13.46
  Q 21.75 14.16 21.34 14.19
  Q 20.90 14.22 20.45 13.50
  Q 19.97 12.74 19.16 12.04
  A 0.56 0.56 0.0 0 0 18.39 12.07
  L 16.84 13.61
  A 0.93 0.93 0.0 0 1 15.52 13.61
  L 15.17 13.27
  A 0.47 0.47 0.0 0 0 14.36 13.63
  Z"
/>
<path fill="#223c2d" d="
  M 15.17 13.27
  L 15.52 13.61
  A 0.93 0.93 0.0 0 0 16.84 13.61
  L 18.39 12.07
  A 0.56 0.56 0.0 0 1 19.16 12.04
  Q 19.97 12.74 20.45 13.50
  Q 20.90 14.22 21.34 14.19
  Q 21.75 14.16 22.35 13.46
  A 0.29 0.29 0.0 0 1 22.86 13.59
  Q 23.54 16.76 21.56 18.57
  A 2.96 2.91 11.9 0 1 20.70 19.12
  Q 17.39 20.53 15.22 17.53
  Q 14.55 16.59 14.36 13.63
  A 0.47 0.47 0.0 0 1 15.17 13.27
  Z"
/>
<path fill="#2c9c5e" d="
  M 7.14 19.22
  Q 7.58 18.93 8.29 19.18
  Q 12.50 20.63 14.69 23.97
  Q 16.88 27.31 16.55 31.74
  Q 16.49 32.50 16.12 32.74
  Q 15.68 33.03 14.97 32.78
  Q 10.76 31.33 8.57 27.99
  Q 6.38 24.65 6.71 20.22
  Q 6.77 19.46 7.14 19.22
  Z
  M 8.9737 22.0320
  A 4.80 1.55 -123.6 0 0 10.3390 26.8878
  A 4.80 1.55 -123.6 0 0 14.2863 30.0280
  A 4.80 1.55 -123.6 0 0 12.9210 25.1722
  A 4.80 1.55 -123.6 0 0 8.9737 22.0320
  Z"
/>
<path fill="#2c9c5e" d="
  M 28.96 27.97
  Q 26.78 31.33 22.57 32.80
  Q 21.86 33.05 21.42 32.77
  Q 21.04 32.52 20.98 31.76
  Q 20.62 27.32 22.81 23.97
  Q 24.99 20.61 29.19 19.14
  Q 29.91 18.88 30.35 19.17
  Q 30.73 19.41 30.79 20.17
  Q 31.14 24.61 28.96 27.97
  Z
  M 28.5433 21.9860
  A 4.82 1.55 -56.6 0 0 24.5960 25.1568
  A 4.82 1.55 -56.6 0 0 23.2367 30.0340
  A 4.82 1.55 -56.6 0 0 27.1840 26.8632
  A 4.82 1.55 -56.6 0 0 28.5433 21.9860
  Z"
/>
<ellipse fill="#223c2d" cx="0.00" cy="0.00" transform="translate(11.63,26.03) rotate(-123.6)" rx="4.80" ry="1.55"/>
<ellipse fill="#223c2d" cx="0.00" cy="0.00" transform="translate(25.89,26.01) rotate(-56.6)" rx="4.82" ry="1.55"/>
<rect fill="#2c9c5e" x="-0.99" y="-5.19" transform="translate(18.75,27.78) rotate(-0.1)" width="1.98" height="10.38" rx="0.95"/>
</svg>
