<?xml version="1.0" encoding="UTF-8" standalone="no"?>
<!DOCTYPE svg PUBLIC "-//W3C//DTD SVG 1.1//EN" "http://www.w3.org/Graphics/SVG/1.1/DTD/svg11.dtd">
<svg xmlns="http://www.w3.org/2000/svg" version="1.1" viewBox="0.00 0.00 38.00 38.00" width="19" height="19">
<g stroke-width="2.00" fill="none" stroke-linecap="butt">
<path stroke="#266141" vector-effect="non-scaling-stroke" d="
  M 36.0536 9.3995
  A 7.35 7.35 0.0 0 0 28.7293 2.0239
  L 9.3894 1.9563
  A 7.35 7.35 0.0 0 0 2.0138 9.2806
  L 1.9464 28.6005
  A 7.35 7.35 0.0 0 0 9.2707 35.9761
  L 28.6106 36.0437
  A 7.35 7.35 0.0 0 0 35.9862 28.7194
  L 36.0536 9.3995"
/>
<path stroke="#266141" vector-effect="non-scaling-stroke" d="
  M 18.99 30.68
  C 21.83 30.68 24.79 28.28 26.33 26.08
  A 0.66 0.65 -72.1 0 1 26.87 25.80
  L 28.54 25.80
  A 0.45 0.44 -2.9 0 0 28.99 25.31
  Q 28.78 23.29 27.85 21.89
  A 0.86 0.86 0.0 0 0 26.82 21.56
  L 23.98 22.61
  A 0.56 0.55 -5.2 0 0 23.64 23.01
  Q 23.48 23.84 24.60 24.24
  A 0.54 0.54 0.0 0 1 24.84 25.07
  Q 22.94 27.59 20.68 28.29
  A 0.56 0.56 0.0 0 1 19.96 27.76
  L 19.96 20.31
  A 0.57 0.57 0.0 0 1 20.53 19.74
  L 24.12 19.74
  A 0.84 0.84 0.0 0 0 24.96 18.90
  L 24.96 18.53
  A 0.77 0.76 0.0 0 0 24.19 17.77
  L 20.44 17.77
  A 0.47 0.47 0.0 0 1 19.97 17.32
  C 19.91 15.59 19.70 15.49 21.07 14.18
  C 23.04 12.31 21.92 9.18 18.98 9.19
  C 16.03 9.19 14.92 12.32 16.89 14.19
  C 18.26 15.49 18.05 15.59 17.99 17.32
  A 0.47 0.47 0.0 0 1 17.52 17.77
  L 13.77 17.78
  A 0.77 0.76 -0.1 0 0 13.00 18.54
  L 13.00 18.91
  A 0.84 0.84 0.0 0 0 13.85 19.75
  L 17.44 19.74
  A 0.57 0.57 0.0 0 1 18.01 20.31
  L 18.02 27.76
  A 0.56 0.56 0.0 0 1 17.30 28.29
  Q 15.04 27.60 13.13 25.08
  A 0.54 0.54 0.0 0 1 13.37 24.25
  Q 14.49 23.85 14.33 23.02
  A 0.56 0.55 5.1 0 0 13.99 22.62
  L 11.15 21.57
  A 0.86 0.86 0.0 0 0 10.12 21.90
  Q 9.19 23.30 8.98 25.32
  A 0.45 0.44 2.8 0 0 9.43 25.81
  L 11.10 25.81
  A 0.66 0.65 72.1 0 1 11.64 26.09
  C 13.19 28.29 16.15 30.68 18.99 30.68"
/>
<path stroke="#266141" vector-effect="non-scaling-stroke" d="
  M 20.0163 11.7686
  A 1.05 0.95 -18.4 0 0 18.7201 11.1986
  A 1.05 0.95 -18.4 0 0 18.0237 12.4314
  A 1.05 0.95 -18.4 0 0 19.3199 13.0014
  A 1.05 0.95 -18.4 0 0 20.0163 11.7686"
/>
</g>
<path fill="#2c9c5e" d="
  M 29.90 0.00
  Q 36.55 1.31 38.00 8.04
  L 38.00 29.90
  Q 36.69 36.54 29.95 38.00
  L 8.10 38.00
  Q 1.46 36.68 0.00 29.95
  L 0.00 8.11
  Q 1.33 1.45 8.04 0.00
  L 29.90 0.00
  Z
  M 36.0536 9.3995
  A 7.35 7.35 0.0 0 0 28.7293 2.0239
  L 9.3894 1.9563
  A 7.35 7.35 0.0 0 0 2.0138 9.2806
  L 1.9464 28.6005
  A 7.35 7.35 0.0 0 0 9.2707 35.9761
  L 28.6106 36.0437
  A 7.35 7.35 0.0 0 0 35.9862 28.7194
  L 36.0536 9.3995
  Z"
/>
<path fill="#202623" d="
  M 35.9862 28.7194
  A 7.35 7.35 0.0 0 1 28.6106 36.0437
  L 9.2707 35.9761
  A 7.35 7.35 0.0 0 1 1.9464 28.6005
  L 2.0138 9.2806
  A 7.35 7.35 0.0 0 1 9.3894 1.9563
  L 28.7293 2.0239
  A 7.35 7.35 0.0 0 1 36.0536 9.3995
  L 35.9862 28.7194
  Z
  M 18.99 30.68
  C 21.83 30.68 24.79 28.28 26.33 26.08
  A 0.66 0.65 -72.1 0 1 26.87 25.80
  L 28.54 25.80
  A 0.45 0.44 -2.9 0 0 28.99 25.31
  Q 28.78 23.29 27.85 21.89
  A 0.86 0.86 0.0 0 0 26.82 21.56
  L 23.98 22.61
  A 0.56 0.55 -5.2 0 0 23.64 23.01
  Q 23.48 23.84 24.60 24.24
  A 0.54 0.54 0.0 0 1 24.84 25.07
  Q 22.94 27.59 20.68 28.29
  A 0.56 0.56 0.0 0 1 19.96 27.76
  L 19.96 20.31
  A 0.57 0.57 0.0 0 1 20.53 19.74
  L 24.12 19.74
  A 0.84 0.84 0.0 0 0 24.96 18.90
  L 24.96 18.53
  A 0.77 0.76 0.0 0 0 24.19 17.77
  L 20.44 17.77
  A 0.47 0.47 0.0 0 1 19.97 17.32
  C 19.91 15.59 19.70 15.49 21.07 14.18
  C 23.04 12.31 21.92 9.18 18.98 9.19
  C 16.03 9.19 14.92 12.32 16.89 14.19
  C 18.26 15.49 18.05 15.59 17.99 17.32
  A 0.47 0.47 0.0 0 1 17.52 17.77
  L 13.77 17.78
  A 0.77 0.76 -0.1 0 0 13.00 18.54
  L 13.00 18.91
  A 0.84 0.84 0.0 0 0 13.85 19.75
  L 17.44 19.74
  A 0.57 0.57 0.0 0 1 18.01 20.31
  L 18.02 27.76
  A 0.56 0.56 0.0 0 1 17.30 28.29
  Q 15.04 27.60 13.13 25.08
  A 0.54 0.54 0.0 0 1 13.37 24.25
  Q 14.49 23.85 14.33 23.02
  A 0.56 0.55 5.1 0 0 13.99 22.62
  L 11.15 21.57
  A 0.86 0.86 0.0 0 0 10.12 21.90
  Q 9.19 23.30 8.98 25.32
  A 0.45 0.44 2.8 0 0 9.43 25.81
  L 11.10 25.81
  A 0.66 0.65 72.1 0 1 11.64 26.09
  C 13.19 28.29 16.15 30.68 18.99 30.68
  Z"
/>
<path fill="#2c9c5e" d="
  M 18.98 9.19
  C 21.92 9.18 23.04 12.31 21.07 14.18
  C 19.70 15.49 19.91 15.59 19.97 17.32
  A 0.47 0.47 0.0 0 0 20.44 17.77
  L 24.19 17.77
  A 0.77 0.76 0.0 0 1 24.96 18.53
  L 24.96 18.90
  A 0.84 0.84 0.0 0 1 24.12 19.74
  L 20.53 19.74
  A 0.57 0.57 0.0 0 0 19.96 20.31
  L 19.96 27.76
  A 0.56 0.56 0.0 0 0 20.68 28.29
  Q 22.94 27.59 24.84 25.07
  A 0.54 0.54 0.0 0 0 24.60 24.24
  Q 23.48 23.84 23.64 23.01
  A 0.56 0.55 -5.2 0 1 23.98 22.61
  L 26.82 21.56
  A 0.86 0.86 0.0 0 1 27.85 21.89
  Q 28.78 23.29 28.99 25.31
  A 0.45 0.44 -2.9 0 1 28.54 25.80
  L 26.87 25.80
  A 0.66 0.65 -72.1 0 0 26.33 26.08
  C 24.79 28.28 21.83 30.68 18.99 30.68
  C 16.15 30.68 13.19 28.29 11.64 26.09
  A 0.66 0.65 72.1 0 0 11.10 25.81
  L 9.43 25.81
  A 0.45 0.44 2.8 0 1 8.98 25.32
  Q 9.19 23.30 10.12 21.90
  A 0.86 0.86 0.0 0 1 11.15 21.57
  L 13.99 22.62
  A 0.56 0.55 5.1 0 1 14.33 23.02
  Q 14.49 23.85 13.37 24.25
  A 0.54 0.54 0.0 0 0 13.13 25.08
  Q 15.04 27.60 17.30 28.29
  A 0.56 0.56 0.0 0 0 18.02 27.76
  L 18.01 20.31
  A 0.57 0.57 0.0 0 0 17.44 19.74
  L 13.85 19.75
  A 0.84 0.84 0.0 0 1 13.00 18.91
  L 13.00 18.54
  A 0.77 0.76 -0.1 0 1 13.77 17.78
  L 17.52 17.77
  A 0.47 0.47 0.0 0 0 17.99 17.32
  C 18.05 15.59 18.26 15.49 16.89 14.19
  C 14.92 12.32 16.03 9.19 18.98 9.19
  Z
  M 20.0163 11.7686
  A 1.05 0.95 -18.4 0 0 18.7201 11.1986
  A 1.05 0.95 -18.4 0 0 18.0237 12.4314
  A 1.05 0.95 -18.4 0 0 19.3199 13.0014
  A 1.05 0.95 -18.4 0 0 20.0163 11.7686
  Z"
/>
<ellipse fill="#202623" cx="0.00" cy="0.00" transform="translate(19.02,12.10) rotate(-18.4)" rx="1.05" ry="0.95"/>
</svg>
