<?xml version="1.0" encoding="UTF-8" standalone="no"?>
<!DOCTYPE svg PUBLIC "-//W3C//DTD SVG 1.1//EN" "http://www.w3.org/Graphics/SVG/1.1/DTD/svg11.dtd">
<svg xmlns="http://www.w3.org/2000/svg" version="1.1" viewBox="0.00 0.00 38.00 38.00">
<g stroke-width="2.00" fill="none" stroke-linecap="butt">
<path stroke="#266141" vector-effect="non-scaling-stroke" d="
  M 36.0368 9.3797
  A 7.36 7.36 0.0 0 0 28.6897 2.0069
  L 9.3697 1.9732
  A 7.36 7.36 0.0 0 0 1.9969 9.3203
  L 1.9632 28.6203
  A 7.36 7.36 0.0 0 0 9.3103 35.9931
  L 28.6303 36.0268
  A 7.36 7.36 0.0 0 0 36.0031 28.6797
  L 36.0368 9.3797"
/>
<path stroke="#266141" vector-effect="non-scaling-stroke" d="
  M 16.26 27.01
  L 16.26 30.70
  A 1.06 1.05 0.0 0 0 17.32 31.75
  L 20.82 31.75
  A 1.17 1.17 0.0 0 0 21.99 30.58
  L 21.99 27.06
  A 0.59 0.59 0.0 0 1 22.67 26.48
  Q 28.96 27.50 30.37 20.95
  Q 30.69 19.46 29.19 17.38
  A 2.04 2.02 -64.1 0 1 28.81 16.26
  Q 28.68 11.96 24.68 10.62
  A 1.71 1.70 -9.0 0 1 23.85 10.02
  Q 20.35 5.36 15.77 9.16
  A 2.07 2.06 18.6 0 1 14.88 9.60
  Q 10.44 10.55 10.01 15.01
  A 2.59 2.59 0.0 0 1 9.35 16.51
  Q 6.78 19.32 8.41 22.84
  Q 10.54 27.44 15.62 26.48
  A 0.54 0.54 0.0 0 1 16.26 27.01"
/>
<path stroke="#276c46" vector-effect="non-scaling-stroke" d="
  M 21.31 23.34
  Q 23.64 25.38 25.78 24.39
  C 28.14 23.30 29.33 20.43 27.32 18.18
  A 2.29 2.29 0.0 0 1 26.76 16.53
  Q 27.01 12.90 23.24 12.34
  A 1.09 1.09 0.0 0 1 22.44 11.81
  Q 21.94 10.95 21.77 10.66
  A 2.54 2.51 51.3 0 0 17.76 10.19
  Q 16.64 11.37 15.00 11.58
  A 3.60 3.27 89.5 0 0 12.12 14.81
  Q 11.95 16.69 10.55 18.21
  A 3.07 2.75 -38.1 0 0 9.97 21.48
  Q 12.53 26.54 16.61 23.73
  A 1.07 1.07 0.0 0 1 18.29 24.61
  L 18.29 29.31
  A 0.52 0.52 0.0 0 0 18.81 29.83
  L 19.25 29.83
  A 0.75 0.75 0.0 0 0 20.00 29.08
  L 20.00 23.93
  A 0.79 0.79 0.0 0 1 21.31 23.34"
/>
</g>
<path fill="#2c9c5e" d="
  M 29.90 0.00
  Q 36.55 1.31 38.00 8.05
  L 38.00 29.90
  Q 36.69 36.54 29.95 38.00
  L 8.10 38.00
  Q 1.46 36.68 0.00 29.95
  L 0.00 8.11
  Q 1.33 1.45 8.04 0.00
  L 29.90 0.00
  Z
  M 36.0368 9.3797
  A 7.36 7.36 0.0 0 0 28.6897 2.0069
  L 9.3697 1.9732
  A 7.36 7.36 0.0 0 0 1.9969 9.3203
  L 1.9632 28.6203
  A 7.36 7.36 0.0 0 0 9.3103 35.9931
  L 28.6303 36.0268
  A 7.36 7.36 0.0 0 0 36.0031 28.6797
  L 36.0368 9.3797
  Z"
/>
<path fill="#202623" d="
  M 36.0031 28.6797
  A 7.36 7.36 0.0 0 1 28.6303 36.0268
  L 9.3103 35.9931
  A 7.36 7.36 0.0 0 1 1.9632 28.6203
  L 1.9969 9.3203
  A 7.36 7.36 0.0 0 1 9.3697 1.9732
  L 28.6897 2.0069
  A 7.36 7.36 0.0 0 1 36.0368 9.3797
  L 36.0031 28.6797
  Z
  M 16.26 27.01
  L 16.26 30.70
  A 1.06 1.05 0.0 0 0 17.32 31.75
  L 20.82 31.75
  A 1.17 1.17 0.0 0 0 21.99 30.58
  L 21.99 27.06
  A 0.59 0.59 0.0 0 1 22.67 26.48
  Q 28.96 27.50 30.37 20.95
  Q 30.69 19.46 29.19 17.38
  A 2.04 2.02 -64.1 0 1 28.81 16.26
  Q 28.68 11.96 24.68 10.62
  A 1.71 1.70 -9.0 0 1 23.85 10.02
  Q 20.35 5.36 15.77 9.16
  A 2.07 2.06 18.6 0 1 14.88 9.60
  Q 10.44 10.55 10.01 15.01
  A 2.59 2.59 0.0 0 1 9.35 16.51
  Q 6.78 19.32 8.41 22.84
  Q 10.54 27.44 15.62 26.48
  A 0.54 0.54 0.0 0 1 16.26 27.01
  Z"
/>
<path fill="#2c9c5e" d="
  M 15.62 26.48
  Q 10.54 27.44 8.41 22.84
  Q 6.78 19.32 9.35 16.51
  A 2.59 2.59 0.0 0 0 10.01 15.01
  Q 10.44 10.55 14.88 9.60
  A 2.07 2.06 18.6 0 0 15.77 9.16
  Q 20.35 5.36 23.85 10.02
  A 1.71 1.70 -9.0 0 0 24.68 10.62
  Q 28.68 11.96 28.81 16.26
  A 2.04 2.02 -64.1 0 0 29.19 17.38
  Q 30.69 19.46 30.37 20.95
  Q 28.96 27.50 22.67 26.48
  A 0.59 0.59 0.0 0 0 21.99 27.06
  L 21.99 30.58
  A 1.17 1.17 0.0 0 1 20.82 31.75
  L 17.32 31.75
  A 1.06 1.05 0.0 0 1 16.26 30.70
  L 16.26 27.01
  A 0.54 0.54 0.0 0 0 15.62 26.48
  Z
  M 21.31 23.34
  Q 23.64 25.38 25.78 24.39
  C 28.14 23.30 29.33 20.43 27.32 18.18
  A 2.29 2.29 0.0 0 1 26.76 16.53
  Q 27.01 12.90 23.24 12.34
  A 1.09 1.09 0.0 0 1 22.44 11.81
  Q 21.94 10.95 21.77 10.66
  A 2.54 2.51 51.3 0 0 17.76 10.19
  Q 16.64 11.37 15.00 11.58
  A 3.60 3.27 89.5 0 0 12.12 14.81
  Q 11.95 16.69 10.55 18.21
  A 3.07 2.75 -38.1 0 0 9.97 21.48
  Q 12.53 26.54 16.61 23.73
  A 1.07 1.07 0.0 0 1 18.29 24.61
  L 18.29 29.31
  A 0.52 0.52 0.0 0 0 18.81 29.83
  L 19.25 29.83
  A 0.75 0.75 0.0 0 0 20.00 29.08
  L 20.00 23.93
  A 0.79 0.79 0.0 0 1 21.31 23.34
  Z"
/>
<path fill="#223c2d" d="
  M 21.31 23.34
  A 0.79 0.79 0.0 0 0 20.00 23.93
  L 20.00 29.08
  A 0.75 0.75 0.0 0 1 19.25 29.83
  L 18.81 29.83
  A 0.52 0.52 0.0 0 1 18.29 29.31
  L 18.29 24.61
  A 1.07 1.07 0.0 0 0 16.61 23.73
  Q 12.53 26.54 9.97 21.48
  A 3.07 2.75 -38.1 0 1 10.55 18.21
  Q 11.95 16.69 12.12 14.81
  A 3.60 3.27 89.5 0 1 15.00 11.58
  Q 16.64 11.37 17.76 10.19
  A 2.54 2.51 51.3 0 1 21.77 10.66
  Q 21.94 10.95 22.44 11.81
  A 1.09 1.09 0.0 0 0 23.24 12.34
  Q 27.01 12.90 26.76 16.53
  A 2.29 2.29 0.0 0 0 27.32 18.18
  C 29.33 20.43 28.14 23.30 25.78 24.39
  Q 23.64 25.38 21.31 23.34
  Z"
/>
</svg>
