<?xml version="1.0" encoding="UTF-8" standalone="no"?>
<!DOCTYPE svg PUBLIC "-//W3C//DTD SVG 1.1//EN" "http://www.w3.org/Graphics/SVG/1.1/DTD/svg11.dtd">
<svg xmlns="http://www.w3.org/2000/svg" version="1.1" viewBox="0.00 0.00 38.00 38.00">
<g stroke-width="2.00" fill="none" stroke-linecap="butt">
<path stroke="#266141" vector-effect="non-scaling-stroke" d="
  M 36.0368 9.3697
  A 7.35 7.35 0.0 0 0 28.6997 2.0069
  L 9.3597 1.9731
  A 7.35 7.35 0.0 0 0 1.9969 9.3103
  L 1.9632 28.6303
  A 7.35 7.35 0.0 0 0 9.3003 35.9931
  L 28.6403 36.0269
  A 7.35 7.35 0.0 0 0 36.0031 28.6897
  L 36.0368 9.3697"
/>
<path stroke="#266141" vector-effect="non-scaling-stroke" d="
  M 15.44 17.61
  L 14.60 16.15
  A 0.82 0.82 0.0 0 0 13.18 16.15
  L 7.55 25.91
  A 1.00 0.99 18.3 0 0 8.30 27.40
  Q 12.27 27.84 14.76 27.76
  Q 24.41 27.47 29.51 27.44
  A 1.00 0.99 -15.2 0 0 30.37 25.95
  L 21.63 10.80
  A 0.89 0.88 -44.9 0 0 20.10 10.80
  L 16.17 17.61
  A 0.42 0.42 0.0 0 1 15.44 17.61"
/>
<path stroke="#276c46" vector-effect="non-scaling-stroke" d="
  M 27.21 25.49
  A 0.34 0.34 0.0 0 0 27.51 24.98
  L 21.15 13.97
  A 0.34 0.34 0.0 0 0 20.57 13.97
  L 17.16 19.87
  A 0.34 0.34 0.0 0 0 17.16 20.21
  L 20.10 25.32
  A 0.34 0.34 0.0 0 0 20.40 25.49
  L 27.21 25.49"
/>
<path stroke="#276c46" vector-effect="non-scaling-stroke" d="
  M 10.38 24.97
  A 0.37 0.37 0.0 0 0 10.71 25.52
  L 17.26 25.49
  A 0.37 0.37 0.0 0 0 17.58 24.93
  L 14.27 19.31
  A 0.37 0.37 0.0 0 0 13.63 19.32
  L 10.38 24.97"
/>
</g>
<path fill="#2c9c5e" d="
  M 29.90 0.00
  Q 36.54 1.33 38.00 8.05
  L 38.00 29.90
  Q 36.68 36.54 29.95 38.00
  L 8.10 38.00
  Q 1.46 36.68 0.00 29.95
  L 0.00 8.11
  Q 1.32 1.46 8.05 0.00
  L 29.90 0.00
  Z
  M 36.0368 9.3697
  A 7.35 7.35 0.0 0 0 28.6997 2.0069
  L 9.3597 1.9731
  A 7.35 7.35 0.0 0 0 1.9969 9.3103
  L 1.9632 28.6303
  A 7.35 7.35 0.0 0 0 9.3003 35.9931
  L 28.6403 36.0269
  A 7.35 7.35 0.0 0 0 36.0031 28.6897
  L 36.0368 9.3697
  Z"
/>
<path fill="#202623" d="
  M 36.0031 28.6897
  A 7.35 7.35 0.0 0 1 28.6403 36.0269
  L 9.3003 35.9931
  A 7.35 7.35 0.0 0 1 1.9632 28.6303
  L 1.9969 9.3103
  A 7.35 7.35 0.0 0 1 9.3597 1.9731
  L 28.6997 2.0069
  A 7.35 7.35 0.0 0 1 36.0368 9.3697
  L 36.0031 28.6897
  Z
  M 15.44 17.61
  L 14.60 16.15
  A 0.82 0.82 0.0 0 0 13.18 16.15
  L 7.55 25.91
  A 1.00 0.99 18.3 0 0 8.30 27.40
  Q 12.27 27.84 14.76 27.76
  Q 24.41 27.47 29.51 27.44
  A 1.00 0.99 -15.2 0 0 30.37 25.95
  L 21.63 10.80
  A 0.89 0.88 -44.9 0 0 20.10 10.80
  L 16.17 17.61
  A 0.42 0.42 0.0 0 1 15.44 17.61
  Z"
/>
<path fill="#2c9c5e" d="
  M 16.17 17.61
  L 20.10 10.80
  A 0.89 0.88 -44.9 0 1 21.63 10.80
  L 30.37 25.95
  A 1.00 0.99 -15.2 0 1 29.51 27.44
  Q 24.41 27.47 14.76 27.76
  Q 12.27 27.84 8.30 27.40
  A 1.00 0.99 18.3 0 1 7.55 25.91
  L 13.18 16.15
  A 0.82 0.82 0.0 0 1 14.60 16.15
  L 15.44 17.61
  A 0.42 0.42 0.0 0 0 16.17 17.61
  Z
  M 27.21 25.49
  A 0.34 0.34 0.0 0 0 27.51 24.98
  L 21.15 13.97
  A 0.34 0.34 0.0 0 0 20.57 13.97
  L 17.16 19.87
  A 0.34 0.34 0.0 0 0 17.16 20.21
  L 20.10 25.32
  A 0.34 0.34 0.0 0 0 20.40 25.49
  L 27.21 25.49
  Z
  M 10.38 24.97
  A 0.37 0.37 0.0 0 0 10.71 25.52
  L 17.26 25.49
  A 0.37 0.37 0.0 0 0 17.58 24.93
  L 14.27 19.31
  A 0.37 0.37 0.0 0 0 13.63 19.32
  L 10.38 24.97
  Z"
/>
<path fill="#223c2d" d="
  M 27.21 25.49
  L 20.40 25.49
  A 0.34 0.34 0.0 0 1 20.10 25.32
  L 17.16 20.21
  A 0.34 0.34 0.0 0 1 17.16 19.87
  L 20.57 13.97
  A 0.34 0.34 0.0 0 1 21.15 13.97
  L 27.51 24.98
  A 0.34 0.34 0.0 0 1 27.21 25.49
  Z"
/>
<path fill="#223c2d" d="
  M 10.38 24.97
  L 13.63 19.32
  A 0.37 0.37 0.0 0 1 14.27 19.31
  L 17.58 24.93
  A 0.37 0.37 0.0 0 1 17.26 25.49
  L 10.71 25.52
  A 0.37 0.37 0.0 0 1 10.38 24.97
  Z"
/>
</svg>
