<?xml version="1.0" encoding="UTF-8" standalone="no"?>
<!DOCTYPE svg PUBLIC "-//W3C//DTD SVG 1.1//EN" "http://www.w3.org/Graphics/SVG/1.1/DTD/svg11.dtd">
<svg xmlns="http://www.w3.org/2000/svg" version="1.1" viewBox="0.00 0.00 38.00 38.00" width="19" height="19">
<g stroke-width="2.00" fill="none" stroke-linecap="butt">
<path stroke="#4d4d52" vector-effect="non-scaling-stroke" d="
  M 36.0269 9.3697
  A 7.34 7.34 0.0 0 0 28.6997 2.0169
  L 9.3597 1.9831
  A 7.34 7.34 0.0 0 0 2.0069 9.3103
  L 1.9731 28.6503
  A 7.34 7.34 0.0 0 0 9.3003 36.0031
  L 28.6403 36.0369
  A 7.34 7.34 0.0 0 0 35.9931 28.7097
  L 36.0269 9.3697"
/>
<path stroke="#4d4d52" vector-effect="non-scaling-stroke" d="
  M 19.41 13.35
  Q 19.38 13.17 19.34 12.96
  A 1.82 1.81 -72.8 0 0 18.82 11.97
  L 15.71 8.85
  A 1.46 1.46 0.0 0 0 13.65 8.85
  L 8.90 13.61
  A 1.17 1.16 -45.2 0 0 8.90 15.26
  L 12.52 18.89
  A 0.94 0.94 0.0 0 0 14.02 17.81
  Q 13.27 16.31 11.41 15.11
  A 0.64 0.64 0.0 0 1 11.31 14.12
  L 14.44 10.99
  A 0.59 0.58 -44.7 0 1 15.27 10.99
  L 15.54 11.26
  A 0.52 0.51 -45.4 0 1 15.54 11.99
  L 14.16 13.36
  A 0.27 0.27 0.0 0 0 14.44 13.80
  Q 15.79 13.30 15.88 12.71
  A 0.35 0.35 0.0 0 1 16.46 12.49
  L 18.38 14.14
  A 0.41 0.40 42.7 0 1 18.41 14.74
  L 10.42 22.73
  A 1.23 1.17 72.0 0 0 10.08 23.44
  L 9.41 29.45
  A 0.72 0.72 0.0 0 0 10.21 30.25
  L 15.92 29.59
  A 1.21 1.21 0.0 0 0 16.61 29.26
  L 27.43 18.43
  A 0.88 0.88 0.0 0 0 27.43 17.19
  L 27.24 17.00
  A 0.83 0.83 0.0 0 0 26.07 17.00
  L 16.59 26.48
  A 0.65 0.65 0.0 0 1 15.67 26.48
  L 15.25 26.06
  A 0.64 0.64 0.0 0 1 15.25 25.16
  L 24.78 15.63
  A 0.17 0.17 0.0 0 0 24.78 15.39
  L 24.56 15.16
  A 0.34 0.33 44.4 0 0 24.09 15.16
  L 14.65 24.60
  A 0.63 0.62 -44.7 0 1 13.76 24.60
  L 13.03 23.87
  A 0.50 0.50 0.0 0 1 13.02 23.17
  L 22.46 13.39
  A 0.74 0.72 -27.6 0 0 22.66 12.78
  L 22.60 12.26
  A 0.71 0.70 -25.7 0 0 21.40 11.84
  L 19.77 13.47
  A 0.21 0.21 0.0 0 1 19.41 13.35"
/>
<path stroke="#4d4d52" vector-effect="non-scaling-stroke" d="
  M 23.28 11.69
  L 27.93 16.54
  A 1.15 1.15 0.0 0 0 29.55 16.58
  L 30.56 15.62
  A 3.06 2.94 -43.7 0 0 30.74 11.38
  L 28.57 9.11
  A 3.06 2.94 -43.7 0 0 24.33 9.10
  L 23.32 10.06
  A 1.15 1.15 0.0 0 0 23.28 11.69"
/>
<path stroke="#4d4d52" vector-effect="non-scaling-stroke" d="
  M 31.29 24.44
  L 27.54 20.70
  A 1.01 1.01 0.0 0 0 25.94 21.90
  Q 27.07 23.98 28.22 24.37
  A 0.79 0.79 0.0 0 1 28.52 25.67
  L 26.12 28.06
  A 1.03 1.03 0.0 0 1 24.57 27.96
  Q 23.66 26.78 21.89 25.61
  A 0.90 0.90 0.0 0 0 20.76 27.00
  L 24.86 31.10
  A 0.64 0.64 0.0 0 0 25.76 31.10
  L 31.29 25.58
  A 0.81 0.81 0.0 0 0 31.29 24.44"
/>
<path stroke="#4d4d52" vector-effect="non-scaling-stroke" d="
  M 26.49 25.16
  Q 26.83 25.13 27.03 24.79
  A 0.42 0.41 -77.2 0 0 26.64 24.15
  Q 26.37 24.19 26.17 24.44
  A 0.45 0.41 -71.4 0 0 26.49 25.16"
/>
<path stroke="#4d4d52" vector-effect="non-scaling-stroke" d="
  M 12.62 27.97
  Q 13.19 27.81 13.32 27.61
  A 0.54 0.54 0.0 0 0 13.27 26.94
  Q 12.05 25.62 11.96 25.65
  Q 11.86 25.67 11.53 27.45
  A 0.54 0.54 0.0 0 0 11.85 28.04
  Q 12.06 28.13 12.62 27.97"
/>
<path stroke="#4d4d52" vector-effect="non-scaling-stroke" d="
  M 26.9733 10.3844
  A 0.69 0.69 0.0 0 0 25.9976 10.3674
  L 25.8969 10.4647
  A 0.69 0.69 0.0 0 0 25.8799 11.4403
  L 28.3667 14.0156
  A 0.69 0.69 0.0 0 0 29.3424 14.0326
  L 29.4431 13.9353
  A 0.69 0.69 0.0 0 0 29.4601 12.9597
  L 26.9733 10.3844"
/>
</g>
<path fill="#76767f" d="
  M 29.90 0.00
  Q 36.60 1.37 38.00 8.06
  L 38.00 29.90
  Q 36.63 36.60 29.94 38.00
  L 8.10 38.00
  Q 1.40 36.63 0.00 29.94
  L 0.00 8.12
  Q 1.37 1.36 8.11 0.00
  L 29.90 0.00
  Z
  M 36.0269 9.3697
  A 7.34 7.34 0.0 0 0 28.6997 2.0169
  L 9.3597 1.9831
  A 7.34 7.34 0.0 0 0 2.0069 9.3103
  L 1.9731 28.6503
  A 7.34 7.34 0.0 0 0 9.3003 36.0031
  L 28.6403 36.0369
  A 7.34 7.34 0.0 0 0 35.9931 28.7097
  L 36.0269 9.3697
  Z"
/>
<path fill="#242425" d="
  M 35.9931 28.7097
  A 7.34 7.34 0.0 0 1 28.6403 36.0369
  L 9.3003 36.0031
  A 7.34 7.34 0.0 0 1 1.9731 28.6503
  L 2.0069 9.3103
  A 7.34 7.34 0.0 0 1 9.3597 1.9831
  L 28.6997 2.0169
  A 7.34 7.34 0.0 0 1 36.0269 9.3697
  L 35.9931 28.7097
  Z
  M 19.41 13.35
  Q 19.38 13.17 19.34 12.96
  A 1.82 1.81 -72.8 0 0 18.82 11.97
  L 15.71 8.85
  A 1.46 1.46 0.0 0 0 13.65 8.85
  L 8.90 13.61
  A 1.17 1.16 -45.2 0 0 8.90 15.26
  L 12.52 18.89
  A 0.94 0.94 0.0 0 0 14.02 17.81
  Q 13.27 16.31 11.41 15.11
  A 0.64 0.64 0.0 0 1 11.31 14.12
  L 14.44 10.99
  A 0.59 0.58 -44.7 0 1 15.27 10.99
  L 15.54 11.26
  A 0.52 0.51 -45.4 0 1 15.54 11.99
  L 14.16 13.36
  A 0.27 0.27 0.0 0 0 14.44 13.80
  Q 15.79 13.30 15.88 12.71
  A 0.35 0.35 0.0 0 1 16.46 12.49
  L 18.38 14.14
  A 0.41 0.40 42.7 0 1 18.41 14.74
  L 10.42 22.73
  A 1.23 1.17 72.0 0 0 10.08 23.44
  L 9.41 29.45
  A 0.72 0.72 0.0 0 0 10.21 30.25
  L 15.92 29.59
  A 1.21 1.21 0.0 0 0 16.61 29.26
  L 27.43 18.43
  A 0.88 0.88 0.0 0 0 27.43 17.19
  L 27.24 17.00
  A 0.83 0.83 0.0 0 0 26.07 17.00
  L 16.59 26.48
  A 0.65 0.65 0.0 0 1 15.67 26.48
  L 15.25 26.06
  A 0.64 0.64 0.0 0 1 15.25 25.16
  L 24.78 15.63
  A 0.17 0.17 0.0 0 0 24.78 15.39
  L 24.56 15.16
  A 0.34 0.33 44.4 0 0 24.09 15.16
  L 14.65 24.60
  A 0.63 0.62 -44.7 0 1 13.76 24.60
  L 13.03 23.87
  A 0.50 0.50 0.0 0 1 13.02 23.17
  L 22.46 13.39
  A 0.74 0.72 -27.6 0 0 22.66 12.78
  L 22.60 12.26
  A 0.71 0.70 -25.7 0 0 21.40 11.84
  L 19.77 13.47
  A 0.21 0.21 0.0 0 1 19.41 13.35
  Z
  M 23.28 11.69
  L 27.93 16.54
  A 1.15 1.15 0.0 0 0 29.55 16.58
  L 30.56 15.62
  A 3.06 2.94 -43.7 0 0 30.74 11.38
  L 28.57 9.11
  A 3.06 2.94 -43.7 0 0 24.33 9.10
  L 23.32 10.06
  A 1.15 1.15 0.0 0 0 23.28 11.69
  Z
  M 31.29 24.44
  L 27.54 20.70
  A 1.01 1.01 0.0 0 0 25.94 21.90
  Q 27.07 23.98 28.22 24.37
  A 0.79 0.79 0.0 0 1 28.52 25.67
  L 26.12 28.06
  A 1.03 1.03 0.0 0 1 24.57 27.96
  Q 23.66 26.78 21.89 25.61
  A 0.90 0.90 0.0 0 0 20.76 27.00
  L 24.86 31.10
  A 0.64 0.64 0.0 0 0 25.76 31.10
  L 31.29 25.58
  A 0.81 0.81 0.0 0 0 31.29 24.44
  Z
  M 26.49 25.16
  Q 26.83 25.13 27.03 24.79
  A 0.42 0.41 -77.2 0 0 26.64 24.15
  Q 26.37 24.19 26.17 24.44
  A 0.45 0.41 -71.4 0 0 26.49 25.16
  Z"
/>
<path fill="#76767f" d="
  M 19.77 13.47
  L 21.40 11.84
  A 0.71 0.70 -25.7 0 1 22.60 12.26
  L 22.66 12.78
  A 0.74 0.72 -27.6 0 1 22.46 13.39
  L 13.02 23.17
  A 0.50 0.50 0.0 0 0 13.03 23.87
  L 13.76 24.60
  A 0.63 0.62 -44.7 0 0 14.65 24.60
  L 24.09 15.16
  A 0.34 0.33 44.4 0 1 24.56 15.16
  L 24.78 15.39
  A 0.17 0.17 0.0 0 1 24.78 15.63
  L 15.25 25.16
  A 0.64 0.64 0.0 0 0 15.25 26.06
  L 15.67 26.48
  A 0.65 0.65 0.0 0 0 16.59 26.48
  L 26.07 17.00
  A 0.83 0.83 0.0 0 1 27.24 17.00
  L 27.43 17.19
  A 0.88 0.88 0.0 0 1 27.43 18.43
  L 16.61 29.26
  A 1.21 1.21 0.0 0 1 15.92 29.59
  L 10.21 30.25
  A 0.72 0.72 0.0 0 1 9.41 29.45
  L 10.08 23.44
  A 1.23 1.17 72.0 0 1 10.42 22.73
  L 18.41 14.74
  A 0.41 0.40 42.7 0 0 18.38 14.14
  L 16.46 12.49
  A 0.35 0.35 0.0 0 0 15.88 12.71
  Q 15.79 13.30 14.44 13.80
  A 0.27 0.27 0.0 0 1 14.16 13.36
  L 15.54 11.99
  A 0.52 0.51 -45.4 0 0 15.54 11.26
  L 15.27 10.99
  A 0.59 0.58 -44.7 0 0 14.44 10.99
  L 11.31 14.12
  A 0.64 0.64 0.0 0 0 11.41 15.11
  Q 13.27 16.31 14.02 17.81
  A 0.94 0.94 0.0 0 1 12.52 18.89
  L 8.90 15.26
  A 1.17 1.16 -45.2 0 1 8.90 13.61
  L 13.65 8.85
  A 1.46 1.46 0.0 0 1 15.71 8.85
  L 18.82 11.97
  A 1.82 1.81 -72.8 0 1 19.34 12.96
  Q 19.38 13.17 19.41 13.35
  A 0.21 0.21 0.0 0 0 19.77 13.47
  Z
  M 12.62 27.97
  Q 13.19 27.81 13.32 27.61
  A 0.54 0.54 0.0 0 0 13.27 26.94
  Q 12.05 25.62 11.96 25.65
  Q 11.86 25.67 11.53 27.45
  A 0.54 0.54 0.0 0 0 11.85 28.04
  Q 12.06 28.13 12.62 27.97
  Z"
/>
<path fill="#76767f" d="
  M 23.28 11.69
  A 1.15 1.15 0.0 0 1 23.32 10.06
  L 24.33 9.10
  A 3.06 2.94 -43.7 0 1 28.57 9.11
  L 30.74 11.38
  A 3.06 2.94 -43.7 0 1 30.56 15.62
  L 29.55 16.58
  A 1.15 1.15 0.0 0 1 27.93 16.54
  L 23.28 11.69
  Z
  M 26.9733 10.3844
  A 0.69 0.69 0.0 0 0 25.9976 10.3674
  L 25.8969 10.4647
  A 0.69 0.69 0.0 0 0 25.8799 11.4403
  L 28.3667 14.0156
  A 0.69 0.69 0.0 0 0 29.3424 14.0326
  L 29.4431 13.9353
  A 0.69 0.69 0.0 0 0 29.4601 12.9597
  L 26.9733 10.3844
  Z"
/>
<rect fill="#242425" x="-0.76" y="-2.48" transform="translate(27.67,12.20) rotate(-44.0)" width="1.52" height="4.96" rx="0.69"/>
<path fill="#76767f" d="
  M 31.29 25.58
  L 25.76 31.10
  A 0.64 0.64 0.0 0 1 24.86 31.10
  L 20.76 27.00
  A 0.90 0.90 0.0 0 1 21.89 25.61
  Q 23.66 26.78 24.57 27.96
  A 1.03 1.03 0.0 0 0 26.12 28.06
  L 28.52 25.67
  A 0.79 0.79 0.0 0 0 28.22 24.37
  Q 27.07 23.98 25.94 21.90
  A 1.01 1.01 0.0 0 1 27.54 20.70
  L 31.29 24.44
  A 0.81 0.81 0.0 0 1 31.29 25.58
  Z"
/>
<path fill="#76767f" d="
  M 26.49 25.16
  A 0.45 0.41 -71.4 0 1 26.17 24.44
  Q 26.37 24.19 26.64 24.15
  A 0.42 0.41 -77.2 0 1 27.03 24.79
  Q 26.83 25.13 26.49 25.16
  Z"
/>
<path fill="#242425" d="
  M 11.96 25.65
  Q 12.05 25.62 13.27 26.94
  A 0.54 0.54 0.0 0 1 13.32 27.61
  Q 13.19 27.81 12.62 27.97
  Q 12.06 28.13 11.85 28.04
  A 0.54 0.54 0.0 0 1 11.53 27.45
  Q 11.86 25.67 11.96 25.65
  Z"
/>
</svg>
