<?xml version="1.0" encoding="UTF-8" standalone="no"?>
<!DOCTYPE svg PUBLIC "-//W3C//DTD SVG 1.1//EN" "http://www.w3.org/Graphics/SVG/1.1/DTD/svg11.dtd">
<svg xmlns="http://www.w3.org/2000/svg" version="1.1" viewBox="0.00 0.00 38.00 38.00">
<g stroke-width="2.00" fill="none" stroke-linecap="butt">
<path stroke="#4d4d52" vector-effect="non-scaling-stroke" d="
  M 36.0269 9.3597
  A 7.34 7.34 0.0 0 0 28.6997 2.0069
  L 9.3597 1.9731
  A 7.34 7.34 0.0 0 0 2.0069 9.3003
  L 1.9731 28.6403
  A 7.34 7.34 0.0 0 0 9.3003 35.9931
  L 28.6403 36.0269
  A 7.34 7.34 0.0 0 0 35.9931 28.6997
  L 36.0269 9.3597"
/>
<path stroke="#4d4d52" vector-effect="non-scaling-stroke" d="
  M 21.3589 8.8658
  A 0.37 0.37 0.0 0 0 20.9883 8.4965
  L 16.9483 8.5035
  A 0.37 0.37 0.0 0 0 16.5789 8.8742
  L 16.5811 10.0942
  A 0.37 0.37 0.0 0 0 16.9517 10.4635
  L 20.9917 10.4565
  A 0.37 0.37 0.0 0 0 21.3611 10.0858
  L 21.3589 8.8658"
/>
<path stroke="#4d4d52" vector-effect="non-scaling-stroke" d="
  M 14.0654 9.5882
  A 0.73 0.73 0.0 0 0 13.2105 9.0095
  L 10.1075 9.6070
  A 0.73 0.73 0.0 0 0 9.5287 10.4619
  L 9.6346 11.0118
  A 0.73 0.73 0.0 0 0 10.4895 11.5905
  L 13.5925 10.9930
  A 0.73 0.73 0.0 0 0 14.1713 10.1381
  L 14.0654 9.5882"
/>
<path stroke="#4d4d52" vector-effect="non-scaling-stroke" d="
  M 29.1412 10.9029
  A 0.94 0.94 0.0 0 0 28.4230 9.7842
  L 25.1988 9.0812
  A 0.94 0.94 0.0 0 0 24.0801 9.7994
  L 24.0588 9.8971
  A 0.94 0.94 0.0 0 0 24.7770 11.0158
  L 28.0012 11.7188
  A 0.94 0.94 0.0 0 0 29.1199 11.0006
  L 29.1412 10.9029"
/>
<path stroke="#4d4d52" vector-effect="non-scaling-stroke" d="
  M 7.19 21.18
  Q 7.18 24.72 7.25 25.12
  A 3.81 3.78 -82.6 0 0 9.44 27.99
  C 12.47 29.35 15.69 29.42 19.05 29.42
  C 22.41 29.43 25.62 29.37 28.66 28.01
  A 3.81 3.78 82.7 0 0 30.86 25.15
  Q 30.93 24.74 30.93 21.21
  Q 30.94 17.67 30.87 17.26
  A 3.81 3.78 -82.6 0 0 28.68 14.39
  C 25.64 13.03 22.43 12.96 19.07 12.96
  C 15.71 12.95 12.49 13.01 9.45 14.37
  A 3.81 3.78 82.7 0 0 7.25 17.24
  Q 7.19 17.64 7.19 21.18"
/>
<path stroke="#55555a" vector-effect="non-scaling-stroke" d="
  M 19.04 16.27
  C 21.43 16.27 25.16 15.87 26.23 18.31
  A 0.58 0.58 0.0 0 0 27.11 18.54
  L 28.50 17.48
  A 0.43 0.42 69.8 0 0 28.67 17.10
  Q 28.61 16.14 26.76 15.69
  Q 24.20 15.06 19.04 15.07
  Q 13.88 15.07 11.32 15.69
  Q 9.47 16.14 9.41 17.10
  A 0.43 0.42 -69.8 0 0 9.58 17.48
  L 10.97 18.54
  A 0.58 0.58 0.0 0 0 11.85 18.31
  C 12.92 15.88 16.65 16.27 19.04 16.27"
/>
<path stroke="#55555a" vector-effect="non-scaling-stroke" d="
  M 24.0802 18.6077
  A 0.37 0.37 0.0 0 0 23.7115 18.2364
  L 14.3316 18.2036
  A 0.37 0.37 0.0 0 0 13.9603 18.5723
  L 13.9598 18.7323
  A 0.37 0.37 0.0 0 0 14.3285 19.1036
  L 23.7084 19.1364
  A 0.37 0.37 0.0 0 0 24.0797 18.7677
  L 24.0802 18.6077"
/>
<path stroke="#55555a" vector-effect="non-scaling-stroke" d="
  M 9.27 20.04
  L 9.27 24.29
  A 2.30 2.29 18.6 0 0 10.18 26.12
  L 10.82 26.60
  A 0.42 0.42 0.0 0 0 11.49 26.27
  L 11.49 21.03
  A 0.64 0.62 -77.4 0 0 11.14 20.46
  L 9.68 19.78
  A 0.29 0.28 -77.1 0 0 9.27 20.04"
/>
<path stroke="#55555a" vector-effect="non-scaling-stroke" d="
  M 28.2768 19.6347
  A 3.43 0.98 -84.7 0 0 26.9842 22.9595
  A 3.43 0.98 -84.7 0 0 27.6432 26.4653
  A 3.43 0.98 -84.7 0 0 28.9358 23.1405
  A 3.43 0.98 -84.7 0 0 28.2768 19.6347"
/>
<path stroke="#55555a" vector-effect="non-scaling-stroke" d="
  M 19.26 21.28
  Q 16.77 21.31 14.23 21.00
  A 0.62 0.62 0.0 0 0 13.53 21.62
  L 13.53 26.78
  A 0.66 0.65 0.0 0 0 14.19 27.43
  L 15.76 27.43
  A 0.44 0.43 -0.0 0 0 16.20 27.00
  L 16.23 24.55
  A 0.77 0.77 0.0 0 1 16.98 23.79
  Q 17.39 23.76 19.29 23.74
  Q 21.19 23.72 21.60 23.75
  A 0.77 0.77 0.0 0 1 22.36 24.49
  L 22.44 26.94
  A 0.44 0.43 -1.1 0 0 22.89 27.36
  L 24.45 27.33
  A 0.66 0.65 -1.1 0 0 25.10 26.67
  L 25.00 21.51
  A 0.62 0.62 0.0 0 0 24.30 20.91
  Q 21.76 21.26 19.26 21.28"
/>
<path stroke="#55555a" vector-effect="non-scaling-stroke" d="
  M 20.04 27.38
  A 0.86 0.83 -51.9 0 0 19.87 25.76
  Q 19.20 25.66 18.80 25.80
  A 0.92 0.85 -53.1 0 0 18.98 27.54
  Q 19.71 27.53 20.04 27.38"
/>
</g>
<path fill="#76767f" d="
  M 29.90 0.00
  Q 36.60 1.37 38.00 8.06
  L 38.00 29.90
  Q 36.63 36.60 29.94 38.00
  L 8.10 38.00
  Q 1.40 36.64 0.00 29.94
  L 0.00 8.12
  Q 1.37 1.36 8.11 0.00
  L 29.90 0.00
  Z
  M 36.0269 9.3597
  A 7.34 7.34 0.0 0 0 28.6997 2.0069
  L 9.3597 1.9731
  A 7.34 7.34 0.0 0 0 2.0069 9.3003
  L 1.9731 28.6403
  A 7.34 7.34 0.0 0 0 9.3003 35.9931
  L 28.6403 36.0269
  A 7.34 7.34 0.0 0 0 35.9931 28.6997
  L 36.0269 9.3597
  Z"
/>
<path fill="#242425" d="
  M 35.9931 28.6997
  A 7.34 7.34 0.0 0 1 28.6403 36.0269
  L 9.3003 35.9931
  A 7.34 7.34 0.0 0 1 1.9731 28.6403
  L 2.0069 9.3003
  A 7.34 7.34 0.0 0 1 9.3597 1.9731
  L 28.6997 2.0069
  A 7.34 7.34 0.0 0 1 36.0269 9.3597
  L 35.9931 28.6997
  Z
  M 21.3589 8.8658
  A 0.37 0.37 0.0 0 0 20.9883 8.4965
  L 16.9483 8.5035
  A 0.37 0.37 0.0 0 0 16.5789 8.8742
  L 16.5811 10.0942
  A 0.37 0.37 0.0 0 0 16.9517 10.4635
  L 20.9917 10.4565
  A 0.37 0.37 0.0 0 0 21.3611 10.0858
  L 21.3589 8.8658
  Z
  M 14.0654 9.5882
  A 0.73 0.73 0.0 0 0 13.2105 9.0095
  L 10.1075 9.6070
  A 0.73 0.73 0.0 0 0 9.5287 10.4619
  L 9.6346 11.0118
  A 0.73 0.73 0.0 0 0 10.4895 11.5905
  L 13.5925 10.9930
  A 0.73 0.73 0.0 0 0 14.1713 10.1381
  L 14.0654 9.5882
  Z
  M 29.1412 10.9029
  A 0.94 0.94 0.0 0 0 28.4230 9.7842
  L 25.1988 9.0812
  A 0.94 0.94 0.0 0 0 24.0801 9.7994
  L 24.0588 9.8971
  A 0.94 0.94 0.0 0 0 24.7770 11.0158
  L 28.0012 11.7188
  A 0.94 0.94 0.0 0 0 29.1199 11.0006
  L 29.1412 10.9029
  Z
  M 7.19 21.18
  Q 7.18 24.72 7.25 25.12
  A 3.81 3.78 -82.6 0 0 9.44 27.99
  C 12.47 29.35 15.69 29.42 19.05 29.42
  C 22.41 29.43 25.62 29.37 28.66 28.01
  A 3.81 3.78 82.7 0 0 30.86 25.15
  Q 30.93 24.74 30.93 21.21
  Q 30.94 17.67 30.87 17.26
  A 3.81 3.78 -82.6 0 0 28.68 14.39
  C 25.64 13.03 22.43 12.96 19.07 12.96
  C 15.71 12.95 12.49 13.01 9.45 14.37
  A 3.81 3.78 82.7 0 0 7.25 17.24
  Q 7.19 17.64 7.19 21.18
  Z"
/>
<rect fill="#76767f" x="-2.39" y="-0.98" transform="translate(18.97,9.48) rotate(-0.1)" width="4.78" height="1.96" rx="0.37"/>
<rect fill="#76767f" x="-2.31" y="-1.01" transform="translate(11.85,10.30) rotate(-10.9)" width="4.62" height="2.02" rx="0.73"/>
<rect fill="#76767f" x="-2.59" y="-0.99" transform="translate(26.60,10.40) rotate(12.3)" width="5.18" height="1.98" rx="0.94"/>
<path fill="#76767f" d="
  M 19.07 12.96
  C 22.43 12.96 25.64 13.03 28.68 14.39
  A 3.81 3.78 -82.6 0 1 30.87 17.26
  Q 30.94 17.67 30.93 21.21
  Q 30.93 24.74 30.86 25.15
  A 3.81 3.78 82.7 0 1 28.66 28.01
  C 25.62 29.37 22.41 29.43 19.05 29.42
  C 15.69 29.42 12.47 29.35 9.44 27.99
  A 3.81 3.78 -82.6 0 1 7.25 25.12
  Q 7.18 24.72 7.19 21.18
  Q 7.19 17.64 7.25 17.24
  A 3.81 3.78 82.7 0 1 9.45 14.37
  C 12.49 13.01 15.71 12.95 19.07 12.96
  Z
  M 19.04 16.27
  C 21.43 16.27 25.16 15.87 26.23 18.31
  A 0.58 0.58 0.0 0 0 27.11 18.54
  L 28.50 17.48
  A 0.43 0.42 69.8 0 0 28.67 17.10
  Q 28.61 16.14 26.76 15.69
  Q 24.20 15.06 19.04 15.07
  Q 13.88 15.07 11.32 15.69
  Q 9.47 16.14 9.41 17.10
  A 0.43 0.42 -69.8 0 0 9.58 17.48
  L 10.97 18.54
  A 0.58 0.58 0.0 0 0 11.85 18.31
  C 12.92 15.88 16.65 16.27 19.04 16.27
  Z
  M 24.0802 18.6077
  A 0.37 0.37 0.0 0 0 23.7115 18.2364
  L 14.3316 18.2036
  A 0.37 0.37 0.0 0 0 13.9603 18.5723
  L 13.9598 18.7323
  A 0.37 0.37 0.0 0 0 14.3285 19.1036
  L 23.7084 19.1364
  A 0.37 0.37 0.0 0 0 24.0797 18.7677
  L 24.0802 18.6077
  Z
  M 9.27 20.04
  L 9.27 24.29
  A 2.30 2.29 18.6 0 0 10.18 26.12
  L 10.82 26.60
  A 0.42 0.42 0.0 0 0 11.49 26.27
  L 11.49 21.03
  A 0.64 0.62 -77.4 0 0 11.14 20.46
  L 9.68 19.78
  A 0.29 0.28 -77.1 0 0 9.27 20.04
  Z
  M 28.2768 19.6347
  A 3.43 0.98 -84.7 0 0 26.9842 22.9595
  A 3.43 0.98 -84.7 0 0 27.6432 26.4653
  A 3.43 0.98 -84.7 0 0 28.9358 23.1405
  A 3.43 0.98 -84.7 0 0 28.2768 19.6347
  Z
  M 19.26 21.28
  Q 16.77 21.31 14.23 21.00
  A 0.62 0.62 0.0 0 0 13.53 21.62
  L 13.53 26.78
  A 0.66 0.65 0.0 0 0 14.19 27.43
  L 15.76 27.43
  A 0.44 0.43 -0.0 0 0 16.20 27.00
  L 16.23 24.55
  A 0.77 0.77 0.0 0 1 16.98 23.79
  Q 17.39 23.76 19.29 23.74
  Q 21.19 23.72 21.60 23.75
  A 0.77 0.77 0.0 0 1 22.36 24.49
  L 22.44 26.94
  A 0.44 0.43 -1.1 0 0 22.89 27.36
  L 24.45 27.33
  A 0.66 0.65 -1.1 0 0 25.10 26.67
  L 25.00 21.51
  A 0.62 0.62 0.0 0 0 24.30 20.91
  Q 21.76 21.26 19.26 21.28
  Z
  M 20.04 27.38
  A 0.86 0.83 -51.9 0 0 19.87 25.76
  Q 19.20 25.66 18.80 25.80
  A 0.92 0.85 -53.1 0 0 18.98 27.54
  Q 19.71 27.53 20.04 27.38
  Z"
/>
<path fill="#333335" d="
  M 19.04 15.07
  Q 24.20 15.06 26.76 15.69
  Q 28.61 16.14 28.67 17.10
  A 0.43 0.42 69.8 0 1 28.50 17.48
  L 27.11 18.54
  A 0.58 0.58 0.0 0 1 26.23 18.31
  C 25.16 15.87 21.43 16.27 19.04 16.27
  C 16.65 16.27 12.92 15.88 11.85 18.31
  A 0.58 0.58 0.0 0 1 10.97 18.54
  L 9.58 17.48
  A 0.43 0.42 -69.8 0 1 9.41 17.10
  Q 9.47 16.14 11.32 15.69
  Q 13.88 15.07 19.04 15.07
  Z"
/>
<rect fill="#333335" x="-5.06" y="-0.45" transform="translate(19.02,18.67) rotate(0.2)" width="10.12" height="0.90" rx="0.37"/>
<path fill="#333335" d="
  M 9.27 20.04
  A 0.29 0.28 -77.1 0 1 9.68 19.78
  L 11.14 20.46
  A 0.64 0.62 -77.4 0 1 11.49 21.03
  L 11.49 26.27
  A 0.42 0.42 0.0 0 1 10.82 26.60
  L 10.18 26.12
  A 2.30 2.29 18.6 0 1 9.27 24.29
  L 9.27 20.04
  Z"
/>
<ellipse fill="#333335" cx="0.00" cy="0.00" transform="translate(27.96,23.05) rotate(-84.7)" rx="3.43" ry="0.98"/>
<path fill="#333335" d="
  M 19.29 23.74
  Q 17.39 23.76 16.98 23.79
  A 0.77 0.77 0.0 0 0 16.23 24.55
  L 16.20 27.00
  A 0.44 0.43 -0.0 0 1 15.76 27.43
  L 14.19 27.43
  A 0.66 0.65 0.0 0 1 13.53 26.78
  L 13.53 21.62
  A 0.62 0.62 0.0 0 1 14.23 21.00
  Q 16.77 21.31 19.26 21.28
  Q 21.76 21.26 24.30 20.91
  A 0.62 0.62 0.0 0 1 25.00 21.51
  L 25.10 26.67
  A 0.66 0.65 -1.1 0 1 24.45 27.33
  L 22.89 27.36
  A 0.44 0.43 -1.1 0 1 22.44 26.94
  L 22.36 24.49
  A 0.77 0.77 0.0 0 0 21.60 23.75
  Q 21.19 23.72 19.29 23.74
  Z"
/>
<path fill="#333335" d="
  M 20.04 27.38
  Q 19.71 27.53 18.98 27.54
  A 0.92 0.85 -53.1 0 1 18.80 25.80
  Q 19.20 25.66 19.87 25.76
  A 0.86 0.83 -51.9 0 1 20.04 27.38
  Z"
/>
</svg>
