<?xml version="1.0" encoding="UTF-8" standalone="no"?>
<!DOCTYPE svg PUBLIC "-//W3C//DTD SVG 1.1//EN" "http://www.w3.org/Graphics/SVG/1.1/DTD/svg11.dtd">
<svg xmlns="http://www.w3.org/2000/svg" version="1.1" viewBox="0.00 0.00 38.00 38.00" width="19" height="19">
<g stroke-width="2.00" fill="none" stroke-linecap="butt">
<path stroke="#4d4d52" vector-effect="non-scaling-stroke" d="
  M 36.0269 9.3697
  A 7.34 7.34 0.0 0 0 28.6997 2.0169
  L 9.3597 1.9831
  A 7.34 7.34 0.0 0 0 2.0069 9.3103
  L 1.9731 28.6503
  A 7.34 7.34 0.0 0 0 9.3003 36.0031
  L 28.6403 36.0369
  A 7.34 7.34 0.0 0 0 35.9931 28.7097
  L 36.0269 9.3697"
/>
<path stroke="#4d4d52" vector-effect="non-scaling-stroke" d="
  M 27.2192 15.0268
  A 7.14 7.14 0.0 0 0 20.0419 7.9242
  L 17.7819 7.9361
  A 7.14 7.14 0.0 0 0 10.6794 15.1134
  L 10.7208 23.0132
  A 7.14 7.14 0.0 0 0 17.8981 30.1158
  L 20.1581 30.1039
  A 7.14 7.14 0.0 0 0 27.2606 22.9266
  L 27.2192 15.0268"
/>
<path stroke="#4d4d52" vector-effect="non-scaling-stroke" d="
  M 25.1700 14.1783
  A 6.21 4.36 -0.2 0 0 18.9448 9.8400
  A 6.21 4.36 -0.2 0 0 12.7500 14.2217
  A 6.21 4.36 -0.2 0 0 18.9752 18.5600
  A 6.21 4.36 -0.2 0 0 25.1700 14.1783"
/>
<path stroke="#4d4d52" vector-effect="non-scaling-stroke" d="
  M 18.95 28.20
  Q 21.56 28.22 23.72 26.66
  A 3.67 3.66 72.2 0 0 25.25 23.68
  L 25.25 19.14
  A 0.35 0.34 -18.0 0 0 24.70 18.86
  Q 22.42 20.52 18.99 20.51
  Q 15.56 20.49 13.29 18.81
  A 0.35 0.34 18.5 0 0 12.74 19.08
  L 12.69 23.62
  A 3.67 3.66 -71.6 0 0 14.19 26.61
  Q 16.34 28.19 18.95 28.20"
/>
<path stroke="#4d4d52" vector-effect="non-scaling-stroke" d="
  M 22.5199 14.1888
  A 3.57 2.94 -0.5 0 0 18.9243 11.2801
  A 3.57 2.94 -0.5 0 0 15.3801 14.2512
  A 3.57 2.94 -0.5 0 0 18.9757 17.1599
  A 3.57 2.94 -0.5 0 0 22.5199 14.1888"
/>
<path stroke="#4d4d52" vector-effect="non-scaling-stroke" d="
  M 20.5093 14.1743
  A 1.54 0.94 -1.7 0 0 18.9421 13.2804
  A 1.54 0.94 -1.7 0 0 17.4307 14.2657
  A 1.54 0.94 -1.7 0 0 18.9979 15.1596
  A 1.54 0.94 -1.7 0 0 20.5093 14.1743"
/>
</g>
<path fill="#76767f" d="
  M 29.90 0.00
  Q 36.60 1.37 38.00 8.06
  L 38.00 29.90
  Q 36.63 36.60 29.94 38.00
  L 8.10 38.00
  Q 1.40 36.64 0.00 29.94
  L 0.00 8.12
  Q 1.37 1.36 8.11 0.00
  L 29.90 0.00
  Z
  M 36.0269 9.3697
  A 7.34 7.34 0.0 0 0 28.6997 2.0169
  L 9.3597 1.9831
  A 7.34 7.34 0.0 0 0 2.0069 9.3103
  L 1.9731 28.6503
  A 7.34 7.34 0.0 0 0 9.3003 36.0031
  L 28.6403 36.0369
  A 7.34 7.34 0.0 0 0 35.9931 28.7097
  L 36.0269 9.3697
  Z"
/>
<path fill="#242425" d="
  M 35.9931 28.7097
  A 7.34 7.34 0.0 0 1 28.6403 36.0369
  L 9.3003 36.0031
  A 7.34 7.34 0.0 0 1 1.9731 28.6503
  L 2.0069 9.3103
  A 7.34 7.34 0.0 0 1 9.3597 1.9831
  L 28.6997 2.0169
  A 7.34 7.34 0.0 0 1 36.0269 9.3697
  L 35.9931 28.7097
  Z
  M 27.2192 15.0268
  A 7.14 7.14 0.0 0 0 20.0419 7.9242
  L 17.7819 7.9361
  A 7.14 7.14 0.0 0 0 10.6794 15.1134
  L 10.7208 23.0132
  A 7.14 7.14 0.0 0 0 17.8981 30.1158
  L 20.1581 30.1039
  A 7.14 7.14 0.0 0 0 27.2606 22.9266
  L 27.2192 15.0268
  Z"
/>
<path fill="#76767f" d="
  M 27.2606 22.9266
  A 7.14 7.14 0.0 0 1 20.1581 30.1039
  L 17.8981 30.1158
  A 7.14 7.14 0.0 0 1 10.7208 23.0132
  L 10.6794 15.1134
  A 7.14 7.14 0.0 0 1 17.7819 7.9361
  L 20.0419 7.9242
  A 7.14 7.14 0.0 0 1 27.2192 15.0268
  L 27.2606 22.9266
  Z
  M 25.1700 14.1783
  A 6.21 4.36 -0.2 0 0 18.9448 9.8400
  A 6.21 4.36 -0.2 0 0 12.7500 14.2217
  A 6.21 4.36 -0.2 0 0 18.9752 18.5600
  A 6.21 4.36 -0.2 0 0 25.1700 14.1783
  Z
  M 18.95 28.20
  Q 21.56 28.22 23.72 26.66
  A 3.67 3.66 72.2 0 0 25.25 23.68
  L 25.25 19.14
  A 0.35 0.34 -18.0 0 0 24.70 18.86
  Q 22.42 20.52 18.99 20.51
  Q 15.56 20.49 13.29 18.81
  A 0.35 0.34 18.5 0 0 12.74 19.08
  L 12.69 23.62
  A 3.67 3.66 -71.6 0 0 14.19 26.61
  Q 16.34 28.19 18.95 28.20
  Z"
/>
<path fill="#242425" d="
  M 25.1700 14.1783
  A 6.21 4.36 -0.2 0 1 18.9752 18.5600
  A 6.21 4.36 -0.2 0 1 12.7500 14.2217
  A 6.21 4.36 -0.2 0 1 18.9448 9.8400
  A 6.21 4.36 -0.2 0 1 25.1700 14.1783
  Z
  M 22.5199 14.1888
  A 3.57 2.94 -0.5 0 0 18.9243 11.2801
  A 3.57 2.94 -0.5 0 0 15.3801 14.2512
  A 3.57 2.94 -0.5 0 0 18.9757 17.1599
  A 3.57 2.94 -0.5 0 0 22.5199 14.1888
  Z"
/>
<path fill="#76767f" d="
  M 22.5199 14.1888
  A 3.57 2.94 -0.5 0 1 18.9757 17.1599
  A 3.57 2.94 -0.5 0 1 15.3801 14.2512
  A 3.57 2.94 -0.5 0 1 18.9243 11.2801
  A 3.57 2.94 -0.5 0 1 22.5199 14.1888
  Z
  M 20.5093 14.1743
  A 1.54 0.94 -1.7 0 0 18.9421 13.2804
  A 1.54 0.94 -1.7 0 0 17.4307 14.2657
  A 1.54 0.94 -1.7 0 0 18.9979 15.1596
  A 1.54 0.94 -1.7 0 0 20.5093 14.1743
  Z"
/>
<ellipse fill="#242425" cx="0.00" cy="0.00" transform="translate(18.97,14.22) rotate(-1.7)" rx="1.54" ry="0.94"/>
<path fill="#242425" d="
  M 18.99 20.51
  Q 22.42 20.52 24.70 18.86
  A 0.35 0.34 -18.0 0 1 25.25 19.14
  L 25.25 23.68
  A 3.67 3.66 72.2 0 1 23.72 26.66
  Q 21.56 28.22 18.95 28.20
  Q 16.34 28.19 14.19 26.61
  A 3.67 3.66 -71.6 0 1 12.69 23.62
  L 12.74 19.08
  A 0.35 0.34 18.5 0 1 13.29 18.81
  Q 15.56 20.49 18.99 20.51
  Z"
/>
</svg>
