<?xml version="1.0" encoding="UTF-8" standalone="no"?>
<!DOCTYPE svg PUBLIC "-//W3C//DTD SVG 1.1//EN" "http://www.w3.org/Graphics/SVG/1.1/DTD/svg11.dtd">
<svg xmlns="http://www.w3.org/2000/svg" version="1.1" viewBox="0.00 0.00 38.00 38.00">
<g stroke-width="2.00" fill="none" stroke-linecap="butt">
<path stroke="#243871" vector-effect="non-scaling-stroke" d="
  M 36.0468 9.3897
  A 7.38 7.38 0.0 0 0 28.6797 1.9969
  L 9.3797 1.9632
  A 7.38 7.38 0.0 0 0 1.9869 9.3303
  L 1.9532 28.6303
  A 7.38 7.38 0.0 0 0 9.3203 36.0231
  L 28.6203 36.0568
  A 7.38 7.38 0.0 0 0 36.0131 28.6897
  L 36.0468 9.3897"
/>
<path stroke="#243871" vector-effect="non-scaling-stroke" d="
  M 28.46 13.75
  A 7.60 7.60 0.0 0 0 20.86 6.15
  L 16.92 6.15
  A 7.60 7.60 0.0 0 0 9.32 13.75
  L 9.32 21.87
  A 7.60 7.60 0.0 0 0 16.92 29.47
  L 20.86 29.47
  A 7.60 7.60 0.0 0 0 28.46 21.87
  L 28.46 13.75"
/>
<path stroke="#243871" vector-effect="non-scaling-stroke" d="
  M 15.4020 30.0279
  A 2.13 0.70 -29.6 0 0 13.2042 30.4714
  A 2.13 0.70 -29.6 0 0 11.6980 32.1321
  A 2.13 0.70 -29.6 0 0 13.8958 31.6886
  A 2.13 0.70 -29.6 0 0 15.4020 30.0279"
/>
<path stroke="#243871" vector-effect="non-scaling-stroke" d="
  M 22.4471 29.9727
  A 2.15 0.73 -149.0 0 0 23.9140 31.7057
  A 2.15 0.73 -149.0 0 0 26.1329 32.1873
  A 2.15 0.73 -149.0 0 0 24.6660 30.4543
  A 2.15 0.73 -149.0 0 0 22.4471 29.9727"
/>
<path stroke="#253c7d" vector-effect="non-scaling-stroke" d="
  M 26.0646 13.3951
  A 4.88 4.88 0.0 0 0 21.1676 8.5321
  L 16.6276 8.5480
  A 4.88 4.88 0.0 0 0 11.7646 13.4450
  L 11.7954 22.2649
  A 4.88 4.88 0.0 0 0 16.6924 27.1279
  L 21.2324 27.1120
  A 4.88 4.88 0.0 0 0 26.0954 22.2150
  L 26.0646 13.3951"
/>
<path stroke="#253c7d" vector-effect="non-scaling-stroke" d="
  M 15.9200 11.0046
  A 3.07 1.16 -179.9 0 0 18.9880 12.1700
  A 3.07 1.16 -179.9 0 0 22.0600 11.0154
  A 3.07 1.16 -179.9 0 0 18.9920 9.8500
  A 3.07 1.16 -179.9 0 0 15.9200 11.0046"
/>
<path stroke="#253c7d" vector-effect="non-scaling-stroke" d="
  M 24.7461 14.5994
  A 0.59 0.59 0.0 0 0 24.1602 14.0053
  L 14.0804 13.9349
  A 0.59 0.59 0.0 0 0 13.4863 14.5208
  L 13.4539 19.1606
  A 0.59 0.59 0.0 0 0 14.0398 19.7547
  L 24.1196 19.8251
  A 0.59 0.59 0.0 0 0 24.7137 19.2392
  L 24.7461 14.5994"
/>
<path stroke="#253c7d" vector-effect="non-scaling-stroke" d="
  M 16.51 23.40
  A 1.13 1.13 0.0 0 0 15.38 22.27
  A 1.13 1.13 0.0 0 0 14.25 23.40
  A 1.13 1.13 0.0 0 0 15.38 24.53
  A 1.13 1.13 0.0 0 0 16.51 23.40"
/>
<path stroke="#253c7d" vector-effect="non-scaling-stroke" d="
  M 23.52 23.41
  A 1.11 1.11 0.0 0 0 22.41 22.30
  A 1.11 1.11 0.0 0 0 21.30 23.41
  A 1.11 1.11 0.0 0 0 22.41 24.52
  A 1.11 1.11 0.0 0 0 23.52 23.41"
/>
<path stroke="#253c7d" vector-effect="non-scaling-stroke" d="
  M 22.90 16.86
  A 0.75 0.75 0.0 0 0 22.15 16.11
  L 16.11 16.11
  A 0.75 0.75 0.0 0 0 15.36 16.86
  L 15.36 16.92
  A 0.75 0.75 0.0 0 0 16.11 17.67
  L 22.15 17.67
  A 0.75 0.75 0.0 0 0 22.90 16.92
  L 22.90 16.86"
/>
</g>
<path fill="#284db9" d="
  M 29.90 0.00
  Q 36.54 1.33 38.00 8.05
  L 38.00 29.90
  Q 36.68 36.54 29.95 38.00
  L 8.10 38.00
  Q 1.46 36.68 0.00 29.95
  L 0.00 8.11
  Q 1.32 1.46 8.05 0.00
  L 29.90 0.00
  Z
  M 36.0468 9.3897
  A 7.38 7.38 0.0 0 0 28.6797 1.9969
  L 9.3797 1.9632
  A 7.38 7.38 0.0 0 0 1.9869 9.3303
  L 1.9532 28.6303
  A 7.38 7.38 0.0 0 0 9.3203 36.0231
  L 28.6203 36.0568
  A 7.38 7.38 0.0 0 0 36.0131 28.6897
  L 36.0468 9.3897
  Z"
/>
<path fill="#202228" d="
  M 36.0131 28.6897
  A 7.38 7.38 0.0 0 1 28.6203 36.0568
  L 9.3203 36.0231
  A 7.38 7.38 0.0 0 1 1.9532 28.6303
  L 1.9869 9.3303
  A 7.38 7.38 0.0 0 1 9.3797 1.9632
  L 28.6797 1.9969
  A 7.38 7.38 0.0 0 1 36.0468 9.3897
  L 36.0131 28.6897
  Z
  M 28.46 13.75
  A 7.60 7.60 0.0 0 0 20.86 6.15
  L 16.92 6.15
  A 7.60 7.60 0.0 0 0 9.32 13.75
  L 9.32 21.87
  A 7.60 7.60 0.0 0 0 16.92 29.47
  L 20.86 29.47
  A 7.60 7.60 0.0 0 0 28.46 21.87
  L 28.46 13.75
  Z
  M 15.4020 30.0279
  A 2.13 0.70 -29.6 0 0 13.2042 30.4714
  A 2.13 0.70 -29.6 0 0 11.6980 32.1321
  A 2.13 0.70 -29.6 0 0 13.8958 31.6886
  A 2.13 0.70 -29.6 0 0 15.4020 30.0279
  Z
  M 22.4471 29.9727
  A 2.15 0.73 -149.0 0 0 23.9140 31.7057
  A 2.15 0.73 -149.0 0 0 26.1329 32.1873
  A 2.15 0.73 -149.0 0 0 24.6660 30.4543
  A 2.15 0.73 -149.0 0 0 22.4471 29.9727
  Z"
/>
<path fill="#284db9" d="
  M 28.46 21.87
  A 7.60 7.60 0.0 0 1 20.86 29.47
  L 16.92 29.47
  A 7.60 7.60 0.0 0 1 9.32 21.87
  L 9.32 13.75
  A 7.60 7.60 0.0 0 1 16.92 6.15
  L 20.86 6.15
  A 7.60 7.60 0.0 0 1 28.46 13.75
  L 28.46 21.87
  Z
  M 26.0646 13.3951
  A 4.88 4.88 0.0 0 0 21.1676 8.5321
  L 16.6276 8.5480
  A 4.88 4.88 0.0 0 0 11.7646 13.4450
  L 11.7954 22.2649
  A 4.88 4.88 0.0 0 0 16.6924 27.1279
  L 21.2324 27.1120
  A 4.88 4.88 0.0 0 0 26.0954 22.2150
  L 26.0646 13.3951
  Z"
/>
<path fill="#212a41" d="
  M 26.0954 22.2150
  A 4.88 4.88 0.0 0 1 21.2324 27.1120
  L 16.6924 27.1279
  A 4.88 4.88 0.0 0 1 11.7954 22.2649
  L 11.7646 13.4450
  A 4.88 4.88 0.0 0 1 16.6276 8.5480
  L 21.1676 8.5321
  A 4.88 4.88 0.0 0 1 26.0646 13.3951
  L 26.0954 22.2150
  Z
  M 15.9200 11.0046
  A 3.07 1.16 -179.9 0 0 18.9880 12.1700
  A 3.07 1.16 -179.9 0 0 22.0600 11.0154
  A 3.07 1.16 -179.9 0 0 18.9920 9.8500
  A 3.07 1.16 -179.9 0 0 15.9200 11.0046
  Z
  M 24.7461 14.5994
  A 0.59 0.59 0.0 0 0 24.1602 14.0053
  L 14.0804 13.9349
  A 0.59 0.59 0.0 0 0 13.4863 14.5208
  L 13.4539 19.1606
  A 0.59 0.59 0.0 0 0 14.0398 19.7547
  L 24.1196 19.8251
  A 0.59 0.59 0.0 0 0 24.7137 19.2392
  L 24.7461 14.5994
  Z
  M 16.51 23.40
  A 1.13 1.13 0.0 0 0 15.38 22.27
  A 1.13 1.13 0.0 0 0 14.25 23.40
  A 1.13 1.13 0.0 0 0 15.38 24.53
  A 1.13 1.13 0.0 0 0 16.51 23.40
  Z
  M 23.52 23.41
  A 1.11 1.11 0.0 0 0 22.41 22.30
  A 1.11 1.11 0.0 0 0 21.30 23.41
  A 1.11 1.11 0.0 0 0 22.41 24.52
  A 1.11 1.11 0.0 0 0 23.52 23.41
  Z"
/>
<ellipse fill="#284db9" cx="0.00" cy="0.00" transform="translate(18.99,11.01) rotate(-179.9)" rx="3.07" ry="1.16"/>
<path fill="#284db9" d="
  M 24.7137 19.2392
  A 0.59 0.59 0.0 0 1 24.1196 19.8251
  L 14.0398 19.7547
  A 0.59 0.59 0.0 0 1 13.4539 19.1606
  L 13.4863 14.5208
  A 0.59 0.59 0.0 0 1 14.0804 13.9349
  L 24.1602 14.0053
  A 0.59 0.59 0.0 0 1 24.7461 14.5994
  L 24.7137 19.2392
  Z
  M 22.90 16.86
  A 0.75 0.75 0.0 0 0 22.15 16.11
  L 16.11 16.11
  A 0.75 0.75 0.0 0 0 15.36 16.86
  L 15.36 16.92
  A 0.75 0.75 0.0 0 0 16.11 17.67
  L 22.15 17.67
  A 0.75 0.75 0.0 0 0 22.90 16.92
  L 22.90 16.86
  Z"
/>
<rect fill="#212a41" x="15.36" y="16.11" width="7.54" height="1.56" rx="0.75"/>
<circle fill="#284db9" cx="15.38" cy="23.40" r="1.13"/>
<circle fill="#284db9" cx="22.41" cy="23.41" r="1.11"/>
<ellipse fill="#284db9" cx="0.00" cy="0.00" transform="translate(13.55,31.08) rotate(-29.6)" rx="2.13" ry="0.70"/>
<ellipse fill="#284db9" cx="0.00" cy="0.00" transform="translate(24.29,31.08) rotate(-149.0)" rx="2.15" ry="0.73"/>
</svg>
