<?xml version="1.0" encoding="UTF-8" standalone="no"?>
<!DOCTYPE svg PUBLIC "-//W3C//DTD SVG 1.1//EN" "http://www.w3.org/Graphics/SVG/1.1/DTD/svg11.dtd">
<svg xmlns="http://www.w3.org/2000/svg" version="1.1" viewBox="0.00 0.00 38.00 38.00">
<g stroke-width="2.00" fill="none" stroke-linecap="butt">
<path stroke="#4d4d52" vector-effect="non-scaling-stroke" d="
  M 36.0269 9.3697
  A 7.34 7.34 0.0 0 0 28.6997 2.0169
  L 9.3597 1.9831
  A 7.34 7.34 0.0 0 0 2.0069 9.3103
  L 1.9731 28.6503
  A 7.34 7.34 0.0 0 0 9.3003 36.0031
  L 28.6403 36.0369
  A 7.34 7.34 0.0 0 0 35.9931 28.7097
  L 36.0269 9.3697"
/>
<path stroke="#4d4d52" vector-effect="non-scaling-stroke" d="
  M 26.78 21.55
  Q 26.20 25.51 29.82 25.98
  A 0.87 0.86 -71.2 0 0 30.69 25.55
  L 30.84 25.30
  A 0.70 0.70 0.0 0 0 30.36 24.26
  Q 27.83 23.77 28.62 20.04
  A 1.18 1.17 81.4 0 1 29.19 19.26
  L 30.89 18.28
  A 1.04 1.04 0.0 0 0 30.89 16.48
  L 19.16 9.70
  A 0.51 0.51 0.0 0 0 18.66 9.70
  L 7.14 16.35
  A 1.18 1.18 0.0 0 0 7.14 18.40
  L 10.96 20.61
  A 0.99 0.99 0.0 0 1 11.45 21.39
  C 11.81 27.16 13.13 27.18 18.25 30.26
  A 0.85 0.83 -43.5 0 0 19.11 30.27
  L 23.79 27.57
  A 2.63 2.51 -85.0 0 0 24.53 26.92
  Q 26.12 24.91 26.16 21.49
  A 0.31 0.30 -86.5 0 1 26.49 21.19
  L 26.50 21.19
  A 0.31 0.31 0.0 0 1 26.78 21.55"
/>
<path stroke="#55555a" vector-effect="non-scaling-stroke" d="
  M 19.08 11.94
  A 0.32 0.32 0.0 0 0 18.76 11.94
  L 9.69 17.17
  A 0.32 0.32 0.0 0 0 9.69 17.73
  L 18.74 22.95
  A 0.32 0.32 0.0 0 0 19.06 22.95
  L 28.13 17.72
  A 0.32 0.32 0.0 0 0 28.13 17.16
  L 19.08 11.94"
/>
<path stroke="#55555a" vector-effect="non-scaling-stroke" d="
  M 23.38 22.95
  L 19.42 25.24
  A 0.99 0.99 0.0 0 1 18.44 25.24
  L 13.82 22.57
  A 0.26 0.26 0.0 0 0 13.44 22.85
  L 13.85 24.58
  A 2.04 2.03 -81.7 0 0 14.81 25.88
  L 18.37 27.93
  A 0.74 0.72 -44.3 0 0 19.10 27.93
  L 22.68 25.86
  A 2.18 2.18 0.0 0 0 23.75 24.28
  L 23.90 23.30
  A 0.35 0.35 0.0 0 0 23.38 22.95"
/>
</g>
<path fill="#76767f" d="
  M 29.90 0.00
  Q 36.60 1.37 38.00 8.06
  L 38.00 29.90
  Q 36.63 36.60 29.94 38.00
  L 8.10 38.00
  Q 1.40 36.63 0.00 29.94
  L 0.00 8.11
  Q 1.37 1.37 8.11 0.00
  L 29.90 0.00
  Z
  M 36.0269 9.3697
  A 7.34 7.34 0.0 0 0 28.6997 2.0169
  L 9.3597 1.9831
  A 7.34 7.34 0.0 0 0 2.0069 9.3103
  L 1.9731 28.6503
  A 7.34 7.34 0.0 0 0 9.3003 36.0031
  L 28.6403 36.0369
  A 7.34 7.34 0.0 0 0 35.9931 28.7097
  L 36.0269 9.3697
  Z"
/>
<path fill="#242425" d="
  M 35.9931 28.7097
  A 7.34 7.34 0.0 0 1 28.6403 36.0369
  L 9.3003 36.0031
  A 7.34 7.34 0.0 0 1 1.9731 28.6503
  L 2.0069 9.3103
  A 7.34 7.34 0.0 0 1 9.3597 1.9831
  L 28.6997 2.0169
  A 7.34 7.34 0.0 0 1 36.0269 9.3697
  L 35.9931 28.7097
  Z
  M 26.78 21.55
  Q 26.20 25.51 29.82 25.98
  A 0.87 0.86 -71.2 0 0 30.69 25.55
  L 30.84 25.30
  A 0.70 0.70 0.0 0 0 30.36 24.26
  Q 27.83 23.77 28.62 20.04
  A 1.18 1.17 81.4 0 1 29.19 19.26
  L 30.89 18.28
  A 1.04 1.04 0.0 0 0 30.89 16.48
  L 19.16 9.70
  A 0.51 0.51 0.0 0 0 18.66 9.70
  L 7.14 16.35
  A 1.18 1.18 0.0 0 0 7.14 18.40
  L 10.96 20.61
  A 0.99 0.99 0.0 0 1 11.45 21.39
  C 11.81 27.16 13.13 27.18 18.25 30.26
  A 0.85 0.83 -43.5 0 0 19.11 30.27
  L 23.79 27.57
  A 2.63 2.51 -85.0 0 0 24.53 26.92
  Q 26.12 24.91 26.16 21.49
  A 0.31 0.30 -86.5 0 1 26.49 21.19
  L 26.50 21.19
  A 0.31 0.31 0.0 0 1 26.78 21.55
  Z"
/>
<path fill="#76767f" d="
  M 26.78 21.55
  A 0.31 0.31 0.0 0 0 26.50 21.19
  L 26.49 21.19
  A 0.31 0.30 -86.5 0 0 26.16 21.49
  Q 26.12 24.91 24.53 26.92
  A 2.63 2.51 -85.0 0 1 23.79 27.57
  L 19.11 30.27
  A 0.85 0.83 -43.5 0 1 18.25 30.26
  C 13.13 27.18 11.81 27.16 11.45 21.39
  A 0.99 0.99 0.0 0 0 10.96 20.61
  L 7.14 18.40
  A 1.18 1.18 0.0 0 1 7.14 16.35
  L 18.66 9.70
  A 0.51 0.51 0.0 0 1 19.16 9.70
  L 30.89 16.48
  A 1.04 1.04 0.0 0 1 30.89 18.28
  L 29.19 19.26
  A 1.18 1.17 81.4 0 0 28.62 20.04
  Q 27.83 23.77 30.36 24.26
  A 0.70 0.70 0.0 0 1 30.84 25.30
  L 30.69 25.55
  A 0.87 0.86 -71.2 0 1 29.82 25.98
  Q 26.20 25.51 26.78 21.55
  Z
  M 19.08 11.94
  A 0.32 0.32 0.0 0 0 18.76 11.94
  L 9.69 17.17
  A 0.32 0.32 0.0 0 0 9.69 17.73
  L 18.74 22.95
  A 0.32 0.32 0.0 0 0 19.06 22.95
  L 28.13 17.72
  A 0.32 0.32 0.0 0 0 28.13 17.16
  L 19.08 11.94
  Z
  M 23.38 22.95
  L 19.42 25.24
  A 0.99 0.99 0.0 0 1 18.44 25.24
  L 13.82 22.57
  A 0.26 0.26 0.0 0 0 13.44 22.85
  L 13.85 24.58
  A 2.04 2.03 -81.7 0 0 14.81 25.88
  L 18.37 27.93
  A 0.74 0.72 -44.3 0 0 19.10 27.93
  L 22.68 25.86
  A 2.18 2.18 0.0 0 0 23.75 24.28
  L 23.90 23.30
  A 0.35 0.35 0.0 0 0 23.38 22.95
  Z"
/>
<path fill="#333335" d="
  M 19.08 11.94
  L 28.13 17.16
  A 0.32 0.32 0.0 0 1 28.13 17.72
  L 19.06 22.95
  A 0.32 0.32 0.0 0 1 18.74 22.95
  L 9.69 17.73
  A 0.32 0.32 0.0 0 1 9.69 17.17
  L 18.76 11.94
  A 0.32 0.32 0.0 0 1 19.08 11.94
  Z"
/>
<path fill="#333335" d="
  M 23.38 22.95
  A 0.35 0.35 0.0 0 1 23.90 23.30
  L 23.75 24.28
  A 2.18 2.18 0.0 0 1 22.68 25.86
  L 19.10 27.93
  A 0.74 0.72 -44.3 0 1 18.37 27.93
  L 14.81 25.88
  A 2.04 2.03 -81.7 0 1 13.85 24.58
  L 13.44 22.85
  A 0.26 0.26 0.0 0 1 13.82 22.57
  L 18.44 25.24
  A 0.99 0.99 0.0 0 0 19.42 25.24
  L 23.38 22.95
  Z"
/>
</svg>
