<?xml version="1.0" encoding="UTF-8"?>
<!-- Generated by Pixelmator Pro 3.7.1 -->
<svg xmlns="http://www.w3.org/2000/svg" width="20" height="20" viewBox="0 0 601.0 601.0">
    <g id="layer1">
        <clipPath id="clipPath1">
            <path d="M 0 22 L 601 22 L 601 586 L 0 586 Z"/>
        </clipPath>
        <g id="path3590" clip-path="url(#clipPath1)">
            <path id="path1" fill="#003478" stroke="none" d="M 301 -65 C 225.482224 -49.667664 159.857239 -7.101074 114.8125 52 L 51 52 L 51 241.25 C 51 392.430725 158.365845 518.541077 301 547.5 C 443.634155 518.541077 551 392.430725 551 241.25 L 551 52 L 487.1875 52 C 442.142761 -7.101074 376.517792 -49.667664 301 -65 Z"/>
            <path id="path2" fill="#ffffff" fill-rule="evenodd" stroke="none" d="M 295.030884 -94.400169 C 218.450394 -78.852066 149.961136 -37.463909 100.373703 22 L 51 22 C 34.431458 22 21 35.431458 21 52 L 21 241.25 C 21 404.874207 136.600769 544.734192 295.030914 576.900146 C 298.970123 577.699951 303.029877 577.699951 306.969086 576.900146 C 465.399231 544.734192 581 404.874207 581 241.25 L 581 52 C 581 35.431458 567.568542 22 551 22 L 501.626282 22 C 452.038849 -37.463917 383.549591 -78.852074 306.969086 -94.400169 C 303.029877 -95.199944 298.970123 -95.199944 295.030884 -94.400169 Z M 114.8125 52 C 159.857239 -7.101074 225.482224 -49.667664 301 -65 C 376.517792 -49.667664 442.142761 -7.101074 487.1875 52 L 551 52 L 551 241.25 C 551 392.430725 443.634155 518.541077 301 547.5 C 158.365845 518.541077 51 392.430725 51 241.25 L 51 52 L 114.8125 52 Z"/>
        </g>
        <path id="Rectangle" fill="#ffffff" fill-rule="evenodd" stroke="none" d="M 110 52 L 494 52 L 494 22 L 110 22 Z"/>
    </g>
</svg>
