<?xml version="1.0" encoding="UTF-8" standalone="no"?>
<!DOCTYPE svg PUBLIC "-//W3C//DTD SVG 1.1//EN" "http://www.w3.org/Graphics/SVG/1.1/DTD/svg11.dtd">
<svg xmlns="http://www.w3.org/2000/svg" version="1.1" viewBox="0.00 0.00 38.00 38.00">
<g stroke-width="2.00" fill="none" stroke-linecap="butt">
<path stroke="#9ab1e5" vector-effect="non-scaling-stroke" d="
  M 35.9830 9.2403
  A 7.28 7.28 0.0 0 0 28.6903 1.9730
  L 9.2303 2.0070
  A 7.28 7.28 0.0 0 0 1.9630 9.2997
  L 1.9970 28.7597
  A 7.28 7.28 0.0 0 0 9.2897 36.0270
  L 28.7497 35.9930
  A 7.28 7.28 0.0 0 0 36.0170 28.7003
  L 35.9830 9.2403"
/>
<path stroke="#9ab1e5" vector-effect="non-scaling-stroke" d="
  M 18.81 30.10
  Q 20.63 30.10 22.59 30.82
  A 0.56 0.56 0.0 0 0 23.31 30.47
  Q 24.15 27.79 21.58 26.73
  A 0.78 0.78 0.0 0 1 21.10 25.93
  L 21.49 22.08
  A 0.36 0.36 0.0 0 1 21.97 21.77
  L 29.67 24.44
  A 0.78 0.77 12.1 0 0 30.70 23.78
  L 30.94 21.40
  A 1.60 1.59 18.1 0 0 30.15 19.85
  L 22.33 15.33
  A 0.94 0.94 0.0 0 1 21.86 14.49
  Q 22.09 7.20 18.83 7.19
  Q 15.57 7.19 15.78 14.48
  A 0.94 0.94 0.0 0 1 15.31 15.32
  L 7.48 19.83
  A 1.60 1.59 -18.0 0 0 6.69 21.38
  L 6.92 23.76
  A 0.78 0.77 -12.0 0 0 7.95 24.42
  L 15.66 21.76
  A 0.36 0.36 0.0 0 1 16.14 22.07
  L 16.52 25.93
  A 0.78 0.78 0.0 0 1 16.04 26.72
  Q 13.46 27.78 14.30 30.46
  A 0.56 0.56 0.0 0 0 15.02 30.82
  Q 16.98 30.10 18.81 30.10"
/>
<path stroke="#89a3e2" vector-effect="non-scaling-stroke" d="
  M 18.80 28.54
  Q 20.08 28.54 21.42 28.88
  A 0.20 0.20 0.0 0 0 21.66 28.76
  Q 21.73 28.60 21.69 28.51
  A 0.39 0.33 10.2 0 0 21.54 28.33
  L 20.01 27.45
  A 1.01 1.00 -72.6 0 1 19.51 26.48
  L 20.12 20.47
  A 0.70 0.69 -77.5 0 1 21.04 19.88
  L 28.24 22.37
  A 0.81 0.81 0.0 0 0 28.91 20.90
  L 20.74 16.19
  A 0.98 0.96 16.1 0 1 20.26 15.34
  Q 20.29 12.70 20.05 10.32
  Q 19.90 8.84 18.80 8.84
  Q 17.69 8.84 17.54 10.32
  Q 17.30 12.70 17.33 15.34
  A 0.98 0.96 -16.1 0 1 16.85 16.19
  L 8.68 20.90
  A 0.81 0.81 0.0 0 0 9.35 22.37
  L 16.55 19.88
  A 0.70 0.69 77.5 0 1 17.47 20.47
  L 18.08 26.48
  A 1.01 1.00 72.6 0 1 17.58 27.45
  L 16.05 28.33
  A 0.39 0.33 -10.2 0 0 15.90 28.51
  Q 15.86 28.60 15.93 28.76
  A 0.20 0.20 0.0 0 0 16.17 28.88
  Q 17.51 28.54 18.80 28.54"
/>
</g>
<path fill="#5c7ed8" d="
  M 29.76 0.00
  Q 36.62 1.28 38.00 8.15
  L 38.00 29.88
  Q 36.64 36.60 29.92 38.00
  L 8.12 38.00
  Q 1.40 36.65 0.00 29.93
  L 0.00 8.13
  Q 1.36 1.35 8.13 0.00
  L 29.76 0.00
  Z
  M 35.9830 9.2403
  A 7.28 7.28 0.0 0 0 28.6903 1.9730
  L 9.2303 2.0070
  A 7.28 7.28 0.0 0 0 1.9630 9.2997
  L 1.9970 28.7597
  A 7.28 7.28 0.0 0 0 9.2897 36.0270
  L 28.7497 35.9930
  A 7.28 7.28 0.0 0 0 36.0170 28.7003
  L 35.9830 9.2403
  Z"
/>
<path fill="#d7e4f2" d="
  M 36.0170 28.7003
  A 7.28 7.28 0.0 0 1 28.7497 35.9930
  L 9.2897 36.0270
  A 7.28 7.28 0.0 0 1 1.9970 28.7597
  L 1.9630 9.2997
  A 7.28 7.28 0.0 0 1 9.2303 2.0070
  L 28.6903 1.9730
  A 7.28 7.28 0.0 0 1 35.9830 9.2403
  L 36.0170 28.7003
  Z
  M 18.81 30.10
  Q 20.63 30.10 22.59 30.82
  A 0.56 0.56 0.0 0 0 23.31 30.47
  Q 24.15 27.79 21.58 26.73
  A 0.78 0.78 0.0 0 1 21.10 25.93
  L 21.49 22.08
  A 0.36 0.36 0.0 0 1 21.97 21.77
  L 29.67 24.44
  A 0.78 0.77 12.1 0 0 30.70 23.78
  L 30.94 21.40
  A 1.60 1.59 18.1 0 0 30.15 19.85
  L 22.33 15.33
  A 0.94 0.94 0.0 0 1 21.86 14.49
  Q 22.09 7.20 18.83 7.19
  Q 15.57 7.19 15.78 14.48
  A 0.94 0.94 0.0 0 1 15.31 15.32
  L 7.48 19.83
  A 1.60 1.59 -18.0 0 0 6.69 21.38
  L 6.92 23.76
  A 0.78 0.77 -12.0 0 0 7.95 24.42
  L 15.66 21.76
  A 0.36 0.36 0.0 0 1 16.14 22.07
  L 16.52 25.93
  A 0.78 0.78 0.0 0 1 16.04 26.72
  Q 13.46 27.78 14.30 30.46
  A 0.56 0.56 0.0 0 0 15.02 30.82
  Q 16.98 30.10 18.81 30.10
  Z"
/>
<path fill="#5c7ed8" d="
  M 18.83 7.19
  Q 22.09 7.20 21.86 14.49
  A 0.94 0.94 0.0 0 0 22.33 15.33
  L 30.15 19.85
  A 1.60 1.59 18.1 0 1 30.94 21.40
  L 30.70 23.78
  A 0.78 0.77 12.1 0 1 29.67 24.44
  L 21.97 21.77
  A 0.36 0.36 0.0 0 0 21.49 22.08
  L 21.10 25.93
  A 0.78 0.78 0.0 0 0 21.58 26.73
  Q 24.15 27.79 23.31 30.47
  A 0.56 0.56 0.0 0 1 22.59 30.82
  Q 20.63 30.10 18.81 30.10
  Q 16.98 30.10 15.02 30.82
  A 0.56 0.56 0.0 0 1 14.30 30.46
  Q 13.46 27.78 16.04 26.72
  A 0.78 0.78 0.0 0 0 16.52 25.93
  L 16.14 22.07
  A 0.36 0.36 0.0 0 0 15.66 21.76
  L 7.95 24.42
  A 0.78 0.77 -12.0 0 1 6.92 23.76
  L 6.69 21.38
  A 1.60 1.59 -18.0 0 1 7.48 19.83
  L 15.31 15.32
  A 0.94 0.94 0.0 0 0 15.78 14.48
  Q 15.57 7.19 18.83 7.19
  Z
  M 18.80 28.54
  Q 20.08 28.54 21.42 28.88
  A 0.20 0.20 0.0 0 0 21.66 28.76
  Q 21.73 28.60 21.69 28.51
  A 0.39 0.33 10.2 0 0 21.54 28.33
  L 20.01 27.45
  A 1.01 1.00 -72.6 0 1 19.51 26.48
  L 20.12 20.47
  A 0.70 0.69 -77.5 0 1 21.04 19.88
  L 28.24 22.37
  A 0.81 0.81 0.0 0 0 28.91 20.90
  L 20.74 16.19
  A 0.98 0.96 16.1 0 1 20.26 15.34
  Q 20.29 12.70 20.05 10.32
  Q 19.90 8.84 18.80 8.84
  Q 17.69 8.84 17.54 10.32
  Q 17.30 12.70 17.33 15.34
  A 0.98 0.96 -16.1 0 1 16.85 16.19
  L 8.68 20.90
  A 0.81 0.81 0.0 0 0 9.35 22.37
  L 16.55 19.88
  A 0.70 0.69 77.5 0 1 17.47 20.47
  L 18.08 26.48
  A 1.01 1.00 72.6 0 1 17.58 27.45
  L 16.05 28.33
  A 0.39 0.33 -10.2 0 0 15.90 28.51
  Q 15.86 28.60 15.93 28.76
  A 0.20 0.20 0.0 0 0 16.17 28.88
  Q 17.51 28.54 18.80 28.54
  Z"
/>
<path fill="#b5c7eb" d="
  M 18.80 8.84
  Q 19.90 8.84 20.05 10.32
  Q 20.29 12.70 20.26 15.34
  A 0.98 0.96 16.1 0 0 20.74 16.19
  L 28.91 20.90
  A 0.81 0.81 0.0 0 1 28.24 22.37
  L 21.04 19.88
  A 0.70 0.69 -77.5 0 0 20.12 20.47
  L 19.51 26.48
  A 1.01 1.00 -72.6 0 0 20.01 27.45
  L 21.54 28.33
  A 0.39 0.33 10.2 0 1 21.69 28.51
  Q 21.73 28.60 21.66 28.76
  A 0.20 0.20 0.0 0 1 21.42 28.88
  Q 20.08 28.54 18.80 28.54
  Q 17.51 28.54 16.17 28.88
  A 0.20 0.20 0.0 0 1 15.93 28.76
  Q 15.86 28.60 15.90 28.51
  A 0.39 0.33 -10.2 0 1 16.05 28.33
  L 17.58 27.45
  A 1.01 1.00 72.6 0 0 18.08 26.48
  L 17.47 20.47
  A 0.70 0.69 77.5 0 0 16.55 19.88
  L 9.35 22.37
  A 0.81 0.81 0.0 0 1 8.68 20.90
  L 16.85 16.19
  A 0.98 0.96 -16.1 0 0 17.33 15.34
  Q 17.30 12.70 17.54 10.32
  Q 17.69 8.84 18.80 8.84
  Z"
/>
</svg>
