<?xml version="1.0" encoding="UTF-8" standalone="no"?>
<!DOCTYPE svg PUBLIC "-//W3C//DTD SVG 1.1//EN" "http://www.w3.org/Graphics/SVG/1.1/DTD/svg11.dtd">
<svg xmlns="http://www.w3.org/2000/svg" version="1.1" viewBox="0.00 0.00 38.00 38.00" width="19" height="19">
<g stroke-width="2.00" fill="none" stroke-linecap="butt">
<path stroke="#9ab1e5" vector-effect="non-scaling-stroke" d="
  M 35.9930 9.2403
  A 7.29 7.29 0.0 0 0 28.6903 1.9630
  L 9.2303 1.9970
  A 7.29 7.29 0.0 0 0 1.9530 9.2997
  L 1.9870 28.7597
  A 7.29 7.29 0.0 0 0 9.2897 36.0370
  L 28.7497 36.0030
  A 7.29 7.29 0.0 0 0 36.0270 28.7003
  L 35.9930 9.2403"
/>
<path stroke="#9ab1e5" vector-effect="non-scaling-stroke" d="
  M 19.02 27.93
  Q 21.06 27.93 22.69 27.95
  A 0.65 0.64 0.4 0 1 23.33 28.59
  L 23.33 29.64
  A 0.62 0.62 0.0 0 0 23.95 30.26
  L 27.11 30.26
  A 0.71 0.71 0.0 0 0 27.82 29.59
  C 28.06 24.76 28.03 18.84 27.98 10.84
  Q 27.96 8.84 27.38 8.36
  C 25.51 6.82 22.45 7.24 19.05 7.24
  C 15.66 7.23 12.60 6.80 10.72 8.33
  Q 10.14 8.81 10.12 10.81
  C 10.04 18.81 10.00 24.73 10.22 29.56
  A 0.71 0.71 0.0 0 0 10.93 30.24
  L 14.09 30.25
  A 0.62 0.62 0.0 0 0 14.71 29.63
  L 14.71 28.58
  A 0.65 0.64 -0.2 0 1 15.35 27.94
  Q 16.99 27.93 19.02 27.93"
/>
<path stroke="#8fa8e3" vector-effect="non-scaling-stroke" d="
  M 26.01 10.56
  A 0.79 0.79 0.0 0 0 25.22 9.77
  L 13.22 9.77
  A 0.79 0.79 0.0 0 0 12.43 10.56
  L 12.43 18.72
  A 0.79 0.79 0.0 0 0 13.22 19.51
  L 25.22 19.51
  A 0.79 0.79 0.0 0 0 26.01 18.72
  L 26.01 10.56"
/>
<path stroke="#8fa8e3" vector-effect="non-scaling-stroke" d="
  M 26.0154 22.1962
  A 0.74 0.74 0.0 0 0 25.2728 21.4588
  L 13.1129 21.5012
  A 0.74 0.74 0.0 0 0 12.3755 22.2438
  L 12.3846 24.8438
  A 0.74 0.74 0.0 0 0 13.1272 25.5812
  L 25.2871 25.5388
  A 0.74 0.74 0.0 0 0 26.0245 24.7962
  L 26.0154 22.1962"
/>
<path stroke="#8fa8e3" vector-effect="non-scaling-stroke" d="
  M 20.4701 12.2162
  A 0.96 0.96 0.0 0 0 19.5117 11.2545
  L 14.3517 11.2455
  A 0.96 0.96 0.0 0 0 13.3901 12.2038
  L 13.3899 12.2838
  A 0.96 0.96 0.0 0 0 14.3483 13.2455
  L 19.5083 13.2545
  A 0.96 0.96 0.0 0 0 20.4699 12.2962
  L 20.4701 12.2162"
/>
<path stroke="#8fa8e3" vector-effect="non-scaling-stroke" d="
  M 14.4349 22.4733
  A 1.20 1.02 -101.3 0 0 13.6698 23.8499
  A 1.20 1.02 -101.3 0 0 14.9051 24.8267
  A 1.20 1.02 -101.3 0 0 15.6702 23.4501
  A 1.20 1.02 -101.3 0 0 14.4349 22.4733"
/>
<path stroke="#8fa8e3" vector-effect="non-scaling-stroke" d="
  M 24.60 23.71
  A 1.21 1.21 0.0 0 0 23.39 22.50
  A 1.21 1.21 0.0 0 0 22.18 23.71
  A 1.21 1.21 0.0 0 0 23.39 24.92
  A 1.21 1.21 0.0 0 0 24.60 23.71"
/>
</g>
<path fill="#5c7ed8" d="
  M 29.76 0.00
  Q 36.62 1.29 38.00 8.15
  L 38.00 29.88
  Q 36.63 36.60 29.92 38.00
  L 8.12 38.00
  Q 1.40 36.64 0.00 29.93
  L 0.00 8.13
  Q 1.36 1.37 8.13 0.00
  L 29.76 0.00
  Z
  M 35.9930 9.2403
  A 7.29 7.29 0.0 0 0 28.6903 1.9630
  L 9.2303 1.9970
  A 7.29 7.29 0.0 0 0 1.9530 9.2997
  L 1.9870 28.7597
  A 7.29 7.29 0.0 0 0 9.2897 36.0370
  L 28.7497 36.0030
  A 7.29 7.29 0.0 0 0 36.0270 28.7003
  L 35.9930 9.2403
  Z"
/>
<path fill="#d7e4f2" d="
  M 36.0270 28.7003
  A 7.29 7.29 0.0 0 1 28.7497 36.0030
  L 9.2897 36.0370
  A 7.29 7.29 0.0 0 1 1.9870 28.7597
  L 1.9530 9.2997
  A 7.29 7.29 0.0 0 1 9.2303 1.9970
  L 28.6903 1.9630
  A 7.29 7.29 0.0 0 1 35.9930 9.2403
  L 36.0270 28.7003
  Z
  M 19.02 27.93
  Q 21.06 27.93 22.69 27.95
  A 0.65 0.64 0.4 0 1 23.33 28.59
  L 23.33 29.64
  A 0.62 0.62 0.0 0 0 23.95 30.26
  L 27.11 30.26
  A 0.71 0.71 0.0 0 0 27.82 29.59
  C 28.06 24.76 28.03 18.84 27.98 10.84
  Q 27.96 8.84 27.38 8.36
  C 25.51 6.82 22.45 7.24 19.05 7.24
  C 15.66 7.23 12.60 6.80 10.72 8.33
  Q 10.14 8.81 10.12 10.81
  C 10.04 18.81 10.00 24.73 10.22 29.56
  A 0.71 0.71 0.0 0 0 10.93 30.24
  L 14.09 30.25
  A 0.62 0.62 0.0 0 0 14.71 29.63
  L 14.71 28.58
  A 0.65 0.64 -0.2 0 1 15.35 27.94
  Q 16.99 27.93 19.02 27.93
  Z"
/>
<path fill="#5c7ed8" d="
  M 19.05 7.24
  C 22.45 7.24 25.51 6.82 27.38 8.36
  Q 27.96 8.84 27.98 10.84
  C 28.03 18.84 28.06 24.76 27.82 29.59
  A 0.71 0.71 0.0 0 1 27.11 30.26
  L 23.95 30.26
  A 0.62 0.62 0.0 0 1 23.33 29.64
  L 23.33 28.59
  A 0.65 0.64 0.4 0 0 22.69 27.95
  Q 21.06 27.93 19.02 27.93
  Q 16.99 27.93 15.35 27.94
  A 0.65 0.64 -0.2 0 0 14.71 28.58
  L 14.71 29.63
  A 0.62 0.62 0.0 0 1 14.09 30.25
  L 10.93 30.24
  A 0.71 0.71 0.0 0 1 10.22 29.56
  C 10.00 24.73 10.04 18.81 10.12 10.81
  Q 10.14 8.81 10.72 8.33
  C 12.60 6.80 15.66 7.23 19.05 7.24
  Z
  M 26.01 10.56
  A 0.79 0.79 0.0 0 0 25.22 9.77
  L 13.22 9.77
  A 0.79 0.79 0.0 0 0 12.43 10.56
  L 12.43 18.72
  A 0.79 0.79 0.0 0 0 13.22 19.51
  L 25.22 19.51
  A 0.79 0.79 0.0 0 0 26.01 18.72
  L 26.01 10.56
  Z
  M 26.0154 22.1962
  A 0.74 0.74 0.0 0 0 25.2728 21.4588
  L 13.1129 21.5012
  A 0.74 0.74 0.0 0 0 12.3755 22.2438
  L 12.3846 24.8438
  A 0.74 0.74 0.0 0 0 13.1272 25.5812
  L 25.2871 25.5388
  A 0.74 0.74 0.0 0 0 26.0245 24.7962
  L 26.0154 22.1962
  Z"
/>
<path fill="#c1d1ee" d="
  M 26.01 18.72
  A 0.79 0.79 0.0 0 1 25.22 19.51
  L 13.22 19.51
  A 0.79 0.79 0.0 0 1 12.43 18.72
  L 12.43 10.56
  A 0.79 0.79 0.0 0 1 13.22 9.77
  L 25.22 9.77
  A 0.79 0.79 0.0 0 1 26.01 10.56
  L 26.01 18.72
  Z
  M 20.4701 12.2162
  A 0.96 0.96 0.0 0 0 19.5117 11.2545
  L 14.3517 11.2455
  A 0.96 0.96 0.0 0 0 13.3901 12.2038
  L 13.3899 12.2838
  A 0.96 0.96 0.0 0 0 14.3483 13.2455
  L 19.5083 13.2545
  A 0.96 0.96 0.0 0 0 20.4699 12.2962
  L 20.4701 12.2162
  Z"
/>
<rect fill="#5c7ed8" x="-3.54" y="-1.00" transform="translate(16.93,12.25) rotate(0.1)" width="7.08" height="2.00" rx="0.96"/>
<path fill="#c1d1ee" d="
  M 26.0245 24.7962
  A 0.74 0.74 0.0 0 1 25.2871 25.5388
  L 13.1272 25.5812
  A 0.74 0.74 0.0 0 1 12.3846 24.8438
  L 12.3755 22.2438
  A 0.74 0.74 0.0 0 1 13.1129 21.5012
  L 25.2728 21.4588
  A 0.74 0.74 0.0 0 1 26.0154 22.1962
  L 26.0245 24.7962
  Z
  M 14.4349 22.4733
  A 1.20 1.02 -101.3 0 0 13.6698 23.8499
  A 1.20 1.02 -101.3 0 0 14.9051 24.8267
  A 1.20 1.02 -101.3 0 0 15.6702 23.4501
  A 1.20 1.02 -101.3 0 0 14.4349 22.4733
  Z
  M 24.60 23.71
  A 1.21 1.21 0.0 0 0 23.39 22.50
  A 1.21 1.21 0.0 0 0 22.18 23.71
  A 1.21 1.21 0.0 0 0 23.39 24.92
  A 1.21 1.21 0.0 0 0 24.60 23.71
  Z"
/>
<ellipse fill="#5c7ed8" cx="0.00" cy="0.00" transform="translate(14.67,23.65) rotate(-101.3)" rx="1.20" ry="1.02"/>
<circle fill="#5c7ed8" cx="23.39" cy="23.71" r="1.21"/>
</svg>
