<?xml version="1.0" encoding="UTF-8" standalone="no"?>
<!DOCTYPE svg PUBLIC "-//W3C//DTD SVG 1.1//EN" "http://www.w3.org/Graphics/SVG/1.1/DTD/svg11.dtd">
<svg xmlns="http://www.w3.org/2000/svg" version="1.1" viewBox="0.00 0.00 38.00 38.00">
<g stroke-width="2.00" fill="none" stroke-linecap="butt">
<path stroke="#9ab1e5" vector-effect="non-scaling-stroke" d="
  M 36.0030 9.2703
  A 7.31 7.31 0.0 0 0 28.6803 1.9731
  L 9.2603 2.0070
  A 7.31 7.31 0.0 0 0 1.9631 9.3297
  L 1.9970 28.7497
  A 7.31 7.31 0.0 0 0 9.3197 36.0469
  L 28.7397 36.0130
  A 7.31 7.31 0.0 0 0 36.0369 28.6903
  L 36.0030 9.2703"
/>
<path stroke="#9ab1e5" vector-effect="non-scaling-stroke" d="
  M 8.81 15.98
  L 25.69 15.98
  A 0.37 0.37 0.0 0 1 25.99 16.56
  L 23.05 20.72
  A 0.77 0.76 -58.4 0 1 22.07 20.96
  Q 18.50 19.09 15.11 21.03
  A 1.44 1.41 38.6 0 1 13.97 21.15
  L 11.07 20.19
  A 3.99 3.94 45.4 0 0 8.75 20.16
  L 4.57 21.41
  A 0.70 0.70 0.0 0 0 4.10 22.28
  L 4.28 22.88
  A 0.64 0.63 -16.6 0 0 5.07 23.30
  L 9.15 22.08
  A 2.53 2.52 46.3 0 1 10.70 22.12
  L 13.28 23.02
  A 2.51 2.49 46.3 0 0 14.85 23.06
  L 18.37 22.01
  A 1.56 1.53 45.6 0 1 19.31 22.03
  L 22.58 23.19
  A 1.31 1.31 0.0 0 0 24.07 22.72
  L 29.74 14.69
  A 0.42 0.42 0.0 0 0 29.40 14.03
  L 18.54 14.03
  A 0.57 0.57 0.0 0 1 17.97 13.46
  L 17.97 8.65
  A 0.62 0.61 -90.0 0 0 17.36 8.03
  L 13.56 8.03
  A 1.06 1.04 14.7 0 0 12.65 8.55
  L 9.76 13.56
  A 0.98 0.97 15.0 0 1 8.92 14.04
  L 6.37 14.04
  A 0.63 0.63 0.0 0 0 5.77 14.85
  L 6.87 18.53
  A 0.63 0.62 73.4 0 0 7.65 18.96
  L 7.99 18.85
  A 0.89 0.89 0.0 0 0 8.59 17.75
  L 8.28 16.70
  A 0.56 0.56 0.0 0 1 8.81 15.98"
/>
<path stroke="#9ab1e5" vector-effect="non-scaling-stroke" d="
  M 18.35 18.12
  Q 18.82 18.33 19.58 18.11
  A 0.51 0.50 53.9 0 0 19.71 17.21
  Q 19.17 16.84 18.42 17.23
  A 0.53 0.47 -44.2 0 0 18.35 18.12"
/>
<path stroke="#9ab1e5" vector-effect="non-scaling-stroke" d="
  M 21.40 16.98
  Q 21.08 17.04 21.07 17.49
  Q 21.06 17.90 21.30 18.08
  Q 21.77 18.42 22.23 18.12
  Q 22.57 17.90 22.55 17.73
  A 0.99 0.91 -9.3 0 0 21.40 16.98"
/>
<path stroke="#9ab1e5" vector-effect="non-scaling-stroke" d="
  M 18.74 26.28
  Q 19.25 26.28 19.34 26.35
  C 21.12 27.66 23.16 28.33 25.37 27.20
  Q 26.53 26.61 27.68 26.30
  A 1.37 1.35 55.1 0 1 28.81 26.51
  Q 30.27 27.56 32.44 27.98
  A 0.67 0.66 -69.2 0 0 33.14 27.66
  L 33.32 27.35
  A 0.54 0.54 0.0 0 0 33.12 26.61
  L 29.64 24.60
  A 2.31 2.29 -38.1 0 0 27.82 24.39
  L 23.04 25.81
  A 0.76 0.72 48.6 0 1 22.51 25.76
  C 21.70 25.35 19.99 24.31 18.74 24.31
  C 17.49 24.31 15.78 25.36 14.96 25.77
  A 0.76 0.72 -48.6 0 1 14.43 25.81
  L 9.65 24.40
  A 2.31 2.29 38.1 0 0 7.83 24.61
  L 4.35 26.62
  A 0.54 0.54 0.0 0 0 4.15 27.36
  L 4.33 27.67
  A 0.67 0.66 69.1 0 0 5.03 27.99
  Q 7.20 27.57 8.66 26.52
  A 1.37 1.35 -55.1 0 1 9.79 26.31
  Q 10.94 26.62 12.10 27.21
  C 14.31 28.33 16.35 27.66 18.13 26.35
  Q 18.23 26.28 18.74 26.28"
/>
<path stroke="#9ab1e5" vector-effect="non-scaling-stroke" d="
  M 15.46 14.02
  A 0.59 0.59 0.0 0 0 16.05 13.43
  L 16.05 11.09
  A 1.23 1.23 0.0 0 0 13.76 10.47
  L 12.08 13.39
  A 0.42 0.42 0.0 0 0 12.44 14.02
  L 15.46 14.02"
/>
</g>
<path fill="#5c7ed8" d="
  M 29.76 0.00
  Q 36.62 1.28 38.00 8.15
  L 38.00 29.88
  Q 36.64 36.60 29.92 38.00
  L 8.12 38.00
  Q 1.40 36.65 0.00 29.93
  L 0.00 8.13
  Q 1.36 1.36 8.13 0.00
  L 29.76 0.00
  Z
  M 36.0030 9.2703
  A 7.31 7.31 0.0 0 0 28.6803 1.9731
  L 9.2603 2.0070
  A 7.31 7.31 0.0 0 0 1.9631 9.3297
  L 1.9970 28.7497
  A 7.31 7.31 0.0 0 0 9.3197 36.0469
  L 28.7397 36.0130
  A 7.31 7.31 0.0 0 0 36.0369 28.6903
  L 36.0030 9.2703
  Z"
/>
<path fill="#d7e4f2" d="
  M 36.0369 28.6903
  A 7.31 7.31 0.0 0 1 28.7397 36.0130
  L 9.3197 36.0469
  A 7.31 7.31 0.0 0 1 1.9970 28.7497
  L 1.9631 9.3297
  A 7.31 7.31 0.0 0 1 9.2603 2.0070
  L 28.6803 1.9731
  A 7.31 7.31 0.0 0 1 36.0030 9.2703
  L 36.0369 28.6903
  Z
  M 8.81 15.98
  L 25.69 15.98
  A 0.37 0.37 0.0 0 1 25.99 16.56
  L 23.05 20.72
  A 0.77 0.76 -58.4 0 1 22.07 20.96
  Q 18.50 19.09 15.11 21.03
  A 1.44 1.41 38.6 0 1 13.97 21.15
  L 11.07 20.19
  A 3.99 3.94 45.4 0 0 8.75 20.16
  L 4.57 21.41
  A 0.70 0.70 0.0 0 0 4.10 22.28
  L 4.28 22.88
  A 0.64 0.63 -16.6 0 0 5.07 23.30
  L 9.15 22.08
  A 2.53 2.52 46.3 0 1 10.70 22.12
  L 13.28 23.02
  A 2.51 2.49 46.3 0 0 14.85 23.06
  L 18.37 22.01
  A 1.56 1.53 45.6 0 1 19.31 22.03
  L 22.58 23.19
  A 1.31 1.31 0.0 0 0 24.07 22.72
  L 29.74 14.69
  A 0.42 0.42 0.0 0 0 29.40 14.03
  L 18.54 14.03
  A 0.57 0.57 0.0 0 1 17.97 13.46
  L 17.97 8.65
  A 0.62 0.61 -90.0 0 0 17.36 8.03
  L 13.56 8.03
  A 1.06 1.04 14.7 0 0 12.65 8.55
  L 9.76 13.56
  A 0.98 0.97 15.0 0 1 8.92 14.04
  L 6.37 14.04
  A 0.63 0.63 0.0 0 0 5.77 14.85
  L 6.87 18.53
  A 0.63 0.62 73.4 0 0 7.65 18.96
  L 7.99 18.85
  A 0.89 0.89 0.0 0 0 8.59 17.75
  L 8.28 16.70
  A 0.56 0.56 0.0 0 1 8.81 15.98
  Z
  M 18.35 18.12
  Q 18.82 18.33 19.58 18.11
  A 0.51 0.50 53.9 0 0 19.71 17.21
  Q 19.17 16.84 18.42 17.23
  A 0.53 0.47 -44.2 0 0 18.35 18.12
  Z
  M 21.40 16.98
  Q 21.08 17.04 21.07 17.49
  Q 21.06 17.90 21.30 18.08
  Q 21.77 18.42 22.23 18.12
  Q 22.57 17.90 22.55 17.73
  A 0.99 0.91 -9.3 0 0 21.40 16.98
  Z
  M 18.74 26.28
  Q 19.25 26.28 19.34 26.35
  C 21.12 27.66 23.16 28.33 25.37 27.20
  Q 26.53 26.61 27.68 26.30
  A 1.37 1.35 55.1 0 1 28.81 26.51
  Q 30.27 27.56 32.44 27.98
  A 0.67 0.66 -69.2 0 0 33.14 27.66
  L 33.32 27.35
  A 0.54 0.54 0.0 0 0 33.12 26.61
  L 29.64 24.60
  A 2.31 2.29 -38.1 0 0 27.82 24.39
  L 23.04 25.81
  A 0.76 0.72 48.6 0 1 22.51 25.76
  C 21.70 25.35 19.99 24.31 18.74 24.31
  C 17.49 24.31 15.78 25.36 14.96 25.77
  A 0.76 0.72 -48.6 0 1 14.43 25.81
  L 9.65 24.40
  A 2.31 2.29 38.1 0 0 7.83 24.61
  L 4.35 26.62
  A 0.54 0.54 0.0 0 0 4.15 27.36
  L 4.33 27.67
  A 0.67 0.66 69.1 0 0 5.03 27.99
  Q 7.20 27.57 8.66 26.52
  A 1.37 1.35 -55.1 0 1 9.79 26.31
  Q 10.94 26.62 12.10 27.21
  C 14.31 28.33 16.35 27.66 18.13 26.35
  Q 18.23 26.28 18.74 26.28
  Z"
/>
<path fill="#5c7ed8" d="
  M 8.28 16.70
  L 8.59 17.75
  A 0.89 0.89 0.0 0 1 7.99 18.85
  L 7.65 18.96
  A 0.63 0.62 73.4 0 1 6.87 18.53
  L 5.77 14.85
  A 0.63 0.63 0.0 0 1 6.37 14.04
  L 8.92 14.04
  A 0.98 0.97 15.0 0 0 9.76 13.56
  L 12.65 8.55
  A 1.06 1.04 14.7 0 1 13.56 8.03
  L 17.36 8.03
  A 0.62 0.61 90.0 0 1 17.97 8.65
  L 17.97 13.46
  A 0.57 0.57 0.0 0 0 18.54 14.03
  L 29.40 14.03
  A 0.42 0.42 0.0 0 1 29.74 14.69
  L 24.07 22.72
  A 1.31 1.31 0.0 0 1 22.58 23.19
  L 19.31 22.03
  A 1.56 1.53 45.6 0 0 18.37 22.01
  L 14.85 23.06
  A 2.51 2.49 46.3 0 1 13.28 23.02
  L 10.70 22.12
  A 2.53 2.52 46.3 0 0 9.15 22.08
  L 5.07 23.30
  A 0.64 0.63 -16.6 0 1 4.28 22.88
  L 4.10 22.28
  A 0.70 0.70 0.0 0 1 4.57 21.41
  L 8.75 20.16
  A 3.99 3.94 45.4 0 1 11.07 20.19
  L 13.97 21.15
  A 1.44 1.41 38.6 0 0 15.11 21.03
  Q 18.50 19.09 22.07 20.96
  A 0.77 0.76 -58.4 0 0 23.05 20.72
  L 25.99 16.56
  A 0.37 0.37 0.0 0 0 25.69 15.98
  L 8.81 15.98
  A 0.56 0.56 0.0 0 0 8.28 16.70
  Z
  M 15.46 14.02
  A 0.59 0.59 0.0 0 0 16.05 13.43
  L 16.05 11.09
  A 1.23 1.23 0.0 0 0 13.76 10.47
  L 12.08 13.39
  A 0.42 0.42 0.0 0 0 12.44 14.02
  L 15.46 14.02
  Z"
/>
<path fill="#d7e4f2" d="
  M 12.08 13.39
  L 13.76 10.47
  A 1.23 1.23 0.0 0 1 16.05 11.09
  L 16.05 13.43
  A 0.59 0.59 0.0 0 1 15.46 14.02
  L 12.44 14.02
  A 0.42 0.42 0.0 0 1 12.08 13.39
  Z"
/>
<path fill="#5c7ed8" d="
  M 18.35 18.12
  A 0.53 0.47 -44.2 0 1 18.42 17.23
  Q 19.17 16.84 19.71 17.21
  A 0.51 0.50 53.9 0 1 19.58 18.11
  Q 18.82 18.33 18.35 18.12
  Z"
/>
<path fill="#5c7ed8" d="
  M 21.40 16.98
  A 0.99 0.91 -9.3 0 1 22.55 17.73
  Q 22.57 17.90 22.23 18.12
  Q 21.77 18.42 21.30 18.08
  Q 21.06 17.90 21.07 17.49
  Q 21.08 17.04 21.40 16.98
  Z"
/>
<path fill="#5c7ed8" d="
  M 18.74 24.31
  C 19.99 24.31 21.70 25.35 22.51 25.76
  A 0.76 0.72 48.6 0 0 23.04 25.81
  L 27.82 24.39
  A 2.31 2.29 -38.1 0 1 29.64 24.60
  L 33.12 26.61
  A 0.54 0.54 0.0 0 1 33.32 27.35
  L 33.14 27.66
  A 0.67 0.66 -69.2 0 1 32.44 27.98
  Q 30.27 27.56 28.81 26.51
  A 1.37 1.35 55.1 0 0 27.68 26.30
  Q 26.53 26.61 25.37 27.20
  C 23.16 28.33 21.12 27.66 19.34 26.35
  Q 19.25 26.28 18.74 26.28
  Q 18.23 26.28 18.13 26.35
  C 16.35 27.66 14.31 28.33 12.10 27.21
  Q 10.94 26.62 9.79 26.31
  A 1.37 1.35 -55.1 0 0 8.66 26.52
  Q 7.20 27.57 5.03 27.99
  A 0.67 0.66 69.1 0 1 4.33 27.67
  L 4.15 27.36
  A 0.54 0.54 0.0 0 1 4.35 26.62
  L 7.83 24.61
  A 2.31 2.29 38.1 0 1 9.65 24.40
  L 14.43 25.81
  A 0.76 0.72 -48.6 0 0 14.96 25.77
  C 15.78 25.36 17.49 24.31 18.74 24.31
  Z"
/>
</svg>
