<?xml version="1.0" encoding="UTF-8" standalone="no"?>
<!DOCTYPE svg PUBLIC "-//W3C//DTD SVG 1.1//EN" "http://www.w3.org/Graphics/SVG/1.1/DTD/svg11.dtd">
<svg xmlns="http://www.w3.org/2000/svg" version="1.1" viewBox="0.00 0.00 38.00 38.00" width="19" height="19">
<g stroke-width="2.00" fill="none" stroke-linecap="butt">
<path stroke="#93c9ac" vector-effect="non-scaling-stroke" d="
  M 36.0030 9.2403
  A 7.30 7.30 0.0 0 0 28.6903 1.9531
  L 9.2503 1.9870
  A 7.30 7.30 0.0 0 0 1.9631 9.2997
  L 1.9970 28.7397
  A 7.30 7.30 0.0 0 0 9.3097 36.0269
  L 28.7497 35.9930
  A 7.30 7.30 0.0 0 0 36.0369 28.6803
  L 36.0030 9.2403"
/>
<path stroke="#93c9ac" vector-effect="non-scaling-stroke" d="
  M 23.29 14.70
  Q 24.02 14.48 24.16 14.29
  A 0.79 0.79 0.0 0 0 24.18 13.38
  L 19.92 7.05
  A 0.92 0.91 45.2 0 0 18.40 7.04
  Q 16.59 9.71 14.45 12.98
  Q 14.07 13.56 14.23 14.10
  Q 14.36 14.51 15.22 14.75
  A 0.38 0.38 0.0 0 1 15.39 15.37
  Q 15.07 15.72 12.46 19.73
  A 0.82 0.77 -66.3 0 0 12.90 20.96
  Q 13.19 21.03 13.36 21.32
  A 0.60 0.58 -43.0 0 1 13.33 21.97
  L 9.87 26.79
  A 0.91 0.91 0.0 0 0 10.61 28.23
  L 15.47 28.23
  A 0.53 0.53 0.0 0 1 16.00 28.76
  L 16.00 30.45
  A 0.80 0.79 0.0 0 0 16.80 31.24
  L 21.20 31.24
  A 0.78 0.78 0.0 0 0 21.98 30.46
  L 21.98 28.77
  A 0.54 0.54 0.0 0 1 22.52 28.23
  L 26.97 28.23
  A 0.95 0.95 0.0 0 0 27.75 26.75
  L 24.36 21.69
  A 0.44 0.44 0.0 0 1 24.43 21.11
  Q 24.71 20.87 24.93 20.90
  A 0.96 0.82 73.4 0 0 25.58 19.42
  Q 23.36 16.09 23.00 15.39
  A 0.49 0.49 0.0 0 1 23.29 14.70"
/>
<path stroke="#86c2a2" vector-effect="non-scaling-stroke" d="
  M 13.43 26.22
  L 24.23 26.22
  A 0.39 0.39 0.0 0 0 24.56 25.62
  Q 23.05 23.24 21.40 20.84
  Q 20.58 19.64 22.30 18.96
  A 0.45 0.45 0.0 0 0 22.51 18.29
  L 19.84 14.31
  A 0.76 0.76 0.0 0 1 19.90 13.38
  Q 20.28 12.95 20.70 12.82
  A 0.47 0.46 64.1 0 0 20.94 12.12
  L 19.44 9.89
  A 0.30 0.30 0.0 0 0 18.95 9.88
  L 17.34 12.12
  A 0.47 0.47 0.0 0 0 17.40 12.73
  Q 17.62 12.94 17.94 12.94
  A 0.77 0.75 -73.2 0 1 18.56 14.13
  Q 15.81 18.38 15.48 18.74
  A 0.37 0.36 26.3 0 0 15.69 19.35
  L 16.27 19.43
  A 0.74 0.74 0.0 0 1 16.78 20.60
  L 13.14 25.67
  A 0.35 0.35 0.0 0 0 13.43 26.22"
/>
<path stroke="#86c2a2" vector-effect="non-scaling-stroke" d="
  M 18.15 28.98
  A 1.06 1.01 29.8 0 0 20.02 28.52
  Q 20.04 28.31 19.74 28.15
  A 1.31 0.90 26.0 0 0 18.05 28.40
  Q 17.94 28.72 18.15 28.98"
/>
</g>
<path fill="#4fa074" d="
  M 29.76 0.00
  Q 36.62 1.29 38.00 8.15
  L 38.00 29.88
  Q 36.63 36.60 29.92 38.00
  L 8.12 38.00
  Q 1.40 36.65 0.00 29.93
  L 0.00 8.13
  Q 1.36 1.36 8.13 0.00
  L 29.76 0.00
  Z
  M 36.0030 9.2403
  A 7.30 7.30 0.0 0 0 28.6903 1.9531
  L 9.2503 1.9870
  A 7.30 7.30 0.0 0 0 1.9631 9.2997
  L 1.9970 28.7397
  A 7.30 7.30 0.0 0 0 9.3097 36.0269
  L 28.7497 35.9930
  A 7.30 7.30 0.0 0 0 36.0369 28.6803
  L 36.0030 9.2403
  Z"
/>
<path fill="#d6f2e3" d="
  M 36.0369 28.6803
  A 7.30 7.30 0.0 0 1 28.7497 35.9930
  L 9.3097 36.0269
  A 7.30 7.30 0.0 0 1 1.9970 28.7397
  L 1.9631 9.2997
  A 7.30 7.30 0.0 0 1 9.2503 1.9870
  L 28.6903 1.9531
  A 7.30 7.30 0.0 0 1 36.0030 9.2403
  L 36.0369 28.6803
  Z
  M 23.29 14.70
  Q 24.02 14.48 24.16 14.29
  A 0.79 0.79 0.0 0 0 24.18 13.38
  L 19.92 7.05
  A 0.92 0.91 45.2 0 0 18.40 7.04
  Q 16.59 9.71 14.45 12.98
  Q 14.07 13.56 14.23 14.10
  Q 14.36 14.51 15.22 14.75
  A 0.38 0.38 0.0 0 1 15.39 15.37
  Q 15.07 15.72 12.46 19.73
  A 0.82 0.77 -66.3 0 0 12.90 20.96
  Q 13.19 21.03 13.36 21.32
  A 0.60 0.58 -43.0 0 1 13.33 21.97
  L 9.87 26.79
  A 0.91 0.91 0.0 0 0 10.61 28.23
  L 15.47 28.23
  A 0.53 0.53 0.0 0 1 16.00 28.76
  L 16.00 30.45
  A 0.80 0.79 0.0 0 0 16.80 31.24
  L 21.20 31.24
  A 0.78 0.78 0.0 0 0 21.98 30.46
  L 21.98 28.77
  A 0.54 0.54 0.0 0 1 22.52 28.23
  L 26.97 28.23
  A 0.95 0.95 0.0 0 0 27.75 26.75
  L 24.36 21.69
  A 0.44 0.44 0.0 0 1 24.43 21.11
  Q 24.71 20.87 24.93 20.90
  A 0.96 0.82 73.4 0 0 25.58 19.42
  Q 23.36 16.09 23.00 15.39
  A 0.49 0.49 0.0 0 1 23.29 14.70
  Z"
/>
<path fill="#4fa074" d="
  M 23.00 15.39
  Q 23.36 16.09 25.58 19.42
  A 0.96 0.82 73.4 0 1 24.93 20.90
  Q 24.71 20.87 24.43 21.11
  A 0.44 0.44 0.0 0 0 24.36 21.69
  L 27.75 26.75
  A 0.95 0.95 0.0 0 1 26.97 28.23
  L 22.52 28.23
  A 0.54 0.54 0.0 0 0 21.98 28.77
  L 21.98 30.46
  A 0.78 0.78 0.0 0 1 21.20 31.24
  L 16.80 31.24
  A 0.80 0.79 -0.0 0 1 16.00 30.45
  L 16.00 28.76
  A 0.53 0.53 0.0 0 0 15.47 28.23
  L 10.61 28.23
  A 0.91 0.91 0.0 0 1 9.87 26.79
  L 13.33 21.97
  A 0.60 0.58 -43.0 0 0 13.36 21.32
  Q 13.19 21.03 12.90 20.96
  A 0.82 0.77 -66.3 0 1 12.46 19.73
  Q 15.07 15.72 15.39 15.37
  A 0.38 0.38 0.0 0 0 15.22 14.75
  Q 14.36 14.51 14.23 14.10
  Q 14.07 13.56 14.45 12.98
  Q 16.59 9.71 18.40 7.04
  A 0.92 0.91 45.2 0 1 19.92 7.05
  L 24.18 13.38
  A 0.79 0.79 0.0 0 1 24.16 14.29
  Q 24.02 14.48 23.29 14.70
  A 0.49 0.49 0.0 0 0 23.00 15.39
  Z
  M 13.43 26.22
  L 24.23 26.22
  A 0.39 0.39 0.0 0 0 24.56 25.62
  Q 23.05 23.24 21.40 20.84
  Q 20.58 19.64 22.30 18.96
  A 0.45 0.45 0.0 0 0 22.51 18.29
  L 19.84 14.31
  A 0.76 0.76 0.0 0 1 19.90 13.38
  Q 20.28 12.95 20.70 12.82
  A 0.47 0.46 64.1 0 0 20.94 12.12
  L 19.44 9.89
  A 0.30 0.30 0.0 0 0 18.95 9.88
  L 17.34 12.12
  A 0.47 0.47 0.0 0 0 17.40 12.73
  Q 17.62 12.94 17.94 12.94
  A 0.77 0.75 -73.2 0 1 18.56 14.13
  Q 15.81 18.38 15.48 18.74
  A 0.37 0.36 26.3 0 0 15.69 19.35
  L 16.27 19.43
  A 0.74 0.74 0.0 0 1 16.78 20.60
  L 13.14 25.67
  A 0.35 0.35 0.0 0 0 13.43 26.22
  Z
  M 18.15 28.98
  A 1.06 1.01 29.8 0 0 20.02 28.52
  Q 20.04 28.31 19.74 28.15
  A 1.31 0.90 26.0 0 0 18.05 28.40
  Q 17.94 28.72 18.15 28.98
  Z"
/>
<path fill="#bde3cf" d="
  M 13.14 25.67
  L 16.78 20.60
  A 0.74 0.74 0.0 0 0 16.27 19.43
  L 15.69 19.35
  A 0.37 0.36 26.3 0 1 15.48 18.74
  Q 15.81 18.38 18.56 14.13
  A 0.77 0.75 -73.2 0 0 17.94 12.94
  Q 17.62 12.94 17.40 12.73
  A 0.47 0.47 0.0 0 1 17.34 12.12
  L 18.95 9.88
  A 0.30 0.30 0.0 0 1 19.44 9.89
  L 20.94 12.12
  A 0.47 0.46 64.1 0 1 20.70 12.82
  Q 20.28 12.95 19.90 13.38
  A 0.76 0.76 0.0 0 0 19.84 14.31
  L 22.51 18.29
  A 0.45 0.45 0.0 0 1 22.30 18.96
  Q 20.58 19.64 21.40 20.84
  Q 23.05 23.24 24.56 25.62
  A 0.39 0.39 0.0 0 1 24.23 26.22
  L 13.43 26.22
  A 0.35 0.35 0.0 0 1 13.14 25.67
  Z"
/>
<path fill="#bde3cf" d="
  M 18.15 28.98
  Q 17.94 28.72 18.05 28.40
  A 1.31 0.90 26.0 0 1 19.74 28.15
  Q 20.04 28.31 20.02 28.52
  A 1.06 1.01 29.8 0 1 18.15 28.98
  Z"
/>
</svg>
