<?xml version="1.0" encoding="UTF-8" standalone="no"?>
<!DOCTYPE svg PUBLIC "-//W3C//DTD SVG 1.1//EN" "http://www.w3.org/Graphics/SVG/1.1/DTD/svg11.dtd">
<svg xmlns="http://www.w3.org/2000/svg" version="1.1" viewBox="0.00 0.00 38.00 38.00" width="19" height="19">
<g stroke-width="2.00" fill="none" stroke-linecap="butt">
<path stroke="#93c9ac" vector-effect="non-scaling-stroke" d="
  M 36.0030 9.2503
  A 7.31 7.31 0.0 0 0 28.6803 1.9531
  L 9.2603 1.9870
  A 7.31 7.31 0.0 0 0 1.9631 9.3097
  L 1.9970 28.7297
  A 7.31 7.31 0.0 0 0 9.3197 36.0269
  L 28.7397 35.9930
  A 7.31 7.31 0.0 0 0 36.0369 28.6703
  L 36.0030 9.2503"
/>
<path stroke="#93c9ac" vector-effect="non-scaling-stroke" d="
  M 18.79 21.46
  Q 22.32 21.47 24.21 18.42
  A 3.51 3.32 -24.9 0 0 24.65 17.31
  Q 25.38 13.59 24.92 9.80
  A 0.81 0.80 -26.0 0 0 23.55 9.33
  L 21.79 11.09
  A 0.69 0.69 0.0 0 1 20.70 10.93
  Q 19.65 9.02 18.81 9.01
  Q 17.98 9.01 16.92 10.93
  A 0.69 0.69 0.0 0 1 15.83 11.08
  L 14.08 9.31
  A 0.81 0.80 26.3 0 0 12.70 9.77
  Q 12.23 13.56 12.94 17.28
  A 3.51 3.32 25.2 0 0 13.38 18.40
  Q 15.25 21.46 18.79 21.46"
/>
<path stroke="#93c9ac" vector-effect="non-scaling-stroke" d="
  M 22.80 23.97
  Q 20.29 27.79 21.19 32.50
  Q 21.21 32.61 21.27 32.68
  Q 21.36 32.77 21.43 32.81
  Q 21.45 32.83 21.57 32.87
  Q 21.65 32.90 21.76 32.88
  Q 26.44 31.82 28.94 28.00
  Q 31.45 24.18 30.55 19.47
  Q 30.53 19.36 30.47 19.29
  Q 30.38 19.20 30.31 19.16
  Q 30.29 19.14 30.17 19.10
  Q 30.08 19.07 29.98 19.09
  Q 25.30 20.15 22.80 23.97"
/>
<path stroke="#93c9ac" vector-effect="non-scaling-stroke" d="
  M 14.70 23.98
  Q 12.20 20.17 7.53 19.12
  Q 7.43 19.09 7.34 19.12
  Q 7.22 19.16 7.20 19.18
  Q 7.13 19.23 7.04 19.32
  Q 6.98 19.38 6.96 19.49
  Q 6.07 24.19 8.57 28.01
  Q 11.07 31.82 15.74 32.88
  Q 15.85 32.90 15.93 32.87
  Q 16.05 32.83 16.07 32.81
  Q 16.14 32.76 16.23 32.67
  Q 16.29 32.61 16.31 32.50
  Q 17.21 27.80 14.70 23.98"
/>
<path stroke="#93c9ac" vector-effect="non-scaling-stroke" d="
  M 19.7673 23.5818
  A 0.98 0.98 0.0 0 0 18.7890 22.6001
  L 18.7290 22.6000
  A 0.98 0.98 0.0 0 0 17.7473 23.5782
  L 17.7327 31.9782
  A 0.98 0.98 0.0 0 0 18.7110 32.9599
  L 18.7710 32.9600
  A 0.98 0.98 0.0 0 0 19.7527 31.9818
  L 19.7673 23.5818"
/>
<path stroke="#86c2a2" vector-effect="non-scaling-stroke" d="
  M 14.42 13.56
  C 14.38 22.06 24.01 21.01 22.99 13.80
  A 0.44 0.44 0.0 0 0 22.25 13.55
  L 21.93 13.87
  A 0.72 0.72 0.0 0 1 20.91 13.87
  L 19.27 12.23
  A 0.80 0.79 46.3 0 0 18.17 12.20
  Q 17.69 12.63 17.29 13.42
  A 0.88 0.86 -73.8 0 1 16.44 13.90
  Q 15.77 13.86 14.97 13.28
  A 0.35 0.35 0.0 0 0 14.42 13.56"
/>
<path stroke="#86c2a2" vector-effect="non-scaling-stroke" d="
  M 28.5588 21.9877
  A 4.83 1.55 -56.6 0 0 24.6060 25.1668
  A 4.83 1.55 -56.6 0 0 23.2412 30.0523
  A 4.83 1.55 -56.6 0 0 27.1940 26.8732
  A 4.83 1.55 -56.6 0 0 28.5588 21.9877"
/>
<path stroke="#86c2a2" vector-effect="non-scaling-stroke" d="
  M 8.9752 22.0190
  A 4.81 1.56 -123.5 0 0 10.3291 26.8910
  A 4.81 1.56 -123.5 0 0 14.2848 30.0410
  A 4.81 1.56 -123.5 0 0 12.9309 25.1690
  A 4.81 1.56 -123.5 0 0 8.9752 22.0190"
/>
</g>
<path fill="#4fa074" d="
  M 29.76 0.00
  Q 36.62 1.28 38.00 8.15
  L 38.00 29.88
  Q 36.64 36.60 29.92 38.00
  L 8.12 38.00
  Q 1.40 36.64 0.00 29.93
  L 0.00 8.13
  Q 1.36 1.37 8.13 0.00
  L 29.76 0.00
  Z
  M 36.0030 9.2503
  A 7.31 7.31 0.0 0 0 28.6803 1.9531
  L 9.2603 1.9870
  A 7.31 7.31 0.0 0 0 1.9631 9.3097
  L 1.9970 28.7297
  A 7.31 7.31 0.0 0 0 9.3197 36.0269
  L 28.7397 35.9930
  A 7.31 7.31 0.0 0 0 36.0369 28.6703
  L 36.0030 9.2503
  Z"
/>
<path fill="#d6f2e3" d="
  M 36.0369 28.6703
  A 7.31 7.31 0.0 0 1 28.7397 35.9930
  L 9.3197 36.0269
  A 7.31 7.31 0.0 0 1 1.9970 28.7297
  L 1.9631 9.3097
  A 7.31 7.31 0.0 0 1 9.2603 1.9870
  L 28.6803 1.9531
  A 7.31 7.31 0.0 0 1 36.0030 9.2503
  L 36.0369 28.6703
  Z
  M 18.79 21.46
  Q 22.32 21.47 24.21 18.42
  A 3.51 3.32 -24.9 0 0 24.65 17.31
  Q 25.38 13.59 24.92 9.80
  A 0.81 0.80 -26.0 0 0 23.55 9.33
  L 21.79 11.09
  A 0.69 0.69 0.0 0 1 20.70 10.93
  Q 19.65 9.02 18.81 9.01
  Q 17.98 9.01 16.92 10.93
  A 0.69 0.69 0.0 0 1 15.83 11.08
  L 14.08 9.31
  A 0.81 0.80 26.3 0 0 12.70 9.77
  Q 12.23 13.56 12.94 17.28
  A 3.51 3.32 25.2 0 0 13.38 18.40
  Q 15.25 21.46 18.79 21.46
  Z
  M 22.80 23.97
  Q 20.29 27.79 21.19 32.50
  Q 21.21 32.61 21.27 32.68
  Q 21.36 32.77 21.43 32.81
  Q 21.45 32.83 21.57 32.87
  Q 21.65 32.90 21.76 32.88
  Q 26.44 31.82 28.94 28.00
  Q 31.45 24.18 30.55 19.47
  Q 30.53 19.36 30.47 19.29
  Q 30.38 19.20 30.31 19.16
  Q 30.29 19.14 30.17 19.10
  Q 30.08 19.07 29.98 19.09
  Q 25.30 20.15 22.80 23.97
  Z
  M 14.70 23.98
  Q 12.20 20.17 7.53 19.12
  Q 7.43 19.09 7.34 19.12
  Q 7.22 19.16 7.20 19.18
  Q 7.13 19.23 7.04 19.32
  Q 6.98 19.38 6.96 19.49
  Q 6.07 24.19 8.57 28.01
  Q 11.07 31.82 15.74 32.88
  Q 15.85 32.90 15.93 32.87
  Q 16.05 32.83 16.07 32.81
  Q 16.14 32.76 16.23 32.67
  Q 16.29 32.61 16.31 32.50
  Q 17.21 27.80 14.70 23.98
  Z
  M 19.7673 23.5818
  A 0.98 0.98 0.0 0 0 18.7890 22.6001
  L 18.7290 22.6000
  A 0.98 0.98 0.0 0 0 17.7473 23.5782
  L 17.7327 31.9782
  A 0.98 0.98 0.0 0 0 18.7110 32.9599
  L 18.7710 32.9600
  A 0.98 0.98 0.0 0 0 19.7527 31.9818
  L 19.7673 23.5818
  Z"
/>
<path fill="#4fa074" d="
  M 18.81 9.01
  Q 19.65 9.02 20.70 10.93
  A 0.69 0.69 0.0 0 0 21.79 11.09
  L 23.55 9.33
  A 0.81 0.80 -26.0 0 1 24.92 9.80
  Q 25.38 13.59 24.65 17.31
  A 3.51 3.32 -24.9 0 1 24.21 18.42
  Q 22.32 21.47 18.79 21.46
  Q 15.25 21.46 13.38 18.40
  A 3.51 3.32 25.2 0 1 12.94 17.28
  Q 12.23 13.56 12.70 9.77
  A 0.81 0.80 26.3 0 1 14.08 9.31
  L 15.83 11.08
  A 0.69 0.69 0.0 0 0 16.92 10.93
  Q 17.98 9.01 18.81 9.01
  Z
  M 14.42 13.56
  C 14.38 22.06 24.01 21.01 22.99 13.80
  A 0.44 0.44 0.0 0 0 22.25 13.55
  L 21.93 13.87
  A 0.72 0.72 0.0 0 1 20.91 13.87
  L 19.27 12.23
  A 0.80 0.79 46.3 0 0 18.17 12.20
  Q 17.69 12.63 17.29 13.42
  A 0.88 0.86 -73.8 0 1 16.44 13.90
  Q 15.77 13.86 14.97 13.28
  A 0.35 0.35 0.0 0 0 14.42 13.56
  Z"
/>
<path fill="#bde3cf" d="
  M 14.97 13.28
  Q 15.77 13.86 16.44 13.90
  A 0.88 0.86 -73.8 0 0 17.29 13.42
  Q 17.69 12.63 18.17 12.20
  A 0.80 0.79 46.3 0 1 19.27 12.23
  L 20.91 13.87
  A 0.72 0.72 0.0 0 0 21.93 13.87
  L 22.25 13.55
  A 0.44 0.44 0.0 0 1 22.99 13.80
  C 24.01 21.01 14.38 22.06 14.42 13.56
  A 0.35 0.35 0.0 0 1 14.97 13.28
  Z"
/>
<path fill="#4fa074" d="
  M 30.31 19.16
  Q 30.38 19.20 30.47 19.29
  Q 30.53 19.36 30.55 19.47
  Q 31.45 24.18 28.94 28.00
  Q 26.44 31.82 21.76 32.88
  Q 21.65 32.90 21.57 32.87
  Q 21.45 32.83 21.43 32.81
  Q 21.36 32.77 21.27 32.68
  Q 21.21 32.61 21.19 32.50
  Q 20.29 27.79 22.80 23.97
  Q 25.30 20.15 29.98 19.09
  Q 30.08 19.07 30.17 19.10
  Q 30.29 19.14 30.31 19.16
  Z
  M 28.5588 21.9877
  A 4.83 1.55 -56.6 0 0 24.6060 25.1668
  A 4.83 1.55 -56.6 0 0 23.2412 30.0523
  A 4.83 1.55 -56.6 0 0 27.1940 26.8732
  A 4.83 1.55 -56.6 0 0 28.5588 21.9877
  Z"
/>
<path fill="#4fa074" d="
  M 14.70 23.98
  Q 17.21 27.80 16.31 32.50
  Q 16.29 32.61 16.23 32.67
  Q 16.14 32.76 16.07 32.81
  Q 16.05 32.83 15.93 32.87
  Q 15.85 32.90 15.74 32.88
  Q 11.07 31.82 8.57 28.01
  Q 6.07 24.19 6.96 19.49
  Q 6.98 19.38 7.04 19.32
  Q 7.13 19.23 7.20 19.18
  Q 7.22 19.16 7.34 19.12
  Q 7.43 19.09 7.53 19.12
  Q 12.20 20.17 14.70 23.98
  Z
  M 8.9752 22.0190
  A 4.81 1.56 -123.5 0 0 10.3291 26.8910
  A 4.81 1.56 -123.5 0 0 14.2848 30.0410
  A 4.81 1.56 -123.5 0 0 12.9309 25.1690
  A 4.81 1.56 -123.5 0 0 8.9752 22.0190
  Z"
/>
<ellipse fill="#bde3cf" cx="0.00" cy="0.00" transform="translate(25.90,26.02) rotate(-56.6)" rx="4.83" ry="1.55"/>
<ellipse fill="#bde3cf" cx="0.00" cy="0.00" transform="translate(11.63,26.03) rotate(-123.5)" rx="4.81" ry="1.56"/>
<rect fill="#4fa074" x="-1.01" y="-5.18" transform="translate(18.75,27.78) rotate(0.1)" width="2.02" height="10.36" rx="0.98"/>
</svg>
