<?xml version="1.0" encoding="UTF-8" standalone="no"?>
<!DOCTYPE svg PUBLIC "-//W3C//DTD SVG 1.1//EN" "http://www.w3.org/Graphics/SVG/1.1/DTD/svg11.dtd">
<svg xmlns="http://www.w3.org/2000/svg" version="1.1" viewBox="0.00 0.00 38.00 38.00">
<g stroke-width="2.00" fill="none" stroke-linecap="butt">
<path stroke="#b1b5d2" vector-effect="non-scaling-stroke" d="
  M 36.0031 9.2803
  A 7.35 7.35 0.0 0 0 28.6403 1.9431
  L 9.3003 1.9769
  A 7.35 7.35 0.0 0 0 1.9631 9.3397
  L 1.9969 28.6997
  A 7.35 7.35 0.0 0 0 9.3597 36.0369
  L 28.6997 36.0031
  A 7.35 7.35 0.0 0 0 36.0369 28.6403
  L 36.0031 9.2803"
/>
<path stroke="#b1b5d2" vector-effect="non-scaling-stroke" d="
  M 18.99 25.75
  Q 19.14 25.75 19.27 25.68
  Q 19.51 25.55 19.52 25.53
  Q 19.96 24.48 20.75 24.15
  A 1.49 1.47 -55.7 0 1 21.31 24.04
  L 29.26 23.90
  A 0.71 0.70 89.6 0 0 29.95 23.19
  L 29.95 10.92
  A 1.15 1.15 0.0 0 0 28.79 9.77
  C 25.98 9.79 21.42 9.66 19.22 12.15
  C 19.21 12.16 19.01 12.18 19.00 12.18
  C 18.99 12.18 18.79 12.16 18.78 12.15
  C 16.58 9.66 12.02 9.78 9.21 9.75
  A 1.15 1.15 0.0 0 0 8.05 10.90
  L 8.03 23.17
  A 0.71 0.70 -89.5 0 0 8.72 23.88
  L 16.67 24.04
  A 1.49 1.47 55.8 0 1 17.23 24.15
  Q 18.02 24.48 18.45 25.53
  Q 18.46 25.55 18.71 25.68
  Q 18.84 25.75 18.99 25.75"
/>
<path stroke="#b1b5d2" vector-effect="non-scaling-stroke" d="
  M 18.87 29.98
  Q 20.90 29.98 22.07 28.42
  A 1.14 1.13 18.0 0 1 22.99 27.95
  L 28.99 27.95
  A 0.83 0.83 0.0 0 0 29.82 27.12
  L 29.82 26.80
  A 0.74 0.73 -90.0 0 0 29.09 26.06
  L 21.41 26.04
  A 1.12 1.11 17.0 0 0 20.49 26.52
  Q 20.34 26.74 20.28 27.18
  Q 20.23 27.59 19.76 27.89
  Q 19.47 28.07 18.87 28.07
  Q 18.27 28.07 17.98 27.89
  Q 17.51 27.60 17.46 27.19
  Q 17.39 26.75 17.24 26.53
  A 1.12 1.11 -17.2 0 0 16.32 26.05
  L 8.64 26.10
  A 0.74 0.73 89.8 0 0 7.91 26.84
  L 7.92 27.16
  A 0.83 0.83 0.0 0 0 8.75 27.99
  L 14.75 27.97
  A 1.14 1.13 -18.2 0 1 15.67 28.43
  Q 16.84 29.98 18.87 29.98"
/>
<path stroke="#b1b5d2" vector-effect="non-scaling-stroke" d="
  M 18.02 21.45
  L 18.02 15.62
  A 3.28 3.27 5.3 0 0 15.34 12.40
  L 11.64 11.70
  A 1.45 1.45 0.0 0 0 9.92 13.12
  L 9.92 21.04
  A 1.05 1.04 0.0 0 0 10.97 22.08
  L 17.38 22.08
  A 0.64 0.63 -0.0 0 0 18.02 21.45"
/>
<path stroke="#b1b5d2" vector-effect="non-scaling-stroke" d="
  M 19.95 21.43
  A 0.64 0.63 0.4 0 0 20.59 22.06
  L 27.02 22.10
  A 1.05 1.04 0.4 0 0 28.08 21.07
  L 28.13 13.12
  A 1.45 1.45 0.0 0 0 26.41 11.69
  L 22.70 12.37
  A 3.29 3.28 -4.9 0 0 19.99 15.58
  L 19.95 21.43"
/>
</g>
<path fill="#867faa" d="
  M 29.76 0.00
  Q 36.62 1.28 38.00 8.15
  L 38.00 29.88
  Q 36.64 36.60 29.93 38.00
  L 8.12 38.00
  Q 1.40 36.65 0.00 29.93
  L 0.00 8.13
  Q 1.36 1.36 8.13 0.00
  L 29.76 0.00
  Z
  M 36.0031 9.2803
  A 7.35 7.35 0.0 0 0 28.6403 1.9431
  L 9.3003 1.9769
  A 7.35 7.35 0.0 0 0 1.9631 9.3397
  L 1.9969 28.6997
  A 7.35 7.35 0.0 0 0 9.3597 36.0369
  L 28.6997 36.0031
  A 7.35 7.35 0.0 0 0 36.0369 28.6403
  L 36.0031 9.2803
  Z"
/>
<path fill="#dcebfa" d="
  M 36.0369 28.6403
  A 7.35 7.35 0.0 0 1 28.6997 36.0031
  L 9.3597 36.0369
  A 7.35 7.35 0.0 0 1 1.9969 28.6997
  L 1.9631 9.3397
  A 7.35 7.35 0.0 0 1 9.3003 1.9769
  L 28.6403 1.9431
  A 7.35 7.35 0.0 0 1 36.0031 9.2803
  L 36.0369 28.6403
  Z
  M 18.99 25.75
  Q 19.14 25.75 19.27 25.68
  Q 19.51 25.55 19.52 25.53
  Q 19.96 24.48 20.75 24.15
  A 1.49 1.47 -55.7 0 1 21.31 24.04
  L 29.26 23.90
  A 0.71 0.70 89.6 0 0 29.95 23.19
  L 29.95 10.92
  A 1.15 1.15 0.0 0 0 28.79 9.77
  C 25.98 9.79 21.42 9.66 19.22 12.15
  C 19.21 12.16 19.01 12.18 19.00 12.18
  C 18.99 12.18 18.79 12.16 18.78 12.15
  C 16.58 9.66 12.02 9.78 9.21 9.75
  A 1.15 1.15 0.0 0 0 8.05 10.90
  L 8.03 23.17
  A 0.71 0.70 -89.5 0 0 8.72 23.88
  L 16.67 24.04
  A 1.49 1.47 55.8 0 1 17.23 24.15
  Q 18.02 24.48 18.45 25.53
  Q 18.46 25.55 18.71 25.68
  Q 18.84 25.75 18.99 25.75
  Z
  M 18.87 29.98
  Q 20.90 29.98 22.07 28.42
  A 1.14 1.13 18.0 0 1 22.99 27.95
  L 28.99 27.95
  A 0.83 0.83 0.0 0 0 29.82 27.12
  L 29.82 26.80
  A 0.74 0.73 -90.0 0 0 29.09 26.06
  L 21.41 26.04
  A 1.12 1.11 17.0 0 0 20.49 26.52
  Q 20.34 26.74 20.28 27.18
  Q 20.23 27.59 19.76 27.89
  Q 19.47 28.07 18.87 28.07
  Q 18.27 28.07 17.98 27.89
  Q 17.51 27.60 17.46 27.19
  Q 17.39 26.75 17.24 26.53
  A 1.12 1.11 -17.2 0 0 16.32 26.05
  L 8.64 26.10
  A 0.74 0.73 89.8 0 0 7.91 26.84
  L 7.92 27.16
  A 0.83 0.83 0.0 0 0 8.75 27.99
  L 14.75 27.97
  A 1.14 1.13 -18.2 0 1 15.67 28.43
  Q 16.84 29.98 18.87 29.98
  Z"
/>
<path fill="#867faa" d="
  M 19.00 12.18
  C 19.01 12.18 19.21 12.16 19.22 12.15
  C 21.42 9.66 25.98 9.79 28.79 9.77
  A 1.15 1.15 0.0 0 1 29.95 10.92
  L 29.95 23.19
  A 0.71 0.70 89.6 0 1 29.26 23.90
  L 21.31 24.04
  A 1.49 1.47 -55.7 0 0 20.75 24.15
  Q 19.96 24.48 19.52 25.53
  Q 19.51 25.55 19.27 25.68
  Q 19.14 25.75 18.99 25.75
  Q 18.84 25.75 18.71 25.68
  Q 18.46 25.55 18.45 25.53
  Q 18.02 24.48 17.23 24.15
  A 1.49 1.47 55.8 0 0 16.67 24.04
  L 8.72 23.88
  A 0.71 0.70 -89.5 0 1 8.03 23.17
  L 8.05 10.90
  A 1.15 1.15 0.0 0 1 9.21 9.75
  C 12.02 9.78 16.58 9.66 18.78 12.15
  C 18.79 12.16 18.99 12.18 19.00 12.18
  Z
  M 18.02 21.45
  L 18.02 15.62
  A 3.28 3.27 5.3 0 0 15.34 12.40
  L 11.64 11.70
  A 1.45 1.45 0.0 0 0 9.92 13.12
  L 9.92 21.04
  A 1.05 1.04 0.0 0 0 10.97 22.08
  L 17.38 22.08
  A 0.64 0.63 -0.0 0 0 18.02 21.45
  Z
  M 19.95 21.43
  A 0.64 0.63 0.4 0 0 20.59 22.06
  L 27.02 22.10
  A 1.05 1.04 0.4 0 0 28.08 21.07
  L 28.13 13.12
  A 1.45 1.45 0.0 0 0 26.41 11.69
  L 22.70 12.37
  A 3.29 3.28 -4.9 0 0 19.99 15.58
  L 19.95 21.43
  Z"
/>
<path fill="#dcebfa" d="
  M 18.02 21.45
  A 0.64 0.63 0.0 0 1 17.38 22.08
  L 10.97 22.08
  A 1.05 1.04 -0.0 0 1 9.92 21.04
  L 9.92 13.12
  A 1.45 1.45 0.0 0 1 11.64 11.70
  L 15.34 12.40
  A 3.28 3.27 5.3 0 1 18.02 15.62
  L 18.02 21.45
  Z"
/>
<path fill="#dcebfa" d="
  M 19.95 21.43
  L 19.99 15.58
  A 3.29 3.28 -4.9 0 1 22.70 12.37
  L 26.41 11.69
  A 1.45 1.45 0.0 0 1 28.13 13.12
  L 28.08 21.07
  A 1.05 1.04 0.4 0 1 27.02 22.10
  L 20.59 22.06
  A 0.64 0.63 0.4 0 1 19.95 21.43
  Z"
/>
<path fill="#867faa" d="
  M 18.87 28.07
  Q 19.47 28.07 19.76 27.89
  Q 20.23 27.59 20.28 27.18
  Q 20.34 26.74 20.49 26.52
  A 1.12 1.11 17.0 0 1 21.41 26.04
  L 29.09 26.06
  A 0.74 0.73 90.0 0 1 29.82 26.80
  L 29.82 27.12
  A 0.83 0.83 0.0 0 1 28.99 27.95
  L 22.99 27.95
  A 1.14 1.13 18.0 0 0 22.07 28.42
  Q 20.90 29.98 18.87 29.98
  Q 16.84 29.98 15.67 28.43
  A 1.14 1.13 -18.2 0 0 14.75 27.97
  L 8.75 27.99
  A 0.83 0.83 0.0 0 1 7.92 27.16
  L 7.91 26.84
  A 0.74 0.73 89.8 0 1 8.64 26.10
  L 16.32 26.05
  A 1.12 1.11 -17.2 0 1 17.24 26.53
  Q 17.39 26.75 17.46 27.19
  Q 17.51 27.60 17.98 27.89
  Q 18.27 28.07 18.87 28.07
  Z"
/>
</svg>
