<?xml version="1.0" encoding="UTF-8" standalone="no"?>
<!DOCTYPE svg PUBLIC "-//W3C//DTD SVG 1.1//EN" "http://www.w3.org/Graphics/SVG/1.1/DTD/svg11.dtd">
<svg xmlns="http://www.w3.org/2000/svg" version="1.1" viewBox="0.00 0.00 38.00 38.00" width="19" height="19">
<g stroke-width="2.00" fill="none" stroke-linecap="butt">
<path stroke="#93c9ac" vector-effect="non-scaling-stroke" d="
  M 36.0030 9.2403
  A 7.30 7.30 0.0 0 0 28.6903 1.9531
  L 9.2503 1.9870
  A 7.30 7.30 0.0 0 0 1.9631 9.2997
  L 1.9970 28.7397
  A 7.30 7.30 0.0 0 0 9.3097 36.0269
  L 28.7497 35.9930
  A 7.30 7.30 0.0 0 0 36.0369 28.6803
  L 36.0030 9.2403"
/>
<path stroke="#93c9ac" vector-effect="non-scaling-stroke" d="
  M 18.99 30.69
  C 21.80 30.68 24.74 28.33 26.28 26.12
  A 0.78 0.78 0.0 0 1 26.92 25.78
  L 28.54 25.78
  A 0.44 0.44 0.0 0 0 28.98 25.32
  Q 28.92 23.93 27.92 21.91
  A 1.03 1.03 0.0 0 0 26.48 21.47
  L 23.95 22.93
  A 0.47 0.46 -35.9 0 0 23.83 23.64
  Q 24.06 23.92 24.65 24.29
  A 0.55 0.54 -57.9 0 1 24.82 25.05
  Q 23.29 27.38 20.59 28.33
  A 0.48 0.48 0.0 0 1 19.95 27.88
  L 19.95 20.30
  A 0.57 0.57 0.0 0 1 20.53 19.73
  L 23.97 19.75
  A 0.96 0.95 0.0 0 0 24.94 18.79
  L 24.94 18.75
  A 0.99 0.99 0.0 0 0 23.93 17.73
  L 20.66 17.77
  A 0.66 0.65 -10.6 0 1 20.03 17.34
  Q 19.41 15.60 20.86 14.35
  C 23.00 12.52 22.06 9.18 18.96 9.19
  C 15.87 9.19 14.94 12.53 17.08 14.36
  Q 18.53 15.60 17.92 17.34
  A 0.66 0.65 10.4 0 1 17.29 17.77
  L 14.02 17.74
  A 0.99 0.99 0.0 0 0 13.01 18.77
  L 13.01 18.81
  A 0.96 0.95 -0.2 0 0 13.99 19.76
  L 17.43 19.73
  A 0.57 0.57 0.0 0 1 18.01 20.30
  L 18.03 27.88
  A 0.48 0.48 0.0 0 1 17.39 28.33
  Q 14.69 27.39 13.15 25.07
  A 0.55 0.54 57.7 0 1 13.32 24.31
  Q 13.91 23.93 14.14 23.65
  A 0.47 0.46 35.7 0 0 14.01 22.94
  L 11.48 21.49
  A 1.03 1.03 0.0 0 0 10.04 21.93
  Q 9.05 23.96 8.99 25.35
  A 0.44 0.44 0.0 0 0 9.43 25.81
  L 11.05 25.80
  A 0.78 0.78 0.0 0 1 11.70 26.14
  C 13.24 28.35 16.19 30.69 18.99 30.69"
/>
<path stroke="#93c9ac" vector-effect="non-scaling-stroke" d="
  M 20.0982 11.8269
  A 1.12 0.98 -15.7 0 0 18.7548 11.1866
  A 1.12 0.98 -15.7 0 0 17.9418 12.4331
  A 1.12 0.98 -15.7 0 0 19.2852 13.0734
  A 1.12 0.98 -15.7 0 0 20.0982 11.8269"
/>
</g>
<path fill="#4fa074" d="
  M 29.76 0.00
  Q 36.62 1.28 38.00 8.15
  L 38.00 29.88
  Q 36.64 36.60 29.92 38.00
  L 8.12 38.00
  Q 1.40 36.64 0.00 29.93
  L 0.00 8.13
  Q 1.36 1.36 8.13 0.00
  L 29.76 0.00
  Z
  M 36.0030 9.2403
  A 7.30 7.30 0.0 0 0 28.6903 1.9531
  L 9.2503 1.9870
  A 7.30 7.30 0.0 0 0 1.9631 9.2997
  L 1.9970 28.7397
  A 7.30 7.30 0.0 0 0 9.3097 36.0269
  L 28.7497 35.9930
  A 7.30 7.30 0.0 0 0 36.0369 28.6803
  L 36.0030 9.2403
  Z"
/>
<path fill="#d6f2e3" d="
  M 36.0369 28.6803
  A 7.30 7.30 0.0 0 1 28.7497 35.9930
  L 9.3097 36.0269
  A 7.30 7.30 0.0 0 1 1.9970 28.7397
  L 1.9631 9.2997
  A 7.30 7.30 0.0 0 1 9.2503 1.9870
  L 28.6903 1.9531
  A 7.30 7.30 0.0 0 1 36.0030 9.2403
  L 36.0369 28.6803
  Z
  M 18.99 30.69
  C 21.80 30.68 24.74 28.33 26.28 26.12
  A 0.78 0.78 0.0 0 1 26.92 25.78
  L 28.54 25.78
  A 0.44 0.44 0.0 0 0 28.98 25.32
  Q 28.92 23.93 27.92 21.91
  A 1.03 1.03 0.0 0 0 26.48 21.47
  L 23.95 22.93
  A 0.47 0.46 -35.9 0 0 23.83 23.64
  Q 24.06 23.92 24.65 24.29
  A 0.55 0.54 -57.9 0 1 24.82 25.05
  Q 23.29 27.38 20.59 28.33
  A 0.48 0.48 0.0 0 1 19.95 27.88
  L 19.95 20.30
  A 0.57 0.57 0.0 0 1 20.53 19.73
  L 23.97 19.75
  A 0.96 0.95 0.0 0 0 24.94 18.79
  L 24.94 18.75
  A 0.99 0.99 0.0 0 0 23.93 17.73
  L 20.66 17.77
  A 0.66 0.65 -10.6 0 1 20.03 17.34
  Q 19.41 15.60 20.86 14.35
  C 23.00 12.52 22.06 9.18 18.96 9.19
  C 15.87 9.19 14.94 12.53 17.08 14.36
  Q 18.53 15.60 17.92 17.34
  A 0.66 0.65 10.4 0 1 17.29 17.77
  L 14.02 17.74
  A 0.99 0.99 0.0 0 0 13.01 18.77
  L 13.01 18.81
  A 0.96 0.95 -0.2 0 0 13.99 19.76
  L 17.43 19.73
  A 0.57 0.57 0.0 0 1 18.01 20.30
  L 18.03 27.88
  A 0.48 0.48 0.0 0 1 17.39 28.33
  Q 14.69 27.39 13.15 25.07
  A 0.55 0.54 57.7 0 1 13.32 24.31
  Q 13.91 23.93 14.14 23.65
  A 0.47 0.46 35.7 0 0 14.01 22.94
  L 11.48 21.49
  A 1.03 1.03 0.0 0 0 10.04 21.93
  Q 9.05 23.96 8.99 25.35
  A 0.44 0.44 0.0 0 0 9.43 25.81
  L 11.05 25.80
  A 0.78 0.78 0.0 0 1 11.70 26.14
  C 13.24 28.35 16.19 30.69 18.99 30.69
  Z"
/>
<path fill="#4fa074" d="
  M 18.96 9.19
  C 22.06 9.18 23.00 12.52 20.86 14.35
  Q 19.41 15.60 20.03 17.34
  A 0.66 0.65 -10.6 0 0 20.66 17.77
  L 23.93 17.73
  A 0.99 0.99 0.0 0 1 24.94 18.75
  L 24.94 18.79
  A 0.96 0.95 0.0 0 1 23.97 19.75
  L 20.53 19.73
  A 0.57 0.57 0.0 0 0 19.95 20.30
  L 19.95 27.88
  A 0.48 0.48 0.0 0 0 20.59 28.33
  Q 23.29 27.38 24.82 25.05
  A 0.55 0.54 -57.9 0 0 24.65 24.29
  Q 24.06 23.92 23.83 23.64
  A 0.47 0.46 -35.9 0 1 23.95 22.93
  L 26.48 21.47
  A 1.03 1.03 0.0 0 1 27.92 21.91
  Q 28.92 23.93 28.98 25.32
  A 0.44 0.44 0.0 0 1 28.54 25.78
  L 26.92 25.78
  A 0.78 0.78 0.0 0 0 26.28 26.12
  C 24.74 28.33 21.80 30.68 18.99 30.69
  C 16.19 30.69 13.24 28.35 11.70 26.14
  A 0.78 0.78 0.0 0 0 11.05 25.80
  L 9.43 25.81
  A 0.44 0.44 0.0 0 1 8.99 25.35
  Q 9.05 23.96 10.04 21.93
  A 1.03 1.03 0.0 0 1 11.48 21.49
  L 14.01 22.94
  A 0.47 0.46 35.7 0 1 14.14 23.65
  Q 13.91 23.93 13.32 24.31
  A 0.55 0.54 57.7 0 0 13.15 25.07
  Q 14.69 27.39 17.39 28.33
  A 0.48 0.48 0.0 0 0 18.03 27.88
  L 18.01 20.30
  A 0.57 0.57 0.0 0 0 17.43 19.73
  L 13.99 19.76
  A 0.96 0.95 -0.2 0 1 13.01 18.81
  L 13.01 18.77
  A 0.99 0.99 0.0 0 1 14.02 17.74
  L 17.29 17.77
  A 0.66 0.65 10.4 0 0 17.92 17.34
  Q 18.53 15.60 17.08 14.36
  C 14.94 12.53 15.87 9.19 18.96 9.19
  Z
  M 20.0982 11.8269
  A 1.12 0.98 -15.7 0 0 18.7548 11.1866
  A 1.12 0.98 -15.7 0 0 17.9418 12.4331
  A 1.12 0.98 -15.7 0 0 19.2852 13.0734
  A 1.12 0.98 -15.7 0 0 20.0982 11.8269
  Z"
/>
<ellipse fill="#d6f2e3" cx="0.00" cy="0.00" transform="translate(19.02,12.13) rotate(-15.7)" rx="1.12" ry="0.98"/>
</svg>
