<?xml version="1.0" encoding="UTF-8" standalone="no"?>
<!DOCTYPE svg PUBLIC "-//W3C//DTD SVG 1.1//EN" "http://www.w3.org/Graphics/SVG/1.1/DTD/svg11.dtd">
<svg xmlns="http://www.w3.org/2000/svg" version="1.1" viewBox="0.00 0.00 38.00 38.00">
<g stroke-width="2.00" fill="none" stroke-linecap="butt">
<path stroke="#93c9ac" vector-effect="non-scaling-stroke" d="
  M 36.0030 9.2603
  A 7.31 7.31 0.0 0 0 28.6803 1.9631
  L 9.2603 1.9970
  A 7.31 7.31 0.0 0 0 1.9631 9.3197
  L 1.9970 28.7397
  A 7.31 7.31 0.0 0 0 9.3197 36.0369
  L 28.7397 36.0030
  A 7.31 7.31 0.0 0 0 36.0369 28.6803
  L 36.0030 9.2603"
/>
<path stroke="#93c9ac" vector-effect="non-scaling-stroke" d="
  M 15.58 17.79
  L 14.65 16.18
  A 0.86 0.86 0.0 0 0 13.16 16.18
  L 7.54 25.91
  A 0.97 0.97 0.0 0 0 8.29 27.36
  C 15.57 28.07 22.45 27.45 29.51 27.45
  A 0.99 0.99 0.0 0 0 30.37 25.96
  L 21.73 10.98
  A 1.01 1.01 0.0 0 0 19.99 10.98
  L 16.06 17.79
  A 0.28 0.28 0.0 0 1 15.58 17.79"
/>
<path stroke="#86c2a2" vector-effect="non-scaling-stroke" d="
  M 27.21 25.50
  A 0.34 0.34 0.0 0 0 27.51 24.99
  L 21.15 13.99
  A 0.34 0.34 0.0 0 0 20.57 13.99
  L 17.16 19.89
  A 0.34 0.34 0.0 0 0 17.16 20.23
  L 20.10 25.33
  A 0.34 0.34 0.0 0 0 20.40 25.50
  L 27.21 25.50"
/>
<path stroke="#86c2a2" vector-effect="non-scaling-stroke" d="
  M 13.97 25.51
  Q 16.69 25.51 17.19 25.44
  A 0.37 0.37 0.0 0 0 17.47 24.91
  Q 16.09 22.11 14.18 19.33
  C 14.12 19.24 14.14 19.26 13.97 19.26
  C 13.81 19.26 13.83 19.24 13.77 19.33
  Q 11.86 22.11 10.48 24.91
  A 0.37 0.37 0.0 0 0 10.76 25.44
  Q 11.25 25.50 13.97 25.51"
/>
</g>
<path fill="#4fa074" d="
  M 29.76 0.00
  Q 36.62 1.29 38.00 8.15
  L 38.00 29.88
  Q 36.63 36.60 29.92 38.00
  L 8.12 38.00
  Q 1.40 36.64 0.00 29.93
  L 0.00 8.13
  Q 1.36 1.37 8.13 0.00
  L 29.76 0.00
  Z
  M 36.0030 9.2603
  A 7.31 7.31 0.0 0 0 28.6803 1.9631
  L 9.2603 1.9970
  A 7.31 7.31 0.0 0 0 1.9631 9.3197
  L 1.9970 28.7397
  A 7.31 7.31 0.0 0 0 9.3197 36.0369
  L 28.7397 36.0030
  A 7.31 7.31 0.0 0 0 36.0369 28.6803
  L 36.0030 9.2603
  Z"
/>
<path fill="#d6f2e3" d="
  M 36.0369 28.6803
  A 7.31 7.31 0.0 0 1 28.7397 36.0030
  L 9.3197 36.0369
  A 7.31 7.31 0.0 0 1 1.9970 28.7397
  L 1.9631 9.3197
  A 7.31 7.31 0.0 0 1 9.2603 1.9970
  L 28.6803 1.9631
  A 7.31 7.31 0.0 0 1 36.0030 9.2603
  L 36.0369 28.6803
  Z
  M 15.58 17.79
  L 14.65 16.18
  A 0.86 0.86 0.0 0 0 13.16 16.18
  L 7.54 25.91
  A 0.97 0.97 0.0 0 0 8.29 27.36
  C 15.57 28.07 22.45 27.45 29.51 27.45
  A 0.99 0.99 0.0 0 0 30.37 25.96
  L 21.73 10.98
  A 1.01 1.01 0.0 0 0 19.99 10.98
  L 16.06 17.79
  A 0.28 0.28 0.0 0 1 15.58 17.79
  Z"
/>
<path fill="#4fa074" d="
  M 15.58 17.79
  A 0.28 0.28 0.0 0 0 16.06 17.79
  L 19.99 10.98
  A 1.01 1.01 0.0 0 1 21.73 10.98
  L 30.37 25.96
  A 0.99 0.99 0.0 0 1 29.51 27.45
  C 22.45 27.45 15.57 28.07 8.29 27.36
  A 0.97 0.97 0.0 0 1 7.54 25.91
  L 13.16 16.18
  A 0.86 0.86 0.0 0 1 14.65 16.18
  L 15.58 17.79
  Z
  M 27.21 25.50
  A 0.34 0.34 0.0 0 0 27.51 24.99
  L 21.15 13.99
  A 0.34 0.34 0.0 0 0 20.57 13.99
  L 17.16 19.89
  A 0.34 0.34 0.0 0 0 17.16 20.23
  L 20.10 25.33
  A 0.34 0.34 0.0 0 0 20.40 25.50
  L 27.21 25.50
  Z
  M 13.97 25.51
  Q 16.69 25.51 17.19 25.44
  A 0.37 0.37 0.0 0 0 17.47 24.91
  Q 16.09 22.11 14.18 19.33
  C 14.12 19.24 14.14 19.26 13.97 19.26
  C 13.81 19.26 13.83 19.24 13.77 19.33
  Q 11.86 22.11 10.48 24.91
  A 0.37 0.37 0.0 0 0 10.76 25.44
  Q 11.25 25.50 13.97 25.51
  Z"
/>
<path fill="#bde3cf" d="
  M 27.21 25.50
  L 20.40 25.50
  A 0.34 0.34 0.0 0 1 20.10 25.33
  L 17.16 20.23
  A 0.34 0.34 0.0 0 1 17.16 19.89
  L 20.57 13.99
  A 0.34 0.34 0.0 0 1 21.15 13.99
  L 27.51 24.99
  A 0.34 0.34 0.0 0 1 27.21 25.50
  Z"
/>
<path fill="#bde3cf" d="
  M 13.97 19.26
  C 14.14 19.26 14.12 19.24 14.18 19.33
  Q 16.09 22.11 17.47 24.91
  A 0.37 0.37 0.0 0 1 17.19 25.44
  Q 16.69 25.51 13.97 25.51
  Q 11.25 25.50 10.76 25.44
  A 0.37 0.37 0.0 0 1 10.48 24.91
  Q 11.86 22.11 13.77 19.33
  C 13.83 19.24 13.81 19.26 13.97 19.26
  Z"
/>
</svg>
