<?xml version="1.0" encoding="UTF-8" standalone="no"?>
<!DOCTYPE svg PUBLIC "-//W3C//DTD SVG 1.1//EN" "http://www.w3.org/Graphics/SVG/1.1/DTD/svg11.dtd">
<svg xmlns="http://www.w3.org/2000/svg" version="1.1" viewBox="0.00 0.00 38.00 38.00" width="19" height="19">
<g stroke-width="2.00" fill="none" stroke-linecap="butt">
<path stroke="#9ab1e5" vector-effect="non-scaling-stroke" d="
  M 35.9830 9.2403
  A 7.28 7.28 0.0 0 0 28.6903 1.9730
  L 9.2303 2.0070
  A 7.28 7.28 0.0 0 0 1.9630 9.2997
  L 1.9970 28.7597
  A 7.28 7.28 0.0 0 0 9.2897 36.0270
  L 28.7497 35.9930
  A 7.28 7.28 0.0 0 0 36.0170 28.7003
  L 35.9830 9.2403"
/>
<path stroke="#9ab1e5" vector-effect="non-scaling-stroke" d="
  M 28.4571 13.7567
  A 7.59 7.59 0.0 0 0 20.8803 6.1535
  L 16.9204 6.1466
  A 7.59 7.59 0.0 0 0 9.3171 13.7233
  L 9.3029 21.8633
  A 7.59 7.59 0.0 0 0 16.8797 29.4665
  L 20.8396 29.4734
  A 7.59 7.59 0.0 0 0 28.4429 21.8967
  L 28.4571 13.7567"
/>
<path stroke="#9ab1e5" vector-effect="non-scaling-stroke" d="
  M 22.5105 30.0335
  A 2.14 0.76 -149.8 0 0 23.9777 31.7668
  A 2.14 0.76 -149.8 0 0 26.2095 32.1865
  A 2.14 0.76 -149.8 0 0 24.7423 30.4532
  A 2.14 0.76 -149.8 0 0 22.5105 30.0335"
/>
<path stroke="#9ab1e5" vector-effect="non-scaling-stroke" d="
  M 15.5115 30.0004
  A 2.24 0.63 -29.4 0 0 13.2507 30.5511
  A 2.24 0.63 -29.4 0 0 11.6085 32.1996
  A 2.24 0.63 -29.4 0 0 13.8693 31.6489
  A 2.24 0.63 -29.4 0 0 15.5115 30.0004"
/>
<path stroke="#8fa8e3" vector-effect="non-scaling-stroke" d="
  M 26.0645 13.3751
  A 4.87 4.87 0.0 0 0 21.1776 8.5221
  L 16.6176 8.5380
  A 4.87 4.87 0.0 0 0 11.7646 13.4250
  L 11.7955 22.2649
  A 4.87 4.87 0.0 0 0 16.6824 27.1179
  L 21.2424 27.1020
  A 4.87 4.87 0.0 0 0 26.0954 22.2150
  L 26.0645 13.3751"
/>
<path stroke="#8fa8e3" vector-effect="non-scaling-stroke" d="
  M 21.9398 10.9297
  A 0.92 0.92 0.0 0 0 21.0166 10.0130
  L 16.9766 10.0271
  A 0.92 0.92 0.0 0 0 16.0598 10.9503
  L 16.0602 11.0503
  A 0.92 0.92 0.0 0 0 16.9834 11.9670
  L 21.0234 11.9529
  A 0.92 0.92 0.0 0 0 21.9402 11.0297
  L 21.9398 10.9297"
/>
<path stroke="#8fa8e3" vector-effect="non-scaling-stroke" d="
  M 24.76 14.48
  A 0.46 0.46 0.0 0 0 24.30 14.02
  L 13.94 14.02
  A 0.46 0.46 0.0 0 0 13.48 14.48
  L 13.48 19.28
  A 0.46 0.46 0.0 0 0 13.94 19.74
  L 24.30 19.74
  A 0.46 0.46 0.0 0 0 24.76 19.28
  L 24.76 14.48"
/>
<path stroke="#8fa8e3" vector-effect="non-scaling-stroke" d="
  M 16.52 23.39
  A 1.13 1.13 0.0 0 0 15.39 22.26
  A 1.13 1.13 0.0 0 0 14.26 23.39
  A 1.13 1.13 0.0 0 0 15.39 24.52
  A 1.13 1.13 0.0 0 0 16.52 23.39"
/>
<path stroke="#8fa8e3" vector-effect="non-scaling-stroke" d="
  M 23.53 23.40
  A 1.12 1.12 0.0 0 0 22.41 22.28
  A 1.12 1.12 0.0 0 0 21.29 23.40
  A 1.12 1.12 0.0 0 0 22.41 24.52
  A 1.12 1.12 0.0 0 0 23.53 23.40"
/>
<path stroke="#8fa8e3" vector-effect="non-scaling-stroke" d="
  M 22.9001 16.8466
  A 0.83 0.83 0.0 0 0 22.0715 16.0151
  L 16.2115 16.0049
  A 0.83 0.83 0.0 0 0 15.3801 16.8334
  L 15.3799 16.9134
  A 0.83 0.83 0.0 0 0 16.2085 17.7449
  L 22.0685 17.7551
  A 0.83 0.83 0.0 0 0 22.8999 16.9266
  L 22.9001 16.8466"
/>
</g>
<path fill="#5c7ed8" d="
  M 29.76 0.00
  Q 36.62 1.29 38.00 8.15
  L 38.00 29.88
  Q 36.63 36.60 29.92 38.00
  L 8.12 38.00
  Q 1.40 36.64 0.00 29.93
  L 0.00 8.13
  Q 1.36 1.36 8.13 0.00
  L 29.76 0.00
  Z
  M 35.9830 9.2403
  A 7.28 7.28 0.0 0 0 28.6903 1.9730
  L 9.2303 2.0070
  A 7.28 7.28 0.0 0 0 1.9630 9.2997
  L 1.9970 28.7597
  A 7.28 7.28 0.0 0 0 9.2897 36.0270
  L 28.7497 35.9930
  A 7.28 7.28 0.0 0 0 36.0170 28.7003
  L 35.9830 9.2403
  Z"
/>
<path fill="#d7e4f2" d="
  M 36.0170 28.7003
  A 7.28 7.28 0.0 0 1 28.7497 35.9930
  L 9.2897 36.0270
  A 7.28 7.28 0.0 0 1 1.9970 28.7597
  L 1.9630 9.2997
  A 7.28 7.28 0.0 0 1 9.2303 2.0070
  L 28.6903 1.9730
  A 7.28 7.28 0.0 0 1 35.9830 9.2403
  L 36.0170 28.7003
  Z
  M 28.4571 13.7567
  A 7.59 7.59 0.0 0 0 20.8803 6.1535
  L 16.9204 6.1466
  A 7.59 7.59 0.0 0 0 9.3171 13.7233
  L 9.3029 21.8633
  A 7.59 7.59 0.0 0 0 16.8797 29.4665
  L 20.8396 29.4734
  A 7.59 7.59 0.0 0 0 28.4429 21.8967
  L 28.4571 13.7567
  Z
  M 22.5105 30.0335
  A 2.14 0.76 -149.8 0 0 23.9777 31.7668
  A 2.14 0.76 -149.8 0 0 26.2095 32.1865
  A 2.14 0.76 -149.8 0 0 24.7423 30.4532
  A 2.14 0.76 -149.8 0 0 22.5105 30.0335
  Z
  M 15.5115 30.0004
  A 2.24 0.63 -29.4 0 0 13.2507 30.5511
  A 2.24 0.63 -29.4 0 0 11.6085 32.1996
  A 2.24 0.63 -29.4 0 0 13.8693 31.6489
  A 2.24 0.63 -29.4 0 0 15.5115 30.0004
  Z"
/>
<path fill="#5c7ed8" d="
  M 28.4429 21.8967
  A 7.59 7.59 0.0 0 1 20.8396 29.4734
  L 16.8797 29.4665
  A 7.59 7.59 0.0 0 1 9.3029 21.8633
  L 9.3171 13.7233
  A 7.59 7.59 0.0 0 1 16.9204 6.1466
  L 20.8803 6.1535
  A 7.59 7.59 0.0 0 1 28.4571 13.7567
  L 28.4429 21.8967
  Z
  M 26.0645 13.3751
  A 4.87 4.87 0.0 0 0 21.1776 8.5221
  L 16.6176 8.5380
  A 4.87 4.87 0.0 0 0 11.7646 13.4250
  L 11.7955 22.2649
  A 4.87 4.87 0.0 0 0 16.6824 27.1179
  L 21.2424 27.1020
  A 4.87 4.87 0.0 0 0 26.0954 22.2150
  L 26.0645 13.3751
  Z"
/>
<path fill="#c1d1ee" d="
  M 26.0954 22.2150
  A 4.87 4.87 0.0 0 1 21.2424 27.1020
  L 16.6824 27.1179
  A 4.87 4.87 0.0 0 1 11.7955 22.2649
  L 11.7646 13.4250
  A 4.87 4.87 0.0 0 1 16.6176 8.5380
  L 21.1776 8.5221
  A 4.87 4.87 0.0 0 1 26.0645 13.3751
  L 26.0954 22.2150
  Z
  M 21.9398 10.9297
  A 0.92 0.92 0.0 0 0 21.0166 10.0130
  L 16.9766 10.0271
  A 0.92 0.92 0.0 0 0 16.0598 10.9503
  L 16.0602 11.0503
  A 0.92 0.92 0.0 0 0 16.9834 11.9670
  L 21.0234 11.9529
  A 0.92 0.92 0.0 0 0 21.9402 11.0297
  L 21.9398 10.9297
  Z
  M 24.76 14.48
  A 0.46 0.46 0.0 0 0 24.30 14.02
  L 13.94 14.02
  A 0.46 0.46 0.0 0 0 13.48 14.48
  L 13.48 19.28
  A 0.46 0.46 0.0 0 0 13.94 19.74
  L 24.30 19.74
  A 0.46 0.46 0.0 0 0 24.76 19.28
  L 24.76 14.48
  Z
  M 16.52 23.39
  A 1.13 1.13 0.0 0 0 15.39 22.26
  A 1.13 1.13 0.0 0 0 14.26 23.39
  A 1.13 1.13 0.0 0 0 15.39 24.52
  A 1.13 1.13 0.0 0 0 16.52 23.39
  Z
  M 23.53 23.40
  A 1.12 1.12 0.0 0 0 22.41 22.28
  A 1.12 1.12 0.0 0 0 21.29 23.40
  A 1.12 1.12 0.0 0 0 22.41 24.52
  A 1.12 1.12 0.0 0 0 23.53 23.40
  Z"
/>
<rect fill="#5c7ed8" x="-2.94" y="-0.97" transform="translate(19.00,10.99) rotate(-0.2)" width="5.88" height="1.94" rx="0.92"/>
<path fill="#5c7ed8" d="
  M 24.76 19.28
  A 0.46 0.46 0.0 0 1 24.30 19.74
  L 13.94 19.74
  A 0.46 0.46 0.0 0 1 13.48 19.28
  L 13.48 14.48
  A 0.46 0.46 0.0 0 1 13.94 14.02
  L 24.30 14.02
  A 0.46 0.46 0.0 0 1 24.76 14.48
  L 24.76 19.28
  Z
  M 22.9001 16.8466
  A 0.83 0.83 0.0 0 0 22.0715 16.0151
  L 16.2115 16.0049
  A 0.83 0.83 0.0 0 0 15.3801 16.8334
  L 15.3799 16.9134
  A 0.83 0.83 0.0 0 0 16.2085 17.7449
  L 22.0685 17.7551
  A 0.83 0.83 0.0 0 0 22.8999 16.9266
  L 22.9001 16.8466
  Z"
/>
<rect fill="#c1d1ee" x="-3.76" y="-0.87" transform="translate(19.14,16.88) rotate(0.1)" width="7.52" height="1.74" rx="0.83"/>
<circle fill="#5c7ed8" cx="15.39" cy="23.39" r="1.13"/>
<circle fill="#5c7ed8" cx="22.41" cy="23.40" r="1.12"/>
<ellipse fill="#5c7ed8" cx="0.00" cy="0.00" transform="translate(24.36,31.11) rotate(-149.8)" rx="2.14" ry="0.76"/>
<ellipse fill="#5c7ed8" cx="0.00" cy="0.00" transform="translate(13.56,31.10) rotate(-29.4)" rx="2.24" ry="0.63"/>
</svg>
