<?xml version="1.0" encoding="UTF-8" standalone="no"?>
<!DOCTYPE svg PUBLIC "-//W3C//DTD SVG 1.1//EN" "http://www.w3.org/Graphics/SVG/1.1/DTD/svg11.dtd">
<svg xmlns="http://www.w3.org/2000/svg" version="1.1" viewBox="0.00 0.00 38.00 38.00">
<g stroke-width="2.00" fill="none" stroke-linecap="butt">
<path stroke="#b1b6d3" vector-effect="non-scaling-stroke" d="
  M 36.0030 9.2603
  A 7.32 7.32 0.0 0 0 28.6703 1.9531
  L 9.2703 1.9870
  A 7.32 7.32 0.0 0 0 1.9631 9.3197
  L 1.9970 28.7197
  A 7.32 7.32 0.0 0 0 9.3297 36.0269
  L 28.7297 35.9930
  A 7.32 7.32 0.0 0 0 36.0369 28.6603
  L 36.0030 9.2603"
/>
<path stroke="#b1b6d3" vector-effect="non-scaling-stroke" d="
  M 26.85 21.91
  Q 26.05 24.93 29.54 25.97
  A 1.05 0.97 -6.9 0 0 30.77 24.52
  Q 30.56 24.21 29.53 23.94
  A 1.11 1.10 88.0 0 1 28.76 23.22
  Q 27.56 19.56 30.58 18.47
  A 1.15 1.15 0.0 0 0 30.76 16.40
  L 19.11 9.68
  A 0.38 0.38 0.0 0 0 18.73 9.68
  L 7.12 16.38
  A 1.17 1.17 0.0 0 0 7.12 18.40
  L 10.97 20.62
  A 1.16 1.15 -73.0 0 1 11.54 21.70
  Q 11.31 24.92 12.82 26.73
  A 3.70 3.52 84.6 0 0 13.67 27.47
  L 18.22 30.25
  A 1.01 1.01 0.0 0 0 19.25 30.26
  C 21.60 28.90 25.39 27.23 25.74 24.29
  Q 26.09 21.27 26.13 21.26
  A 0.55 0.55 0.0 0 1 26.85 21.91"
/>
<path stroke="#a9accc" vector-effect="non-scaling-stroke" d="
  M 19.08 11.95
  A 0.33 0.33 0.0 0 0 18.76 11.95
  L 9.69 17.17
  A 0.33 0.33 0.0 0 0 9.69 17.75
  L 18.72 22.96
  A 0.33 0.33 0.0 0 0 19.06 22.96
  L 28.12 17.73
  A 0.33 0.33 0.0 0 0 28.12 17.15
  L 19.08 11.95"
/>
<path stroke="#a9accc" vector-effect="non-scaling-stroke" d="
  M 18.66 28.16
  Q 18.81 28.17 19.04 28.03
  Q 22.40 26.04 22.62 25.89
  A 2.79 2.75 80.9 0 0 23.76 24.29
  L 24.01 23.36
  A 0.45 0.45 0.0 0 0 23.33 22.86
  Q 21.28 24.14 18.91 25.38
  Q 18.82 25.43 18.71 25.43
  Q 18.60 25.43 18.51 25.37
  Q 16.18 24.05 14.18 22.69
  A 0.45 0.45 0.0 0 0 13.48 23.17
  L 13.70 24.11
  A 2.79 2.75 -78.8 0 0 14.78 25.75
  Q 14.99 25.90 18.28 28.02
  Q 18.50 28.16 18.66 28.16"
/>
</g>
<path fill="#8680ab" d="
  M 29.76 0.00
  Q 36.62 1.29 38.00 8.15
  L 38.00 29.88
  Q 36.64 36.60 29.93 38.00
  L 8.12 38.00
  Q 1.40 36.64 0.00 29.93
  L 0.00 8.13
  Q 1.36 1.36 8.13 0.00
  L 29.76 0.00
  Z
  M 36.0030 9.2603
  A 7.32 7.32 0.0 0 0 28.6703 1.9531
  L 9.2703 1.9870
  A 7.32 7.32 0.0 0 0 1.9631 9.3197
  L 1.9970 28.7197
  A 7.32 7.32 0.0 0 0 9.3297 36.0269
  L 28.7297 35.9930
  A 7.32 7.32 0.0 0 0 36.0369 28.6603
  L 36.0030 9.2603
  Z"
/>
<path fill="#dcebfa" d="
  M 36.0369 28.6603
  A 7.32 7.32 0.0 0 1 28.7297 35.9930
  L 9.3297 36.0269
  A 7.32 7.32 0.0 0 1 1.9970 28.7197
  L 1.9631 9.3197
  A 7.32 7.32 0.0 0 1 9.2703 1.9870
  L 28.6703 1.9531
  A 7.32 7.32 0.0 0 1 36.0030 9.2603
  L 36.0369 28.6603
  Z
  M 26.85 21.91
  Q 26.05 24.93 29.54 25.97
  A 1.05 0.97 -6.9 0 0 30.77 24.52
  Q 30.56 24.21 29.53 23.94
  A 1.11 1.10 88.0 0 1 28.76 23.22
  Q 27.56 19.56 30.58 18.47
  A 1.15 1.15 0.0 0 0 30.76 16.40
  L 19.11 9.68
  A 0.38 0.38 0.0 0 0 18.73 9.68
  L 7.12 16.38
  A 1.17 1.17 0.0 0 0 7.12 18.40
  L 10.97 20.62
  A 1.16 1.15 -73.0 0 1 11.54 21.70
  Q 11.31 24.92 12.82 26.73
  A 3.70 3.52 84.6 0 0 13.67 27.47
  L 18.22 30.25
  A 1.01 1.01 0.0 0 0 19.25 30.26
  C 21.60 28.90 25.39 27.23 25.74 24.29
  Q 26.09 21.27 26.13 21.26
  A 0.55 0.55 0.0 0 1 26.85 21.91
  Z"
/>
<path fill="#8680ab" d="
  M 26.13 21.26
  Q 26.09 21.27 25.74 24.29
  C 25.39 27.23 21.60 28.90 19.25 30.26
  A 1.01 1.01 0.0 0 1 18.22 30.25
  L 13.67 27.47
  A 3.70 3.52 84.6 0 1 12.82 26.73
  Q 11.31 24.92 11.54 21.70
  A 1.16 1.15 -73.0 0 0 10.97 20.62
  L 7.12 18.40
  A 1.17 1.17 0.0 0 1 7.12 16.38
  L 18.73 9.68
  A 0.38 0.38 0.0 0 1 19.11 9.68
  L 30.76 16.40
  A 1.15 1.15 0.0 0 1 30.58 18.47
  Q 27.56 19.56 28.76 23.22
  A 1.11 1.10 88.0 0 0 29.53 23.94
  Q 30.56 24.21 30.77 24.52
  A 1.05 0.97 -6.9 0 1 29.54 25.97
  Q 26.05 24.93 26.85 21.91
  A 0.55 0.55 0.0 0 0 26.13 21.26
  Z
  M 19.08 11.95
  A 0.33 0.33 0.0 0 0 18.76 11.95
  L 9.69 17.17
  A 0.33 0.33 0.0 0 0 9.69 17.75
  L 18.72 22.96
  A 0.33 0.33 0.0 0 0 19.06 22.96
  L 28.12 17.73
  A 0.33 0.33 0.0 0 0 28.12 17.15
  L 19.08 11.95
  Z
  M 18.66 28.16
  Q 18.81 28.17 19.04 28.03
  Q 22.40 26.04 22.62 25.89
  A 2.79 2.75 80.9 0 0 23.76 24.29
  L 24.01 23.36
  A 0.45 0.45 0.0 0 0 23.33 22.86
  Q 21.28 24.14 18.91 25.38
  Q 18.82 25.43 18.71 25.43
  Q 18.60 25.43 18.51 25.37
  Q 16.18 24.05 14.18 22.69
  A 0.45 0.45 0.0 0 0 13.48 23.17
  L 13.70 24.11
  A 2.79 2.75 -78.8 0 0 14.78 25.75
  Q 14.99 25.90 18.28 28.02
  Q 18.50 28.16 18.66 28.16
  Z"
/>
<path fill="#ccd8ec" d="
  M 19.08 11.95
  L 28.12 17.15
  A 0.33 0.33 0.0 0 1 28.12 17.73
  L 19.06 22.96
  A 0.33 0.33 0.0 0 1 18.72 22.96
  L 9.69 17.75
  A 0.33 0.33 0.0 0 1 9.69 17.17
  L 18.76 11.95
  A 0.33 0.33 0.0 0 1 19.08 11.95
  Z"
/>
<path fill="#ccd8ec" d="
  M 18.71 25.43
  Q 18.82 25.43 18.91 25.38
  Q 21.28 24.14 23.33 22.86
  A 0.45 0.45 0.0 0 1 24.01 23.36
  L 23.76 24.29
  A 2.79 2.75 80.9 0 1 22.62 25.89
  Q 22.40 26.04 19.04 28.03
  Q 18.81 28.17 18.66 28.16
  Q 18.50 28.16 18.28 28.02
  Q 14.99 25.90 14.78 25.75
  A 2.79 2.75 -78.8 0 1 13.70 24.11
  L 13.48 23.17
  A 0.45 0.45 0.0 0 1 14.18 22.69
  Q 16.18 24.05 18.51 25.37
  Q 18.60 25.43 18.71 25.43
  Z"
/>
</svg>
