<?xml version="1.0" encoding="UTF-8" standalone="no"?>
<!DOCTYPE svg PUBLIC "-//W3C//DTD SVG 1.1//EN" "http://www.w3.org/Graphics/SVG/1.1/DTD/svg11.dtd">
<svg xmlns="http://www.w3.org/2000/svg" version="1.1" viewBox="0.00 0.00 38.00 38.00" width="19" height="19">
<g stroke-width="2.00" fill="none" stroke-linecap="butt">
<path stroke="#93c9ac" vector-effect="non-scaling-stroke" d="
  M 36.0130 9.2503
  A 7.31 7.31 0.0 0 0 28.6903 1.9531
  L 9.2703 1.9870
  A 7.31 7.31 0.0 0 0 1.9731 9.3097
  L 2.0070 28.7297
  A 7.31 7.31 0.0 0 0 9.3297 36.0269
  L 28.7497 35.9930
  A 7.31 7.31 0.0 0 0 36.0469 28.6703
  L 36.0130 9.2503"
/>
<path stroke="#93c9ac" vector-effect="non-scaling-stroke" d="
  M 26.75 24.73
  Q 30.28 25.66 31.74 22.17
  A 2.33 2.32 56.8 0 0 31.93 21.25
  Q 31.99 17.21 31.96 16.08
  Q 31.93 14.95 31.41 14.80
  Q 30.70 14.59 29.83 14.86
  A 0.67 0.67 0.0 0 1 28.97 14.18
  Q 29.10 11.38 26.82 9.93
  A 2.33 2.22 -26.8 0 0 25.67 9.58
  C 20.80 9.46 16.99 8.72 14.08 11.26
  A 2.31 2.25 18.2 0 1 13.04 11.77
  Q 7.29 12.90 7.25 19.80
  Q 7.20 27.37 7.24 27.56
  A 1.01 1.01 0.0 0 0 7.96 28.32
  Q 8.78 28.54 11.70 28.46
  C 13.64 28.41 13.79 27.16 13.44 25.66
  A 0.57 0.57 0.0 0 1 13.99 24.96
  L 19.38 24.96
  A 0.65 0.65 0.0 0 1 20.03 25.61
  L 20.03 27.63
  A 0.72 0.72 0.0 0 0 20.57 28.33
  Q 21.34 28.51 22.69 28.50
  Q 24.80 28.49 24.92 28.45
  Q 26.39 27.95 25.92 25.52
  A 0.68 0.67 -88.2 0 1 26.75 24.73"
/>
<path stroke="#86c2a2" vector-effect="non-scaling-stroke" d="
  M 11.50 26.03
  L 11.50 23.66
  A 0.63 0.62 90.0 0 1 12.12 23.03
  L 21.29 23.03
  A 0.69 0.69 0.0 0 1 21.98 23.72
  L 21.98 25.84
  A 0.78 0.78 0.0 0 0 22.76 26.62
  L 23.16 26.62
  A 0.83 0.82 0.3 0 0 23.99 25.81
  L 24.04 20.49
  A 0.99 0.99 0.0 0 1 24.85 19.53
  L 24.89 19.52
  A 0.89 0.88 79.6 0 1 25.85 20.19
  L 26.29 21.94
  A 0.99 0.97 3.5 0 0 26.92 22.64
  Q 28.38 23.17 29.28 22.44
  A 1.41 1.40 -13.8 0 0 29.78 21.62
  Q 30.31 19.00 29.85 16.99
  A 0.46 0.46 0.0 0 0 28.95 17.09
  L 28.95 20.67
  A 0.78 0.78 0.0 0 1 28.20 21.45
  L 27.92 21.46
  A 0.90 0.90 0.0 0 1 26.99 20.56
  L 26.99 13.36
  A 1.84 1.83 1.0 0 0 25.21 11.53
  Q 21.03 11.41 17.53 11.56
  Q 15.61 11.65 15.05 13.65
  A 3.11 2.66 -67.5 0 0 16.13 16.95
  Q 17.74 17.95 20.23 16.60
  A 1.03 1.02 75.8 0 0 20.76 15.70
  L 20.76 14.25
  A 0.93 0.92 31.7 0 1 22.51 13.84
  Q 23.02 14.85 22.40 16.23
  C 20.19 21.16 13.15 19.95 13.01 14.38
  A 0.47 0.46 76.7 0 0 12.35 13.97
  Q 9.32 15.38 9.29 18.74
  Q 9.24 23.33 9.27 25.94
  A 0.60 0.59 -0.5 0 0 9.87 26.52
  L 11.01 26.52
  A 0.49 0.49 0.0 0 0 11.50 26.03"
/>
<path stroke="#86c2a2" vector-effect="non-scaling-stroke" d="
  M 25.96 16.29
  A 1.24 1.24 0.0 0 0 24.72 15.05
  A 1.24 1.24 0.0 0 0 23.48 16.29
  A 1.24 1.24 0.0 0 0 24.72 17.53
  A 1.24 1.24 0.0 0 0 25.96 16.29"
/>
</g>
<path fill="#4fa074" d="
  M 29.76 0.00
  Q 36.62 1.29 38.00 8.15
  L 38.00 29.88
  Q 36.64 36.60 29.92 38.00
  L 8.12 38.00
  Q 1.40 36.65 0.00 29.93
  L 0.00 8.13
  Q 1.36 1.36 8.13 0.00
  L 29.76 0.00
  Z
  M 36.0130 9.2503
  A 7.31 7.31 0.0 0 0 28.6903 1.9531
  L 9.2703 1.9870
  A 7.31 7.31 0.0 0 0 1.9731 9.3097
  L 2.0070 28.7297
  A 7.31 7.31 0.0 0 0 9.3297 36.0269
  L 28.7497 35.9930
  A 7.31 7.31 0.0 0 0 36.0469 28.6703
  L 36.0130 9.2503
  Z"
/>
<path fill="#d6f2e3" d="
  M 36.0469 28.6703
  A 7.31 7.31 0.0 0 1 28.7497 35.9930
  L 9.3297 36.0269
  A 7.31 7.31 0.0 0 1 2.0070 28.7297
  L 1.9731 9.3097
  A 7.31 7.31 0.0 0 1 9.2703 1.9870
  L 28.6903 1.9531
  A 7.31 7.31 0.0 0 1 36.0130 9.2503
  L 36.0469 28.6703
  Z
  M 26.75 24.73
  Q 30.28 25.66 31.74 22.17
  A 2.33 2.32 56.8 0 0 31.93 21.25
  Q 31.99 17.21 31.96 16.08
  Q 31.93 14.95 31.41 14.80
  Q 30.70 14.59 29.83 14.86
  A 0.67 0.67 0.0 0 1 28.97 14.18
  Q 29.10 11.38 26.82 9.93
  A 2.33 2.22 -26.8 0 0 25.67 9.58
  C 20.80 9.46 16.99 8.72 14.08 11.26
  A 2.31 2.25 18.2 0 1 13.04 11.77
  Q 7.29 12.90 7.25 19.80
  Q 7.20 27.37 7.24 27.56
  A 1.01 1.01 0.0 0 0 7.96 28.32
  Q 8.78 28.54 11.70 28.46
  C 13.64 28.41 13.79 27.16 13.44 25.66
  A 0.57 0.57 0.0 0 1 13.99 24.96
  L 19.38 24.96
  A 0.65 0.65 0.0 0 1 20.03 25.61
  L 20.03 27.63
  A 0.72 0.72 0.0 0 0 20.57 28.33
  Q 21.34 28.51 22.69 28.50
  Q 24.80 28.49 24.92 28.45
  Q 26.39 27.95 25.92 25.52
  A 0.68 0.67 -88.2 0 1 26.75 24.73
  Z"
/>
<path fill="#4fa074" d="
  M 26.75 24.73
  A 0.68 0.67 -88.2 0 0 25.92 25.52
  Q 26.39 27.95 24.92 28.45
  Q 24.80 28.49 22.69 28.50
  Q 21.34 28.51 20.57 28.33
  A 0.72 0.72 0.0 0 1 20.03 27.63
  L 20.03 25.61
  A 0.65 0.65 0.0 0 0 19.38 24.96
  L 13.99 24.96
  A 0.57 0.57 0.0 0 0 13.44 25.66
  C 13.79 27.16 13.64 28.41 11.70 28.46
  Q 8.78 28.54 7.96 28.32
  A 1.01 1.01 0.0 0 1 7.24 27.56
  Q 7.20 27.37 7.25 19.80
  Q 7.29 12.90 13.04 11.77
  A 2.31 2.25 18.2 0 0 14.08 11.26
  C 16.99 8.72 20.80 9.46 25.67 9.58
  A 2.33 2.22 -26.8 0 1 26.82 9.93
  Q 29.10 11.38 28.97 14.18
  A 0.67 0.67 0.0 0 0 29.83 14.86
  Q 30.70 14.59 31.41 14.80
  Q 31.93 14.95 31.96 16.08
  Q 31.99 17.21 31.93 21.25
  A 2.33 2.32 56.8 0 1 31.74 22.17
  Q 30.28 25.66 26.75 24.73
  Z
  M 11.50 26.03
  L 11.50 23.66
  A 0.63 0.62 90.0 0 1 12.12 23.03
  L 21.29 23.03
  A 0.69 0.69 0.0 0 1 21.98 23.72
  L 21.98 25.84
  A 0.78 0.78 0.0 0 0 22.76 26.62
  L 23.16 26.62
  A 0.83 0.82 0.3 0 0 23.99 25.81
  L 24.04 20.49
  A 0.99 0.99 0.0 0 1 24.85 19.53
  L 24.89 19.52
  A 0.89 0.88 79.6 0 1 25.85 20.19
  L 26.29 21.94
  A 0.99 0.97 3.5 0 0 26.92 22.64
  Q 28.38 23.17 29.28 22.44
  A 1.41 1.40 -13.8 0 0 29.78 21.62
  Q 30.31 19.00 29.85 16.99
  A 0.46 0.46 0.0 0 0 28.95 17.09
  L 28.95 20.67
  A 0.78 0.78 0.0 0 1 28.20 21.45
  L 27.92 21.46
  A 0.90 0.90 0.0 0 1 26.99 20.56
  L 26.99 13.36
  A 1.84 1.83 1.0 0 0 25.21 11.53
  Q 21.03 11.41 17.53 11.56
  Q 15.61 11.65 15.05 13.65
  A 3.11 2.66 -67.5 0 0 16.13 16.95
  Q 17.74 17.95 20.23 16.60
  A 1.03 1.02 75.8 0 0 20.76 15.70
  L 20.76 14.25
  A 0.93 0.92 31.7 0 1 22.51 13.84
  Q 23.02 14.85 22.40 16.23
  C 20.19 21.16 13.15 19.95 13.01 14.38
  A 0.47 0.46 76.7 0 0 12.35 13.97
  Q 9.32 15.38 9.29 18.74
  Q 9.24 23.33 9.27 25.94
  A 0.60 0.59 -0.5 0 0 9.87 26.52
  L 11.01 26.52
  A 0.49 0.49 0.0 0 0 11.50 26.03
  Z"
/>
<path fill="#bde3cf" d="
  M 11.50 26.03
  A 0.49 0.49 0.0 0 1 11.01 26.52
  L 9.87 26.52
  A 0.60 0.59 -0.5 0 1 9.27 25.94
  Q 9.24 23.33 9.29 18.74
  Q 9.32 15.38 12.35 13.97
  A 0.47 0.46 76.7 0 1 13.01 14.38
  C 13.15 19.95 20.19 21.16 22.40 16.23
  Q 23.02 14.85 22.51 13.84
  A 0.93 0.92 31.7 0 0 20.76 14.25
  L 20.76 15.70
  A 1.03 1.02 75.8 0 1 20.23 16.60
  Q 17.74 17.95 16.13 16.95
  A 3.11 2.66 -67.5 0 1 15.05 13.65
  Q 15.61 11.65 17.53 11.56
  Q 21.03 11.41 25.21 11.53
  A 1.84 1.83 1.0 0 1 26.99 13.36
  L 26.99 20.56
  A 0.90 0.90 0.0 0 0 27.92 21.46
  L 28.20 21.45
  A 0.78 0.78 0.0 0 0 28.95 20.67
  L 28.95 17.09
  A 0.46 0.46 0.0 0 1 29.85 16.99
  Q 30.31 19.00 29.78 21.62
  A 1.41 1.40 -13.8 0 1 29.28 22.44
  Q 28.38 23.17 26.92 22.64
  A 0.99 0.97 3.5 0 1 26.29 21.94
  L 25.85 20.19
  A 0.89 0.88 79.6 0 0 24.89 19.52
  L 24.85 19.53
  A 0.99 0.99 0.0 0 0 24.04 20.49
  L 23.99 25.81
  A 0.83 0.82 0.3 0 1 23.16 26.62
  L 22.76 26.62
  A 0.78 0.78 0.0 0 1 21.98 25.84
  L 21.98 23.72
  A 0.69 0.69 0.0 0 0 21.29 23.03
  L 12.12 23.03
  A 0.63 0.62 -90.0 0 0 11.50 23.66
  L 11.50 26.03
  Z
  M 25.96 16.29
  A 1.24 1.24 0.0 0 0 24.72 15.05
  A 1.24 1.24 0.0 0 0 23.48 16.29
  A 1.24 1.24 0.0 0 0 24.72 17.53
  A 1.24 1.24 0.0 0 0 25.96 16.29
  Z"
/>
<circle fill="#4fa074" cx="24.72" cy="16.29" r="1.24"/>
</svg>
