<?xml version="1.0" encoding="UTF-8" standalone="no"?>
<!DOCTYPE svg PUBLIC "-//W3C//DTD SVG 1.1//EN" "http://www.w3.org/Graphics/SVG/1.1/DTD/svg11.dtd">
<svg xmlns="http://www.w3.org/2000/svg" version="1.1" viewBox="0.00 0.00 38.00 38.00" width="19" height="19">
<g stroke-width="2.00" fill="none" stroke-linecap="butt">
<path stroke="#243871" vector-effect="non-scaling-stroke" d="
  M 36.0636 9.4095
  A 7.37 7.37 0.0 0 0 28.7194 2.0138
  L 9.4195 1.9464
  A 7.37 7.37 0.0 0 0 2.0238 9.2906
  L 1.9564 28.6105
  A 7.37 7.37 0.0 0 0 9.3006 36.0062
  L 28.6005 36.0736
  A 7.37 7.37 0.0 0 0 35.9962 28.7294
  L 36.0636 9.4095"
/>
<path stroke="#243871" vector-effect="non-scaling-stroke" d="
  M 18.81 30.10
  Q 19.84 30.10 21.59 30.72
  A 1.68 1.68 0.0 0 0 22.99 27.67
  L 21.54 26.84
  A 0.99 0.98 18.9 0 1 21.06 25.87
  L 21.48 22.19
  A 0.46 0.45 -76.8 0 1 22.08 21.81
  L 29.85 24.48
  A 0.58 0.57 12.7 0 0 30.61 24.01
  L 30.94 21.10
  A 1.13 1.13 0.0 0 0 30.37 19.98
  L 22.58 15.48
  A 1.64 1.64 0.0 0 1 21.77 13.99
  Q 22.08 7.26 18.82 7.25
  Q 15.57 7.25 15.86 13.99
  A 1.64 1.64 0.0 0 1 15.05 15.48
  L 7.26 19.97
  A 1.13 1.13 0.0 0 0 6.69 21.08
  L 7.01 24.00
  A 0.58 0.57 -12.6 0 0 7.77 24.47
  L 15.54 21.81
  A 0.46 0.45 76.8 0 1 16.14 22.19
  L 16.56 25.87
  A 0.99 0.98 -18.8 0 1 16.08 26.84
  L 14.63 27.66
  A 1.68 1.68 0.0 0 0 16.02 30.71
  Q 17.77 30.10 18.81 30.10"
/>
<path stroke="#253e84" vector-effect="non-scaling-stroke" d="
  M 18.80 28.44
  Q 19.95 28.44 21.14 28.76
  A 0.31 0.31 0.0 0 0 21.46 28.26
  Q 21.41 28.21 20.18 27.60
  A 1.37 1.36 16.6 0 1 19.43 26.22
  L 20.09 20.48
  A 0.75 0.75 0.0 0 1 21.08 19.86
  L 28.63 22.46
  A 0.54 0.53 8.4 0 0 29.34 21.94
  Q 29.32 21.12 28.77 20.74
  Q 27.97 20.19 20.96 16.46
  A 1.37 1.35 -75.0 0 1 20.24 15.19
  Q 20.52 8.82 18.76 8.83
  Q 17.00 8.83 17.30 15.20
  A 1.37 1.35 74.8 0 1 16.58 16.47
  Q 9.59 20.23 8.79 20.78
  Q 8.24 21.16 8.23 21.98
  A 0.54 0.53 -8.6 0 0 8.94 22.50
  L 16.48 19.87
  A 0.75 0.75 0.0 0 1 17.47 20.49
  L 18.15 26.22
  A 1.37 1.36 -16.9 0 1 17.41 27.61
  Q 16.18 28.22 16.13 28.27
  A 0.31 0.31 0.0 0 0 16.45 28.77
  Q 17.64 28.44 18.80 28.44"
/>
</g>
<path fill="#284db9" d="
  M 29.90 0.00
  Q 36.55 1.31 38.00 8.04
  L 38.00 29.90
  Q 36.69 36.54 29.95 38.00
  L 8.11 38.00
  Q 1.46 36.68 0.00 29.95
  L 0.00 8.11
  Q 1.32 1.44 8.04 0.00
  L 29.90 0.00
  Z
  M 36.0636 9.4095
  A 7.37 7.37 0.0 0 0 28.7194 2.0138
  L 9.4195 1.9464
  A 7.37 7.37 0.0 0 0 2.0238 9.2906
  L 1.9564 28.6105
  A 7.37 7.37 0.0 0 0 9.3006 36.0062
  L 28.6005 36.0736
  A 7.37 7.37 0.0 0 0 35.9962 28.7294
  L 36.0636 9.4095
  Z"
/>
<path fill="#202228" d="
  M 35.9962 28.7294
  A 7.37 7.37 0.0 0 1 28.6005 36.0736
  L 9.3006 36.0062
  A 7.37 7.37 0.0 0 1 1.9564 28.6105
  L 2.0238 9.2906
  A 7.37 7.37 0.0 0 1 9.4195 1.9464
  L 28.7194 2.0138
  A 7.37 7.37 0.0 0 1 36.0636 9.4095
  L 35.9962 28.7294
  Z
  M 18.81 30.10
  Q 19.84 30.10 21.59 30.72
  A 1.68 1.68 0.0 0 0 22.99 27.67
  L 21.54 26.84
  A 0.99 0.98 18.9 0 1 21.06 25.87
  L 21.48 22.19
  A 0.46 0.45 -76.8 0 1 22.08 21.81
  L 29.85 24.48
  A 0.58 0.57 12.7 0 0 30.61 24.01
  L 30.94 21.10
  A 1.13 1.13 0.0 0 0 30.37 19.98
  L 22.58 15.48
  A 1.64 1.64 0.0 0 1 21.77 13.99
  Q 22.08 7.26 18.82 7.25
  Q 15.57 7.25 15.86 13.99
  A 1.64 1.64 0.0 0 1 15.05 15.48
  L 7.26 19.97
  A 1.13 1.13 0.0 0 0 6.69 21.08
  L 7.01 24.00
  A 0.58 0.57 -12.6 0 0 7.77 24.47
  L 15.54 21.81
  A 0.46 0.45 76.8 0 1 16.14 22.19
  L 16.56 25.87
  A 0.99 0.98 -18.8 0 1 16.08 26.84
  L 14.63 27.66
  A 1.68 1.68 0.0 0 0 16.02 30.71
  Q 17.77 30.10 18.81 30.10
  Z"
/>
<path fill="#284db9" d="
  M 18.82 7.25
  Q 22.08 7.26 21.77 13.99
  A 1.64 1.64 0.0 0 0 22.58 15.48
  L 30.37 19.98
  A 1.13 1.13 0.0 0 1 30.94 21.10
  L 30.61 24.01
  A 0.58 0.57 12.7 0 1 29.85 24.48
  L 22.08 21.81
  A 0.46 0.45 -76.8 0 0 21.48 22.19
  L 21.06 25.87
  A 0.99 0.98 18.9 0 0 21.54 26.84
  L 22.99 27.67
  A 1.68 1.68 0.0 0 1 21.59 30.72
  Q 19.84 30.10 18.81 30.10
  Q 17.77 30.10 16.02 30.71
  A 1.68 1.68 0.0 0 1 14.63 27.66
  L 16.08 26.84
  A 0.99 0.98 -18.8 0 0 16.56 25.87
  L 16.14 22.19
  A 0.46 0.45 76.8 0 0 15.54 21.81
  L 7.77 24.47
  A 0.58 0.57 -12.6 0 1 7.01 24.00
  L 6.69 21.08
  A 1.13 1.13 0.0 0 1 7.26 19.97
  L 15.05 15.48
  A 1.64 1.64 0.0 0 0 15.86 13.99
  Q 15.57 7.25 18.82 7.25
  Z
  M 18.80 28.44
  Q 19.95 28.44 21.14 28.76
  A 0.31 0.31 0.0 0 0 21.46 28.26
  Q 21.41 28.21 20.18 27.60
  A 1.37 1.36 16.6 0 1 19.43 26.22
  L 20.09 20.48
  A 0.75 0.75 0.0 0 1 21.08 19.86
  L 28.63 22.46
  A 0.54 0.53 8.4 0 0 29.34 21.94
  Q 29.32 21.12 28.77 20.74
  Q 27.97 20.19 20.96 16.46
  A 1.37 1.35 -75.0 0 1 20.24 15.19
  Q 20.52 8.82 18.76 8.83
  Q 17.00 8.83 17.30 15.20
  A 1.37 1.35 74.8 0 1 16.58 16.47
  Q 9.59 20.23 8.79 20.78
  Q 8.24 21.16 8.23 21.98
  A 0.54 0.53 -8.6 0 0 8.94 22.50
  L 16.48 19.87
  A 0.75 0.75 0.0 0 1 17.47 20.49
  L 18.15 26.22
  A 1.37 1.36 -16.9 0 1 17.41 27.61
  Q 16.18 28.22 16.13 28.27
  A 0.31 0.31 0.0 0 0 16.45 28.77
  Q 17.64 28.44 18.80 28.44
  Z"
/>
<path fill="#222e4f" d="
  M 18.76 8.83
  Q 20.52 8.82 20.24 15.19
  A 1.37 1.35 -75.0 0 0 20.96 16.46
  Q 27.97 20.19 28.77 20.74
  Q 29.32 21.12 29.34 21.94
  A 0.54 0.53 8.4 0 1 28.63 22.46
  L 21.08 19.86
  A 0.75 0.75 0.0 0 0 20.09 20.48
  L 19.43 26.22
  A 1.37 1.36 16.6 0 0 20.18 27.60
  Q 21.41 28.21 21.46 28.26
  A 0.31 0.31 0.0 0 1 21.14 28.76
  Q 19.95 28.44 18.80 28.44
  Q 17.64 28.44 16.45 28.77
  A 0.31 0.31 0.0 0 1 16.13 28.27
  Q 16.18 28.22 17.41 27.61
  A 1.37 1.36 -16.9 0 0 18.15 26.22
  L 17.47 20.49
  A 0.75 0.75 0.0 0 0 16.48 19.87
  L 8.94 22.50
  A 0.54 0.53 -8.6 0 1 8.23 21.98
  Q 8.24 21.16 8.79 20.78
  Q 9.59 20.23 16.58 16.47
  A 1.37 1.35 74.8 0 0 17.30 15.20
  Q 17.00 8.83 18.76 8.83
  Z"
/>
</svg>
