<?xml version="1.0" encoding="UTF-8" standalone="no"?>
<!DOCTYPE svg PUBLIC "-//W3C//DTD SVG 1.1//EN" "http://www.w3.org/Graphics/SVG/1.1/DTD/svg11.dtd">
<svg xmlns="http://www.w3.org/2000/svg" version="1.1" viewBox="0.00 0.00 38.00 38.00" width="19" height="19">
<g stroke-width="2.00" fill="none" stroke-linecap="butt">
<path stroke="#4d4d52" vector-effect="non-scaling-stroke" d="
  M 35.9931 9.3003
  A 7.33 7.33 0.0 0 0 28.6503 1.9831
  L 9.2903 2.0169
  A 7.33 7.33 0.0 0 0 1.9731 9.3597
  L 2.0069 28.7197
  A 7.33 7.33 0.0 0 0 9.3497 36.0369
  L 28.7097 36.0031
  A 7.33 7.33 0.0 0 0 36.0269 28.6603
  L 35.9931 9.3003"
/>
<path stroke="#4d4d52" vector-effect="non-scaling-stroke" d="
  M 23.27 23.70
  L 23.28 28.52
  A 1.55 1.54 1.4 0 0 24.74 30.05
  L 24.79 30.05
  A 1.37 1.36 2.1 0 0 26.26 28.69
  L 26.26 21.48
  A 2.74 2.69 -35.0 0 1 26.44 20.51
  L 28.53 15.20
  A 0.79 0.77 -81.3 0 1 29.19 14.70
  Q 30.49 14.58 31.08 13.91
  Q 32.22 12.64 30.93 11.67
  Q 29.63 10.68 27.75 10.72
  A 1.05 1.05 0.0 0 1 26.72 9.97
  Q 26.47 9.14 25.79 8.54
  A 0.73 0.72 -69.0 0 0 24.58 9.08
  L 24.58 10.73
  A 0.36 0.36 0.0 0 1 23.94 10.96
  Q 22.72 9.50 21.78 9.90
  A 0.92 0.89 52.2 0 0 21.61 11.46
  Q 23.29 12.75 24.03 13.48
  A 1.47 1.47 0.0 0 1 24.19 15.37
  C 22.76 17.38 19.58 16.74 16.81 16.52
  C 15.34 16.40 14.26 16.84 12.83 17.38
  A 1.47 1.47 0.0 0 1 11.05 16.74
  L 9.96 14.85
  A 0.85 0.84 -54.8 0 0 8.40 15.12
  C 8.17 16.35 9.23 18.20 10.65 18.90
  Q 11.45 19.30 11.51 19.40
  A 3.39 3.36 30.1 0 1 11.97 21.10
  L 12.02 29.04
  A 1.02 1.02 0.0 0 0 13.04 30.06
  L 13.50 30.06
  A 1.49 1.48 90.0 0 0 14.98 28.57
  L 14.98 23.82
  A 0.57 0.56 -82.6 0 1 15.69 23.27
  Q 19.43 24.28 22.64 23.24
  A 0.48 0.48 0.0 0 1 23.27 23.70"
/>
</g>
<path fill="#76767f" d="
  M 29.90 0.00
  Q 36.54 1.33 38.00 8.05
  L 38.00 29.90
  Q 36.67 36.54 29.95 38.00
  L 8.10 38.00
  Q 1.45 36.67 0.00 29.96
  L 0.00 8.10
  Q 1.32 1.45 8.04 0.00
  L 29.90 0.00
  Z
  M 35.9931 9.3003
  A 7.33 7.33 0.0 0 0 28.6503 1.9831
  L 9.2903 2.0169
  A 7.33 7.33 0.0 0 0 1.9731 9.3597
  L 2.0069 28.7197
  A 7.33 7.33 0.0 0 0 9.3497 36.0369
  L 28.7097 36.0031
  A 7.33 7.33 0.0 0 0 36.0269 28.6603
  L 35.9931 9.3003
  Z"
/>
<path fill="#242425" d="
  M 36.0269 28.6603
  A 7.33 7.33 0.0 0 1 28.7097 36.0031
  L 9.3497 36.0369
  A 7.33 7.33 0.0 0 1 2.0069 28.7197
  L 1.9731 9.3597
  A 7.33 7.33 0.0 0 1 9.2903 2.0169
  L 28.6503 1.9831
  A 7.33 7.33 0.0 0 1 35.9931 9.3003
  L 36.0269 28.6603
  Z
  M 23.27 23.70
  L 23.28 28.52
  A 1.55 1.54 1.4 0 0 24.74 30.05
  L 24.79 30.05
  A 1.37 1.36 2.1 0 0 26.26 28.69
  L 26.26 21.48
  A 2.74 2.69 -35.0 0 1 26.44 20.51
  L 28.53 15.20
  A 0.79 0.77 -81.3 0 1 29.19 14.70
  Q 30.49 14.58 31.08 13.91
  Q 32.22 12.64 30.93 11.67
  Q 29.63 10.68 27.75 10.72
  A 1.05 1.05 0.0 0 1 26.72 9.97
  Q 26.47 9.14 25.79 8.54
  A 0.73 0.72 -69.0 0 0 24.58 9.08
  L 24.58 10.73
  A 0.36 0.36 0.0 0 1 23.94 10.96
  Q 22.72 9.50 21.78 9.90
  A 0.92 0.89 52.2 0 0 21.61 11.46
  Q 23.29 12.75 24.03 13.48
  A 1.47 1.47 0.0 0 1 24.19 15.37
  C 22.76 17.38 19.58 16.74 16.81 16.52
  C 15.34 16.40 14.26 16.84 12.83 17.38
  A 1.47 1.47 0.0 0 1 11.05 16.74
  L 9.96 14.85
  A 0.85 0.84 -54.8 0 0 8.40 15.12
  C 8.17 16.35 9.23 18.20 10.65 18.90
  Q 11.45 19.30 11.51 19.40
  A 3.39 3.36 30.1 0 1 11.97 21.10
  L 12.02 29.04
  A 1.02 1.02 0.0 0 0 13.04 30.06
  L 13.50 30.06
  A 1.49 1.48 90.0 0 0 14.98 28.57
  L 14.98 23.82
  A 0.57 0.56 -82.6 0 1 15.69 23.27
  Q 19.43 24.28 22.64 23.24
  A 0.48 0.48 0.0 0 1 23.27 23.70
  Z"
/>
<path fill="#76767f" d="
  M 22.64 23.24
  Q 19.43 24.28 15.69 23.27
  A 0.57 0.56 -82.6 0 0 14.98 23.82
  L 14.98 28.57
  A 1.49 1.48 -90.0 0 1 13.50 30.06
  L 13.04 30.06
  A 1.02 1.02 0.0 0 1 12.02 29.04
  L 11.97 21.10
  A 3.39 3.36 30.1 0 0 11.51 19.40
  Q 11.45 19.30 10.65 18.90
  C 9.23 18.20 8.17 16.35 8.40 15.12
  A 0.85 0.84 -54.8 0 1 9.96 14.85
  L 11.05 16.74
  A 1.47 1.47 0.0 0 0 12.83 17.38
  C 14.26 16.84 15.34 16.40 16.81 16.52
  C 19.58 16.74 22.76 17.38 24.19 15.37
  A 1.47 1.47 0.0 0 0 24.03 13.48
  Q 23.29 12.75 21.61 11.46
  A 0.92 0.89 52.2 0 1 21.78 9.90
  Q 22.72 9.50 23.94 10.96
  A 0.36 0.36 0.0 0 0 24.58 10.73
  L 24.58 9.08
  A 0.73 0.72 -69.0 0 1 25.79 8.54
  Q 26.47 9.14 26.72 9.97
  A 1.05 1.05 0.0 0 0 27.75 10.72
  Q 29.63 10.68 30.93 11.67
  Q 32.22 12.64 31.08 13.91
  Q 30.49 14.58 29.19 14.70
  A 0.79 0.77 -81.3 0 0 28.53 15.20
  L 26.44 20.51
  A 2.74 2.69 -35.0 0 0 26.26 21.48
  L 26.26 28.69
  A 1.37 1.36 2.1 0 1 24.79 30.05
  L 24.74 30.05
  A 1.55 1.54 1.4 0 1 23.28 28.52
  L 23.27 23.70
  A 0.48 0.48 0.0 0 0 22.64 23.24
  Z"
/>
</svg>
