<?xml version="1.0" encoding="UTF-8" standalone="no"?>
<!DOCTYPE svg PUBLIC "-//W3C//DTD SVG 1.1//EN" "http://www.w3.org/Graphics/SVG/1.1/DTD/svg11.dtd">
<svg xmlns="http://www.w3.org/2000/svg" version="1.1" viewBox="0.00 0.00 38.00 38.00" width="19" height="19">
<g stroke-width="2.00" fill="none" stroke-linecap="butt">
<path stroke="#4d4d52" vector-effect="non-scaling-stroke" d="
  M 36.0369 9.3197
  A 7.29 7.29 0.0 0 0 28.7597 2.0170
  L 9.3197 1.9831
  A 7.29 7.29 0.0 0 0 2.0170 9.2603
  L 1.9831 28.7003
  A 7.29 7.29 0.0 0 0 9.2603 36.0030
  L 28.7003 36.0369
  A 7.29 7.29 0.0 0 0 36.0030 28.7597
  L 36.0369 9.3197"
/>
<path stroke="#4d4d52" vector-effect="non-scaling-stroke" d="
  M 19.01 25.91
  Q 19.20 25.91 20.68 24.12
  A 0.16 0.15 17.4 0 1 20.81 24.06
  L 29.27 23.95
  A 0.71 0.70 90.0 0 0 29.97 23.24
  L 29.97 10.68
  A 0.90 0.90 0.0 0 0 29.09 9.78
  C 25.93 9.72 21.81 9.65 19.17 12.11
  A 0.24 0.20 -68.7 0 1 19.06 12.17
  Q 19.03 12.18 18.99 12.18
  Q 18.96 12.18 18.93 12.17
  A 0.24 0.20 68.6 0 1 18.82 12.11
  C 16.17 9.65 12.05 9.73 8.89 9.80
  A 0.90 0.90 0.0 0 0 8.02 10.70
  L 8.04 23.26
  A 0.71 0.70 89.9 0 0 8.74 23.97
  L 17.20 24.06
  A 0.16 0.15 -17.5 0 1 17.32 24.12
  Q 18.81 25.91 19.01 25.91"
/>
<path stroke="#4d4d52" vector-effect="non-scaling-stroke" d="
  M 20.39 26.65
  Q 20.18 27.31 20.17 27.33
  A 1.56 1.49 48.2 0 1 17.38 27.11
  Q 17.21 26.68 16.94 26.42
  A 1.53 1.52 66.4 0 0 15.90 26.01
  L 8.79 26.03
  A 0.72 0.72 0.0 0 0 8.07 26.75
  L 8.07 27.16
  A 0.81 0.81 0.0 0 0 8.88 27.97
  L 14.34 27.97
  A 1.76 1.73 -17.9 0 1 15.75 28.68
  Q 17.34 30.83 20.45 29.65
  C 21.06 29.41 21.54 28.75 21.94 28.37
  A 1.41 1.40 -67.0 0 1 22.92 27.97
  L 29.12 27.97
  A 0.84 0.83 90.0 0 0 29.95 27.13
  L 29.95 26.77
  A 0.76 0.76 0.0 0 0 29.19 26.01
  L 21.27 26.01
  A 0.93 0.91 8.6 0 0 20.39 26.65"
/>
<path stroke="#4d4d52" vector-effect="non-scaling-stroke" d="
  M 18.02 21.87
  L 18.02 15.74
  A 3.49 3.49 0.0 0 0 15.10 12.30
  L 11.45 11.70
  A 1.29 1.28 -85.3 0 0 9.96 12.97
  L 9.96 21.59
  A 0.48 0.47 -90.0 0 0 10.43 22.07
  L 17.82 22.07
  A 0.20 0.20 0.0 0 0 18.02 21.87"
/>
<path stroke="#4d4d52" vector-effect="non-scaling-stroke" d="
  M 20.00 21.89
  A 0.20 0.20 0.0 0 0 20.20 22.09
  L 27.59 22.06
  A 0.48 0.47 89.8 0 0 28.06 21.57
  L 28.03 12.95
  A 1.29 1.28 85.0 0 0 26.53 11.69
  L 22.88 12.30
  A 3.49 3.49 0.0 0 0 19.98 15.76
  L 20.00 21.89"
/>
</g>
<path fill="#76767f" d="
  M 29.90 0.00
  Q 36.54 1.33 38.00 8.04
  L 38.00 29.90
  Q 36.67 36.55 29.96 38.00
  L 8.10 38.00
  Q 1.46 36.68 0.00 29.96
  L 0.00 8.10
  Q 1.32 1.46 8.04 0.00
  L 29.90 0.00
  Z
  M 36.0369 9.3197
  A 7.29 7.29 0.0 0 0 28.7597 2.0170
  L 9.3197 1.9831
  A 7.29 7.29 0.0 0 0 2.0170 9.2603
  L 1.9831 28.7003
  A 7.29 7.29 0.0 0 0 9.2603 36.0030
  L 28.7003 36.0369
  A 7.29 7.29 0.0 0 0 36.0030 28.7597
  L 36.0369 9.3197
  Z"
/>
<path fill="#242425" d="
  M 36.0030 28.7597
  A 7.29 7.29 0.0 0 1 28.7003 36.0369
  L 9.2603 36.0030
  A 7.29 7.29 0.0 0 1 1.9831 28.7003
  L 2.0170 9.2603
  A 7.29 7.29 0.0 0 1 9.3197 1.9831
  L 28.7597 2.0170
  A 7.29 7.29 0.0 0 1 36.0369 9.3197
  L 36.0030 28.7597
  Z
  M 19.01 25.91
  Q 19.20 25.91 20.68 24.12
  A 0.16 0.15 17.4 0 1 20.81 24.06
  L 29.27 23.95
  A 0.71 0.70 90.0 0 0 29.97 23.24
  L 29.97 10.68
  A 0.90 0.90 0.0 0 0 29.09 9.78
  C 25.93 9.72 21.81 9.65 19.17 12.11
  A 0.24 0.20 -68.7 0 1 19.06 12.17
  Q 19.03 12.18 18.99 12.18
  Q 18.96 12.18 18.93 12.17
  A 0.24 0.20 68.6 0 1 18.82 12.11
  C 16.17 9.65 12.05 9.73 8.89 9.80
  A 0.90 0.90 0.0 0 0 8.02 10.70
  L 8.04 23.26
  A 0.71 0.70 89.9 0 0 8.74 23.97
  L 17.20 24.06
  A 0.16 0.15 -17.5 0 1 17.32 24.12
  Q 18.81 25.91 19.01 25.91
  Z
  M 20.39 26.65
  Q 20.18 27.31 20.17 27.33
  A 1.56 1.49 48.2 0 1 17.38 27.11
  Q 17.21 26.68 16.94 26.42
  A 1.53 1.52 66.4 0 0 15.90 26.01
  L 8.79 26.03
  A 0.72 0.72 0.0 0 0 8.07 26.75
  L 8.07 27.16
  A 0.81 0.81 0.0 0 0 8.88 27.97
  L 14.34 27.97
  A 1.76 1.73 -17.9 0 1 15.75 28.68
  Q 17.34 30.83 20.45 29.65
  C 21.06 29.41 21.54 28.75 21.94 28.37
  A 1.41 1.40 -67.0 0 1 22.92 27.97
  L 29.12 27.97
  A 0.84 0.83 90.0 0 0 29.95 27.13
  L 29.95 26.77
  A 0.76 0.76 0.0 0 0 29.19 26.01
  L 21.27 26.01
  A 0.93 0.91 8.6 0 0 20.39 26.65
  Z"
/>
<path fill="#76767f" d="
  M 18.99 12.18
  Q 19.03 12.18 19.06 12.17
  A 0.24 0.20 -68.7 0 0 19.17 12.11
  C 21.81 9.65 25.93 9.72 29.09 9.78
  A 0.90 0.90 0.0 0 1 29.97 10.68
  L 29.97 23.24
  A 0.71 0.70 90.0 0 1 29.27 23.95
  L 20.81 24.06
  A 0.16 0.15 17.4 0 0 20.68 24.12
  Q 19.20 25.91 19.01 25.91
  Q 18.81 25.91 17.32 24.12
  A 0.16 0.15 -17.5 0 0 17.20 24.06
  L 8.74 23.97
  A 0.71 0.70 89.9 0 1 8.04 23.26
  L 8.02 10.70
  A 0.90 0.90 0.0 0 1 8.89 9.80
  C 12.05 9.73 16.17 9.65 18.82 12.11
  A 0.24 0.20 68.6 0 0 18.93 12.17
  Q 18.96 12.18 18.99 12.18
  Z
  M 18.02 21.87
  L 18.02 15.74
  A 3.49 3.49 0.0 0 0 15.10 12.30
  L 11.45 11.70
  A 1.29 1.28 -85.3 0 0 9.96 12.97
  L 9.96 21.59
  A 0.48 0.47 -90.0 0 0 10.43 22.07
  L 17.82 22.07
  A 0.20 0.20 0.0 0 0 18.02 21.87
  Z
  M 20.00 21.89
  A 0.20 0.20 0.0 0 0 20.20 22.09
  L 27.59 22.06
  A 0.48 0.47 89.8 0 0 28.06 21.57
  L 28.03 12.95
  A 1.29 1.28 85.0 0 0 26.53 11.69
  L 22.88 12.30
  A 3.49 3.49 0.0 0 0 19.98 15.76
  L 20.00 21.89
  Z"
/>
<path fill="#242425" d="
  M 18.02 21.87
  A 0.20 0.20 0.0 0 1 17.82 22.07
  L 10.43 22.07
  A 0.48 0.47 -90.0 0 1 9.96 21.59
  L 9.96 12.97
  A 1.29 1.28 -85.3 0 1 11.45 11.70
  L 15.10 12.30
  A 3.49 3.49 0.0 0 1 18.02 15.74
  L 18.02 21.87
  Z"
/>
<path fill="#242425" d="
  M 20.00 21.89
  L 19.98 15.76
  A 3.49 3.49 0.0 0 1 22.88 12.30
  L 26.53 11.69
  A 1.29 1.28 85.0 0 1 28.03 12.95
  L 28.06 21.57
  A 0.48 0.47 89.8 0 1 27.59 22.06
  L 20.20 22.09
  A 0.20 0.20 0.0 0 1 20.00 21.89
  Z"
/>
<path fill="#76767f" d="
  M 21.27 26.01
  L 29.19 26.01
  A 0.76 0.76 0.0 0 1 29.95 26.77
  L 29.95 27.13
  A 0.84 0.83 -90.0 0 1 29.12 27.97
  L 22.92 27.97
  A 1.41 1.40 -67.0 0 0 21.94 28.37
  C 21.54 28.75 21.06 29.41 20.45 29.65
  Q 17.34 30.83 15.75 28.68
  A 1.76 1.73 -17.9 0 0 14.34 27.97
  L 8.88 27.97
  A 0.81 0.81 0.0 0 1 8.07 27.16
  L 8.07 26.75
  A 0.72 0.72 0.0 0 1 8.79 26.03
  L 15.90 26.01
  A 1.53 1.52 66.4 0 1 16.94 26.42
  Q 17.21 26.68 17.38 27.11
  A 1.56 1.49 48.2 0 0 20.17 27.33
  Q 20.18 27.31 20.39 26.65
  A 0.93 0.91 8.6 0 1 21.27 26.01
  Z"
/>
</svg>
