<?xml version="1.0" encoding="utf-8" ?>
<svg xmlns="http://www.w3.org/2000/svg" xmlns:xlink="http://www.w3.org/1999/xlink" width="20" height="20">
	<path fill="white" d="M9.5 0.5L9.5 0.5Q9.74549 0.5 9.99068 0.512045Q10.2359 0.524091 10.4802 0.548153Q10.7245 0.572215 10.9673 0.608235Q11.2101 0.644255 11.4509 0.692147Q11.6917 0.740039 11.9298 0.799687Q12.1679 0.859336 12.4028 0.930597Q12.6378 1.00186 12.8689 1.08456Q13.1 1.16726 13.3268 1.2612Q13.5536 1.35515 13.7755 1.46011Q13.9975 1.56507 14.214 1.68079Q14.4305 1.79651 14.641 1.92271Q14.8516 2.04892 15.0557 2.1853Q15.2598 2.32169 15.457 2.46792Q15.6542 2.61416 15.8439 2.7699Q16.0337 2.92563 16.2156 3.09049Q16.3975 3.25535 16.5711 3.42893Q16.7446 3.60252 16.9095 3.78441Q17.0744 3.9663 17.2301 4.15607Q17.3858 4.34583 17.5321 4.54301Q17.6783 4.74018 17.8147 4.9443Q17.9511 5.14841 18.0773 5.35897Q18.2035 5.56953 18.3192 5.78603Q18.4349 6.00253 18.5399 6.22445Q18.6448 6.44637 18.7388 6.67317Q18.8327 6.89996 18.9154 7.1311Q18.9981 7.36224 19.0694 7.59715Q19.1407 7.83207 19.2003 8.0702Q19.26 8.30833 19.3078 8.5491Q19.3557 8.78987 19.3918 9.03269Q19.4278 9.27552 19.4518 9.51983Q19.4759 9.76413 19.488 10.0093Q19.5 10.2545 19.5 10.5L19.5 9.5Q19.5 9.74549 19.488 9.99068Q19.4759 10.2359 19.4518 10.4802Q19.4278 10.7245 19.3918 10.9673Q19.3557 11.2101 19.3078 11.4509Q19.26 11.6917 19.2003 11.9298Q19.1407 12.1679 19.0694 12.4028Q18.9981 12.6378 18.9154 12.8689Q18.8327 13.1 18.7388 13.3268Q18.6448 13.5536 18.5399 13.7755Q18.4349 13.9975 18.3192 14.214Q18.2035 14.4305 18.0773 14.641Q17.9511 14.8516 17.8147 15.0557Q17.6783 15.2598 17.5321 15.457Q17.3858 15.6542 17.2301 15.8439Q17.0744 16.0337 16.9095 16.2156Q16.7446 16.3975 16.5711 16.5711Q16.3975 16.7446 16.2156 16.9095Q16.0337 17.0744 15.8439 17.2301Q15.6542 17.3858 15.457 17.5321Q15.2598 17.6783 15.0557 17.8147Q14.8516 17.9511 14.641 18.0773Q14.4305 18.2035 14.214 18.3192Q13.9975 18.4349 13.7755 18.5399Q13.5536 18.6448 13.3268 18.7388Q13.1 18.8327 12.8689 18.9154Q12.6378 18.9981 12.4028 19.0694Q12.1679 19.1407 11.9298 19.2003Q11.6917 19.26 11.4509 19.3078Q11.2101 19.3557 10.9673 19.3918Q10.7245 19.4278 10.4802 19.4518Q10.2359 19.4759 9.99068 19.488Q9.74549 19.5 9.5 19.5L10.5 19.5Q10.2545 19.5 10.0093 19.488Q9.76413 19.4759 9.51983 19.4518Q9.27552 19.4278 9.03269 19.3918Q8.78987 19.3557 8.5491 19.3078Q8.30833 19.26 8.0702 19.2003Q7.83207 19.1407 7.59715 19.0694Q7.36224 18.9981 7.1311 18.9154Q6.89996 18.8327 6.67317 18.7388Q6.44637 18.6448 6.22445 18.5399Q6.00253 18.4349 5.78603 18.3192Q5.56953 18.2035 5.35897 18.0773Q5.14841 17.9511 4.9443 17.8147Q4.74018 17.6783 4.54301 17.5321Q4.34583 17.3858 4.15607 17.2301Q3.9663 17.0744 3.78441 16.9095Q3.60252 16.7446 3.42893 16.5711Q3.25535 16.3975 3.09049 16.2156Q2.92563 16.0337 2.7699 15.8439Q2.61416 15.6542 2.46792 15.457Q2.32169 15.2598 2.1853 15.0557Q2.04892 14.8516 1.92271 14.641Q1.79651 14.4305 1.68079 14.214Q1.56507 13.9975 1.46011 13.7755Q1.35515 13.5536 1.2612 13.3268Q1.16726 13.1 1.08456 12.8689Q1.00186 12.6378 0.930597 12.4028Q0.859336 12.1679 0.799687 11.9298Q0.740039 11.6917 0.692147 11.4509Q0.644255 11.2101 0.608235 10.9673Q0.572214 10.7245 0.548153 10.4802Q0.524091 10.2359 0.512045 9.99068Q0.5 9.74549 0.5 9.5L0.5 10.5Q0.5 10.2545 0.512045 10.0093Q0.524091 9.76413 0.548153 9.51983Q0.572214 9.27552 0.608235 9.03269Q0.644255 8.78987 0.692147 8.5491Q0.740039 8.30833 0.799687 8.0702Q0.859336 7.83207 0.930597 7.59715Q1.00186 7.36224 1.08456 7.1311Q1.16726 6.89996 1.2612 6.67317Q1.35515 6.44637 1.46011 6.22445Q1.56507 6.00253 1.68079 5.78603Q1.79651 5.56953 1.92271 5.35897Q2.04892 5.14841 2.1853 4.9443Q2.32169 4.74018 2.46792 4.54301Q2.61416 4.34583 2.7699 4.15607Q2.92563 3.9663 3.09049 3.78441Q3.25535 3.60252 3.42893 3.42893Q3.60252 3.25535 3.78441 3.09049Q3.9663 2.92563 4.15607 2.7699Q4.34583 2.61416 4.54301 2.46792Q4.74018 2.32169 4.9443 2.1853Q5.14841 2.04892 5.35897 1.92271Q5.56953 1.79651 5.78603 1.68079Q6.00253 1.56507 6.22445 1.46011Q6.44637 1.35515 6.67317 1.2612Q6.89996 1.16726 7.1311 1.08456Q7.36224 1.00186 7.59715 0.930597Q7.83207 0.859336 8.0702 0.799687Q8.30833 0.740039 8.5491 0.692147Q8.78987 0.644255 9.03269 0.608235Q9.27552 0.572215 9.51983 0.548153Q9.76413 0.524091 10.0093 0.512045Q10.2545 0.5 10.5 0.5L9.5 0.5Z"/>
	<path fill="none" stroke="black" stroke-width="1" stroke-miterlimit="10" d="M9.5 0.5L9.5 0.5Q9.74549 0.5 9.99068 0.512045Q10.2359 0.524091 10.4802 0.548153Q10.7245 0.572215 10.9673 0.608235Q11.2101 0.644255 11.4509 0.692147Q11.6917 0.740039 11.9298 0.799687Q12.1679 0.859336 12.4028 0.930597Q12.6378 1.00186 12.8689 1.08456Q13.1 1.16726 13.3268 1.2612Q13.5536 1.35515 13.7755 1.46011Q13.9975 1.56507 14.214 1.68079Q14.4305 1.79651 14.641 1.92271Q14.8516 2.04892 15.0557 2.1853Q15.2598 2.32169 15.457 2.46792Q15.6542 2.61416 15.8439 2.7699Q16.0337 2.92563 16.2156 3.09049Q16.3975 3.25535 16.5711 3.42893Q16.7446 3.60252 16.9095 3.78441Q17.0744 3.9663 17.2301 4.15607Q17.3858 4.34583 17.5321 4.54301Q17.6783 4.74018 17.8147 4.9443Q17.9511 5.14841 18.0773 5.35897Q18.2035 5.56953 18.3192 5.78603Q18.4349 6.00253 18.5399 6.22445Q18.6448 6.44637 18.7388 6.67317Q18.8327 6.89996 18.9154 7.1311Q18.9981 7.36224 19.0694 7.59715Q19.1407 7.83207 19.2003 8.0702Q19.26 8.30833 19.3078 8.5491Q19.3557 8.78987 19.3918 9.03269Q19.4278 9.27552 19.4518 9.51983Q19.4759 9.76413 19.488 10.0093Q19.5 10.2545 19.5 10.5L19.5 9.5Q19.5 9.74549 19.488 9.99068Q19.4759 10.2359 19.4518 10.4802Q19.4278 10.7245 19.3918 10.9673Q19.3557 11.2101 19.3078 11.4509Q19.26 11.6917 19.2003 11.9298Q19.1407 12.1679 19.0694 12.4028Q18.9981 12.6378 18.9154 12.8689Q18.8327 13.1 18.7388 13.3268Q18.6448 13.5536 18.5399 13.7755Q18.4349 13.9975 18.3192 14.214Q18.2035 14.4305 18.0773 14.641Q17.9511 14.8516 17.8147 15.0557Q17.6783 15.2598 17.5321 15.457Q17.3858 15.6542 17.2301 15.8439Q17.0744 16.0337 16.9095 16.2156Q16.7446 16.3975 16.5711 16.5711Q16.3975 16.7446 16.2156 16.9095Q16.0337 17.0744 15.8439 17.2301Q15.6542 17.3858 15.457 17.5321Q15.2598 17.6783 15.0557 17.8147Q14.8516 17.9511 14.641 18.0773Q14.4305 18.2035 14.214 18.3192Q13.9975 18.4349 13.7755 18.5399Q13.5536 18.6448 13.3268 18.7388Q13.1 18.8327 12.8689 18.9154Q12.6378 18.9981 12.4028 19.0694Q12.1679 19.1407 11.9298 19.2003Q11.6917 19.26 11.4509 19.3078Q11.2101 19.3557 10.9673 19.3918Q10.7245 19.4278 10.4802 19.4518Q10.2359 19.4759 9.99068 19.488Q9.74549 19.5 9.5 19.5L10.5 19.5Q10.2545 19.5 10.0093 19.488Q9.76413 19.4759 9.51983 19.4518Q9.27552 19.4278 9.03269 19.3918Q8.78987 19.3557 8.5491 19.3078Q8.30833 19.26 8.0702 19.2003Q7.83207 19.1407 7.59715 19.0694Q7.36224 18.9981 7.1311 18.9154Q6.89996 18.8327 6.67317 18.7388Q6.44637 18.6448 6.22445 18.5399Q6.00253 18.4349 5.78603 18.3192Q5.56953 18.2035 5.35897 18.0773Q5.14841 17.9511 4.9443 17.8147Q4.74018 17.6783 4.54301 17.5321Q4.34583 17.3858 4.15607 17.2301Q3.9663 17.0744 3.78441 16.9095Q3.60252 16.7446 3.42893 16.5711Q3.25535 16.3975 3.09049 16.2156Q2.92563 16.0337 2.7699 15.8439Q2.61416 15.6542 2.46792 15.457Q2.32169 15.2598 2.1853 15.0557Q2.04892 14.8516 1.92271 14.641Q1.79651 14.4305 1.68079 14.214Q1.56507 13.9975 1.46011 13.7755Q1.35515 13.5536 1.2612 13.3268Q1.16726 13.1 1.08456 12.8689Q1.00186 12.6378 0.930597 12.4028Q0.859336 12.1679 0.799687 11.9298Q0.740039 11.6917 0.692147 11.4509Q0.644255 11.2101 0.608235 10.9673Q0.572214 10.7245 0.548153 10.4802Q0.524091 10.2359 0.512045 9.99068Q0.5 9.74549 0.5 9.5L0.5 10.5Q0.5 10.2545 0.512045 10.0093Q0.524091 9.76413 0.548153 9.51983Q0.572214 9.27552 0.608235 9.03269Q0.644255 8.78987 0.692147 8.5491Q0.740039 8.30833 0.799687 8.0702Q0.859336 7.83207 0.930597 7.59715Q1.00186 7.36224 1.08456 7.1311Q1.16726 6.89996 1.2612 6.67317Q1.35515 6.44637 1.46011 6.22445Q1.56507 6.00253 1.68079 5.78603Q1.79651 5.56953 1.92271 5.35897Q2.04892 5.14841 2.1853 4.9443Q2.32169 4.74018 2.46792 4.54301Q2.61416 4.34583 2.7699 4.15607Q2.92563 3.9663 3.09049 3.78441Q3.25535 3.60252 3.42893 3.42893Q3.60252 3.25535 3.78441 3.09049Q3.9663 2.92563 4.15607 2.7699Q4.34583 2.61416 4.54301 2.46792Q4.74018 2.32169 4.9443 2.1853Q5.14841 2.04892 5.35897 1.92271Q5.56953 1.79651 5.78603 1.68079Q6.00253 1.56507 6.22445 1.46011Q6.44637 1.35515 6.67317 1.2612Q6.89996 1.16726 7.1311 1.08456Q7.36224 1.00186 7.59715 0.930597Q7.83207 0.859336 8.0702 0.799687Q8.30833 0.740039 8.5491 0.692147Q8.78987 0.644255 9.03269 0.608235Q9.27552 0.572215 9.51983 0.548153Q9.76413 0.524091 10.0093 0.512045Q10.2545 0.5 10.5 0.5L9.5 0.5Z"/>
</svg>
