<?xml version="1.0" encoding="UTF-8" standalone="no"?>
<!-- Created with Inkscape (http://www.inkscape.org/) -->
<svg
   xmlns:dc="http://purl.org/dc/elements/1.1/"
   xmlns:cc="http://web.resource.org/cc/"
   xmlns:rdf="http://www.w3.org/1999/02/22-rdf-syntax-ns#"
   xmlns:svg="http://www.w3.org/2000/svg"
   xmlns="http://www.w3.org/2000/svg"
   xmlns:sodipodi="http://sodipodi.sourceforge.net/DTD/sodipodi-0.dtd"
   xmlns:inkscape="http://www.inkscape.org/namespaces/inkscape"
   id="svg16935"
   sodipodi:version="0.32"
   inkscape:version="0.44"
   version="1.0"
   sodipodi:docbase="C:\Dokumente und Einstellungen\Administrator\Eigene Dateien\svg\usa\oklahoma"
   sodipodi:docname="Oklahoma_State_Highway_blank_wide.svg" width="20" height="20" viewBox="0 0 481.25 385.0">
  <defs
     id="defs16937" />
  <sodipodi:namedview
     id="base"
     pagecolor="#ffffff"
     bordercolor="#666666"
     borderopacity="1.0"
     gridtolerance="10000"
     guidetolerance="10"
     objecttolerance="10"
     inkscape:pageopacity="0.0"
     inkscape:pageshadow="2"
     inkscape:zoom="0.7"
     inkscape:cx="144.77481"
     inkscape:cy="167.31583"
     inkscape:document-units="px"
     inkscape:current-layer="svg16935"
     inkscape:window-width="925"
     inkscape:window-height="620"
     inkscape:window-x="8"
     inkscape:window-y="6"
     width="481.25px"
     height="385px"
     units="px" />
  <metadata
     id="metadata16940">
    <rdf:RDF>
      <cc:Work
         rdf:about="">
        <dc:format>image/svg+xml</dc:format>
        <dc:type
           rdf:resource="http://purl.org/dc/dcmitype/StillImage" />
        <dc:title>Oklahoma State Highway marker</dc:title>
        <dc:date>30-09-2006</dc:date>
        <dc:creator>
          <cc:Agent>
            <dc:title>Philipp Moore</dc:title>
          </cc:Agent>
        </dc:creator>
        <cc:license
           rdf:resource="http://web.resource.org/cc/PublicDomain" />
        <dc:rights>
          <cc:Agent>
            <dc:title>PublicDomain</dc:title>
          </cc:Agent>
        </dc:rights>
        <dc:source>http://www.okladot.state.ok.us/traffic/traffic99/pdfs/t035e.pdf</dc:source>
      </cc:Work>
      <cc:License
         rdf:about="http://web.resource.org/cc/PublicDomain">
        <cc:permits
           rdf:resource="http://web.resource.org/cc/Reproduction" />
        <cc:permits
           rdf:resource="http://web.resource.org/cc/Distribution" />
        <cc:permits
           rdf:resource="http://web.resource.org/cc/DerivativeWorks" />
      </cc:License>
    </rdf:RDF>
  </metadata>
  <g
     id="g2033">
    <path
       id="path9150"
       d="M 24.5 0.5 C 11.244995 0.5 0.5 11.245117 0.5 24.5 L 0.5 360.5 C 0.5 373.75488 11.244995 384.5 24.5 384.5 L 120.75 384.5 L 360.5 384.5 L 456.75 384.5 C 470.00513 384.5 480.75 373.75488 480.75 360.5 L 480.75 24.5 C 480.75 11.245117 470.00513 0.5 456.75 0.5 L 360.5 0.5 L 120.75 0.5 L 24.5 0.5 z "
       style="fill:white" />
    <path
       id="path9156"
       d="M 24.5 0.5 C 11.244995 0.5 0.5 11.245117 0.5 24.5 L 0.5 360.5 C 0.5 373.75488 11.244995 384.5 24.5 384.5 L 120.75 384.5 L 360.5 384.5 L 456.75 384.5 C 470.00513 384.5 480.75 373.75488 480.75 360.5 L 480.75 24.5 C 480.75 11.245117 470.00513 0.5 456.75 0.5 L 360.5 0.5 L 120.75 0.5 L 24.5 0.5 z "
       style="fill:none;stroke:black;stroke-linecap:round;stroke-linejoin:round;stroke-miterlimit:3.863693" />
    <path
       id="path9164"
       d="M 24.5 4.5 C 13.454346 4.5 4.5 13.454102 4.5 24.5 L 4.5 360.5 C 4.5 371.54639 13.454346 380.5 24.5 380.5 L 120.75 380.5 L 360.5 380.5 L 456.75 380.5 C 467.7959 380.5 476.75 371.54639 476.75 360.5 L 476.75 24.5 C 476.75 13.454102 467.7959 4.5 456.75 4.5 L 360.5 4.5 L 120.75 4.5 L 24.5 4.5 z " />
    <path
       id="path9172"
       d="M 24.5 10.5 C 16.768066 10.5 10.5 16.768066 10.5 24.5 L 10.5 360.5 C 10.5 368.23193 16.768066 374.5 24.5 374.5 L 120.75 374.5 L 360.5 374.5 L 456.75 374.5 C 464.48193 374.5 470.75 368.23193 470.75 360.5 L 470.75 24.5 C 470.75 16.768066 464.48194 10.5 456.75 10.5 L 360.5 10.5 L 120.75 10.5 L 24.5 10.5 z "
       style="fill:white" />
  </g>
  <g
     id="g9176"
     transform="matrix(1.250001,0,0,1,-5.924977,0)">
    <polygon
       style="fill:none;fill-rule:evenodd;stroke:black;stroke-width:8;stroke-miterlimit:3.863693"
       id="polygon9178"
       points="192.4989,198.89893 187.69885,189.29883 182.89905,192.49902 171.69897,189.29883 168.49902,186.09912 163.6991,190.89893 147.69922,181.29883 146.09924,174.89893 146.09924,77.299805 27.699829,77.299805 27.699829,50.099609 338.09814,50.099609 338.09814,70.899902 355.698,133.29932 355.698,219.69873 328.49805,210.09912 310.89819,214.89893 301.29834,221.29883 278.89844,210.09912 264.49854,218.09912 248.49854,208.49902 238.89868,211.69873 230.89868,206.89893 221.29871,211.69873 192.4989,198.89893 "
       stroke-miterlimit="3.863693"
       clip-rule="evenodd" />
  </g>
</svg>
