<?xml version="1.0" encoding="utf-8" ?>
<svg xmlns="http://www.w3.org/2000/svg" xmlns:xlink="http://www.w3.org/1999/xlink" width="24" height="24">
	<path fill="white" d="M12 23.5L12 23.5Q11.803 23.5 11.6098 23.4616Q11.4166 23.4231 11.2346 23.3478Q11.0526 23.2724 10.8889 23.1629Q10.7251 23.0535 10.5858 22.9142L1.08579 13.4142Q0.946499 13.2749 0.837061 13.1111Q0.727623 12.9474 0.652241 12.7654Q0.576859 12.5834 0.538429 12.3902Q0.5 12.197 0.5 12L0.5 12Q0.5 11.803 0.538429 11.6098Q0.576859 11.4166 0.652241 11.2346Q0.727623 11.0526 0.837061 10.8889Q0.946499 10.7251 1.08579 10.5858L10.5858 1.08579Q10.7251 0.946499 10.8889 0.837061Q11.0526 0.727623 11.2346 0.652241Q11.4166 0.576859 11.6098 0.538429Q11.803 0.5 12 0.5L12 0.5Q12.197 0.5 12.3902 0.538429Q12.5834 0.576859 12.7654 0.652241Q12.9474 0.727623 13.1111 0.837061Q13.2749 0.946499 13.4142 1.08579L22.9142 10.5858Q23.0535 10.7251 23.1629 10.8889Q23.2724 11.0526 23.3478 11.2346Q23.4231 11.4166 23.4616 11.6098Q23.5 11.803 23.5 12L23.5 12Q23.5 12.197 23.4616 12.3902Q23.4231 12.5834 23.3478 12.7654Q23.2724 12.9474 23.1629 13.1111Q23.0535 13.2749 22.9142 13.4142L13.4142 22.9142Q13.2749 23.0535 13.1111 23.1629Q12.9474 23.2724 12.7654 23.3478Q12.5834 23.4231 12.3902 23.4616Q12.197 23.5 12 23.5Z"/>
	<path fill="none" stroke="black" stroke-width="1" stroke-miterlimit="10" d="M12 23.5L12 23.5Q11.803 23.5 11.6098 23.4616Q11.4166 23.4231 11.2346 23.3478Q11.0526 23.2724 10.8889 23.1629Q10.7251 23.0535 10.5858 22.9142L1.08579 13.4142Q0.946499 13.2749 0.837061 13.1111Q0.727623 12.9474 0.652241 12.7654Q0.576859 12.5834 0.538429 12.3902Q0.5 12.197 0.5 12L0.5 12Q0.5 11.803 0.538429 11.6098Q0.576859 11.4166 0.652241 11.2346Q0.727623 11.0526 0.837061 10.8889Q0.946499 10.7251 1.08579 10.5858L10.5858 1.08579Q10.7251 0.946499 10.8889 0.837061Q11.0526 0.727623 11.2346 0.652241Q11.4166 0.576859 11.6098 0.538429Q11.803 0.5 12 0.5L12 0.5Q12.197 0.5 12.3902 0.538429Q12.5834 0.576859 12.7654 0.652241Q12.9474 0.727623 13.1111 0.837061Q13.2749 0.946499 13.4142 1.08579L22.9142 10.5858Q23.0535 10.7251 23.1629 10.8889Q23.2724 11.0526 23.3478 11.2346Q23.4231 11.4166 23.4616 11.6098Q23.5 11.803 23.5 12L23.5 12Q23.5 12.197 23.4616 12.3902Q23.4231 12.5834 23.3478 12.7654Q23.2724 12.9474 23.1629 13.1111Q23.0535 13.2749 22.9142 13.4142L13.4142 22.9142Q13.2749 23.0535 13.1111 23.1629Q12.9474 23.2724 12.7654 23.3478Q12.5834 23.4231 12.3902 23.4616Q12.197 23.5 12 23.5Z"/>
</svg>
