<?xml version="1.0" encoding="UTF-8" standalone="no"?>
<!-- Created with Inkscape (http://www.inkscape.org/) -->
<svg
   xmlns:dc="http://purl.org/dc/elements/1.1/"
   xmlns:cc="http://web.resource.org/cc/"
   xmlns:rdf="http://www.w3.org/1999/02/22-rdf-syntax-ns#"
   xmlns:svg="http://www.w3.org/2000/svg"
   xmlns="http://www.w3.org/2000/svg"
   xmlns:sodipodi="http://sodipodi.sourceforge.net/DTD/sodipodi-0.dtd"
   xmlns:inkscape="http://www.inkscape.org/namespaces/inkscape"
   id="svg16935"
   sodipodi:version="0.32"
   inkscape:version="0.44"
   version="1.0"
   sodipodi:docbase="/home/scott/roadgeek/ok/shields"
   sodipodi:docname="Oklahoma_State_Highway_blank.svg" width="20" height="20" viewBox="0 0 384.9978 384.99805">
  <defs
     id="defs16937" />
  <sodipodi:namedview
     id="base"
     pagecolor="#ffffff"
     bordercolor="#666666"
     borderopacity="1.0"
     gridtolerance="10000"
     guidetolerance="10"
     objecttolerance="10"
     inkscape:pageopacity="0.0"
     inkscape:pageshadow="2"
     inkscape:zoom="0.35"
     inkscape:cx="375"
     inkscape:cy="520"
     inkscape:document-units="px"
     inkscape:current-layer="layer1"
     inkscape:window-width="860"
     inkscape:window-height="620"
     inkscape:window-x="0"
     inkscape:window-y="120" />
  <metadata
     id="metadata16940">
    <rdf:RDF>
      <cc:Work
         rdf:about="">
        <dc:format>image/svg+xml</dc:format>
        <dc:type
           rdf:resource="http://purl.org/dc/dcmitype/StillImage" />
      </cc:Work>
    </rdf:RDF>
  </metadata>
  <g
     inkscape:label="Layer 1"
     inkscape:groupmode="layer"
     id="layer1"
     transform="translate(-153.2153,-319.8631)">
    <g
       id="g9142"
       transform="translate(153.2153,319.8631)">
		<g
   id="g9144">
			<g
   id="g9146">
				<g
   id="g9148">
					<path
   style="fill:white"
   id="path9150"
   d="M 0.5,24.5 C 0.5,11.245117 11.244873,0.5 24.499878,0.5 L 360.4978,0.5 C 373.75293,0.5 384.4978,11.245117 384.4978,24.5 L 384.4978,360.49805 C 384.4978,373.75293 373.75293,384.49805 360.4978,384.49805 L 24.499878,384.49805 C 11.244873,384.49805 0.5,373.75293 0.5,360.49805 L 0.5,24.5 L 0.5,24.5 z " />

					<path
   style="fill:white"
   id="path9152"
   d="" />

				</g>

				<g
   id="g9154">
					<path
   style="fill:none;stroke:black;stroke-linecap:round;stroke-linejoin:round;stroke-miterlimit:3.863693"
   id="path9156"
   d="M 0.5,24.5 C 0.5,11.245117 11.244873,0.5 24.499878,0.5 L 360.4978,0.5 C 373.75293,0.5 384.4978,11.245117 384.4978,24.5 L 384.4978,360.49805 C 384.4978,373.75293 373.75293,384.49805 360.4978,384.49805 L 24.499878,384.49805 C 11.244873,384.49805 0.5,373.75293 0.5,360.49805 L 0.5,24.5 L 0.5,24.5 z "
   stroke-miterlimit="3.863693" />

					<path
   style="fill:none;stroke:black;stroke-linecap:round;stroke-linejoin:round;stroke-miterlimit:3.863693"
   id="path9158"
   stroke-miterlimit="3.863693"
   d="" />

				</g>

			</g>

			<g
   id="g9160">
				<g
   id="g9162">
					<path
   id="path9164"
   d="M 4.5,24.5 C 4.5,13.454102 13.454102,4.5 24.499756,4.5 L 360.4978,4.5 C 371.5437,4.5 380.4978,13.454102 380.4978,24.5 L 380.4978,360.49756 C 380.4978,371.54395 371.5437,380.49805 360.4978,380.49805 L 24.499756,380.49805 C 13.454102,380.49805 4.5,371.54395 4.5,360.49756 L 4.5,24.5 L 4.5,24.5 z " />

					<path
   id="path9166"
   d="" />

				</g>

			</g>

			<g
   id="g9168">
				<g
   id="g9170">
					<path
   style="fill:white"
   id="path9172"
   d="M 10.499878,24.5 C 10.499878,16.768066 16.767822,10.5 24.499756,10.5 L 360.49805,10.5 C 368.22998,10.5 374.4978,16.768066 374.4978,24.5 L 374.4978,360.49805 C 374.4978,368.22998 368.22998,374.49805 360.49805,374.49805 L 24.499756,374.49805 C 16.767822,374.49805 10.499878,368.22998 10.499878,360.49805 L 10.499878,24.5 L 10.499878,24.5 z " />

					<path
   style="fill:white"
   id="path9174"
   d="" />

				</g>

			</g>

		</g>

		<g
   id="g9176">
			
				<polygon
   style="fill:none;fill-rule:evenodd;stroke:black;stroke-width:8;stroke-miterlimit:3.863693"
   id="polygon9178"
   points="192.4989,198.89893 187.69885,189.29883 182.89905,192.49902 171.69897,189.29883 168.49902,186.09912 163.6991,190.89893 147.69922,181.29883 146.09924,174.89893 146.09924,77.299805 27.699829,77.299805 27.699829,50.099609 338.09814,50.099609 338.09814,70.899902 355.698,133.29932 355.698,219.69873 328.49805,210.09912 310.89819,214.89893 301.29834,221.29883 278.89844,210.09912 264.49854,218.09912 248.49854,208.49902 238.89868,211.69873 230.89868,206.89893 221.29871,211.69873 192.4989,198.89893 "
   stroke-miterlimit="3.863693"
   clip-rule="evenodd" />

		</g>

	</g>
  </g>
</svg>
