<?xml version="1.0" encoding="UTF-8" standalone="no"?>
<!-- Generator: Adobe Illustrator 12.0.0, SVG Export Plug-In . SVG Version: 6.00 Build 51448)  -->

<svg
   xmlns:dc="http://purl.org/dc/elements/1.1/"
   xmlns:cc="http://creativecommons.org/ns#"
   xmlns:rdf="http://www.w3.org/1999/02/22-rdf-syntax-ns#"
   xmlns:svg="http://www.w3.org/2000/svg"
   xmlns="http://www.w3.org/2000/svg"
   xmlns:sodipodi="http://sodipodi.sourceforge.net/DTD/sodipodi-0.dtd"
   xmlns:inkscape="http://www.inkscape.org/namespaces/inkscape"
   version="1.1"
   id="Layer_1"
   overflow="visible"
   enable-background="new 0 0 481 385"
   xml:space="preserve"
   inkscape:version="0.48.2 r9819"
   sodipodi:docname="Illinois blank wide.svg" width="20" height="20" viewBox="0 0 481.0 385.0"><metadata
   id="metadata81"><rdf:RDF><cc:Work
       rdf:about=""><dc:format>image/svg+xml</dc:format><dc:type
         rdf:resource="http://purl.org/dc/dcmitype/StillImage" /><dc:title></dc:title><cc:license
         rdf:resource="http://creativecommons.org/licenses/publicdomain/" /></cc:Work><cc:License
       rdf:about="http://creativecommons.org/licenses/publicdomain/"><cc:permits
         rdf:resource="http://creativecommons.org/ns#Reproduction" /><cc:permits
         rdf:resource="http://creativecommons.org/ns#Distribution" /><cc:permits
         rdf:resource="http://creativecommons.org/ns#DerivativeWorks" /></cc:License></rdf:RDF></metadata><defs
   id="defs79" /><sodipodi:namedview
   pagecolor="#ffffff"
   bordercolor="#666666"
   borderopacity="1"
   objecttolerance="10"
   gridtolerance="10"
   guidetolerance="10"
   inkscape:pageopacity="0"
   inkscape:pageshadow="2"
   inkscape:window-width="1920"
   inkscape:window-height="1018"
   id="namedview77"
   showgrid="false"
   inkscape:zoom="1"
   inkscape:cx="86"
   inkscape:cy="192.5"
   inkscape:window-x="-8"
   inkscape:window-y="-8"
   inkscape:window-maximized="1"
   inkscape:current-layer="Layer_1" />
<g
   id="g3">
	<g
   id="g5">
		<g
   id="g7">
			<path
   fill="#FFFFFF"
   d="M0.5,24.5c0-13.2553711,10.7451172-24,24-24h432c13.2548828,0,24,10.7446289,24,24v336     c0,13.2548828-10.7451172,24-24,24h-432c-13.2548828,0-24-10.7451172-24-24V24.5L0.5,24.5z"
   id="path9" />
			<path
   fill="#FFFFFF"
   d="M240.5,192.5"
   id="path11" />
		</g>
		<g
   id="g13">
			<path
   fill="none"
   stroke="#000000"
   stroke-linecap="round"
   stroke-linejoin="round"
   stroke-miterlimit="3.863693"
   d="M0.5,24.5     c0-13.2553711,10.7451172-24,24-24h432c13.2548828,0,24,10.7446289,24,24v336c0,13.2548828-10.7451172,24-24,24h-432     c-13.2548828,0-24-10.7451172-24-24V24.5L0.5,24.5z"
   id="path15" />
			<path
   fill="none"
   stroke="#000000"
   stroke-linecap="round"
   stroke-linejoin="round"
   stroke-miterlimit="3.863693"
   d="     M240.5,192.5"
   id="path17" />
		</g>
	</g>
	<g
   id="g19">
		<g
   id="g21">
			<path
   d="M6.8999023,24.5c0-9.7202148,7.8793945-17.6000977,17.6000977-17.6000977h432     c9.7207031,0,17.5996094,7.8798828,17.5996094,17.6000977v336c0,9.7207031-7.8789063,17.5996094-17.5996094,17.5996094h-432     c-9.7207031,0-17.6000977-7.8789063-17.6000977-17.5996094V24.5L6.8999023,24.5z"
   id="path23" />
			<path
   d="M240.5,192.5"
   id="path25" />
		</g>
	</g>
	<g
   id="g27">
		<g
   id="g29">
			<path
   fill="#FFFFFF"
   d="M16.5,24.5c0-4.418457,3.581543-8,8-8h432c4.4179688,0,8,3.581543,8,8v336c0,4.4179688-3.5820313,8-8,8     h-432c-4.418457,0-8-3.5820313-8-8V24.5L16.5,24.5z"
   id="path31" />
			<path
   fill="#FFFFFF"
   d="M240.5,192.5"
   id="path33" />
		</g>
	</g>
	<g
   id="g35">
		<g
   id="g37">
			<rect
   x="120.581543"
   y="65.3300781"
   fill-rule="evenodd"
   clip-rule="evenodd"
   width="7.4697266"
   height="46.3398438"
   id="rect39" />
		</g>
		<g
   id="g41">
			<polygon
   fill-rule="evenodd"
   clip-rule="evenodd"
   points="139.1074219,111.6699219 139.1074219,65.3300781      146.4389648,65.3300781 146.4389648,104.8227539 167.8798828,104.8227539 167.8798828,111.6699219    "
   id="polygon43" />
		</g>
		<g
   id="g45">
			<polygon
   fill-rule="evenodd"
   clip-rule="evenodd"
   points="174.7480469,111.6699219 174.7480469,65.3300781      182.0795898,65.3300781 182.0795898,104.8227539 203.5205078,104.8227539 203.5205078,111.6699219    "
   id="polygon47" />
		</g>
		<g
   id="g49">
			<rect
   x="210.3886719"
   y="65.3300781"
   fill-rule="evenodd"
   clip-rule="evenodd"
   width="7.4697266"
   height="46.3398438"
   id="rect51" />
		</g>
		<g
   id="g53">
			<polygon
   fill-rule="evenodd"
   clip-rule="evenodd"
   points="253.9521484,111.6699219 236.2460938,80.2695313      236.2460938,111.6699219 228.9145508,111.6699219 228.9145508,65.3300781 236.2460938,65.3300781 253.1220703,94.9326172      253.1220703,65.3300781 260.453125,65.3300781 260.453125,111.6699219    "
   id="polygon55" />
		</g>
		<g
   id="g57">
			<path
   fill-rule="evenodd"
   clip-rule="evenodd"
   d="M303.3212891,88.5693359c0,3.6889648-0.4384766,7.2163086-1.3144531,10.5820313     c-0.8759766,3.3662109-2.1210938,6.0864258-3.7353516,8.1616211C295.6894531,110.7709961,291.9550781,112.5,287.0673828,112.5     c-3.2744141,0-5.9716797-0.668457-8.0927734-2.0053711c-2.1210938-1.3374023-3.8730469-3.4355469-5.2558594-6.2939453     c-0.96875-1.9829102-1.7519531-4.3920898-2.3515625-7.2280273c-0.5996094-2.8354492-0.8994141-5.6367188-0.8994141-8.4033203     c0-3.8271484,0.4501953-7.3774414,1.3486328-10.6513672c0.8994141-3.2739258,2.1328125-6.0170898,3.7001953-8.2304688     c1.3837891-1.7519531,3.0322266-3.0546875,4.9453125-3.9077148C282.3759766,64.9267578,284.6699219,64.5,287.34375,64.5     c2.9511719,0,5.4648438,0.6689453,7.5390625,2.0058594c2.0751953,1.3369141,3.8505859,3.4350586,5.3261719,6.2939453     c0.9677734,2.0751953,1.7285156,4.4956055,2.2822266,7.2617188     C303.0439453,82.8286133,303.3212891,85.6645508,303.3212891,88.5693359z M295.9892578,88.5693359     c0-2.628418-0.2304688-5.0605469-0.6914063-7.296875c-0.4609375-2.2368164-1.1523438-4.1386719-2.0751953-5.7060547     c-0.7373047-1.1987305-1.5791016-2.074707-2.5244141-2.6279297c-0.9453125-0.5537109-2.109375-0.8769531-3.4931641-0.96875     c-1.7978516-0.0922852-3.2958984,0.3227539-4.4951172,1.2451172c-1.1982422,0.9223633-2.1904297,2.4208984-2.9736328,4.4956055     c-0.5996094,1.3833008-1.0488281,3.0546875-1.3496094,5.0146484c-0.2988281,1.9594727-0.4492188,3.9077148-0.4492188,5.8442383     c0,2.4897461,0.2304688,4.8876953,0.6914063,7.1933594c0.4609375,2.3051758,1.1533203,4.1958008,2.0751953,5.6713867     c0.7373047,1.1987305,1.6142578,2.0976563,2.6279297,2.6972656c1.0146484,0.5996094,2.2597656,0.8989258,3.7353516,0.8989258     c1.7060547,0,3.1240234-0.4609375,4.2539063-1.3837891c1.1298828-0.9213867,2.0859375-2.4199219,2.8701172-4.4951172     c0.2304688-0.5991211,0.4609375-1.3256836,0.6914063-2.1787109s0.4267578-1.7519531,0.5878906-2.6972656     c0.1621094-0.9453125,0.2880859-1.9018555,0.3808594-2.8701172     C295.9433594,90.4365234,295.9892578,89.4916992,295.9892578,88.5693359z"
   id="path59" />
		</g>
		<g
   id="g61">
			<rect
   x="313.6044922"
   y="65.3300781"
   fill-rule="evenodd"
   clip-rule="evenodd"
   width="7.4697266"
   height="46.3398438"
   id="rect63" />
		</g>
		<g
   id="g65">
			<path
   fill-rule="evenodd"
   clip-rule="evenodd"
   d="M360.4179688,98.3217773c0,2.1206055-0.3916016,4.0800781-1.1757813,5.8789063     c-0.7832031,1.7978516-1.9130859,3.3657227-3.3886719,4.703125c-1.2910156,1.1523438-2.8007813,2.0400391-4.5302734,2.6625977     S347.7382813,112.5,345.7558594,112.5c-4.0117188,0-7.4355469-1.0722656-10.2714844-3.2158203     c-2.8359375-2.144043-5.0371094-4.9916992-6.6054688-8.5419922l6.9863281-2.5595703     c0.9677734,2.2138672,2.3046875,3.9082031,4.0117188,5.0839844c1.7050781,1.1757813,3.6650391,1.7636719,5.8789063,1.7636719     c2.1669922,0,3.9072266-0.6567383,5.2216797-1.9711914c1.3134766-1.3144531,1.9707031-2.9394531,1.9707031-4.8764648     c0-1.5209961-0.4033203-2.7661133-1.2099609-3.734375s-1.8554688-1.7866211-3.1464844-2.4550781     c-1.2910156-0.6689453-2.7089844-1.2568359-4.2539063-1.7636719c-1.5449219-0.5073242-3.078125-1.0605469-4.5996094-1.6601563     c-0.6914063-0.2768555-1.5449219-0.668457-2.5585938-1.1757813c-1.0146484-0.5073242-1.9951172-1.2109375-2.9394531-2.109375     c-0.9453125-0.8994141-1.7529297-2.0175781-2.421875-3.3544922c-0.6679688-1.3374023-1.0019531-2.9741211-1.0019531-4.9106445     c0-2.2592773,0.3681641-4.1845703,1.1064453-5.7753906c0.7373047-1.5908203,1.7402344-2.8818359,3.0087891-3.8730469     c1.2675781-0.9916992,2.7890625-1.7177734,4.5644531-2.1787109S343.1962891,64.5,345.2714844,64.5     c3.2734375,0,6.0058594,0.8530273,8.1953125,2.559082c2.1904297,1.7060547,3.8623047,4.0117188,5.0146484,6.9165039     l-6.5009766,1.9365234c-0.3691406-0.7373047-0.8535156-1.40625-1.453125-2.0053711     c-0.5068359-0.5073242-1.2099609-0.9682617-2.109375-1.3833008c-0.8984375-0.4150391-1.9941406-0.6459961-3.2851563-0.6918945     c-0.8300781-0.0458984-1.6943359,0.0112305-2.59375,0.1728516c-0.8984375,0.1616211-1.6943359,0.449707-2.3857422,0.8647461     s-1.2451172,0.9794922-1.6601563,1.6943359s-0.5761719,1.6025391-0.484375,2.6630859     c0.0927734,1.4291992,0.7148438,2.5244141,1.8681641,3.2851563c1.1523438,0.7607422,2.5585938,1.4179688,4.21875,1.9711914     c1.6601563,0.5527344,3.4462891,1.1181641,5.3603516,1.6943359c1.9130859,0.5766602,3.6767578,1.4067383,5.2910156,2.4902344     c1.6132813,1.0834961,2.9619141,2.5356445,4.0458984,4.3574219     C359.8769531,92.8461914,360.4179688,95.2783203,360.4179688,98.3217773z"
   id="path67" />
		</g>
	</g>
</g>

</svg>