<?xml version="1.0" encoding="UTF-8" standalone="no"?>
<!DOCTYPE svg PUBLIC "-//W3C//DTD SVG 1.1//EN" "http://www.w3.org/Graphics/SVG/1.1/DTD/svg11.dtd">
<svg xmlns="http://www.w3.org/2000/svg" version="1.1" viewBox="0.00 0.00 20.00 38.00" width="19" height="19">
<path stroke="#7a7a7a" stroke-width="2.00" fill="none" stroke-linecap="butt" vector-effect="non-scaling-stroke" d="
  M 15.87 10.00
  A 5.87 5.87 0.0 0 0 10.00 4.13
  A 5.87 5.87 0.0 0 0 4.13 10.00
  A 5.87 5.87 0.0 0 0 10.00 15.87
  A 5.87 5.87 0.0 0 0 15.87 10.00"
/>
<path fill="#b7b7b7" d="
  M 10.93 0.00
  Q 18.48 1.44 20.00 8.99
  L 20.00 10.89
  C 17.61 22.89 2.45 22.92 0.00 10.95
  L 0.00 9.09
  Q 1.44 1.50 8.99 0.00
  L 10.93 0.00
  Z
  M 15.87 10.00
  A 5.87 5.87 0.0 0 0 10.00 4.13
  A 5.87 5.87 0.0 0 0 4.13 10.00
  A 5.87 5.87 0.0 0 0 10.00 15.87
  A 5.87 5.87 0.0 0 0 15.87 10.00
  Z"
/>
<circle fill="#3d3d3d" cx="10.00" cy="10.00" r="5.87"/>
</svg>
