<?xml version="1.0" encoding="UTF-8" standalone="no"?>
<!DOCTYPE svg PUBLIC "-//W3C//DTD SVG 1.1//EN" "http://www.w3.org/Graphics/SVG/1.1/DTD/svg11.dtd">
<svg xmlns="http://www.w3.org/2000/svg" version="1.1" viewBox="0.00 0.00 38.00 38.00" width="19" height="19">
<g stroke-width="2.00" fill="none" stroke-linecap="butt">
<path stroke="#266141" vector-effect="non-scaling-stroke" d="
  M 35.9962 9.2906
  A 7.35 7.35 0.0 0 0 28.6206 1.9663
  L 9.2807 2.0339
  A 7.35 7.35 0.0 0 0 1.9564 9.4095
  L 2.0238 28.7294
  A 7.35 7.35 0.0 0 0 9.3994 36.0537
  L 28.7393 35.9861
  A 7.35 7.35 0.0 0 0 36.0636 28.6105
  L 35.9962 9.2906"
/>
<path stroke="#266141" vector-effect="non-scaling-stroke" d="
  M 20.03 25.49
  L 20.03 27.45
  A 0.96 0.96 0.0 0 0 20.91 28.41
  Q 22.14 28.51 23.60 28.53
  Q 25.37 28.55 25.72 27.83
  Q 26.23 26.79 25.93 25.37
  A 0.58 0.57 2.6 0 1 26.66 24.71
  C 32.53 26.44 32.26 19.36 31.80 15.34
  A 0.65 0.64 -3.5 0 0 31.16 14.78
  L 29.61 14.78
  A 0.62 0.62 0.0 0 1 28.99 14.15
  Q 29.05 10.89 26.45 9.77
  A 2.64 2.63 57.0 0 0 25.47 9.56
  Q 18.49 9.42 16.90 9.63
  Q 15.97 9.75 13.95 11.31
  A 2.65 2.61 -70.0 0 1 12.90 11.81
  Q 7.28 13.13 7.25 19.52
  Q 7.24 23.29 7.32 27.49
  A 0.94 0.93 2.4 0 0 8.17 28.41
  Q 9.34 28.53 11.65 28.48
  Q 13.12 28.46 13.37 27.70
  Q 13.66 26.84 13.47 25.59
  A 0.53 0.53 0.0 0 1 13.99 24.98
  L 19.52 24.98
  A 0.51 0.51 0.0 0 1 20.03 25.49"
/>
<path stroke="#276c46" vector-effect="non-scaling-stroke" d="
  M 29.72 16.84
  A 0.39 0.39 0.0 0 0 29.00 17.04
  L 29.00 20.69
  A 0.78 0.77 -90.0 0 1 28.23 21.47
  L 27.93 21.47
  A 0.90 0.90 0.0 0 1 27.03 20.58
  Q 26.95 14.29 26.97 13.76
  Q 27.06 11.52 24.27 11.49
  Q 18.44 11.45 17.30 11.59
  C 14.26 11.97 14.03 16.82 17.20 17.30
  Q 20.68 17.82 20.90 14.15
  A 0.72 0.72 0.0 0 1 21.93 13.54
  L 22.12 13.63
  A 1.22 1.21 20.4 0 1 22.77 15.04
  C 21.15 20.94 13.63 20.73 13.11 14.70
  A 0.81 0.81 0.0 0 0 11.78 14.14
  L 10.73 15.05
  A 4.36 4.35 69.5 0 0 9.24 18.33
  L 9.24 25.89
  A 0.61 0.61 0.0 0 0 9.85 26.50
  L 10.94 26.50
  A 0.58 0.57 -0.0 0 0 11.52 25.93
  L 11.52 23.66
  A 0.65 0.65 0.0 0 1 12.18 23.01
  L 21.04 23.04
  A 0.88 0.88 0.0 0 1 21.88 23.66
  Q 22.11 24.30 21.98 25.63
  A 0.91 0.91 0.0 0 0 22.89 26.63
  L 23.32 26.63
  A 0.62 0.62 0.0 0 0 23.94 26.02
  L 24.07 20.37
  A 0.91 0.91 0.0 0 1 25.83 20.05
  Q 25.93 20.29 26.21 21.64
  A 1.99 1.63 -13.4 0 0 28.59 22.80
  C 29.86 22.47 29.90 21.07 30.00 19.81
  Q 30.18 17.61 29.72 16.84"
/>
<path stroke="#276c46" vector-effect="non-scaling-stroke" d="
  M 25.92 16.30
  A 1.24 1.24 0.0 0 0 24.68 15.06
  A 1.24 1.24 0.0 0 0 23.44 16.30
  A 1.24 1.24 0.0 0 0 24.68 17.54
  A 1.24 1.24 0.0 0 0 25.92 16.30"
/>
</g>
<path fill="#2c9c5e" d="
  M 29.90 0.00
  Q 36.54 1.32 38.00 8.05
  L 38.00 29.90
  Q 36.68 36.55 29.95 38.00
  L 8.10 38.00
  Q 1.45 36.68 0.00 29.96
  L 0.00 8.11
  Q 1.32 1.46 8.05 0.00
  L 29.90 0.00
  Z
  M 35.9962 9.2906
  A 7.35 7.35 0.0 0 0 28.6206 1.9663
  L 9.2807 2.0339
  A 7.35 7.35 0.0 0 0 1.9564 9.4095
  L 2.0238 28.7294
  A 7.35 7.35 0.0 0 0 9.3994 36.0537
  L 28.7393 35.9861
  A 7.35 7.35 0.0 0 0 36.0636 28.6105
  L 35.9962 9.2906
  Z"
/>
<path fill="#202623" d="
  M 36.0636 28.6105
  A 7.35 7.35 0.0 0 1 28.7393 35.9861
  L 9.3994 36.0537
  A 7.35 7.35 0.0 0 1 2.0238 28.7294
  L 1.9564 9.4095
  A 7.35 7.35 0.0 0 1 9.2807 2.0339
  L 28.6206 1.9663
  A 7.35 7.35 0.0 0 1 35.9962 9.2906
  L 36.0636 28.6105
  Z
  M 20.03 25.49
  L 20.03 27.45
  A 0.96 0.96 0.0 0 0 20.91 28.41
  Q 22.14 28.51 23.60 28.53
  Q 25.37 28.55 25.72 27.83
  Q 26.23 26.79 25.93 25.37
  A 0.58 0.57 2.6 0 1 26.66 24.71
  C 32.53 26.44 32.26 19.36 31.80 15.34
  A 0.65 0.64 -3.5 0 0 31.16 14.78
  L 29.61 14.78
  A 0.62 0.62 0.0 0 1 28.99 14.15
  Q 29.05 10.89 26.45 9.77
  A 2.64 2.63 57.0 0 0 25.47 9.56
  Q 18.49 9.42 16.90 9.63
  Q 15.97 9.75 13.95 11.31
  A 2.65 2.61 -70.0 0 1 12.90 11.81
  Q 7.28 13.13 7.25 19.52
  Q 7.24 23.29 7.32 27.49
  A 0.94 0.93 2.4 0 0 8.17 28.41
  Q 9.34 28.53 11.65 28.48
  Q 13.12 28.46 13.37 27.70
  Q 13.66 26.84 13.47 25.59
  A 0.53 0.53 0.0 0 1 13.99 24.98
  L 19.52 24.98
  A 0.51 0.51 0.0 0 1 20.03 25.49
  Z"
/>
<path fill="#2c9c5e" d="
  M 20.03 25.49
  A 0.51 0.51 0.0 0 0 19.52 24.98
  L 13.99 24.98
  A 0.53 0.53 0.0 0 0 13.47 25.59
  Q 13.66 26.84 13.37 27.70
  Q 13.12 28.46 11.65 28.48
  Q 9.34 28.53 8.17 28.41
  A 0.94 0.93 2.4 0 1 7.32 27.49
  Q 7.24 23.29 7.25 19.52
  Q 7.28 13.13 12.90 11.81
  A 2.65 2.61 -70.0 0 0 13.95 11.31
  Q 15.97 9.75 16.90 9.63
  Q 18.49 9.42 25.47 9.56
  A 2.64 2.63 57.0 0 1 26.45 9.77
  Q 29.05 10.89 28.99 14.15
  A 0.62 0.62 0.0 0 0 29.61 14.78
  L 31.16 14.78
  A 0.65 0.64 -3.5 0 1 31.80 15.34
  C 32.26 19.36 32.53 26.44 26.66 24.71
  A 0.58 0.57 2.6 0 0 25.93 25.37
  Q 26.23 26.79 25.72 27.83
  Q 25.37 28.55 23.60 28.53
  Q 22.14 28.51 20.91 28.41
  A 0.96 0.96 0.0 0 1 20.03 27.45
  L 20.03 25.49
  Z
  M 29.72 16.84
  A 0.39 0.39 0.0 0 0 29.00 17.04
  L 29.00 20.69
  A 0.78 0.77 -90.0 0 1 28.23 21.47
  L 27.93 21.47
  A 0.90 0.90 0.0 0 1 27.03 20.58
  Q 26.95 14.29 26.97 13.76
  Q 27.06 11.52 24.27 11.49
  Q 18.44 11.45 17.30 11.59
  C 14.26 11.97 14.03 16.82 17.20 17.30
  Q 20.68 17.82 20.90 14.15
  A 0.72 0.72 0.0 0 1 21.93 13.54
  L 22.12 13.63
  A 1.22 1.21 20.4 0 1 22.77 15.04
  C 21.15 20.94 13.63 20.73 13.11 14.70
  A 0.81 0.81 0.0 0 0 11.78 14.14
  L 10.73 15.05
  A 4.36 4.35 69.5 0 0 9.24 18.33
  L 9.24 25.89
  A 0.61 0.61 0.0 0 0 9.85 26.50
  L 10.94 26.50
  A 0.58 0.57 -0.0 0 0 11.52 25.93
  L 11.52 23.66
  A 0.65 0.65 0.0 0 1 12.18 23.01
  L 21.04 23.04
  A 0.88 0.88 0.0 0 1 21.88 23.66
  Q 22.11 24.30 21.98 25.63
  A 0.91 0.91 0.0 0 0 22.89 26.63
  L 23.32 26.63
  A 0.62 0.62 0.0 0 0 23.94 26.02
  L 24.07 20.37
  A 0.91 0.91 0.0 0 1 25.83 20.05
  Q 25.93 20.29 26.21 21.64
  A 1.99 1.63 -13.4 0 0 28.59 22.80
  C 29.86 22.47 29.90 21.07 30.00 19.81
  Q 30.18 17.61 29.72 16.84
  Z"
/>
<path fill="#223c2d" d="
  M 29.72 16.84
  Q 30.18 17.61 30.00 19.81
  C 29.90 21.07 29.86 22.47 28.59 22.80
  A 1.99 1.63 -13.4 0 1 26.21 21.64
  Q 25.93 20.29 25.83 20.05
  A 0.91 0.91 0.0 0 0 24.07 20.37
  L 23.94 26.02
  A 0.62 0.62 0.0 0 1 23.32 26.63
  L 22.89 26.63
  A 0.91 0.91 0.0 0 1 21.98 25.63
  Q 22.11 24.30 21.88 23.66
  A 0.88 0.88 0.0 0 0 21.04 23.04
  L 12.18 23.01
  A 0.65 0.65 0.0 0 0 11.52 23.66
  L 11.52 25.93
  A 0.58 0.57 -0.0 0 1 10.94 26.50
  L 9.85 26.50
  A 0.61 0.61 0.0 0 1 9.24 25.89
  L 9.24 18.33
  A 4.36 4.35 69.5 0 1 10.73 15.05
  L 11.78 14.14
  A 0.81 0.81 0.0 0 1 13.11 14.70
  C 13.63 20.73 21.15 20.94 22.77 15.04
  A 1.22 1.21 20.4 0 0 22.12 13.63
  L 21.93 13.54
  A 0.72 0.72 0.0 0 0 20.90 14.15
  Q 20.68 17.82 17.20 17.30
  C 14.03 16.82 14.26 11.97 17.30 11.59
  Q 18.44 11.45 24.27 11.49
  Q 27.06 11.52 26.97 13.76
  Q 26.95 14.29 27.03 20.58
  A 0.90 0.90 0.0 0 0 27.93 21.47
  L 28.23 21.47
  A 0.78 0.77 90.0 0 0 29.00 20.69
  L 29.00 17.04
  A 0.39 0.39 0.0 0 1 29.72 16.84
  Z
  M 25.92 16.30
  A 1.24 1.24 0.0 0 0 24.68 15.06
  A 1.24 1.24 0.0 0 0 23.44 16.30
  A 1.24 1.24 0.0 0 0 24.68 17.54
  A 1.24 1.24 0.0 0 0 25.92 16.30
  Z"
/>
<circle fill="#2c9c5e" cx="24.68" cy="16.30" r="1.24"/>
</svg>
