<?xml version='1.0' encoding='utf-8'?>
<svg xmlns="http://www.w3.org/2000/svg" version="1.1" width="20" height="20" viewBox="0 0 20.0 20.0">
<g transform="scale(0.5)"><g stroke-width="2.00" fill="none" stroke-linecap="butt">
<path stroke="#b2b6d3" vector-effect="non-scaling-stroke" d="   M 36.0031 9.2703   A 7.33 7.33 0.0 0 0 28.6603 1.9531   L 9.2803 1.9869   A 7.33 7.33 0.0 0 0 1.9631 9.3297   L 1.9969 28.7097   A 7.33 7.33 0.0 0 0 9.3397 36.0269   L 28.7197 35.9931   A 7.33 7.33 0.0 0 0 36.0369 28.6503   L 36.0031 9.2703" />
<path stroke="#b2b6d3" vector-effect="non-scaling-stroke" d="   M 23.29 23.83   L 23.24 28.42   A 1.62 1.61 2.3 0 0 24.74 30.04   L 24.80 30.04   A 1.37 1.36 2.0 0 0 26.26 28.68   L 26.28 21.35   A 2.27 2.24 55.9 0 1 26.43 20.54   L 28.55 15.13   A 0.74 0.72 -79.6 0 1 29.21 14.66   Q 30.77 14.60 31.32 13.67   Q 32.20 12.17 30.40 11.31   Q 29.17 10.72 27.53 10.72   A 0.75 0.74 79.9 0 1 26.83 10.23   Q 26.48 9.26 26.25 8.90   Q 25.49 7.75 24.68 8.75   Q 24.31 9.20 24.71 10.62   A 0.44 0.44 0.0 0 1 23.90 10.96   Q 23.42 10.15 22.33 9.81   A 1.01 1.00 68.7 0 0 21.53 11.64   L 23.69 12.89   A 1.76 1.76 0.0 0 1 23.90 15.80   Q 22.57 16.84 21.25 16.77   C 17.22 16.55 15.58 16.12 12.96 17.33   A 1.48 1.47 -27.3 0 1 11.06 16.73   L 10.00 14.90   A 0.90 0.89 -65.1 0 0 8.35 15.51   Q 8.81 18.15 11.10 19.14   A 1.47 1.47 0.0 0 1 11.99 20.49   L 11.99 29.06   A 1.02 1.01 -0.0 0 0 13.01 30.07   L 13.49 30.07   A 1.49 1.48 0.0 0 0 14.98 28.59   L 14.98 23.86   A 0.58 0.57 -83.0 0 1 15.69 23.30   Q 19.29 24.21 22.57 23.28   A 0.57 0.56 -7.4 0 1 23.29 23.83" />
</g>
<path fill="#8780ab" d="   M 29.76 0.00   Q 36.62 1.29 38.00 8.15   L 38.00 29.88   Q 36.64 36.60 29.92 38.00   L 8.12 38.00   Q 1.40 36.64 0.00 29.93   L 0.00 8.13   Q 1.36 1.36 8.13 0.00   L 29.76 0.00   Z   M 36.0031 9.2703   A 7.33 7.33 0.0 0 0 28.6603 1.9531   L 9.2803 1.9869   A 7.33 7.33 0.0 0 0 1.9631 9.3297   L 1.9969 28.7097   A 7.33 7.33 0.0 0 0 9.3397 36.0269   L 28.7197 35.9931   A 7.33 7.33 0.0 0 0 36.0369 28.6503   L 36.0031 9.2703   Z" />
<path fill="#dcebfa" d="   M 36.0369 28.6503   A 7.33 7.33 0.0 0 1 28.7197 35.9931   L 9.3397 36.0269   A 7.33 7.33 0.0 0 1 1.9969 28.7097   L 1.9631 9.3297   A 7.33 7.33 0.0 0 1 9.2803 1.9869   L 28.6603 1.9531   A 7.33 7.33 0.0 0 1 36.0031 9.2703   L 36.0369 28.6503   Z   M 23.29 23.83   L 23.24 28.42   A 1.62 1.61 2.3 0 0 24.74 30.04   L 24.80 30.04   A 1.37 1.36 2.0 0 0 26.26 28.68   L 26.28 21.35   A 2.27 2.24 55.9 0 1 26.43 20.54   L 28.55 15.13   A 0.74 0.72 -79.6 0 1 29.21 14.66   Q 30.77 14.60 31.32 13.67   Q 32.20 12.17 30.40 11.31   Q 29.17 10.72 27.53 10.72   A 0.75 0.74 79.9 0 1 26.83 10.23   Q 26.48 9.26 26.25 8.90   Q 25.49 7.75 24.68 8.75   Q 24.31 9.20 24.71 10.62   A 0.44 0.44 0.0 0 1 23.90 10.96   Q 23.42 10.15 22.33 9.81   A 1.01 1.00 68.7 0 0 21.53 11.64   L 23.69 12.89   A 1.76 1.76 0.0 0 1 23.90 15.80   Q 22.57 16.84 21.25 16.77   C 17.22 16.55 15.58 16.12 12.96 17.33   A 1.48 1.47 -27.3 0 1 11.06 16.73   L 10.00 14.90   A 0.90 0.89 -65.1 0 0 8.35 15.51   Q 8.81 18.15 11.10 19.14   A 1.47 1.47 0.0 0 1 11.99 20.49   L 11.99 29.06   A 1.02 1.01 -0.0 0 0 13.01 30.07   L 13.49 30.07   A 1.49 1.48 0.0 0 0 14.98 28.59   L 14.98 23.86   A 0.58 0.57 -83.0 0 1 15.69 23.30   Q 19.29 24.21 22.57 23.28   A 0.57 0.56 -7.4 0 1 23.29 23.83   Z" />
<path fill="#8780ab" d="   M 22.57 23.28   Q 19.29 24.21 15.69 23.30   A 0.58 0.57 -83.0 0 0 14.98 23.86   L 14.98 28.59   A 1.49 1.48 -0.0 0 1 13.49 30.07   L 13.01 30.07   A 1.02 1.01 -0.0 0 1 11.99 29.06   L 11.99 20.49   A 1.47 1.47 0.0 0 0 11.10 19.14   Q 8.81 18.15 8.35 15.51   A 0.90 0.89 -65.1 0 1 10.00 14.90   L 11.06 16.73   A 1.48 1.47 -27.3 0 0 12.96 17.33   C 15.58 16.12 17.22 16.55 21.25 16.77   Q 22.57 16.84 23.90 15.80   A 1.76 1.76 0.0 0 0 23.69 12.89   L 21.53 11.64   A 1.01 1.00 68.7 0 1 22.33 9.81   Q 23.42 10.15 23.90 10.96   A 0.44 0.44 0.0 0 0 24.71 10.62   Q 24.31 9.20 24.68 8.75   Q 25.49 7.75 26.25 8.90   Q 26.48 9.26 26.83 10.23   A 0.75 0.74 79.9 0 0 27.53 10.72   Q 29.17 10.72 30.40 11.31   Q 32.20 12.17 31.32 13.67   Q 30.77 14.60 29.21 14.66   A 0.74 0.72 -79.6 0 0 28.55 15.13   L 26.43 20.54   A 2.27 2.24 55.9 0 0 26.28 21.35   L 26.26 28.68   A 1.37 1.36 2.0 0 1 24.80 30.04   L 24.74 30.04   A 1.62 1.61 2.3 0 1 23.24 28.42   L 23.29 23.83   A 0.57 0.56 -7.4 0 0 22.57 23.28   Z" />
</g></svg>