<?xml version='1.0' encoding='utf-8'?>
<svg xmlns="http://www.w3.org/2000/svg" version="1.1" width="20" height="20" viewBox="0 0 20.0 20.0">
<g transform="scale(0.5)"><g stroke-width="2.00" fill="none" stroke-linecap="butt">
<path stroke="#93c9ac" vector-effect="non-scaling-stroke" d="   M 36.0130 9.2603   A 7.31 7.31 0.0 0 0 28.6903 1.9631   L 9.2703 1.9970   A 7.31 7.31 0.0 0 0 1.9731 9.3197   L 2.0070 28.7397   A 7.31 7.31 0.0 0 0 9.3297 36.0369   L 28.7497 36.0030   A 7.31 7.31 0.0 0 0 36.0469 28.6803   L 36.0130 9.2603" />
<path stroke="#a8d5bd" vector-effect="non-scaling-stroke" d="   M 24.28 28.11   L 9.01 28.11   A 0.92 0.91 -87.3 0 0 8.09 28.95   L 8.09 29.00   A 0.83 0.83 0.0 0 0 8.92 29.89   L 31.34 29.78   A 0.63 0.62 90.0 0 0 31.96 29.15   L 31.96 28.75   A 0.47 0.47 0.0 0 0 31.53 28.28   L 26.37 27.85" />
<path stroke="#93c9ac" vector-effect="non-scaling-stroke" d="   M 26.37 27.85   L 20.94 18.55   A 0.50 0.50 0.0 0 1 21.37 17.79   L 23.49 17.79   A 0.72 0.72 0.0 0 0 24.19 17.23   C 24.67 15.19 27.17 14.40 29.10 13.70   A 0.79 0.79 0.0 0 0 29.37 12.39   Q 23.86 7.14 16.77 9.52   A 0.89 0.89 0.0 0 1 16.02 9.45   L 14.75 8.72   A 0.64 0.64 0.0 0 0 13.79 9.27   L 13.79 10.84   A 0.61 0.60 72.3 0 1 13.54 11.33   Q 7.43 15.82 9.65 23.98   A 0.87 0.87 0.0 0 0 11.20 24.25   Q 13.34 21.21 16.57 21.66   A 0.83 0.83 0.0 0 0 17.41 21.25   L 18.44 19.48   A 0.41 0.41 0.0 0 1 19.14 19.47   L 24.28 28.11" />
<path stroke="#64ac85" vector-effect="non-scaling-stroke" d="   M 26.37 27.85   L 24.28 28.11" />
<path stroke="#86c2a2" vector-effect="non-scaling-stroke" d="   M 19.72 10.88   A 0.40 0.40 0.0 0 0 19.59 11.59   Q 21.87 13.16 22.84 14.50   A 0.42 0.42 0.0 0 0 23.52 14.50   Q 24.29 13.44 25.86 12.75   A 0.40 0.40 0.0 0 0 25.87 12.02   Q 22.18 10.28 19.72 10.88" />
<path stroke="#86c2a2" vector-effect="non-scaling-stroke" d="   M 18.81 16.71   Q 18.88 16.66 20.57 15.91   A 0.49 0.49 0.0 0 0 20.78 15.18   Q 19.60 13.43 16.48 12.20   C 16.42 12.18 16.34 12.23 16.29 12.26   C 16.23 12.29 16.14 12.34 16.13 12.40   Q 15.59 15.71 16.48 17.62   A 0.49 0.49 0.0 0 0 17.21 17.81   Q 18.73 16.75 18.81 16.71" />
<path stroke="#86c2a2" vector-effect="non-scaling-stroke" d="   M 13.03 14.11   Q 11.13 16.10 10.76 20.51   A 0.44 0.43 74.3 0 0 11.45 20.90   Q 12.95 19.80 14.36 19.65   A 0.46 0.45 -15.3 0 0 14.73 19.01   Q 14.00 17.37 13.77 14.38   A 0.43 0.43 0.0 0 0 13.03 14.11" />
</g>
<path fill="#4fa074" d="   M 29.76 0.00   Q 36.62 1.28 38.00 8.15   L 38.00 29.88   Q 36.64 36.60 29.92 38.00   L 8.12 38.00   Q 1.40 36.64 0.00 29.93   L 0.00 8.13   Q 1.36 1.37 8.13 0.00   L 29.76 0.00   Z   M 36.0130 9.2603   A 7.31 7.31 0.0 0 0 28.6903 1.9631   L 9.2703 1.9970   A 7.31 7.31 0.0 0 0 1.9731 9.3197   L 2.0070 28.7397   A 7.31 7.31 0.0 0 0 9.3297 36.0369   L 28.7497 36.0030   A 7.31 7.31 0.0 0 0 36.0469 28.6803   L 36.0130 9.2603   Z" />
<path fill="#d6f2e3" d="   M 36.0469 28.6803   A 7.31 7.31 0.0 0 1 28.7497 36.0030   L 9.3297 36.0369   A 7.31 7.31 0.0 0 1 2.0070 28.7397   L 1.9731 9.3197   A 7.31 7.31 0.0 0 1 9.2703 1.9970   L 28.6903 1.9631   A 7.31 7.31 0.0 0 1 36.0130 9.2603   L 36.0469 28.6803   Z   M 24.28 28.11   L 9.01 28.11   A 0.92 0.91 -87.3 0 0 8.09 28.95   L 8.09 29.00   A 0.83 0.83 0.0 0 0 8.92 29.89   L 31.34 29.78   A 0.63 0.62 90.0 0 0 31.96 29.15   L 31.96 28.75   A 0.47 0.47 0.0 0 0 31.53 28.28   L 26.37 27.85   L 20.94 18.55   A 0.50 0.50 0.0 0 1 21.37 17.79   L 23.49 17.79   A 0.72 0.72 0.0 0 0 24.19 17.23   C 24.67 15.19 27.17 14.40 29.10 13.70   A 0.79 0.79 0.0 0 0 29.37 12.39   Q 23.86 7.14 16.77 9.52   A 0.89 0.89 0.0 0 1 16.02 9.45   L 14.75 8.72   A 0.64 0.64 0.0 0 0 13.79 9.27   L 13.79 10.84   A 0.61 0.60 72.3 0 1 13.54 11.33   Q 7.43 15.82 9.65 23.98   A 0.87 0.87 0.0 0 0 11.20 24.25   Q 13.34 21.21 16.57 21.66   A 0.83 0.83 0.0 0 0 17.41 21.25   L 18.44 19.48   A 0.41 0.41 0.0 0 1 19.14 19.47   L 24.28 28.11   Z" />
<path fill="#4fa074" d="   M 26.37 27.85   L 24.28 28.11   L 19.14 19.47   A 0.41 0.41 0.0 0 0 18.44 19.48   L 17.41 21.25   A 0.83 0.83 0.0 0 1 16.57 21.66   Q 13.34 21.21 11.20 24.25   A 0.87 0.87 0.0 0 1 9.65 23.98   Q 7.43 15.82 13.54 11.33   A 0.61 0.60 72.3 0 0 13.79 10.84   L 13.79 9.27   A 0.64 0.64 0.0 0 1 14.75 8.72   L 16.02 9.45   A 0.89 0.89 0.0 0 0 16.77 9.52   Q 23.86 7.14 29.37 12.39   A 0.79 0.79 0.0 0 1 29.10 13.70   C 27.17 14.40 24.67 15.19 24.19 17.23   A 0.72 0.72 0.0 0 1 23.49 17.79   L 21.37 17.79   A 0.50 0.50 0.0 0 0 20.94 18.55   L 26.37 27.85   Z   M 19.72 10.88   A 0.40 0.40 0.0 0 0 19.59 11.59   Q 21.87 13.16 22.84 14.50   A 0.42 0.42 0.0 0 0 23.52 14.50   Q 24.29 13.44 25.86 12.75   A 0.40 0.40 0.0 0 0 25.87 12.02   Q 22.18 10.28 19.72 10.88   Z   M 18.81 16.71   Q 18.88 16.66 20.57 15.91   A 0.49 0.49 0.0 0 0 20.78 15.18   Q 19.60 13.43 16.48 12.20   C 16.42 12.18 16.34 12.23 16.29 12.26   C 16.23 12.29 16.14 12.34 16.13 12.40   Q 15.59 15.71 16.48 17.62   A 0.49 0.49 0.0 0 0 17.21 17.81   Q 18.73 16.75 18.81 16.71   Z   M 13.03 14.11   Q 11.13 16.10 10.76 20.51   A 0.44 0.43 74.3 0 0 11.45 20.90   Q 12.95 19.80 14.36 19.65   A 0.46 0.45 -15.3 0 0 14.73 19.01   Q 14.00 17.37 13.77 14.38   A 0.43 0.43 0.0 0 0 13.03 14.11   Z" />
<path fill="#bde3cf" d="   M 19.72 10.88   Q 22.18 10.28 25.87 12.02   A 0.40 0.40 0.0 0 1 25.86 12.75   Q 24.29 13.44 23.52 14.50   A 0.42 0.42 0.0 0 1 22.84 14.50   Q 21.87 13.16 19.59 11.59   A 0.40 0.40 0.0 0 1 19.72 10.88   Z" />
<path fill="#bde3cf" d="   M 16.29 12.26   C 16.34 12.23 16.42 12.18 16.48 12.20   Q 19.60 13.43 20.78 15.18   A 0.49 0.49 0.0 0 1 20.57 15.91   Q 18.88 16.66 18.81 16.71   Q 18.73 16.75 17.21 17.81   A 0.49 0.49 0.0 0 1 16.48 17.62   Q 15.59 15.71 16.13 12.40   C 16.14 12.34 16.23 12.29 16.29 12.26   Z" />
<path fill="#bde3cf" d="   M 13.77 14.38   Q 14.00 17.37 14.73 19.01   A 0.46 0.45 -15.3 0 1 14.36 19.65   Q 12.95 19.80 11.45 20.90   A 0.44 0.43 74.3 0 1 10.76 20.51   Q 11.13 16.10 13.03 14.11   A 0.43 0.43 0.0 0 1 13.77 14.38   Z" />
<path fill="#79b896" d="   M 24.28 28.11   L 26.37 27.85   L 31.53 28.28   A 0.47 0.47 0.0 0 1 31.96 28.75   L 31.96 29.15   A 0.63 0.62 90.0 0 1 31.34 29.78   L 8.92 29.89   A 0.83 0.83 0.0 0 1 8.09 29.00   L 8.09 28.95   A 0.92 0.91 -87.3 0 1 9.01 28.11   L 24.28 28.11   Z" />
</g></svg>