<?xml version='1.0' encoding='utf-8'?>
<svg xmlns="http://www.w3.org/2000/svg" version="1.1" width="20" height="20" viewBox="0 0 20.0 20.0">
<g transform="scale(0.5)"><g stroke-width="2.00" fill="none" stroke-linecap="butt">
<path stroke="#93c9ac" vector-effect="non-scaling-stroke" d="   M 36.0030 9.2703   A 7.32 7.32 0.0 0 0 28.6703 1.9631   L 9.2703 1.9970   A 7.32 7.32 0.0 0 0 1.9631 9.3297   L 1.9970 28.7297   A 7.32 7.32 0.0 0 0 9.3297 36.0369   L 28.7297 36.0030   A 7.32 7.32 0.0 0 0 36.0369 28.6703   L 36.0030 9.2703" />
<path stroke="#93c9ac" vector-effect="non-scaling-stroke" d="   M 26.1800 15.0201   A 0.91 0.91 0.0 0 0 25.2764 14.1037   L 12.7567 14.0163   A 0.91 0.91 0.0 0 0 11.8404 14.9199   L 11.8400 14.9799   A 0.91 0.91 0.0 0 0 12.7436 15.8963   L 25.2633 15.9837   A 0.91 0.91 0.0 0 0 26.1796 15.0801   L 26.1800 15.0201" />
<path stroke="#93c9ac" vector-effect="non-scaling-stroke" d="   M 26.12 18.98   A 0.91 0.91 0.0 0 0 25.21 18.07   L 12.81 18.07   A 0.91 0.91 0.0 0 0 11.90 18.98   L 11.90 19.04   A 0.91 0.91 0.0 0 0 12.81 19.95   L 25.21 19.95   A 0.91 0.91 0.0 0 0 26.12 19.04   L 26.12 18.98" />
<path stroke="#93c9ac" vector-effect="non-scaling-stroke" d="   M 8.05 23.02   Q 8.05 23.75 8.08 25.27   A 0.94 0.91 80.5 0 0 9.27 26.15   Q 9.76 25.99 9.95 24.79   A 0.98 0.98 0.0 0 1 10.88 23.97   Q 11.57 23.95 19.00 23.95   Q 26.43 23.95 27.12 23.98   A 0.98 0.98 0.0 0 1 28.05 24.79   Q 28.24 25.99 28.73 26.15   A 0.94 0.91 -80.5 0 0 29.92 25.27   Q 29.95 23.76 29.95 23.02   Q 29.95 22.28 29.92 20.77   A 0.94 0.91 80.5 0 0 28.73 19.88   Q 28.24 20.04 28.05 21.24   A 0.98 0.98 0.0 0 1 27.12 22.06   Q 26.43 22.09 19.00 22.08   Q 11.57 22.08 10.88 22.06   A 0.98 0.98 0.0 0 1 9.95 21.24   Q 9.76 20.04 9.27 19.88   A 0.94 0.91 -80.5 0 0 8.08 20.76   Q 8.05 22.28 8.05 23.02" />
</g>
<path fill="#4fa074" d="   M 29.76 0.00   Q 36.62 1.29 38.00 8.15   L 38.00 29.88   Q 36.63 36.60 29.92 38.00   L 8.12 38.00   Q 1.39 36.64 0.00 29.93   L 0.00 8.13   Q 1.36 1.36 8.13 0.00   L 29.76 0.00   Z   M 36.0030 9.2703   A 7.32 7.32 0.0 0 0 28.6703 1.9631   L 9.2703 1.9970   A 7.32 7.32 0.0 0 0 1.9631 9.3297   L 1.9970 28.7297   A 7.32 7.32 0.0 0 0 9.3297 36.0369   L 28.7297 36.0030   A 7.32 7.32 0.0 0 0 36.0369 28.6703   L 36.0030 9.2703   Z" />
<path fill="#d6f2e3" d="   M 36.0369 28.6703   A 7.32 7.32 0.0 0 1 28.7297 36.0030   L 9.3297 36.0369   A 7.32 7.32 0.0 0 1 1.9970 28.7297   L 1.9631 9.3297   A 7.32 7.32 0.0 0 1 9.2703 1.9970   L 28.6703 1.9631   A 7.32 7.32 0.0 0 1 36.0030 9.2703   L 36.0369 28.6703   Z   M 26.1800 15.0201   A 0.91 0.91 0.0 0 0 25.2764 14.1037   L 12.7567 14.0163   A 0.91 0.91 0.0 0 0 11.8404 14.9199   L 11.8400 14.9799   A 0.91 0.91 0.0 0 0 12.7436 15.8963   L 25.2633 15.9837   A 0.91 0.91 0.0 0 0 26.1796 15.0801   L 26.1800 15.0201   Z   M 26.12 18.98   A 0.91 0.91 0.0 0 0 25.21 18.07   L 12.81 18.07   A 0.91 0.91 0.0 0 0 11.90 18.98   L 11.90 19.04   A 0.91 0.91 0.0 0 0 12.81 19.95   L 25.21 19.95   A 0.91 0.91 0.0 0 0 26.12 19.04   L 26.12 18.98   Z   M 8.05 23.02   Q 8.05 23.75 8.08 25.27   A 0.94 0.91 80.5 0 0 9.27 26.15   Q 9.76 25.99 9.95 24.79   A 0.98 0.98 0.0 0 1 10.88 23.97   Q 11.57 23.95 19.00 23.95   Q 26.43 23.95 27.12 23.98   A 0.98 0.98 0.0 0 1 28.05 24.79   Q 28.24 25.99 28.73 26.15   A 0.94 0.91 -80.5 0 0 29.92 25.27   Q 29.95 23.76 29.95 23.02   Q 29.95 22.28 29.92 20.77   A 0.94 0.91 80.5 0 0 28.73 19.88   Q 28.24 20.04 28.05 21.24   A 0.98 0.98 0.0 0 1 27.12 22.06   Q 26.43 22.09 19.00 22.08   Q 11.57 22.08 10.88 22.06   A 0.98 0.98 0.0 0 1 9.95 21.24   Q 9.76 20.04 9.27 19.88   A 0.94 0.91 -80.5 0 0 8.08 20.76   Q 8.05 22.28 8.05 23.02   Z" />
<rect fill="#4fa074" x="-7.17" y="-0.94" transform="translate(19.01,15.00) rotate(0.4)" width="14.34" height="1.88" rx="0.91" />
<rect fill="#4fa074" x="11.90" y="18.07" width="14.22" height="1.88" rx="0.91" />
<path fill="#4fa074" d="   M 19.00 22.08   Q 26.43 22.09 27.12 22.06   A 0.98 0.98 0.0 0 0 28.05 21.24   Q 28.24 20.04 28.73 19.88   A 0.94 0.91 80.5 0 1 29.92 20.77   Q 29.95 22.28 29.95 23.02   Q 29.95 23.76 29.92 25.27   A 0.94 0.91 -80.5 0 1 28.73 26.15   Q 28.24 25.99 28.05 24.79   A 0.98 0.98 0.0 0 0 27.12 23.98   Q 26.43 23.95 19.00 23.95   Q 11.57 23.95 10.88 23.97   A 0.98 0.98 0.0 0 0 9.95 24.79   Q 9.76 25.99 9.27 26.15   A 0.94 0.91 80.5 0 1 8.08 25.27   Q 8.05 23.75 8.05 23.02   Q 8.05 22.28 8.08 20.76   A 0.94 0.91 -80.5 0 1 9.27 19.88   Q 9.76 20.04 9.95 21.24   A 0.98 0.98 0.0 0 0 10.88 22.06   Q 11.57 22.08 19.00 22.08   Z" />
</g></svg>