<?xml version='1.0' encoding='utf-8'?>
<svg xmlns="http://www.w3.org/2000/svg" version="1.1" width="20" height="20" viewBox="0 0 20.0 20.0">
<g transform="scale(0.5)"><g stroke-width="2.00" fill="none" stroke-linecap="butt">
<path stroke="#b1b6d3" vector-effect="non-scaling-stroke" d="   M 36.0030 9.2603   A 7.32 7.32 0.0 0 0 28.6703 1.9531   L 9.2703 1.9870   A 7.32 7.32 0.0 0 0 1.9631 9.3197   L 1.9970 28.7197   A 7.32 7.32 0.0 0 0 9.3297 36.0269   L 28.7297 35.9930   A 7.32 7.32 0.0 0 0 36.0369 28.6603   L 36.0030 9.2603" />
<path stroke="#b1b6d3" vector-effect="non-scaling-stroke" d="   M 18.45 30.84   Q 22.25 30.83 24.74 27.73   C 27.58 24.18 26.59 20.45 24.57 16.73   Q 22.04 12.08 19.22 8.29   Q 18.88 7.83 18.42 7.83   Q 17.97 7.83 17.62 8.29   Q 14.81 12.09 12.30 16.75   C 10.29 20.47 9.31 24.21 12.16 27.75   Q 14.66 30.84 18.45 30.84" />
<path stroke="#a9accc" vector-effect="non-scaling-stroke" d="   M 18.45 28.87   C 21.69 28.87 25.23 25.53 24.51 22.20   Q 23.52 17.58 18.59 10.91   A 0.14 0.10 65.5 0 0 18.50 10.86   Q 18.47 10.85 18.44 10.85   Q 18.42 10.85 18.38 10.86   A 0.14 0.10 -65.5 0 0 18.29 10.91   Q 13.37 17.58 12.37 22.21   C 11.66 25.53 15.20 28.87 18.45 28.87" />
<path stroke="#a9accc" vector-effect="non-scaling-stroke" d="   M 15.13 25.64   C 15.80 26.44 17.77 27.60 19.01 27.07   A 0.79 0.79 0.0 0 0 19.14 25.69   Q 18.91 25.53 16.89 24.34   Q 16.83 24.30 16.78 24.25   Q 16.74 24.19 16.71 24.13   Q 15.89 21.93 15.77 21.68   A 0.79 0.79 0.0 0 0 14.39 21.57   C 13.66 22.70 14.46 24.84 15.13 25.64" />
</g>
<path fill="#8680ab" d="   M 29.76 0.00   Q 36.63 1.28 38.00 8.15   L 38.00 29.88   Q 36.64 36.61 29.93 38.00   L 8.12 38.00   Q 1.40 36.65 0.00 29.93   L 0.00 8.13   Q 1.36 1.36 8.13 0.00   L 29.76 0.00   Z   M 36.0030 9.2603   A 7.32 7.32 0.0 0 0 28.6703 1.9531   L 9.2703 1.9870   A 7.32 7.32 0.0 0 0 1.9631 9.3197   L 1.9970 28.7197   A 7.32 7.32 0.0 0 0 9.3297 36.0269   L 28.7297 35.9930   A 7.32 7.32 0.0 0 0 36.0369 28.6603   L 36.0030 9.2603   Z" />
<path fill="#dcebfa" d="   M 36.0369 28.6603   A 7.32 7.32 0.0 0 1 28.7297 35.9930   L 9.3297 36.0269   A 7.32 7.32 0.0 0 1 1.9970 28.7197   L 1.9631 9.3197   A 7.32 7.32 0.0 0 1 9.2703 1.9870   L 28.6703 1.9531   A 7.32 7.32 0.0 0 1 36.0030 9.2603   L 36.0369 28.6603   Z   M 18.45 30.84   Q 22.25 30.83 24.74 27.73   C 27.58 24.18 26.59 20.45 24.57 16.73   Q 22.04 12.08 19.22 8.29   Q 18.88 7.83 18.42 7.83   Q 17.97 7.83 17.62 8.29   Q 14.81 12.09 12.30 16.75   C 10.29 20.47 9.31 24.21 12.16 27.75   Q 14.66 30.84 18.45 30.84   Z" />
<path fill="#8680ab" d="   M 18.42 7.83   Q 18.88 7.83 19.22 8.29   Q 22.04 12.08 24.57 16.73   C 26.59 20.45 27.58 24.18 24.74 27.73   Q 22.25 30.83 18.45 30.84   Q 14.66 30.84 12.16 27.75   C 9.31 24.21 10.29 20.47 12.30 16.75   Q 14.81 12.09 17.62 8.29   Q 17.97 7.83 18.42 7.83   Z   M 18.45 28.87   C 21.69 28.87 25.23 25.53 24.51 22.20   Q 23.52 17.58 18.59 10.91   A 0.14 0.10 65.5 0 0 18.50 10.86   Q 18.47 10.85 18.44 10.85   Q 18.42 10.85 18.38 10.86   A 0.14 0.10 -65.5 0 0 18.29 10.91   Q 13.37 17.58 12.37 22.21   C 11.66 25.53 15.20 28.87 18.45 28.87   Z" />
<path fill="#ccd8ec" d="   M 18.44 10.85   Q 18.47 10.85 18.50 10.86   A 0.14 0.10 65.5 0 1 18.59 10.91   Q 23.52 17.58 24.51 22.20   C 25.23 25.53 21.69 28.87 18.45 28.87   C 15.20 28.87 11.66 25.53 12.37 22.21   Q 13.37 17.58 18.29 10.91   A 0.14 0.10 -65.5 0 1 18.38 10.86   Q 18.42 10.85 18.44 10.85   Z   M 15.13 25.64   C 15.80 26.44 17.77 27.60 19.01 27.07   A 0.79 0.79 0.0 0 0 19.14 25.69   Q 18.91 25.53 16.89 24.34   Q 16.83 24.30 16.78 24.25   Q 16.74 24.19 16.71 24.13   Q 15.89 21.93 15.77 21.68   A 0.79 0.79 0.0 0 0 14.39 21.57   C 13.66 22.70 14.46 24.84 15.13 25.64   Z" />
<path fill="#8680ab" d="   M 16.78 24.25   Q 16.83 24.30 16.89 24.34   Q 18.91 25.53 19.14 25.69   A 0.79 0.79 0.0 0 1 19.01 27.07   C 17.77 27.60 15.80 26.44 15.13 25.64   C 14.46 24.84 13.66 22.70 14.39 21.57   A 0.79 0.79 0.0 0 1 15.77 21.68   Q 15.89 21.93 16.71 24.13   Q 16.74 24.19 16.78 24.25   Z" />
</g></svg>