<?xml version='1.0' encoding='utf-8'?>
<svg xmlns="http://www.w3.org/2000/svg" width="20" height="20" viewBox="0 0 20.0 20.0">
	<g transform="scale(1.0)"><path fill="#FFF" d="M7.13953 0.5L16.8605 0.5Q16.9916 0.5 17.1215 0.51711Q17.2515 0.534221 17.3781 0.568148Q17.5047 0.602076 17.6258 0.652241Q17.7469 0.702406 17.8605 0.767949Q17.974 0.833493 18.078 0.913293Q18.182 0.993094 18.2747 1.08579Q18.3674 1.17848 18.4472 1.28248Q18.527 1.38647 18.5925 1.5L22.9226 9Q22.9882 9.11352 23.0384 9.23463Q23.0885 9.35574 23.1225 9.48236Q23.1564 9.60898 23.1735 9.73895Q23.1906 9.86891 23.1906 10Q23.1906 10.1311 23.1735 10.2611Q23.1564 10.391 23.1225 10.5176Q23.0885 10.6443 23.0384 10.7654Q22.9882 10.8865 22.9226 11L18.5925 18.5Q18.527 18.6135 18.4472 18.7175Q18.3674 18.8215 18.2747 18.9142Q18.182 19.0069 18.078 19.0867Q17.974 19.1665 17.8605 19.2321Q17.7469 19.2976 17.6258 19.3478Q17.5047 19.3979 17.3781 19.4319Q17.2515 19.4658 17.1215 19.4829Q16.9916 19.5 16.8605 19.5L7.13953 19.5Q7.00844 19.5 6.87848 19.4829Q6.74851 19.4658 6.62189 19.4319Q6.49527 19.3979 6.37416 19.3478Q6.25305 19.2976 6.13953 19.2321Q6.026 19.1665 5.92201 19.0867Q5.81801 19.0069 5.72532 18.9142Q5.63262 18.8215 5.55282 18.7175Q5.47302 18.6135 5.40748 18.5L1.07735 11Q1.01181 10.8865 0.961642 10.7654Q0.911477 10.6443 0.877549 10.5176Q0.843622 10.391 0.826511 10.2611Q0.809401 10.1311 0.809401 10Q0.809401 9.86891 0.826511 9.73895Q0.843622 9.60898 0.877549 9.48236Q0.911477 9.35574 0.961642 9.23463Q1.01181 9.11352 1.07735 9L5.40748 1.5Q5.47302 1.38648 5.55282 1.28248Q5.63262 1.17848 5.72531 1.08579Q5.81801 0.993094 5.92201 0.913293Q6.026 0.833493 6.13953 0.767949Q6.25305 0.702406 6.37416 0.652241Q6.49527 0.602076 6.62189 0.568148Q6.74851 0.534221 6.87848 0.51711Q7.00844 0.5 7.13953 0.5Z" />
	<path fill="none" stroke="#000" stroke-width="1" stroke-miterlimit="10" d="M7.13953 0.5L16.8605 0.5Q16.9916 0.5 17.1215 0.51711Q17.2515 0.534221 17.3781 0.568148Q17.5047 0.602076 17.6258 0.652241Q17.7469 0.702406 17.8605 0.767949Q17.974 0.833493 18.078 0.913293Q18.182 0.993094 18.2747 1.08579Q18.3674 1.17848 18.4472 1.28248Q18.527 1.38647 18.5925 1.5L22.9226 9Q22.9882 9.11352 23.0384 9.23463Q23.0885 9.35574 23.1225 9.48236Q23.1564 9.60898 23.1735 9.73895Q23.1906 9.86891 23.1906 10Q23.1906 10.1311 23.1735 10.2611Q23.1564 10.391 23.1225 10.5176Q23.0885 10.6443 23.0384 10.7654Q22.9882 10.8865 22.9226 11L18.5925 18.5Q18.527 18.6135 18.4472 18.7175Q18.3674 18.8215 18.2747 18.9142Q18.182 19.0069 18.078 19.0867Q17.974 19.1665 17.8605 19.2321Q17.7469 19.2976 17.6258 19.3478Q17.5047 19.3979 17.3781 19.4319Q17.2515 19.4658 17.1215 19.4829Q16.9916 19.5 16.8605 19.5L7.13953 19.5Q7.00844 19.5 6.87848 19.4829Q6.74851 19.4658 6.62189 19.4319Q6.49527 19.3979 6.37416 19.3478Q6.25305 19.2976 6.13953 19.2321Q6.026 19.1665 5.92201 19.0867Q5.81801 19.0069 5.72532 18.9142Q5.63262 18.8215 5.55282 18.7175Q5.47302 18.6135 5.40748 18.5L1.07735 11Q1.01181 10.8865 0.961642 10.7654Q0.911477 10.6443 0.877549 10.5176Q0.843622 10.391 0.826511 10.2611Q0.809401 10.1311 0.809401 10Q0.809401 9.86891 0.826511 9.73895Q0.843622 9.60898 0.877549 9.48236Q0.911477 9.35574 0.961642 9.23463Q1.01181 9.11352 1.07735 9L5.40748 1.5Q5.47302 1.38648 5.55282 1.28248Q5.63262 1.17848 5.72531 1.08579Q5.81801 0.993094 5.92201 0.913293Q6.026 0.833493 6.13953 0.767949Q6.25305 0.702406 6.37416 0.652241Q6.49527 0.602076 6.62189 0.568148Q6.74851 0.534221 6.87848 0.51711Q7.00844 0.5 7.13953 0.5Z" />
</g></svg>