<?xml version='1.0' encoding='utf-8'?>
<svg xmlns="http://www.w3.org/2000/svg" version="1.1" width="20" height="20" viewBox="0 0 20.0 20.0">
<g transform="scale(0.5)"><g stroke-width="2.00" fill="none" stroke-linecap="butt">
<path stroke="#93c9ac" vector-effect="non-scaling-stroke" d="   M 36.0030 9.2503   A 7.30 7.30 0.0 0 0 28.6903 1.9631   L 9.2503 1.9970   A 7.30 7.30 0.0 0 0 1.9631 9.3097   L 1.9970 28.7497   A 7.30 7.30 0.0 0 0 9.3097 36.0369   L 28.7497 36.0030   A 7.30 7.30 0.0 0 0 36.0369 28.6903   L 36.0030 9.2503" />
<path stroke="#93c9ac" vector-effect="non-scaling-stroke" d="   M 22.70 26.45   C 28.03 27.74 32.52 21.95 29.14 17.32   A 1.73 1.71 26.8 0 1 28.81 16.34   Q 28.66 11.89 24.60 10.58   A 1.51 1.50 80.8 0 1 23.84 10.03   Q 20.38 5.37 15.78 9.17   A 2.08 2.01 -69.5 0 1 14.88 9.60   Q 10.33 10.56 10.00 15.24   A 1.72 1.67 -21.9 0 1 9.53 16.30   C 5.27 20.80 9.55 27.86 15.71 26.44   A 0.45 0.44 -6.3 0 1 16.26 26.87   L 16.26 30.64   A 1.10 1.09 90.0 0 0 17.35 31.74   L 20.95 31.74   A 1.03 1.02 -90.0 0 0 21.97 30.71   L 21.97 27.01   A 0.59 0.58 7.0 0 1 22.70 26.45" />
<path stroke="#86c2a2" vector-effect="non-scaling-stroke" d="   M 21.35 23.38   Q 23.96 25.69 26.41 24.05   C 27.92 23.04 29.19 20.63 27.82 18.88   Q 27.13 18.00 26.91 17.48   A 1.99 1.93 -55.0 0 1 26.75 16.49   Q 27.06 12.89 23.15 12.31   A 1.12 1.12 0.0 0 1 22.37 11.79   C 21.38 10.16 21.30 9.16 18.92 9.50   A 1.71 1.70 20.6 0 0 18.07 9.88   L 16.91 10.88   A 2.49 2.45 -68.2 0 1 15.63 11.44   Q 12.02 11.91 11.94 16.04   A 1.49 1.45 -21.9 0 1 11.48 17.08   Q 8.10 20.35 11.32 23.48   C 12.85 24.96 14.71 25.23 16.31 23.85   A 1.15 1.15 0.0 0 1 18.21 24.69   L 18.31 29.18   A 0.77 0.76 -0.7 0 0 19.09 29.93   L 19.15 29.93   A 0.88 0.88 0.0 0 0 20.02 29.06   L 20.05 23.96   A 0.78 0.78 0.0 0 1 21.35 23.38" />
</g>
<path fill="#4fa074" d="   M 29.76 0.00   Q 36.62 1.28 38.00 8.15   L 38.00 29.88   Q 36.64 36.60 29.92 38.00   L 8.12 38.00   Q 1.40 36.65 0.00 29.93   L 0.00 8.13   Q 1.36 1.36 8.13 0.00   L 29.76 0.00   Z   M 36.0030 9.2503   A 7.30 7.30 0.0 0 0 28.6903 1.9631   L 9.2503 1.9970   A 7.30 7.30 0.0 0 0 1.9631 9.3097   L 1.9970 28.7497   A 7.30 7.30 0.0 0 0 9.3097 36.0369   L 28.7497 36.0030   A 7.30 7.30 0.0 0 0 36.0369 28.6903   L 36.0030 9.2503   Z" />
<path fill="#d6f2e3" d="   M 36.0369 28.6903   A 7.30 7.30 0.0 0 1 28.7497 36.0030   L 9.3097 36.0369   A 7.30 7.30 0.0 0 1 1.9970 28.7497   L 1.9631 9.3097   A 7.30 7.30 0.0 0 1 9.2503 1.9970   L 28.6903 1.9631   A 7.30 7.30 0.0 0 1 36.0030 9.2503   L 36.0369 28.6903   Z   M 22.70 26.45   C 28.03 27.74 32.52 21.95 29.14 17.32   A 1.73 1.71 26.8 0 1 28.81 16.34   Q 28.66 11.89 24.60 10.58   A 1.51 1.50 80.8 0 1 23.84 10.03   Q 20.38 5.37 15.78 9.17   A 2.08 2.01 -69.5 0 1 14.88 9.60   Q 10.33 10.56 10.00 15.24   A 1.72 1.67 -21.9 0 1 9.53 16.30   C 5.27 20.80 9.55 27.86 15.71 26.44   A 0.45 0.44 -6.3 0 1 16.26 26.87   L 16.26 30.64   A 1.10 1.09 90.0 0 0 17.35 31.74   L 20.95 31.74   A 1.03 1.02 -90.0 0 0 21.97 30.71   L 21.97 27.01   A 0.59 0.58 7.0 0 1 22.70 26.45   Z" />
<path fill="#4fa074" d="   M 21.97 27.01   L 21.97 30.71   A 1.03 1.02 -90.0 0 1 20.95 31.74   L 17.35 31.74   A 1.10 1.09 -90.0 0 1 16.26 30.64   L 16.26 26.87   A 0.45 0.44 -6.3 0 0 15.71 26.44   C 9.55 27.86 5.27 20.80 9.53 16.30   A 1.72 1.67 -21.9 0 0 10.00 15.24   Q 10.33 10.56 14.88 9.60   A 2.08 2.01 -69.5 0 0 15.78 9.17   Q 20.38 5.37 23.84 10.03   A 1.51 1.50 80.8 0 0 24.60 10.58   Q 28.66 11.89 28.81 16.34   A 1.73 1.71 26.8 0 0 29.14 17.32   C 32.52 21.95 28.03 27.74 22.70 26.45   A 0.59 0.58 7.0 0 0 21.97 27.01   Z   M 21.35 23.38   Q 23.96 25.69 26.41 24.05   C 27.92 23.04 29.19 20.63 27.82 18.88   Q 27.13 18.00 26.91 17.48   A 1.99 1.93 -55.0 0 1 26.75 16.49   Q 27.06 12.89 23.15 12.31   A 1.12 1.12 0.0 0 1 22.37 11.79   C 21.38 10.16 21.30 9.16 18.92 9.50   A 1.71 1.70 20.6 0 0 18.07 9.88   L 16.91 10.88   A 2.49 2.45 -68.2 0 1 15.63 11.44   Q 12.02 11.91 11.94 16.04   A 1.49 1.45 -21.9 0 1 11.48 17.08   Q 8.10 20.35 11.32 23.48   C 12.85 24.96 14.71 25.23 16.31 23.85   A 1.15 1.15 0.0 0 1 18.21 24.69   L 18.31 29.18   A 0.77 0.76 -0.7 0 0 19.09 29.93   L 19.15 29.93   A 0.88 0.88 0.0 0 0 20.02 29.06   L 20.05 23.96   A 0.78 0.78 0.0 0 1 21.35 23.38   Z" />
<path fill="#bde3cf" d="   M 21.35 23.38   A 0.78 0.78 0.0 0 0 20.05 23.96   L 20.02 29.06   A 0.88 0.88 0.0 0 1 19.15 29.93   L 19.09 29.93   A 0.77 0.76 -0.7 0 1 18.31 29.18   L 18.21 24.69   A 1.15 1.15 0.0 0 0 16.31 23.85   C 14.71 25.23 12.85 24.96 11.32 23.48   Q 8.10 20.35 11.48 17.08   A 1.49 1.45 -21.9 0 0 11.94 16.04   Q 12.02 11.91 15.63 11.44   A 2.49 2.45 -68.2 0 0 16.91 10.88   L 18.07 9.88   A 1.71 1.70 20.6 0 1 18.92 9.50   C 21.30 9.16 21.38 10.16 22.37 11.79   A 1.12 1.12 0.0 0 0 23.15 12.31   Q 27.06 12.89 26.75 16.49   A 1.99 1.93 -55.0 0 0 26.91 17.48   Q 27.13 18.00 27.82 18.88   C 29.19 20.63 27.92 23.04 26.41 24.05   Q 23.96 25.69 21.35 23.38   Z" />
</g></svg>