<?xml version='1.0' encoding='utf-8'?>
<svg xmlns="http://www.w3.org/2000/svg" width="20" height="20" viewBox="0 0 20.0 20.0">
	<g transform="scale(1.0)"><path fill="white" d="M10 19.5L1.56851 15.0624Q1.44816 14.999 1.33749 14.92Q1.22683 14.8409 1.12788 14.7476Q1.02894 14.6543 0.943534 14.5485Q0.85813 14.4426 0.78784 14.3262Q0.71755 14.2098 0.663668 14.0849Q0.609785 13.9601 0.573303 13.829Q0.536821 13.698 0.518411 13.5633Q0.5 13.4285 0.5 13.2925L0.5 2.5Q0.5 2.40175 0.509631 2.30397Q0.519261 2.20618 0.538429 2.10982Q0.557598 2.01345 0.586119 1.91943Q0.614641 1.82541 0.652241 1.73463Q0.689841 1.64386 0.736157 1.55721Q0.782474 1.47055 0.837061 1.38886Q0.891648 1.30716 0.953979 1.23121Q1.01631 1.15526 1.08579 1.08579Q1.15526 1.01631 1.23121 0.953979Q1.30716 0.891648 1.38886 0.837061Q1.47055 0.782474 1.55721 0.736157Q1.64386 0.689841 1.73463 0.652241Q1.82541 0.614641 1.91943 0.586119Q2.01345 0.557598 2.10982 0.538429Q2.20618 0.519261 2.30397 0.509631Q2.40175 0.5 2.5 0.5L17.5 0.5L17.5 0.5Q17.5983 0.5 17.696 0.509631Q17.7938 0.519261 17.8902 0.538429Q17.9865 0.557598 18.0806 0.586119Q18.1746 0.614641 18.2654 0.652241Q18.3561 0.689841 18.4428 0.736157Q18.5294 0.782474 18.6111 0.837061Q18.6928 0.891648 18.7688 0.953979Q18.8447 1.01631 18.9142 1.08579Q18.9837 1.15526 19.046 1.23121Q19.1084 1.30716 19.1629 1.38886Q19.2175 1.47055 19.2638 1.55721Q19.3102 1.64386 19.3478 1.73463Q19.3854 1.82541 19.4139 1.91943Q19.4424 2.01345 19.4616 2.10982Q19.4807 2.20618 19.4904 2.30397Q19.5 2.40175 19.5 2.5L19.5 13.2925Q19.5 13.4285 19.4816 13.5633Q19.4632 13.698 19.4267 13.829Q19.3902 13.9601 19.3363 14.0849Q19.2825 14.2098 19.2122 14.3262Q19.1419 14.4426 19.0565 14.5485Q18.9711 14.6543 18.8721 14.7476Q18.7732 14.8409 18.6625 14.92Q18.5518 14.999 18.4315 15.0624L10 19.5Z" />
	<path fill="none" stroke="black" stroke-width="1" stroke-miterlimit="10" d="M10 19.5L1.56851 15.0624Q1.44816 14.999 1.33749 14.92Q1.22683 14.8409 1.12788 14.7476Q1.02894 14.6543 0.943534 14.5485Q0.85813 14.4426 0.78784 14.3262Q0.71755 14.2098 0.663668 14.0849Q0.609785 13.9601 0.573303 13.829Q0.536821 13.698 0.518411 13.5633Q0.5 13.4285 0.5 13.2925L0.5 2.5Q0.5 2.40175 0.509631 2.30397Q0.519261 2.20618 0.538429 2.10982Q0.557598 2.01345 0.586119 1.91943Q0.614641 1.82541 0.652241 1.73463Q0.689841 1.64386 0.736157 1.55721Q0.782474 1.47055 0.837061 1.38886Q0.891648 1.30716 0.953979 1.23121Q1.01631 1.15526 1.08579 1.08579Q1.15526 1.01631 1.23121 0.953979Q1.30716 0.891648 1.38886 0.837061Q1.47055 0.782474 1.55721 0.736157Q1.64386 0.689841 1.73463 0.652241Q1.82541 0.614641 1.91943 0.586119Q2.01345 0.557598 2.10982 0.538429Q2.20618 0.519261 2.30397 0.509631Q2.40175 0.5 2.5 0.5L17.5 0.5L17.5 0.5Q17.5983 0.5 17.696 0.509631Q17.7938 0.519261 17.8902 0.538429Q17.9865 0.557598 18.0806 0.586119Q18.1746 0.614641 18.2654 0.652241Q18.3561 0.689841 18.4428 0.736157Q18.5294 0.782474 18.6111 0.837061Q18.6928 0.891648 18.7688 0.953979Q18.8447 1.01631 18.9142 1.08579Q18.9837 1.15526 19.046 1.23121Q19.1084 1.30716 19.1629 1.38886Q19.2175 1.47055 19.2638 1.55721Q19.3102 1.64386 19.3478 1.73463Q19.3854 1.82541 19.4139 1.91943Q19.4424 2.01345 19.4616 2.10982Q19.4807 2.20618 19.4904 2.30397Q19.5 2.40175 19.5 2.5L19.5 13.2925Q19.5 13.4285 19.4816 13.5633Q19.4632 13.698 19.4267 13.829Q19.3902 13.9601 19.3363 14.0849Q19.2825 14.2098 19.2122 14.3262Q19.1419 14.4426 19.0565 14.5485Q18.9711 14.6543 18.8721 14.7476Q18.7732 14.8409 18.6625 14.92Q18.5518 14.999 18.4315 15.0624L10 19.5Z" />
</g></svg>