<?xml version="1.0" encoding="utf-8" ?>
<svg xmlns="http://www.w3.org/2000/svg" xmlns:xlink="http://www.w3.org/1999/xlink" width="20" height="20">
	<path fill="#FFF" d="M10 0.5L2.3249 2.92372Q2.23384 2.95247 2.14593 2.98977Q2.05803 3.02707 1.97407 3.07258Q1.89012 3.11809 1.81089 3.17138Q1.73165 3.22468 1.65786 3.28529Q1.58406 3.34589 1.51637 3.41325Q1.44869 3.48061 1.38773 3.55411Q1.32677 3.62761 1.27309 3.70659Q1.2194 3.78556 1.17349 3.8693Q1.12758 3.95303 1.08985 4.04075Q1.05213 4.12847 1.02293 4.21939Q0.993737 4.31031 0.973336 4.4036Q0.952935 4.49689 0.941515 4.5917Q0.930095 4.6865 0.927759 4.78197Q0.925424 4.87743 0.932194 4.97268Q0.938965 5.06793 0.954779 5.16211Q0.970594 5.25628 0.995309 5.34852L4.78719 19.5L15.2128 19.5L15.2128 19.5L19.0047 5.34852Q19.0294 5.25628 19.0452 5.16211Q19.061 5.06793 19.0678 4.97268Q19.0746 4.87743 19.0722 4.78197Q19.0699 4.6865 19.0585 4.5917Q19.0471 4.49689 19.0267 4.4036Q19.0063 4.31031 18.9771 4.21939Q18.9479 4.12847 18.9101 4.04075Q18.8724 3.95303 18.8265 3.8693Q18.7806 3.78556 18.7269 3.70659Q18.6732 3.62761 18.6123 3.55411Q18.5513 3.48061 18.4836 3.41325Q18.4159 3.34589 18.3421 3.28529Q18.2683 3.22468 18.1891 3.17138Q18.1099 3.11809 18.0259 3.07258Q17.942 3.02707 17.8541 2.98977Q17.7662 2.95247 17.6751 2.92372L10 0.5Z"/>
	<path fill="none" stroke="#000" stroke-width="1" stroke-miterlimit="10" d="M10 0.5L2.3249 2.92372Q2.23384 2.95247 2.14593 2.98977Q2.05803 3.02707 1.97407 3.07258Q1.89012 3.11809 1.81089 3.17138Q1.73165 3.22468 1.65786 3.28529Q1.58406 3.34589 1.51637 3.41325Q1.44869 3.48061 1.38773 3.55411Q1.32677 3.62761 1.27309 3.70659Q1.2194 3.78556 1.17349 3.8693Q1.12758 3.95303 1.08985 4.04075Q1.05213 4.12847 1.02293 4.21939Q0.993737 4.31031 0.973336 4.4036Q0.952935 4.49689 0.941515 4.5917Q0.930095 4.6865 0.927759 4.78197Q0.925424 4.87743 0.932194 4.97268Q0.938965 5.06793 0.954779 5.16211Q0.970594 5.25628 0.995309 5.34852L4.78719 19.5L15.2128 19.5L15.2128 19.5L19.0047 5.34852Q19.0294 5.25628 19.0452 5.16211Q19.061 5.06793 19.0678 4.97268Q19.0746 4.87743 19.0722 4.78197Q19.0699 4.6865 19.0585 4.5917Q19.0471 4.49689 19.0267 4.4036Q19.0063 4.31031 18.9771 4.21939Q18.9479 4.12847 18.9101 4.04075Q18.8724 3.95303 18.8265 3.8693Q18.7806 3.78556 18.7269 3.70659Q18.6732 3.62761 18.6123 3.55411Q18.5513 3.48061 18.4836 3.41325Q18.4159 3.34589 18.3421 3.28529Q18.2683 3.22468 18.1891 3.17138Q18.1099 3.11809 18.0259 3.07258Q17.942 3.02707 17.8541 2.98977Q17.7662 2.95247 17.6751 2.92372L10 0.5Z"/>
</svg>
