<?xml version='1.0' encoding='utf-8'?>
<svg xmlns="http://www.w3.org/2000/svg" version="1.1" width="20" height="20" viewBox="0 0 20.0 20.0">
<g transform="scale(0.5)"><g stroke-width="2.00" fill="none" stroke-linecap="butt">
<path stroke="#b1b6d3" vector-effect="non-scaling-stroke" d="   M 36.0369 9.3297   A 7.33 7.33 0.0 0 0 28.7197 1.9869   L 9.3397 1.9531   A 7.33 7.33 0.0 0 0 1.9969 9.2703   L 1.9631 28.6503   A 7.33 7.33 0.0 0 0 9.2803 35.9931   L 28.6603 36.0269   A 7.33 7.33 0.0 0 0 36.0031 28.7097   L 36.0369 9.3297" />
<path stroke="#b1b6d3" vector-effect="non-scaling-stroke" d="   M 19.28 13.19   Q 19.29 13.01 19.29 13.00   A 1.45 1.45 0.0 0 0 18.88 12.04   L 15.76 8.83   A 1.45 1.44 -44.6 0 0 13.70 8.82   L 8.99 13.53   A 1.37 1.37 0.0 0 0 9.02 15.49   L 12.49 18.74   A 0.88 0.88 0.0 0 0 13.92 18.40   L 14.01 18.11   A 0.80 0.80 0.0 0 0 13.81 17.31   L 11.30 14.80   A 0.47 0.46 -45.4 0 1 11.30 14.15   L 14.35 11.11   A 0.71 0.71 0.0 0 1 15.36 11.11   L 15.59 11.34   A 0.44 0.44 0.0 0 1 15.59 11.96   L 14.23 13.32   A 0.33 0.32 5.9 0 0 14.64 13.82   Q 15.65 13.17 15.96 12.71   A 0.62 0.62 0.0 0 1 17.00 12.73   Q 17.74 13.94 18.45 14.08   A 0.29 0.29 0.0 0 1 18.60 14.57   L 10.31 22.86   A 0.74 0.73 -19.5 0 0 10.10 23.29   L 9.39 29.46   A 0.71 0.71 0.0 0 0 10.17 30.25   L 15.93 29.60   A 1.09 1.05 -69.7 0 0 16.57 29.29   L 27.60 18.26   A 0.60 0.59 -45.3 0 0 27.60 17.41   L 27.37 17.17   A 1.05 1.04 44.8 0 0 25.90 17.17   L 16.61 26.46   A 0.67 0.66 44.7 0 1 15.66 26.46   L 15.27 26.07   A 0.71 0.71 0.0 0 1 15.27 25.07   L 24.76 15.58   A 0.21 0.21 0.0 0 0 24.76 15.28   L 24.56 15.08   A 0.28 0.27 -44.3 0 0 24.17 15.08   L 14.70 24.55   A 0.69 0.69 0.0 0 1 13.72 24.55   L 13.08 23.91   A 0.60 0.59 44.7 0 1 13.07 23.07   L 22.46 13.40   A 1.02 1.00 -43.7 0 0 22.50 12.04   L 22.47 12.01   A 0.91 0.91 0.0 0 0 21.18 12.02   L 19.80 13.43   A 0.31 0.30 69.4 0 1 19.28 13.19" />
<path stroke="#b1b6d3" vector-effect="non-scaling-stroke" d="   M 23.32 11.68   L 27.94 16.53   A 1.15 1.15 0.0 0 0 29.57 16.57   L 30.56 15.62   A 3.06 2.91 -43.6 0 0 30.77 11.41   L 28.57 9.10   A 3.06 2.91 -43.6 0 0 24.35 9.11   L 23.36 10.05   A 1.15 1.15 0.0 0 0 23.32 11.68" />
<path stroke="#b1b6d3" vector-effect="non-scaling-stroke" d="   M 26.76 24.97   Q 26.79 24.95 27.22 24.29   A 0.50 0.49 38.8 0 1 27.99 24.21   L 28.61 24.82   A 0.52 0.52 0.0 0 1 28.61 25.56   L 25.88 28.29   A 0.68 0.67 45.9 0 1 24.91 28.27   Q 23.40 26.62 21.95 25.67   A 0.92 0.92 0.0 0 0 20.79 27.09   L 24.37 30.67   A 1.30 1.30 0.0 0 0 26.21 30.67   L 30.91 25.97   A 1.38 1.38 0.0 0 0 30.90 24.00   L 27.52 20.70   A 1.00 1.00 0.0 0 0 25.87 21.69   Q 26.00 22.13 26.71 22.89   Q 27.09 23.30 27.02 23.72   C 26.95 24.14 26.05 24.11 26.07 24.57   Q 26.08 24.82 26.19 24.96   Q 26.41 25.24 26.76 24.97" />
<path stroke="#b1b6d3" vector-effect="non-scaling-stroke" d="   M 12.47 26.14   A 1.04 0.82 65.9 0 0 12.02 27.94   Q 12.40 28.20 12.94 27.98   A 0.61 0.61 0.0 0 0 13.29 27.25   Q 13.03 26.35 12.47 26.14" />
<path stroke="#b1b6d3" vector-effect="non-scaling-stroke" d="   M 29.4197 13.8788   A 0.67 0.67 0.0 0 0 29.4131 12.9313   L 26.8640 10.4176   A 0.67 0.67 0.0 0 0 25.9165 10.4242   L 25.8603 10.4812   A 0.67 0.67 0.0 0 0 25.8669 11.4287   L 28.4160 13.9424   A 0.67 0.67 0.0 0 0 29.3635 13.9358   L 29.4197 13.8788" />
</g>
<path fill="#8680ab" d="   M 29.76 0.00   Q 36.62 1.29 38.00 8.15   L 38.00 29.88   Q 36.63 36.60 29.93 38.00   L 8.12 38.00   Q 1.40 36.64 0.00 29.93   L 0.00 8.13   Q 1.36 1.36 8.13 0.00   L 29.76 0.00   Z   M 36.0369 9.3297   A 7.33 7.33 0.0 0 0 28.7197 1.9869   L 9.3397 1.9531   A 7.33 7.33 0.0 0 0 1.9969 9.2703   L 1.9631 28.6503   A 7.33 7.33 0.0 0 0 9.2803 35.9931   L 28.6603 36.0269   A 7.33 7.33 0.0 0 0 36.0031 28.7097   L 36.0369 9.3297   Z" />
<path fill="#dcebfa" d="   M 36.0031 28.7097   A 7.33 7.33 0.0 0 1 28.6603 36.0269   L 9.2803 35.9931   A 7.33 7.33 0.0 0 1 1.9631 28.6503   L 1.9969 9.2703   A 7.33 7.33 0.0 0 1 9.3397 1.9531   L 28.7197 1.9869   A 7.33 7.33 0.0 0 1 36.0369 9.3297   L 36.0031 28.7097   Z   M 19.28 13.19   Q 19.29 13.01 19.29 13.00   A 1.45 1.45 0.0 0 0 18.88 12.04   L 15.76 8.83   A 1.45 1.44 -44.6 0 0 13.70 8.82   L 8.99 13.53   A 1.37 1.37 0.0 0 0 9.02 15.49   L 12.49 18.74   A 0.88 0.88 0.0 0 0 13.92 18.40   L 14.01 18.11   A 0.80 0.80 0.0 0 0 13.81 17.31   L 11.30 14.80   A 0.47 0.46 -45.4 0 1 11.30 14.15   L 14.35 11.11   A 0.71 0.71 0.0 0 1 15.36 11.11   L 15.59 11.34   A 0.44 0.44 0.0 0 1 15.59 11.96   L 14.23 13.32   A 0.33 0.32 5.9 0 0 14.64 13.82   Q 15.65 13.17 15.96 12.71   A 0.62 0.62 0.0 0 1 17.00 12.73   Q 17.74 13.94 18.45 14.08   A 0.29 0.29 0.0 0 1 18.60 14.57   L 10.31 22.86   A 0.74 0.73 -19.5 0 0 10.10 23.29   L 9.39 29.46   A 0.71 0.71 0.0 0 0 10.17 30.25   L 15.93 29.60   A 1.09 1.05 -69.7 0 0 16.57 29.29   L 27.60 18.26   A 0.60 0.59 -45.3 0 0 27.60 17.41   L 27.37 17.17   A 1.05 1.04 44.8 0 0 25.90 17.17   L 16.61 26.46   A 0.67 0.66 44.7 0 1 15.66 26.46   L 15.27 26.07   A 0.71 0.71 0.0 0 1 15.27 25.07   L 24.76 15.58   A 0.21 0.21 0.0 0 0 24.76 15.28   L 24.56 15.08   A 0.28 0.27 -44.3 0 0 24.17 15.08   L 14.70 24.55   A 0.69 0.69 0.0 0 1 13.72 24.55   L 13.08 23.91   A 0.60 0.59 44.7 0 1 13.07 23.07   L 22.46 13.40   A 1.02 1.00 -43.7 0 0 22.50 12.04   L 22.47 12.01   A 0.91 0.91 0.0 0 0 21.18 12.02   L 19.80 13.43   A 0.31 0.30 69.4 0 1 19.28 13.19   Z   M 23.32 11.68   L 27.94 16.53   A 1.15 1.15 0.0 0 0 29.57 16.57   L 30.56 15.62   A 3.06 2.91 -43.6 0 0 30.77 11.41   L 28.57 9.10   A 3.06 2.91 -43.6 0 0 24.35 9.11   L 23.36 10.05   A 1.15 1.15 0.0 0 0 23.32 11.68   Z   M 26.76 24.97   Q 26.79 24.95 27.22 24.29   A 0.50 0.49 38.8 0 1 27.99 24.21   L 28.61 24.82   A 0.52 0.52 0.0 0 1 28.61 25.56   L 25.88 28.29   A 0.68 0.67 45.9 0 1 24.91 28.27   Q 23.40 26.62 21.95 25.67   A 0.92 0.92 0.0 0 0 20.79 27.09   L 24.37 30.67   A 1.30 1.30 0.0 0 0 26.21 30.67   L 30.91 25.97   A 1.38 1.38 0.0 0 0 30.90 24.00   L 27.52 20.70   A 1.00 1.00 0.0 0 0 25.87 21.69   Q 26.00 22.13 26.71 22.89   Q 27.09 23.30 27.02 23.72   C 26.95 24.14 26.05 24.11 26.07 24.57   Q 26.08 24.82 26.19 24.96   Q 26.41 25.24 26.76 24.97   Z" />
<path fill="#8680ab" d="   M 19.80 13.43   L 21.18 12.02   A 0.91 0.91 0.0 0 1 22.47 12.01   L 22.50 12.04   A 1.02 1.00 -43.7 0 1 22.46 13.40   L 13.07 23.07   A 0.60 0.59 44.7 0 0 13.08 23.91   L 13.72 24.55   A 0.69 0.69 0.0 0 0 14.70 24.55   L 24.17 15.08   A 0.28 0.27 -44.3 0 1 24.56 15.08   L 24.76 15.28   A 0.21 0.21 0.0 0 1 24.76 15.58   L 15.27 25.07   A 0.71 0.71 0.0 0 0 15.27 26.07   L 15.66 26.46   A 0.67 0.66 44.7 0 0 16.61 26.46   L 25.90 17.17   A 1.05 1.04 44.8 0 1 27.37 17.17   L 27.60 17.41   A 0.60 0.59 -45.3 0 1 27.60 18.26   L 16.57 29.29   A 1.09 1.05 -69.7 0 1 15.93 29.60   L 10.17 30.25   A 0.71 0.71 0.0 0 1 9.39 29.46   L 10.10 23.29   A 0.74 0.73 -19.5 0 1 10.31 22.86   L 18.60 14.57   A 0.29 0.29 0.0 0 0 18.45 14.08   Q 17.74 13.94 17.00 12.73   A 0.62 0.62 0.0 0 0 15.96 12.71   Q 15.65 13.17 14.64 13.82   A 0.33 0.32 5.9 0 1 14.23 13.32   L 15.59 11.96   A 0.44 0.44 0.0 0 0 15.59 11.34   L 15.36 11.11   A 0.71 0.71 0.0 0 0 14.35 11.11   L 11.30 14.15   A 0.47 0.46 -45.4 0 0 11.30 14.80   L 13.81 17.31   A 0.80 0.80 0.0 0 1 14.01 18.11   L 13.92 18.40   A 0.88 0.88 0.0 0 1 12.49 18.74   L 9.02 15.49   A 1.37 1.37 0.0 0 1 8.99 13.53   L 13.70 8.82   A 1.45 1.44 -44.6 0 1 15.76 8.83   L 18.88 12.04   A 1.45 1.45 0.0 0 1 19.29 13.00   Q 19.29 13.01 19.28 13.19   A 0.31 0.30 69.4 0 0 19.80 13.43   Z   M 12.47 26.14   A 1.04 0.82 65.9 0 0 12.02 27.94   Q 12.40 28.20 12.94 27.98   A 0.61 0.61 0.0 0 0 13.29 27.25   Q 13.03 26.35 12.47 26.14   Z" />
<path fill="#8680ab" d="   M 23.32 11.68   A 1.15 1.15 0.0 0 1 23.36 10.05   L 24.35 9.11   A 3.06 2.91 -43.6 0 1 28.57 9.10   L 30.77 11.41   A 3.06 2.91 -43.6 0 1 30.56 15.62   L 29.57 16.57   A 1.15 1.15 0.0 0 1 27.94 16.53   L 23.32 11.68   Z   M 29.4197 13.8788   A 0.67 0.67 0.0 0 0 29.4131 12.9313   L 26.8640 10.4176   A 0.67 0.67 0.0 0 0 25.9165 10.4242   L 25.8603 10.4812   A 0.67 0.67 0.0 0 0 25.8669 11.4287   L 28.4160 13.9424   A 0.67 0.67 0.0 0 0 29.3635 13.9358   L 29.4197 13.8788   Z" />
<rect fill="#dcebfa" x="-2.46" y="-0.71" transform="translate(27.64,12.18) rotate(44.6)" width="4.92" height="1.42" rx="0.67" />
<path fill="#8680ab" d="   M 26.19 24.96   Q 26.08 24.82 26.07 24.57   C 26.05 24.11 26.95 24.14 27.02 23.72   Q 27.09 23.30 26.71 22.89   Q 26.00 22.13 25.87 21.69   A 1.00 1.00 0.0 0 1 27.52 20.70   L 30.90 24.00   A 1.38 1.38 0.0 0 1 30.91 25.97   L 26.21 30.67   A 1.30 1.30 0.0 0 1 24.37 30.67   L 20.79 27.09   A 0.92 0.92 0.0 0 1 21.95 25.67   Q 23.40 26.62 24.91 28.27   A 0.68 0.67 45.9 0 0 25.88 28.29   L 28.61 25.56   A 0.52 0.52 0.0 0 0 28.61 24.82   L 27.99 24.21   A 0.50 0.49 38.8 0 0 27.22 24.29   Q 26.79 24.95 26.76 24.97   Q 26.41 25.24 26.19 24.96   Z" />
<path fill="#dcebfa" d="   M 12.47 26.14   Q 13.03 26.35 13.29 27.25   A 0.61 0.61 0.0 0 1 12.94 27.98   Q 12.40 28.20 12.02 27.94   A 1.04 0.82 65.9 0 1 12.47 26.14   Z" />
</g></svg>