<?xml version="1.0" encoding="UTF-8" standalone="no"?>
<!-- Created with Inkscape (http://www.inkscape.org/) -->
<svg
   xmlns:svg="http://www.w3.org/2000/svg"
   xmlns="http://www.w3.org/2000/svg"
   version="1.0"
   id="svg2" width="20" height="20" viewBox="0 0 3000.0 2400.0">
  <defs
     id="defs4" />
  <g
     id="layer1" />
  <path
     d="M 0,200 C -1.3526628e-014,89.54305 89.54305,2.0289942e-014 200,0 L 2800,0 C 2910.4569,6.7633141e-015 3000,89.54305 3000,200 L 3000,2200 C 3000,2310.4569 2910.4569,2400 2800,2400 L 200,2400 C 89.54305,2400 1.3526628e-014,2310.4569 0,2200 L 0,200 z "
     style="fill:#ffffff;fill-opacity:1;fill-rule:evenodd;stroke:#000000;stroke-width:1;stroke-linecap:butt;stroke-linejoin:miter;stroke-opacity:1"
     id="path1407" />
  <path
     d="M 50,200 C 50,117.15729 117.15729,50 200,50 L 2800,50 C 2882.8427,50 2950,117.15729 2950,200 L 2950,2200 C 2950,2282.8427 2882.8427,2350 2800,2350 L 200,2350 C 117.15729,2350 50,2282.8427 50,2200 L 50,200 z "
     style="fill:#000000;fill-opacity:1;fill-rule:evenodd;stroke:#000000;stroke-width:1px;stroke-linecap:butt;stroke-linejoin:miter;stroke-opacity:1"
     id="path1341" />
  <path
     d="M 200,100 L 2800,100 C 2855.2285,100 2900,144.77153 2900,200 L 2900,725 L 100,725 L 100,200 C 100,144.77153 144.77153,100 200,100 z "
     style="fill:#ffffff;fill-opacity:1;fill-rule:evenodd;stroke:#000000;stroke-width:1px;stroke-linecap:butt;stroke-linejoin:miter;stroke-opacity:1"
     id="path10350" />
  <path
     d="M 100,850 L 2900,850 L 2900,2200 C 2900,2255.2285 2855.2285,2300 2800,2300 L 200,2300 C 144.77153,2300 100,2255.2285 100,2200 L 100,850 z "
     style="fill:#ffffff;fill-opacity:1;fill-rule:evenodd;stroke:#000000;stroke-width:1px;stroke-linecap:butt;stroke-linejoin:miter;stroke-opacity:1"
     id="path1343" />
  <path
     d="M 633.35625,562.5 L 633.35625,387.9 L 563.60625,562.5 L 493.85625,387.9 L 493.85625,562.5 L 446.15625,562.5 L 446.15625,261 L 493.85625,261 L 563.60625,430.2 L 633.35625,261 L 681.05625,261 L 681.05625,562.5 L 633.35625,562.5 M 930.64453,562.5 L 900.94453,477.9 L 806.89453,477.9 L 777.19453,562.5 L 726.34453,562.5 L 830.29453,261 L 877.54453,261 L 981.49453,562.5 L 930.64453,562.5 M 854.59453,344.7 L 823.54453,429.3 L 883.84453,429.3 L 854.59453,344.7 M 1180.5633,562.5 L 1131.9633,431.1 L 1074.8133,431.1 L 1074.8133,562.5 L 1027.1133,562.5 L 1027.1133,261 L 1126.5633,261 C 1138.2631,261.0003 1148.3131,261.7503 1156.7133,263.25 C 1165.1131,264.4503 1173.0631,266.8503 1180.5633,270.45 C 1187.1631,273.75029 1193.1631,278.10028 1198.5633,283.5 C 1204.2631,288.60027 1209.0631,294.60027 1212.9633,301.5 C 1217.1631,308.10025 1220.3131,315.30025 1222.4133,323.1 C 1224.813,330.60023 1226.013,338.10022 1226.0133,345.6 C 1226.013,353.70021 1224.813,361.6502 1222.4133,369.45 C 1220.3131,376.95019 1217.1631,384.15018 1212.9633,391.05 C 1209.0631,397.65016 1204.1131,403.65016 1198.1133,409.05 C 1192.4131,414.45015 1186.1131,418.65014 1179.2133,421.65 L 1232.3133,562.5 L 1180.5633,562.5 M 1178.3133,345.6 C 1178.3131,339.30022 1176.6631,333.30023 1173.3633,327.6 C 1170.0631,321.90024 1165.4131,317.40025 1159.4133,314.1 C 1155.5131,312.00025 1151.9131,310.65025 1148.6133,310.05 C 1145.3131,309.15025 1139.7631,308.70025 1131.9633,308.7 L 1074.8133,308.7 L 1074.8133,382.5 L 1131.9633,382.5 C 1139.4631,382.50018 1144.8631,382.20018 1148.1633,381.6 C 1151.7631,381.00018 1155.5131,379.65018 1159.4133,377.55 C 1165.4131,374.25019 1170.0631,369.75019 1173.3633,364.05 C 1176.6631,358.0502 1178.3131,351.90021 1178.3133,345.6 M 1415.175,431.1 L 1415.175,562.5 L 1367.475,562.5 L 1367.475,431.1 L 1261.725,261 L 1318.875,261 L 1390.875,377.55 L 1463.775,261 L 1520.025,261 L 1415.175,431.1 M 1572.0352,562.5 L 1572.0352,261 L 1619.7352,261 L 1619.7352,517.95 L 1759.2352,517.95 L 1759.2352,562.5 L 1572.0352,562.5 M 1981.8164,562.5 L 1952.1164,477.9 L 1858.0664,477.9 L 1828.3664,562.5 L 1777.5164,562.5 L 1881.4664,261 L 1928.7164,261 L 2032.6664,562.5 L 1981.8164,562.5 M 1905.7664,344.7 L 1874.7164,429.3 L 1935.0164,429.3 L 1905.7664,344.7 M 2241.1852,562.5 L 2125.9852,358.2 L 2125.9852,562.5 L 2078.2852,562.5 L 2078.2852,261 L 2125.9852,261 L 2235.7852,453.6 L 2235.7852,261 L 2283.4852,261 L 2283.4852,562.5 L 2241.1852,562.5 M 2560.3406,411.3 C 2560.3404,441.60012 2555.6904,468.30009 2546.3906,491.4 C 2537.3904,514.20005 2524.3404,532.20003 2507.2406,545.4 C 2501.5404,550.80001 2494.7904,554.85001 2486.9906,557.55 C 2479.4905,560.25 2471.8405,561.9 2464.0406,562.5 L 2446.9406,562.5 L 2355.1406,562.5 L 2355.1406,261 L 2452.3406,261 C 2459.8405,261.0003 2466.2905,261.3003 2471.6906,261.9 C 2477.3905,262.2003 2482.4905,262.9503 2486.9906,264.15 C 2491.4905,265.3503 2495.5404,267.0003 2499.1406,269.1 C 2502.7404,271.20029 2506.6404,273.75029 2510.8406,276.75 C 2526.7404,290.55027 2538.8904,309.00025 2547.2906,332.1 C 2555.9904,354.90021 2560.3404,381.30018 2560.3406,411.3 M 2511.7406,411.3 C 2511.7404,390.90017 2509.4904,372.75019 2504.9906,356.85 C 2500.7904,340.95022 2494.9404,329.10023 2487.4406,321.3 C 2483.5405,317.70024 2479.0405,314.70025 2473.9406,312.3 C 2468.8405,309.90025 2463.1405,308.70025 2456.8406,308.7 L 2402.8406,308.7 L 2402.8406,513.9 L 2450.5406,513.9 C 2458.3405,513.90005 2464.7905,513.00005 2469.8906,511.2 C 2475.2905,509.40005 2480.0905,506.40006 2484.2906,502.2 C 2493.2905,493.20007 2500.0404,480.90008 2504.5406,465.3 C 2509.3404,449.40011 2511.7404,431.40013 2511.7406,411.3"
     style="font-size:450px;font-style:normal;font-variant:normal;font-weight:normal;font-stretch:normal;text-align:center;line-height:125%;writing-mode:lr-tb;text-anchor:middle;fill:#000000;fill-opacity:1;stroke:none;stroke-width:1px;stroke-linecap:butt;stroke-linejoin:miter;stroke-opacity:1;font-family:Roadgeek 2005 Series D"
     id="text2947" />
</svg>
