<?xml version="1.0" encoding="UTF-8" standalone="no"?>
<!-- Created with Inkscape (http://www.inkscape.org/) -->

<svg
   xmlns:dc="http://purl.org/dc/elements/1.1/"
   xmlns:cc="http://creativecommons.org/ns#"
   xmlns:rdf="http://www.w3.org/1999/02/22-rdf-syntax-ns#"
   xmlns:svg="http://www.w3.org/2000/svg"
   xmlns="http://www.w3.org/2000/svg"
   version="1.0"
   id="svg2"
   style="display:inline" width="20" height="20" viewBox="0 0 515.98828 600.0">
  <metadata
     id="metadata15">
    <rdf:RDF>
      <cc:Work
         rdf:about="">
        <dc:format>image/svg+xml</dc:format>
        <dc:type
           rdf:resource="http://purl.org/dc/dcmitype/StillImage" />
        <dc:title></dc:title>
      </cc:Work>
    </rdf:RDF>
  </metadata>
  <defs
     id="defs18051" />
  <path
     d="m 257.99415,0.01359817 c -7.58091,-0.052 -20.17101,0.0087 -27.74937,0.8437 C 187.49306,5.5683982 153.62964,22.181998 116.80985,44.168798 84.646679,63.374998 60.231494,80.999198 0,81.105498 L 0,507.4708 c 0,11.8739 9.6960805,26.6149 20.812028,30.1869 0,0 237.182122,62.3423 237.182122,62.3423 0,0 237.18212,-62.3423 237.18212,-62.3423 11.11593,-3.572 20.81204,-18.313 20.81204,-30.1869 l 0,-426.365302 c -60.23148,-0.1063 -84.64663,-17.7305 -116.80983,-36.9367 C 362.3587,22.181998 328.49524,5.5683982 285.74352,0.85729817 c -7.57835,-0.835 -20.16845,-0.8957 -27.74937,-0.8437 z"
     id="path4804"
     style="fill:#000000;stroke:none" />
  <path
     d="m 257.99342,19.747798 c -53.9569,0 -88.80827,16.3999 -121.89693,35.8443 -33.08866,19.4444 -64.214712,42.4351 -116.359648,44.1228 l 0,407.763102 c 0,2.9815 2.826561,10.2307 8.881579,11.8531 0,0 229.374999,60.1425 229.374999,60.1425 0,0 229.37499,-60.1425 229.37499,-60.1425 6.05502,-1.6224 8.88158,-8.8716 8.88158,-11.8531 l 0,-407.763102 c -52.14491,-1.6877 -83.26003,-24.6784 -116.34866,-44.1228 -33.08869,-19.4444 -67.95099,-35.8443 -121.90791,-35.8443 z"
     id="path2628"
     style="fill:#ffffff;stroke:none" />
  <path
     d="m 258.00438,29.605198 c -59.62095,0 -102.16612,25.0738 -119.57236,36.4035 C 99.417332,91.403498 60.474371,108.1199 29.605263,109.2215 l 0,391.6227 c 0,7.9013 0.115189,8.0982 6.271929,9.7479 0,0 222.127188,58.8596 222.127188,58.8596 0,0 222.11621,-58.8596 222.11624,-58.8596 6.15674,-1.6497 6.2719,-1.8466 6.27193,-9.7479 l 0,-391.6227 c -30.86915,-1.1016 -69.8121,-17.818002 -108.82677,-43.212802 -17.40624,-11.3297 -59.94044,-36.4035 -119.5614,-36.4035 z"
     id="path2630"
     style="fill:none;stroke:#000000;stroke-width:7.8947401;stroke-linecap:butt;stroke-linejoin:miter;stroke-miterlimit:2;stroke-dasharray:none" />
  <path
     d="m 193.84675,157.4874 33.1579,59.6179 15.78945,0 0,-94.7369 -15.78945,0 0,59.3847 -33.1579,-59.3847 -15.78947,0 0,94.7369 15.78947,0 0,-59.6179 z"
     id="path3425"
     style="fill:#000000;stroke:none" />
  <path
     d="m 258.25579,213.1579 c 0,2.1789 -1.76843,3.9473 -3.94737,3.9473 -2.17895,0 -3.94737,-1.7684 -3.94737,-3.9473 0,-2.179 1.76842,-3.9474 3.94737,-3.9474 2.17894,0 3.94737,1.7684 3.94737,3.9474 z"
     id="path2420"
     style="fill:#000000;stroke:none" />
  <path
     d="m 271.61522,122.3684 25.26316,57.3475 0,37.3894 15.78947,0 0,-37.3894 25.26316,-57.3475 -19.57894,0 -13.23137,32.2572 -13.92653,-32.2572 -19.57895,0 z"
     id="path3421"
     style="fill:#000000;stroke:none" />
  <path
     d="m 328.95719,213.1579 c 0,2.1789 -1.76843,3.9473 -3.94737,3.9473 -2.17895,0 -3.94737,-1.7684 -3.94737,-3.9473 0,-2.179 1.76842,-3.9474 3.94737,-3.9474 2.17894,0 3.94737,1.7684 3.94737,3.9474 z"
     id="path2422"
     style="fill:#000000;stroke:none" />
</svg>
