<?xml version="1.0" encoding="UTF-8" standalone="no"?>
<!DOCTYPE svg PUBLIC "-//W3C//DTD SVG 1.1//EN" "http://www.w3.org/Graphics/SVG/1.1/DTD/svg11.dtd">
<svg xmlns="http://www.w3.org/2000/svg" version="1.1" viewBox="0.00 0.00 38.00 38.00" width="19" height="19">
<g stroke-width="2.00" fill="none" stroke-linecap="butt">
<path stroke="#b1b6d3" vector-effect="non-scaling-stroke" d="
  M 36.0031 9.2703
  A 7.33 7.33 0.0 0 0 28.6603 1.9531
  L 9.2803 1.9869
  A 7.33 7.33 0.0 0 0 1.9631 9.3297
  L 1.9969 28.7097
  A 7.33 7.33 0.0 0 0 9.3397 36.0269
  L 28.7197 35.9931
  A 7.33 7.33 0.0 0 0 36.0369 28.6503
  L 36.0031 9.2703"
/>
<path stroke="#b1b6d3" vector-effect="non-scaling-stroke" d="
  M 21.3678 8.8517
  A 0.39 0.39 0.0 0 0 20.9765 8.4631
  L 16.9965 8.4770
  A 0.39 0.39 0.0 0 0 16.6079 8.8683
  L 16.6122 10.1083
  A 0.39 0.39 0.0 0 0 17.0035 10.4969
  L 20.9835 10.4830
  A 0.39 0.39 0.0 0 0 21.3721 10.0917
  L 21.3678 8.8517"
/>
<path stroke="#b1b6d3" vector-effect="non-scaling-stroke" d="
  M 14.0317 9.5255
  A 0.66 0.66 0.0 0 0 13.2570 9.0049
  L 10.0580 9.6325
  A 0.66 0.66 0.0 0 0 9.5374 10.4072
  L 9.6683 11.0745
  A 0.66 0.66 0.0 0 0 10.4430 11.5951
  L 13.6420 10.9675
  A 0.66 0.66 0.0 0 0 14.1626 10.1928
  L 14.0317 9.5255"
/>
<path stroke="#b1b6d3" vector-effect="non-scaling-stroke" d="
  M 29.1322 10.8891
  A 0.94 0.94 0.0 0 0 28.4062 9.7754
  L 25.1380 9.0867
  A 0.94 0.94 0.0 0 0 24.0243 9.8127
  L 24.0078 9.8909
  A 0.94 0.94 0.0 0 0 24.7338 11.0046
  L 28.0020 11.6933
  A 0.94 0.94 0.0 0 0 29.1157 10.9673
  L 29.1322 10.8891"
/>
<path stroke="#b1b6d3" vector-effect="non-scaling-stroke" d="
  M 7.19 21.19
  Q 7.18 24.84 7.22 25.07
  A 3.90 3.90 0.0 0 0 9.51 28.03
  C 12.53 29.35 15.67 29.43 19.05 29.44
  C 22.42 29.44 25.56 29.37 28.59 28.05
  A 3.90 3.90 0.0 0 0 30.89 25.10
  Q 30.93 24.87 30.93 21.21
  Q 30.93 17.56 30.89 17.33
  A 3.90 3.90 0.0 0 0 28.60 14.37
  C 25.58 13.05 22.44 12.97 19.07 12.96
  C 15.69 12.96 12.55 13.04 9.53 14.35
  A 3.90 3.90 0.0 0 0 7.23 17.30
  Q 7.19 17.53 7.19 21.19"
/>
<path stroke="#a9accc" vector-effect="non-scaling-stroke" d="
  M 19.04 16.27
  C 21.39 16.28 25.21 15.83 26.21 18.34
  A 0.52 0.51 64.8 0 0 26.94 18.61
  Q 28.29 17.89 28.50 17.44
  A 1.30 1.08 18.0 0 0 27.51 15.86
  Q 23.86 15.03 19.04 15.03
  Q 14.23 15.02 10.57 15.84
  A 1.30 1.08 -17.8 0 0 9.58 17.42
  Q 9.79 17.87 11.14 18.59
  A 0.52 0.51 -64.6 0 0 11.86 18.33
  C 12.87 15.81 16.69 16.27 19.04 16.27"
/>
<path stroke="#a9accc" vector-effect="non-scaling-stroke" d="
  M 24.05 18.18
  L 13.95 18.18
  A 0.12 0.12 0.0 0 0 13.83 18.30
  L 13.83 18.45
  A 5.03 0.85 0.0 0 0 18.86 19.30
  L 19.14 19.30
  A 5.03 0.85 -0.0 0 0 24.17 18.45
  L 24.17 18.30
  A 0.12 0.12 0.0 0 0 24.05 18.18"
/>
<path stroke="#a9accc" vector-effect="non-scaling-stroke" d="
  M 11.43 26.03
  L 11.43 21.16
  A 0.94 0.93 -76.4 0 0 10.93 20.33
  L 9.97 19.83
  A 0.42 0.42 0.0 0 0 9.35 20.17
  Q 9.01 23.86 10.10 26.31
  A 0.69 0.69 0.0 0 0 11.43 26.03"
/>
<path stroke="#a9accc" vector-effect="non-scaling-stroke" d="
  M 27.08 25.67
  A 0.64 0.64 0.0 0 0 28.31 25.91
  Q 29.27 23.62 28.89 20.22
  A 0.39 0.39 0.0 0 0 28.31 19.92
  L 27.43 20.40
  A 0.87 0.86 75.2 0 0 26.98 21.18
  L 27.08 25.67"
/>
<path stroke="#a9accc" vector-effect="non-scaling-stroke" d="
  M 19.27 21.27
  Q 16.79 21.30 14.25 21.00
  A 0.64 0.64 0.0 0 0 13.54 21.64
  L 13.54 26.71
  A 0.73 0.73 0.0 0 0 14.27 27.44
  L 15.73 27.44
  A 0.49 0.48 90.0 0 0 16.21 26.95
  L 16.21 24.59
  A 0.76 0.76 0.0 0 1 16.92 23.83
  Q 17.87 23.77 19.30 23.75
  Q 20.73 23.74 21.68 23.79
  A 0.76 0.76 0.0 0 1 22.40 24.53
  L 22.45 26.89
  A 0.49 0.48 88.9 0 0 22.94 27.37
  L 24.40 27.34
  A 0.73 0.73 0.0 0 0 25.12 26.59
  L 25.01 21.53
  A 0.64 0.64 0.0 0 0 24.29 20.90
  Q 21.76 21.25 19.27 21.27"
/>
<path stroke="#a9accc" vector-effect="non-scaling-stroke" d="
  M 19.94 25.76
  Q 19.38 25.61 18.83 25.74
  A 0.91 0.90 -46.8 0 0 18.87 27.51
  Q 19.37 27.59 19.89 27.51
  A 0.91 0.88 47.5 0 0 19.94 25.76"
/>
</g>
<path fill="#8680ab" d="
  M 29.76 0.00
  Q 36.63 1.29 38.00 8.15
  L 38.00 29.88
  Q 36.63 36.60 29.93 38.00
  L 8.12 38.00
  Q 1.40 36.65 0.00 29.93
  L 0.00 8.13
  Q 1.36 1.36 8.13 0.00
  L 29.76 0.00
  Z
  M 36.0031 9.2703
  A 7.33 7.33 0.0 0 0 28.6603 1.9531
  L 9.2803 1.9869
  A 7.33 7.33 0.0 0 0 1.9631 9.3297
  L 1.9969 28.7097
  A 7.33 7.33 0.0 0 0 9.3397 36.0269
  L 28.7197 35.9931
  A 7.33 7.33 0.0 0 0 36.0369 28.6503
  L 36.0031 9.2703
  Z"
/>
<path fill="#dcebfa" d="
  M 36.0369 28.6503
  A 7.33 7.33 0.0 0 1 28.7197 35.9931
  L 9.3397 36.0269
  A 7.33 7.33 0.0 0 1 1.9969 28.7097
  L 1.9631 9.3297
  A 7.33 7.33 0.0 0 1 9.2803 1.9869
  L 28.6603 1.9531
  A 7.33 7.33 0.0 0 1 36.0031 9.2703
  L 36.0369 28.6503
  Z
  M 21.3678 8.8517
  A 0.39 0.39 0.0 0 0 20.9765 8.4631
  L 16.9965 8.4770
  A 0.39 0.39 0.0 0 0 16.6079 8.8683
  L 16.6122 10.1083
  A 0.39 0.39 0.0 0 0 17.0035 10.4969
  L 20.9835 10.4830
  A 0.39 0.39 0.0 0 0 21.3721 10.0917
  L 21.3678 8.8517
  Z
  M 14.0317 9.5255
  A 0.66 0.66 0.0 0 0 13.2570 9.0049
  L 10.0580 9.6325
  A 0.66 0.66 0.0 0 0 9.5374 10.4072
  L 9.6683 11.0745
  A 0.66 0.66 0.0 0 0 10.4430 11.5951
  L 13.6420 10.9675
  A 0.66 0.66 0.0 0 0 14.1626 10.1928
  L 14.0317 9.5255
  Z
  M 29.1322 10.8891
  A 0.94 0.94 0.0 0 0 28.4062 9.7754
  L 25.1380 9.0867
  A 0.94 0.94 0.0 0 0 24.0243 9.8127
  L 24.0078 9.8909
  A 0.94 0.94 0.0 0 0 24.7338 11.0046
  L 28.0020 11.6933
  A 0.94 0.94 0.0 0 0 29.1157 10.9673
  L 29.1322 10.8891
  Z
  M 7.19 21.19
  Q 7.18 24.84 7.22 25.07
  A 3.90 3.90 0.0 0 0 9.51 28.03
  C 12.53 29.35 15.67 29.43 19.05 29.44
  C 22.42 29.44 25.56 29.37 28.59 28.05
  A 3.90 3.90 0.0 0 0 30.89 25.10
  Q 30.93 24.87 30.93 21.21
  Q 30.93 17.56 30.89 17.33
  A 3.90 3.90 0.0 0 0 28.60 14.37
  C 25.58 13.05 22.44 12.97 19.07 12.96
  C 15.69 12.96 12.55 13.04 9.53 14.35
  A 3.90 3.90 0.0 0 0 7.23 17.30
  Q 7.19 17.53 7.19 21.19
  Z"
/>
<rect fill="#8680ab" x="-2.38" y="-1.01" transform="translate(18.99,9.48) rotate(-0.2)" width="4.76" height="2.02" rx="0.39"/>
<rect fill="#8680ab" x="-2.29" y="-1.00" transform="translate(11.85,10.30) rotate(-11.1)" width="4.58" height="2.00" rx="0.66"/>
<rect fill="#8680ab" x="-2.61" y="-0.98" transform="translate(26.57,10.39) rotate(11.9)" width="5.22" height="1.96" rx="0.94"/>
<path fill="#8680ab" d="
  M 19.07 12.96
  C 22.44 12.97 25.58 13.05 28.60 14.37
  A 3.90 3.90 0.0 0 1 30.89 17.33
  Q 30.93 17.56 30.93 21.21
  Q 30.93 24.87 30.89 25.10
  A 3.90 3.90 0.0 0 1 28.59 28.05
  C 25.56 29.37 22.42 29.44 19.05 29.44
  C 15.67 29.43 12.53 29.35 9.51 28.03
  A 3.90 3.90 0.0 0 1 7.22 25.07
  Q 7.18 24.84 7.19 21.19
  Q 7.19 17.53 7.23 17.30
  A 3.90 3.90 0.0 0 1 9.53 14.35
  C 12.55 13.04 15.69 12.96 19.07 12.96
  Z
  M 19.04 16.27
  C 21.39 16.28 25.21 15.83 26.21 18.34
  A 0.52 0.51 64.8 0 0 26.94 18.61
  Q 28.29 17.89 28.50 17.44
  A 1.30 1.08 18.0 0 0 27.51 15.86
  Q 23.86 15.03 19.04 15.03
  Q 14.23 15.02 10.57 15.84
  A 1.30 1.08 -17.8 0 0 9.58 17.42
  Q 9.79 17.87 11.14 18.59
  A 0.52 0.51 -64.6 0 0 11.86 18.33
  C 12.87 15.81 16.69 16.27 19.04 16.27
  Z
  M 24.05 18.18
  L 13.95 18.18
  A 0.12 0.12 0.0 0 0 13.83 18.30
  L 13.83 18.45
  A 5.03 0.85 0.0 0 0 18.86 19.30
  L 19.14 19.30
  A 5.03 0.85 -0.0 0 0 24.17 18.45
  L 24.17 18.30
  A 0.12 0.12 0.0 0 0 24.05 18.18
  Z
  M 11.43 26.03
  L 11.43 21.16
  A 0.94 0.93 -76.4 0 0 10.93 20.33
  L 9.97 19.83
  A 0.42 0.42 0.0 0 0 9.35 20.17
  Q 9.01 23.86 10.10 26.31
  A 0.69 0.69 0.0 0 0 11.43 26.03
  Z
  M 27.08 25.67
  A 0.64 0.64 0.0 0 0 28.31 25.91
  Q 29.27 23.62 28.89 20.22
  A 0.39 0.39 0.0 0 0 28.31 19.92
  L 27.43 20.40
  A 0.87 0.86 75.2 0 0 26.98 21.18
  L 27.08 25.67
  Z
  M 19.27 21.27
  Q 16.79 21.30 14.25 21.00
  A 0.64 0.64 0.0 0 0 13.54 21.64
  L 13.54 26.71
  A 0.73 0.73 0.0 0 0 14.27 27.44
  L 15.73 27.44
  A 0.49 0.48 90.0 0 0 16.21 26.95
  L 16.21 24.59
  A 0.76 0.76 0.0 0 1 16.92 23.83
  Q 17.87 23.77 19.30 23.75
  Q 20.73 23.74 21.68 23.79
  A 0.76 0.76 0.0 0 1 22.40 24.53
  L 22.45 26.89
  A 0.49 0.48 88.9 0 0 22.94 27.37
  L 24.40 27.34
  A 0.73 0.73 0.0 0 0 25.12 26.59
  L 25.01 21.53
  A 0.64 0.64 0.0 0 0 24.29 20.90
  Q 21.76 21.25 19.27 21.27
  Z
  M 19.94 25.76
  Q 19.38 25.61 18.83 25.74
  A 0.91 0.90 -46.8 0 0 18.87 27.51
  Q 19.37 27.59 19.89 27.51
  A 0.91 0.88 47.5 0 0 19.94 25.76
  Z"
/>
<path fill="#ccd8ec" d="
  M 19.04 15.03
  Q 23.86 15.03 27.51 15.86
  A 1.30 1.08 18.0 0 1 28.50 17.44
  Q 28.29 17.89 26.94 18.61
  A 0.52 0.51 64.8 0 1 26.21 18.34
  C 25.21 15.83 21.39 16.28 19.04 16.27
  C 16.69 16.27 12.87 15.81 11.86 18.33
  A 0.52 0.51 -64.6 0 1 11.14 18.59
  Q 9.79 17.87 9.58 17.42
  A 1.30 1.08 -17.8 0 1 10.57 15.84
  Q 14.23 15.02 19.04 15.03
  Z"
/>
<path fill="#ccd8ec" d="
  M 24.05 18.18
  A 0.12 0.12 0.0 0 1 24.17 18.30
  L 24.17 18.45
  A 5.03 0.85 0.0 0 1 19.14 19.30
  L 18.86 19.30
  A 5.03 0.85 0.0 0 1 13.83 18.45
  L 13.83 18.30
  A 0.12 0.12 0.0 0 1 13.95 18.18
  L 24.05 18.18
  Z"
/>
<path fill="#ccd8ec" d="
  M 11.43 26.03
  A 0.69 0.69 0.0 0 1 10.10 26.31
  Q 9.01 23.86 9.35 20.17
  A 0.42 0.42 0.0 0 1 9.97 19.83
  L 10.93 20.33
  A 0.94 0.93 -76.4 0 1 11.43 21.16
  L 11.43 26.03
  Z"
/>
<path fill="#ccd8ec" d="
  M 27.08 25.67
  L 26.98 21.18
  A 0.87 0.86 75.2 0 1 27.43 20.40
  L 28.31 19.92
  A 0.39 0.39 0.0 0 1 28.89 20.22
  Q 29.27 23.62 28.31 25.91
  A 0.64 0.64 0.0 0 1 27.08 25.67
  Z"
/>
<path fill="#ccd8ec" d="
  M 19.30 23.75
  Q 17.87 23.77 16.92 23.83
  A 0.76 0.76 0.0 0 0 16.21 24.59
  L 16.21 26.95
  A 0.49 0.48 90.0 0 1 15.73 27.44
  L 14.27 27.44
  A 0.73 0.73 0.0 0 1 13.54 26.71
  L 13.54 21.64
  A 0.64 0.64 0.0 0 1 14.25 21.00
  Q 16.79 21.30 19.27 21.27
  Q 21.76 21.25 24.29 20.90
  A 0.64 0.64 0.0 0 1 25.01 21.53
  L 25.12 26.59
  A 0.73 0.73 0.0 0 1 24.40 27.34
  L 22.94 27.37
  A 0.49 0.48 88.9 0 1 22.45 26.89
  L 22.40 24.53
  A 0.76 0.76 0.0 0 0 21.68 23.79
  Q 20.73 23.74 19.30 23.75
  Z"
/>
<path fill="#ccd8ec" d="
  M 19.94 25.76
  A 0.91 0.88 47.5 0 1 19.89 27.51
  Q 19.37 27.59 18.87 27.51
  A 0.91 0.90 -46.8 0 1 18.83 25.74
  Q 19.38 25.61 19.94 25.76
  Z"
/>
</svg>
