<?xml version='1.0' encoding='utf-8'?>
<svg xmlns="http://www.w3.org/2000/svg" version="1.1" width="20" height="20" viewBox="0 0 20.0 20.0">
<g transform="scale(0.5)"><g stroke-width="2.00" fill="none" stroke-linecap="butt">
<path stroke="#b1b6d3" vector-effect="non-scaling-stroke" d="   M 36.0031 9.2703   A 7.33 7.33 0.0 0 0 28.6603 1.9531   L 9.2803 1.9869   A 7.33 7.33 0.0 0 0 1.9631 9.3297   L 1.9969 28.7097   A 7.33 7.33 0.0 0 0 9.3397 36.0269   L 28.7197 35.9931   A 7.33 7.33 0.0 0 0 36.0369 28.6503   L 36.0031 9.2703" />
<path stroke="#b1b6d3" vector-effect="non-scaling-stroke" d="   M 27.2331 15.0556   A 7.14 7.14 0.0 0 0 20.0806 7.9280   L 17.8206 7.9320   A 7.14 7.14 0.0 0 0 10.6931 15.0844   L 10.7069 22.9844   A 7.14 7.14 0.0 0 0 17.8594 30.1120   L 20.1194 30.1080   A 7.14 7.14 0.0 0 0 27.2469 22.9556   L 27.2331 15.0556" />
<path stroke="#b1b6d3" vector-effect="non-scaling-stroke" d="   M 25.1798 14.1566   A 6.22 4.37 -0.4 0 0 18.9295 9.8301   A 6.22 4.37 -0.4 0 0 12.7402 14.2434   A 6.22 4.37 -0.4 0 0 18.9905 18.5699   A 6.22 4.37 -0.4 0 0 25.1798 14.1566" />
<path stroke="#b1b6d3" vector-effect="non-scaling-stroke" d="   M 18.97 28.20   C 21.22 28.21 23.87 27.25 24.95 25.17   Q 25.30 24.51 25.32 19.15   A 0.33 0.33 0.0 0 0 24.82 18.87   Q 22.16 20.49 18.99 20.48   Q 15.81 20.47 13.16 18.84   A 0.33 0.33 0.0 0 0 12.66 19.12   Q 12.65 24.48 13.00 25.14   C 14.07 27.22 16.72 28.19 18.97 28.20" />
<path stroke="#b1b6d3" vector-effect="non-scaling-stroke" d="   M 15.3700 14.2200   A 3.58 2.89 -180.0 0 0 18.9500 17.1100   A 3.58 2.89 -180.0 0 0 22.5300 14.2200   A 3.58 2.89 -180.0 0 0 18.9500 11.3300   A 3.58 2.89 -180.0 0 0 15.3700 14.2200" />
<path stroke="#b1b6d3" vector-effect="non-scaling-stroke" d="   M 20.5169 14.1327   A 1.55 0.96 -3.6 0 0 18.9097 13.2719   A 1.55 0.96 -3.6 0 0 17.4231 14.3273   A 1.55 0.96 -3.6 0 0 19.0303 15.1881   A 1.55 0.96 -3.6 0 0 20.5169 14.1327" />
</g>
<path fill="#8680ab" d="   M 29.76 0.00   Q 36.62 1.29 38.00 8.15   L 38.00 29.88   Q 36.63 36.60 29.93 38.00   L 8.12 38.00   Q 1.40 36.65 0.00 29.93   L 0.00 8.13   Q 1.36 1.36 8.13 0.00   L 29.76 0.00   Z   M 36.0031 9.2703   A 7.33 7.33 0.0 0 0 28.6603 1.9531   L 9.2803 1.9869   A 7.33 7.33 0.0 0 0 1.9631 9.3297   L 1.9969 28.7097   A 7.33 7.33 0.0 0 0 9.3397 36.0269   L 28.7197 35.9931   A 7.33 7.33 0.0 0 0 36.0369 28.6503   L 36.0031 9.2703   Z" />
<path fill="#dcebfa" d="   M 36.0369 28.6503   A 7.33 7.33 0.0 0 1 28.7197 35.9931   L 9.3397 36.0269   A 7.33 7.33 0.0 0 1 1.9969 28.7097   L 1.9631 9.3297   A 7.33 7.33 0.0 0 1 9.2803 1.9869   L 28.6603 1.9531   A 7.33 7.33 0.0 0 1 36.0031 9.2703   L 36.0369 28.6503   Z   M 27.2331 15.0556   A 7.14 7.14 0.0 0 0 20.0806 7.9280   L 17.8206 7.9320   A 7.14 7.14 0.0 0 0 10.6931 15.0844   L 10.7069 22.9844   A 7.14 7.14 0.0 0 0 17.8594 30.1120   L 20.1194 30.1080   A 7.14 7.14 0.0 0 0 27.2469 22.9556   L 27.2331 15.0556   Z" />
<path fill="#8680ab" d="   M 27.2469 22.9556   A 7.14 7.14 0.0 0 1 20.1194 30.1080   L 17.8594 30.1120   A 7.14 7.14 0.0 0 1 10.7069 22.9844   L 10.6931 15.0844   A 7.14 7.14 0.0 0 1 17.8206 7.9320   L 20.0806 7.9280   A 7.14 7.14 0.0 0 1 27.2331 15.0556   L 27.2469 22.9556   Z   M 25.1798 14.1566   A 6.22 4.37 -0.4 0 0 18.9295 9.8301   A 6.22 4.37 -0.4 0 0 12.7402 14.2434   A 6.22 4.37 -0.4 0 0 18.9905 18.5699   A 6.22 4.37 -0.4 0 0 25.1798 14.1566   Z   M 18.97 28.20   C 21.22 28.21 23.87 27.25 24.95 25.17   Q 25.30 24.51 25.32 19.15   A 0.33 0.33 0.0 0 0 24.82 18.87   Q 22.16 20.49 18.99 20.48   Q 15.81 20.47 13.16 18.84   A 0.33 0.33 0.0 0 0 12.66 19.12   Q 12.65 24.48 13.00 25.14   C 14.07 27.22 16.72 28.19 18.97 28.20   Z" />
<path fill="#dcebfa" d="   M 25.1798 14.1566   A 6.22 4.37 -0.4 0 1 18.9905 18.5699   A 6.22 4.37 -0.4 0 1 12.7402 14.2434   A 6.22 4.37 -0.4 0 1 18.9295 9.8301   A 6.22 4.37 -0.4 0 1 25.1798 14.1566   Z   M 15.3700 14.2200   A 3.58 2.89 -180.0 0 0 18.9500 17.1100   A 3.58 2.89 -180.0 0 0 22.5300 14.2200   A 3.58 2.89 -180.0 0 0 18.9500 11.3300   A 3.58 2.89 -180.0 0 0 15.3700 14.2200   Z" />
<path fill="#8680ab" d="   M 15.3700 14.2200   A 3.58 2.89 -180.0 0 1 18.9500 11.3300   A 3.58 2.89 -180.0 0 1 22.5300 14.2200   A 3.58 2.89 -180.0 0 1 18.9500 17.1100   A 3.58 2.89 -180.0 0 1 15.3700 14.2200   Z   M 20.5169 14.1327   A 1.55 0.96 -3.6 0 0 18.9097 13.2719   A 1.55 0.96 -3.6 0 0 17.4231 14.3273   A 1.55 0.96 -3.6 0 0 19.0303 15.1881   A 1.55 0.96 -3.6 0 0 20.5169 14.1327   Z" />
<ellipse fill="#dcebfa" cx="0.00" cy="0.00" transform="translate(18.97,14.23) rotate(-3.6)" rx="1.55" ry="0.96" />
<path fill="#dcebfa" d="   M 18.99 20.48   Q 22.16 20.49 24.82 18.87   A 0.33 0.33 0.0 0 1 25.32 19.15   Q 25.30 24.51 24.95 25.17   C 23.87 27.25 21.22 28.21 18.97 28.20   C 16.72 28.19 14.07 27.22 13.00 25.14   Q 12.65 24.48 12.66 19.12   A 0.33 0.33 0.0 0 1 13.16 18.84   Q 15.81 20.47 18.99 20.48   Z" />
</g></svg>