<?xml version='1.0' encoding='utf-8'?>
<svg xmlns="http://www.w3.org/2000/svg" version="1.1" width="20" height="20" viewBox="0 0 20.0 20.0">
<g transform="scale(0.5)"><path stroke="#dddddd" stroke-width="2.00" fill="none" stroke-linecap="butt" vector-effect="non-scaling-stroke" d="   M 15.97 10.03   A 5.96 5.96 0.0 0 0 10.01 4.07   A 5.96 5.96 0.0 0 0 4.05 10.03   A 5.96 5.96 0.0 0 0 10.01 15.99   A 5.96 5.96 0.0 0 0 15.97 10.03" />
<path fill="#c0c0c0" d="   M 10.92 0.00   Q 18.48 1.44 20.00 9.00   L 20.00 10.91   Q 19.02 16.48 14.18 19.03   A 3.29 3.25 24.3 0 1 13.29 19.36   Q 2.77 21.74 0.00 10.96   L 0.00 9.12   Q 1.41 1.45 9.11 0.00   L 10.92 0.00   Z   M 15.97 10.03   A 5.96 5.96 0.0 0 0 10.01 4.07   A 5.96 5.96 0.0 0 0 4.05 10.03   A 5.96 5.96 0.0 0 0 10.01 15.99   A 5.96 5.96 0.0 0 0 15.97 10.03   Z" />
<circle fill="#fafafa" cx="10.01" cy="10.03" r="5.96" />
</g></svg>