<?xml version='1.0' encoding='utf-8'?>
<svg xmlns="http://www.w3.org/2000/svg" width="20" height="20" viewBox="0 0 20.0 20.0">
	<g transform="scale(1.0)"><path fill="white" d="M11 19.5L11 19.5Q10.8679 19.5 10.737 19.4826Q10.606 19.4653 10.4785 19.4308Q10.3509 19.3964 10.2291 19.3454Q10.1072 19.2945 9.99304 19.228Q9.8789 19.1615 9.77451 19.0806Q9.67011 18.9996 9.57727 18.9056Q9.48443 18.8117 9.40476 18.7063Q9.32508 18.601 9.25996 18.486L0.759956 3.48603Q0.632161 3.26051 0.566081 3.00986Q0.5 2.75921 0.5 2.5L0.5 2.5Q0.5 2.40175 0.509631 2.30397Q0.519261 2.20618 0.538429 2.10982Q0.557598 2.01345 0.586119 1.91943Q0.614641 1.82541 0.652241 1.73463Q0.689841 1.64386 0.736157 1.55721Q0.782474 1.47055 0.837061 1.38886Q0.891648 1.30716 0.953979 1.23121Q1.01631 1.15526 1.08579 1.08579Q1.15526 1.01631 1.23121 0.953979Q1.30716 0.891648 1.38886 0.837061Q1.47055 0.782474 1.55721 0.736157Q1.64386 0.689841 1.73463 0.652241Q1.82541 0.614641 1.91943 0.586119Q2.01345 0.557598 2.10982 0.538429Q2.20618 0.519261 2.30397 0.509631Q2.40175 0.5 2.5 0.5L19.5 0.5Q19.5983 0.5 19.696 0.509631Q19.7938 0.519261 19.8902 0.538429Q19.9865 0.557598 20.0806 0.586119Q20.1746 0.614641 20.2654 0.652241Q20.3561 0.689841 20.4428 0.736157Q20.5294 0.782474 20.6111 0.837061Q20.6928 0.891648 20.7688 0.953979Q20.8447 1.01631 20.9142 1.08579Q20.9837 1.15526 21.046 1.23121Q21.1084 1.30716 21.1629 1.38886Q21.2175 1.47055 21.2638 1.55721Q21.3102 1.64386 21.3478 1.73463Q21.3854 1.82541 21.4139 1.91943Q21.4424 2.01345 21.4616 2.10982Q21.4807 2.20618 21.4904 2.30397Q21.5 2.40175 21.5 2.5L21.5 2.5Q21.5 2.75921 21.4339 3.00986Q21.3678 3.26051 21.24 3.48603L12.74 18.486Q12.6749 18.601 12.5952 18.7063Q12.5156 18.8117 12.4227 18.9056Q12.3299 18.9996 12.2255 19.0806Q12.1211 19.1615 12.007 19.228Q11.8928 19.2945 11.7709 19.3454Q11.6491 19.3964 11.5215 19.4308Q11.394 19.4653 11.263 19.4826Q11.1321 19.5 11 19.5Z" />
	<path fill="none" stroke="black" stroke-width="1" stroke-miterlimit="10" d="M11 19.5L11 19.5Q10.8679 19.5 10.737 19.4826Q10.606 19.4653 10.4785 19.4308Q10.3509 19.3964 10.2291 19.3454Q10.1072 19.2945 9.99304 19.228Q9.8789 19.1615 9.77451 19.0806Q9.67011 18.9996 9.57727 18.9056Q9.48443 18.8117 9.40476 18.7063Q9.32508 18.601 9.25996 18.486L0.759956 3.48603Q0.632161 3.26051 0.566081 3.00986Q0.5 2.75921 0.5 2.5L0.5 2.5Q0.5 2.40175 0.509631 2.30397Q0.519261 2.20618 0.538429 2.10982Q0.557598 2.01345 0.586119 1.91943Q0.614641 1.82541 0.652241 1.73463Q0.689841 1.64386 0.736157 1.55721Q0.782474 1.47055 0.837061 1.38886Q0.891648 1.30716 0.953979 1.23121Q1.01631 1.15526 1.08579 1.08579Q1.15526 1.01631 1.23121 0.953979Q1.30716 0.891648 1.38886 0.837061Q1.47055 0.782474 1.55721 0.736157Q1.64386 0.689841 1.73463 0.652241Q1.82541 0.614641 1.91943 0.586119Q2.01345 0.557598 2.10982 0.538429Q2.20618 0.519261 2.30397 0.509631Q2.40175 0.5 2.5 0.5L19.5 0.5Q19.5983 0.5 19.696 0.509631Q19.7938 0.519261 19.8902 0.538429Q19.9865 0.557598 20.0806 0.586119Q20.1746 0.614641 20.2654 0.652241Q20.3561 0.689841 20.4428 0.736157Q20.5294 0.782474 20.6111 0.837061Q20.6928 0.891648 20.7688 0.953979Q20.8447 1.01631 20.9142 1.08579Q20.9837 1.15526 21.046 1.23121Q21.1084 1.30716 21.1629 1.38886Q21.2175 1.47055 21.2638 1.55721Q21.3102 1.64386 21.3478 1.73463Q21.3854 1.82541 21.4139 1.91943Q21.4424 2.01345 21.4616 2.10982Q21.4807 2.20618 21.4904 2.30397Q21.5 2.40175 21.5 2.5L21.5 2.5Q21.5 2.75921 21.4339 3.00986Q21.3678 3.26051 21.24 3.48603L12.74 18.486Q12.6749 18.601 12.5952 18.7063Q12.5156 18.8117 12.4227 18.9056Q12.3299 18.9996 12.2255 19.0806Q12.1211 19.1615 12.007 19.228Q11.8928 19.2945 11.7709 19.3454Q11.6491 19.3964 11.5215 19.4308Q11.394 19.4653 11.263 19.4826Q11.1321 19.5 11 19.5Z" />
</g></svg>