<?xml version="1.0" encoding="utf-8"?>
<!-- Generator: Adobe Illustrator 12.0.0, SVG Export Plug-In . SVG Version: 6.00 Build 51448)  -->
<!DOCTYPE svg PUBLIC "-//W3C//DTD SVG 1.1//EN" "http://www.w3.org/Graphics/SVG/1.1/DTD/svg11.dtd" [
	<!ENTITY ns_svg "http://www.w3.org/2000/svg">
	<!ENTITY ns_xlink "http://www.w3.org/1999/xlink">
]>
<svg  version="1.1" id="Layer_1" xmlns="&ns_svg;" xmlns:xlink="&ns_xlink;" width="449" height="401" viewBox="0 0 449 401"
	 overflow="visible" enable-background="new 0 0 449 401" xml:space="preserve">
<g>
	<g>
		<path fill-rule="evenodd" clip-rule="evenodd" fill="#FFFFFF" d="M0.5,256.2792969
			C0.5,125.3139648,98.078125,17.1420898,224.5,0.5c126.421875,16.6420898,224,124.8139648,224,255.7792969v66.1816406
			c0,29.9960938-21.3007813,55.0166016-49.6025391,60.7607422l-0.1738281,0.0351563l-0.1728516,0.0341797L398.375,383.3261719
			l-0.1835938,0.0371094l-0.1835938,0.0351563l-0.1816406,0.0351563l-0.1845703,0.0351563
			C341.5732422,394.6425781,283.7070313,400.5,224.5,400.5s-117.0732422-5.8574219-173.1416016-17.03125l-0.184082-0.0351563
			l-0.1821289-0.0351563l-0.1831055-0.0351563l-0.1845703-0.0371094l-0.1748047-0.0351563l-0.1733398-0.0341797
			l-0.1738281-0.0351563C21.8012695,377.4775391,0.5,352.4570313,0.5,322.4609375C0.5,288.21875,0.5,387.2460938,0.5,256.2792969z"
			/>
		
			<path fill-rule="evenodd" clip-rule="evenodd" fill="none" stroke="#000000" stroke-linecap="round" stroke-linejoin="round" stroke-miterlimit="3.863693" d="
			M0.5,256.2792969C0.5,125.3139648,98.078125,17.1420898,224.5,0.5c126.421875,16.6420898,224,124.8139648,224,255.7792969
			v66.1816406c0,29.9960938-21.3007813,55.0166016-49.6025391,60.7607422l-0.1738281,0.0351563l-0.1728516,0.0341797
			L398.375,383.3261719l-0.1835938,0.0371094l-0.1835938,0.0351563l-0.1816406,0.0351563l-0.1845703,0.0351563
			C341.5732422,394.6425781,283.7070313,400.5,224.5,400.5s-117.0732422-5.8574219-173.1416016-17.03125l-0.184082-0.0351563
			l-0.1821289-0.0351563l-0.1831055-0.0351563l-0.1845703-0.0371094l-0.1748047-0.0351563l-0.1733398-0.0341797
			l-0.1738281-0.0351563C21.8012695,377.4775391,0.5,352.4570313,0.5,322.4609375C0.5,288.21875,0.5,387.2460938,0.5,256.2792969z"
			/>
	</g>
	<g>
		<path fill-rule="evenodd" clip-rule="evenodd" fill="#006B54" d="M224.5,12.6088867
			c119.7685547,16.5498047,212,119.347168,212,243.6704102v66.1816406c0,24.1767578-17.1708984,44.3691406-39.9892578,49
			C341.2021484,382.484375,282.9042969,388.5,224.5,388.5c-58.4047852,0-115.5307617-5.7851563-170.8398438-16.8076172
			C30.8505859,367.0546875,12.5,346.6328125,12.5,322.4609375v-66.1816406
			C12.5,131.9560547,104.7314453,29.1586914,224.5,12.6088867z"/>
	</g>
	<g>
		<g>
			<g>
				<path fill-rule="evenodd" clip-rule="evenodd" fill="#FFFFFF" d="M112.5419922,142.7749023
					c-0.1728516,1.1967773-0.5283203,2.3354492-1.0673828,3.4150391c-0.5385742,1.0795898-1.199707,2.0629883-1.9833984,2.9506836
					c-0.7832031,0.887207-1.6914063,1.671875-2.7250977,2.3525391s-2.1313477,1.2216797-3.2944336,1.621582
					c-1.9179688,0.6606445-3.7651367,0.890625-5.5415039,0.6894531c-1.7758789-0.2011719-3.4291992-0.7783203-4.9604492-1.7304688
					c-1.5302734-0.9521484-2.9018555-2.2680664-4.1142578-3.9472656c-1.2124023-1.6796875-2.2089844-3.652832-2.9892578-5.9199219
					c-0.7910156-2.2963867-1.2226563-4.472168-1.296875-6.527832c-0.0732422-2.0546875,0.2021484-3.921875,0.8271484-5.6000977
					s1.578125-3.1357422,2.8588867-4.3730469c1.2807617-1.237793,2.8803711-2.1870117,4.7983398-2.847168
					c2.3544922-0.8105469,4.734375-1.0043945,7.1396484-0.5810547c2.4052734,0.4238281,4.5297852,1.472168,6.3740234,3.1455078
					l-3.765625,4.0761719c-0.6171875-0.4702148-1.1137695-0.8032227-1.4902344-0.9985352
					c-0.3759766-0.1958008-0.8125-0.3544922-1.3095703-0.4755859c-0.7412109-0.2651367-1.5883789-0.3881836-2.5410156-0.3686523
					c-0.9521484,0.0185547-1.8208008,0.1635742-2.6054688,0.4335938c-1.3369141,0.4604492-2.3535156,1.1435547-3.0493164,2.0498047
					s-1.159668,1.9189453-1.3920898,3.0390625c-0.2319336,1.1206055-0.2666016,2.2949219-0.1035156,3.5229492
					c0.1625977,1.2280273,0.4394531,2.4091797,0.8295898,3.5419922c1.1005859,3.1977539,2.5786133,5.4604492,4.434082,6.7880859
					c1.8554688,1.3286133,3.887207,1.6123047,6.0961914,0.8515625c0.668457-0.2299805,1.2490234-0.503418,1.7416992-0.8188477
					c0.4926758-0.315918,0.9462891-0.699707,1.359375-1.1508789c0.4135742-0.4511719,0.7998047-1.0068359,1.1572266-1.6665039
					c0.3583984-0.659668,0.7368164-1.4487305,1.1362305-2.3662109L112.5419922,142.7749023z"/>
			</g>
			<g>
				<path fill-rule="evenodd" clip-rule="evenodd" fill="#FFFFFF" d="M143.4667969,141.0424805l-4.7148438-6.3325195
					L125.6875,137.9672852l-1.1455078,7.793457l-5.9052734,1.4726563l5.1425781-33.1210938l5.4580078-1.3608398
					l20.0009766,26.8520508L143.4667969,141.0424805z M128.3710938,120.9033203l-1.6845703,11.159668l8.4111328-2.097168
					L128.3710938,120.9033203z"/>
			</g>
			<g>
				<polygon fill-rule="evenodd" clip-rule="evenodd" fill="#FFFFFF" points="154.5019531,138.9711914 149.6689453,108.4584961 
					155.1342773,107.5927734 159.2241211,133.4150391 176.5751953,130.6669922 177.3183594,135.3574219 				"/>
			</g>
			<g>
				
					<rect x="167.9563599" y="116.373909" transform="matrix(0.1218888 0.9925438 -0.9925438 0.1218888 279.3007813 -77.4171143)" fill-rule="evenodd" clip-rule="evenodd" fill="#FFFFFF" width="30.8939266" height="5.5334282"/>
			</g>
			<g>
				<polygon fill-rule="evenodd" clip-rule="evenodd" fill="#FFFFFF" points="200.7358398,107.8081055 200.9550781,114.0751953 
					210.5859375,113.7392578 210.7822266,119.3608398 201.1513672,119.6972656 201.6210938,133.152832 195.9990234,133.3491211 
					194.9208984,102.4746094 218.0078125,101.668457 218.2006836,107.1982422 				"/>
			</g>
			<g>
				<path fill-rule="evenodd" clip-rule="evenodd" fill="#FFFFFF" d="M249.8154297,117.4848633
					c-0.0849609,2.4267578-0.4609375,4.6206055-1.1289063,6.5810547c-0.6689453,1.9604492-1.5800781,3.6279297-2.7353516,5.0029297
					c-1.1552734,1.3745117-2.5380859,2.4257813-4.1474609,3.1538086s-3.3974609,1.0581055-5.3632813,0.9892578
					c-2.2734375-0.0795898-4.2158203-0.6162109-5.8261719-1.6103516c-1.6113281-0.9946289-2.9277344-2.2709961-3.9501953-3.8291016
					c-1.0214844-1.5585938-1.7529297-3.3066406-2.1923828-5.2441406c-0.4399414-1.9375-0.6259766-3.8745117-0.5585938-5.8095703
					c0.0859375-2.4580078,0.4628906-4.6591797,1.1298828-6.6044922c0.6679688-1.9453125,1.5947266-3.5893555,2.7792969-4.9321289
					c1.1855469-1.3422852,2.5966797-2.3544922,4.2353516-3.0356445c1.6386719-0.6806641,3.4716797-0.9858398,5.4990234-0.9150391
					c1.9052734,0.0664063,3.6269531,0.5112305,5.1679688,1.3339844c1.5390625,0.8227539,2.8535156,1.9448242,3.9414063,3.3671875
					c1.0888672,1.421875,1.90625,3.1191406,2.4521484,5.0913086
					C249.6650391,112.996582,249.8974609,115.1499023,249.8154297,117.4848633z M244.28125,117.4296875
					c0.1132813-3.2563477-0.4277344-5.828125-1.6220703-7.715332c-1.1953125-1.8876953-2.9599609-2.871582-5.2958984-2.953125
					c-2.3339844-0.081543-4.1943359,0.7763672-5.5800781,2.5732422c-1.3847656,1.7973633-2.1347656,4.3242188-2.2480469,7.5805664
					c-0.1162109,3.3178711,0.4541016,5.9213867,1.7109375,7.8105469c1.2568359,1.8896484,3.0527344,2.875,5.3867188,2.956543
					c1.4746094,0.0512695,2.6923828-0.2290039,3.6513672-0.8413086c0.9599609-0.6123047,1.7255859-1.4160156,2.2988281-2.4111328
					s0.9892578-2.1108398,1.2470703-3.3476563C244.0888672,119.8452148,244.2392578,118.6279297,244.28125,117.4296875z"/>
			</g>
			<g>
				<path fill-rule="evenodd" clip-rule="evenodd" fill="#FFFFFF" d="M275.046875,136.0166016l-3.4648438-12.6435547
					l-8.1914063-1.0058594l-1.4785156,12.0366211l-5.4912109-0.6743164l3.7646484-30.6635742l14.0957031,1.730957
					c1.1289063,0.1386719,2.0791016,0.3481445,2.8496094,0.628418c0.7714844,0.2807617,1.5234375,0.7138672,2.2568359,1.2993164
					c1.3662109,0.9731445,2.3896484,2.2290039,3.0673828,3.7680664c0.6787109,1.5385742,0.9111328,3.1777344,0.6972656,4.9169922
					c-0.2128906,1.7387695-0.8417969,3.2646484-1.8857422,4.5766602c-1.0439453,1.3115234-2.4111328,2.2973633-4.1025391,2.9570313
					l4.015625,13.8261719L275.046875,136.0166016z M277.6601563,114.7353516
					c0.1464844-1.1899414-0.1337891-2.1845703-0.8417969-2.9838867c-0.7070313-0.7988281-1.7460938-1.2827148-3.1191406-1.4516602
					l-8.6962891-1.0673828L264.0644531,116.875l8.6953125,1.0678711c1.3730469,0.168457,2.4990234-0.0415039,3.3769531-0.6308594
					C277.0136719,116.7226563,277.5214844,115.8637695,277.6601563,114.7353516z"/>
			</g>
			<g>
				<polygon fill-rule="evenodd" clip-rule="evenodd" fill="#FFFFFF" points="307.1210938,141.5161133 296.7382813,117.84375 
					292.6816406,138.7094727 287.3408203,137.6713867 293.2363281,107.3457031 298.5761719,108.3837891 308.5839844,131.0908203 
					312.4726563,111.0849609 317.7226563,112.1054688 311.828125,142.4311523 				"/>
			</g>
			<g>
				
					<rect x="310.7524414" y="127.6437454" transform="matrix(-0.2588272 0.9659237 -0.9659237 -0.2588272 536.5944824 -150.9200134)" fill-rule="evenodd" clip-rule="evenodd" fill="#FFFFFF" width="30.8935604" height="5.5323286"/>
			</g>
			<g>
				<path fill-rule="evenodd" clip-rule="evenodd" fill="#FFFFFF" d="M354.2402344,155.2314453l-0.6435547-7.8691406
					l-12.8046875-4.1606445l-5.1015625,6.0019531l-5.7890625-1.8803711l21.9130859-25.362793l5.3505859,1.7382813
					l2.7314453,33.3706055L354.2402344,155.2314453z M352.1103516,130.152832l-7.3427734,8.5708008l8.2441406,2.6791992
					L352.1103516,130.152832z"/>
			</g>
		</g>
	</g>
</g>
</svg>
